<svg xmlns="http://www.w3.org/2000/svg" width="18" height="18" viewBox="0 0 18 18">
  <g fill="none" fill-rule="evenodd" transform="translate(-3 -3)">
    <rect width="24" height="24"/>
    <path fill="#222" fill-rule="nonzero" d="M19,3 C20.1,3 21,3.9 21,5 L21,19 C21,20.1 20.1,21 19,21 L5,21 C3.9,21 3,20.1 3,19 L3,5 C3,3.9 3.9,3 5,3 L19,3 Z M15.151,21 L15.151,14 L17.491,14 L17.841,11.313 L15.151,11.313 L15.151,9.578 C15.151,8.792 15.369,8.256 16.497,8.256 L18,8.255 L18,5.826 C17.751,5.793 16.833,5.719 15.84,5.719 C13.766,5.719 12.346,6.985 12.346,9.309 L12.346,11.313 L10,11.313 L10,14 L12.346,14 L12.346,21 L15.151,21 Z"/>
  </g>
</svg>
