<svg xmlns="http://www.w3.org/2000/svg" width="24" height="24" viewBox="0 0 24 24">
  <g fill="none" fill-rule="evenodd">
    <rect width="24" height="24" fill="#FFF"/>
    <path fill="#222" fill-rule="nonzero" d="M12,3 C14.444,3 14.751,3.01 15.711,3.054 C16.669,3.098 17.323,3.25 17.895,3.472 C18.487,3.702 18.989,4.01 19.489,4.511 C19.99,5.011 20.298,5.513 20.528,6.105 C20.75,6.677 20.902,7.331 20.946,8.289 C20.99,9.249 21,9.556 21,12 C21,14.444 20.99,14.751 20.946,15.711 C20.902,16.669 20.75,17.323 20.528,17.895 C20.298,18.487 19.99,18.989 19.489,19.489 C18.989,19.99 18.487,20.298 17.895,20.528 C17.323,20.75 16.669,20.902 15.711,20.946 C14.751,20.99 14.444,21 12,21 C9.556,21 9.249,20.99 8.289,20.946 C7.331,20.902 6.677,20.75 6.105,20.528 C5.513,20.298 5.011,19.99 4.511,19.489 C4.01,18.989 3.702,18.487 3.472,17.895 C3.25,17.323 3.098,16.669 3.054,15.711 C3.01,14.751 3,14.444 3,12 C3,9.556 3.01,9.249 3.054,8.289 C3.098,7.331 3.25,6.677 3.472,6.105 C3.702,5.513 4.01,5.011 4.511,4.511 C5.011,4.01 5.513,3.702 6.105,3.472 C6.677,3.25 7.331,3.098 8.289,3.054 C9.249,3.01 9.556,3 12,3 Z M12,4.622 C9.597,4.622 9.312,4.631 8.363,4.674 C7.486,4.714 7.009,4.861 6.692,4.984 C6.272,5.147 5.972,5.342 5.657,5.657 C5.342,5.972 5.147,6.272 4.984,6.692 C4.861,7.009 4.714,7.486 4.674,8.363 C4.631,9.312 4.622,9.597 4.622,12 C4.622,14.403 4.631,14.688 4.674,15.637 C4.714,16.514 4.861,16.991 4.984,17.308 C5.147,17.728 5.342,18.028 5.657,18.343 C5.972,18.658 6.272,18.853 6.692,19.016 C7.009,19.139 7.486,19.286 8.363,19.326 C9.312,19.369 9.597,19.378 12,19.378 C14.403,19.378 14.688,19.369 15.637,19.326 C16.514,19.286 16.991,19.139 17.308,19.016 C17.728,18.853 18.028,18.658 18.343,18.343 C18.658,18.028 18.853,17.728 19.016,17.308 C19.139,16.991 19.286,16.514 19.326,15.637 C19.369,14.688 19.378,14.403 19.378,12 C19.378,9.597 19.369,9.312 19.326,8.363 C19.286,7.486 19.139,7.009 19.016,6.692 C18.853,6.272 18.658,5.972 18.343,5.657 C18.028,5.342 17.728,5.147 17.308,4.984 C16.991,4.861 16.514,4.714 15.637,4.674 C14.688,4.631 14.403,4.622 12,4.622 Z"/>
    <path fill="#222" fill-rule="nonzero" d="M12 7.378C14.552 7.378 16.622 9.448 16.622 12 16.622 14.552 14.552 16.622 12 16.622 9.448 16.622 7.378 14.552 7.378 12 7.378 9.448 9.448 7.378 12 7.378zM12 15C13.657 15 15 13.657 15 12 15 10.343 13.657 9 12 9 10.343 9 9 10.343 9 12 9 13.657 10.343 15 12 15zM17.8842 7.1958C17.8842 7.7918 17.4002 8.2758 16.8042 8.2758 16.2082 8.2758 15.7242 7.7918 15.7242 7.1958 15.7242 6.5998 16.2082 6.1158 16.8042 6.1158 17.4002 6.1158 17.8842 6.5998 17.8842 7.1958"/>
  </g>
</svg>
