<svg xmlns="http://www.w3.org/2000/svg" width="20" height="20" viewBox="0 0 20 20">
  <g fill="none" fill-rule="evenodd" transform="translate(-2 -2)">
    <rect width="24" height="24"/>
    <path fill="#222" fill-rule="nonzero" d="M21.8994444,11.9494444 C21.8994444,17.445 17.445,21.8988889 11.95,21.8988889 C6.45555556,21.8988889 2,17.445 2,11.9494444 C2,6.455 6.45555556,2 11.95,2 C17.445,2 21.8994444,6.455 21.8994444,11.9494444 Z M15.3494444,13.9816667 C15.3494444,13.3938889 15.1516667,12.8866667 14.7577778,12.465 C14.3627778,12.0422222 13.8327778,11.7677778 13.165,11.6405556 C14.0938889,11.2527778 14.5577778,10.6088889 14.5577778,9.71166667 C14.5577778,9.245 14.4466667,8.83444444 14.2244444,8.47833333 C14.0022222,8.12388889 13.6794444,7.84444444 13.2566667,7.64166667 C12.8338889,7.43944444 12.2455556,7.33777778 11.4911111,7.33777778 L9.09722222,7.33777778 L9.09722222,16.4727778 L12.1911111,16.4727778 C12.8883333,16.4727778 13.4688889,16.3577778 13.9333333,16.1266667 C14.3972222,15.8955556 14.75,15.5966667 14.99,15.2305556 C15.2288889,14.8644444 15.3494444,14.4483333 15.3494444,13.9816667 Z M13.7633333,14.6222222 C13.9183333,14.3866667 13.9955556,14.1344444 13.9955556,13.8633333 C13.9955556,13.5844444 13.9138889,13.33 13.75,13.0988889 C13.5872222,12.8677778 13.355,12.6961111 13.0533333,12.5822222 C12.7533333,12.4683333 12.2777778,12.4127778 11.6283333,12.4127778 L10.405,12.4127778 L10.405,15.3088889 L11.6933333,15.3088889 C12.4083333,15.3088889 12.8938889,15.2538889 13.1483333,15.1422222 C13.4038889,15.0311111 13.6083333,14.8577778 13.7633333,14.6222222 M12.7633333,10.8488889 C13.0572222,10.5833333 13.2044444,10.2383333 13.2044444,9.81666667 C13.2044444,8.93944444 12.6461111,8.50222222 11.53,8.50222222 L10.405,8.50222222 L10.405,11.2483333 L11.2744444,11.2483333 C11.9722222,11.2483333 12.4688889,11.1155556 12.7633333,10.8488889"/>
  </g>
</svg>
