<svg xmlns="http://www.w3.org/2000/svg" width="18" height="18" viewBox="0 0 18 18">
  <g fill="none" fill-rule="evenodd" transform="translate(-3 -3)">
    <rect width="24" height="24"/>
    <path fill="#222" fill-rule="nonzero" d="M19.668,3 C20.402,3 21.001,3.581 21.001,4.297 L21.001,19.701 C21.001,20.418 20.402,21 19.668,21 L4.329,21 C3.595,21 3,20.418 3,19.701 L3,4.297 C3,3.581 3.595,3 4.329,3 L19.668,3 Z M7.2679,9.0013 C8.0959,9.0013 8.7679,8.3293 8.7679,7.5003 C8.7679,6.6723 8.0959,6.0003 7.2679,6.0003 C6.4389,6.0003 5.7679,6.6723 5.7679,7.5003 C5.7679,8.3293 6.4389,9.0013 7.2679,9.0013 Z M6.003,18 L8.533,18 L8.533,10 L6.003,10 L6.003,18 Z M18.0033,18 L18.0033,13.643 C18.0033,11.452 17.5303,9.767 14.9713,9.767 C13.7423,9.767 12.9163,10.442 12.5793,11.081 L12.5443,11.081 L12.5443,10 L10.1193,10 L10.1193,18 L12.6463,18 L12.6463,14.081 C12.6463,13.02 12.8473,11.992 14.1633,11.992 C15.4593,11.992 15.4773,13.206 15.4773,14.149 L15.4773,18 L18.0033,18 Z"/>
  </g>
</svg>
