<svg xmlns="http://www.w3.org/2000/svg" width="20" height="20" viewBox="0 0 20 20">
  <g fill="none" fill-rule="evenodd" transform="translate(-2 -2)">
    <rect width="24" height="24"/>
    <path fill="#222" fill-rule="nonzero" d="M12,2 C7.26922718,2.00556663 3.18960578,5.32543566 2.22281358,9.95637027 C1.25602139,14.5873049 3.66660582,19.2621229 8,21.16 C7.95446667,20.3891872 8.01163436,19.615742 8.17,18.86 L9.46,13.41 C9.242739,12.9119083 9.13366919,12.3733761 9.14,11.83 C9.14,10.35 10,9.24 11.07,9.24 C11.4566661,9.23434259 11.8269243,9.39600643 12.0856179,9.68344385 C12.3443116,9.97088127 12.4662154,10.356064 12.42,10.74 C12.2278425,11.946142 11.9334482,13.1337554 11.54,14.29 C11.4187415,14.7669029 11.5311359,15.2730517 11.8428453,15.6538106 C12.1545546,16.0345695 12.628543,16.2446984 13.12,16.22 C15.02,16.22 16.29,13.79 16.29,10.9 C16.29,8.71 14.81,7.07 12.13,7.07 C10.8324556,7.01771821 9.57048569,7.50120313 8.64002843,8.40707513 C7.70957117,9.31294714 7.19247444,10.561521 7.21,11.86 C7.16960795,12.5860834 7.40538788,13.300568 7.87,13.86 C8.03333172,13.9964533 8.08990293,14.2227381 8.01,14.42 L7.81,15.22 C7.79420394,15.3304223 7.72524908,15.4260728 7.62547895,15.4759579 C7.52570883,15.525843 7.40781547,15.5236165 7.31,15.47 C5.91,14.9 5.31,13.37 5.31,11.65 C5.31,8.81 7.71,5.4 12.46,5.4 C16.28,5.4 18.79,8.16 18.79,11.13 C18.79,15.05 16.61,17.98 13.39,17.98 C12.4173687,18.0038448 11.4988841,17.5333097 10.95,16.73 C10.4011159,15.9266903 10.37,19.03 10.25,19.48 C10.0187533,20.2367302 9.682116,20.9571339 9.25,21.62 C13.0034861,22.685343 17.0338222,21.4702929 19.5730281,18.5078536 C22.1122341,15.5454143 22.6965401,11.3766565 21.0696297,7.83028141 C19.4427194,4.28390634 15.9017374,2.0076369 12,2 L12,2 Z"/>
  </g>
</svg>
