<svg xmlns="http://www.w3.org/2000/svg" width="22" height="20" viewBox="0 0 22 20">
  <g fill="none" fill-rule="evenodd" transform="translate(-1 -2)">
    <rect width="24" height="24"/>
    <path fill="#222" fill-rule="nonzero" d="M22.2695822,17.0232 C19.3764086,16.5463734 18.0749622,13.5777185 18.0209372,13.4518179 C18.0178636,13.4446067 18.0145535,13.4373955 18.011007,13.4303616 C17.8565571,13.1171467 17.8223334,12.8550606 17.9087497,12.6511961 C18.0756124,12.2578304 18.6908706,12.0625366 19.0980085,11.9334441 C19.2119102,11.8973289 19.3189553,11.8632234 19.4069676,11.8285268 C20.1282661,11.543684 20.490127,11.193822 20.4824429,10.7887529 C20.4762366,10.4705729 20.2283955,10.1867349 19.834557,10.0460572 L19.8333748,10.0456434 C19.7009131,9.99067271 19.5436259,9.9606457 19.3896488,9.9606457 C19.2843179,9.9606457 19.1281538,9.97500901 18.9822154,10.04322 C18.63921,10.2039945 18.3309011,10.2913566 18.065032,10.3032965 C17.8887711,10.2950804 17.7734508,10.250631 17.7076633,10.2143976 C17.7159975,10.067809 17.7253958,9.91684645 17.735326,9.75914553 L17.7390498,9.69790934 C17.8302539,8.2520614 17.9435054,6.45250944 17.4709937,5.39311152 C16.0668762,2.24488566 13.0856312,2 12.2053314,2 L12.2044448,2 C12.1861213,2 12.1688616,2 12.1524295,2.00035465 C12.1524295,2.00035465 11.8113747,2.00372382 11.7843031,2.00372382 C10.9064858,2.00372382 7.93156548,2.24831394 6.52797997,5.39506209 C6.05594115,6.45369161 6.16907442,8.25176586 6.25986476,9.69654985 C6.27056336,9.86695906 6.28191215,10.043752 6.29160591,10.2146931 C6.21902093,10.2548868 6.08638192,10.3048924 5.87767054,10.3048924 C5.59909316,10.3048924 5.26980086,10.2169984 4.89913276,10.04322 C4.80071746,9.99711552 4.68722953,9.97406328 4.56186085,9.97406328 C4.12771044,9.97406328 3.60838498,10.2596745 3.52752484,10.6854316 C3.46924406,10.9920263 3.60643441,11.4392396 4.59200608,11.8285268 C4.68090495,11.8636963 4.78783185,11.8975062 4.90072869,11.9332076 C5.30792571,12.0625366 5.92336125,12.2578304 6.09034218,12.6511961 C6.17681761,12.8550606 6.14235747,13.1173832 5.98802572,13.430598 C5.98459744,13.437691 5.98122827,13.4447249 5.97815464,13.4519952 C5.92401144,13.5780732 4.62150111,16.5473783 1.72962791,17.0234364 C1.50726252,17.0601427 1.34832032,17.258451 1.36067395,17.4834172 C1.36451599,17.5503869 1.38035701,17.6170019 1.40778326,17.6816664 C1.6247698,18.1891111 2.54047547,18.5609022 4.20744753,18.8196192 C4.26312754,18.8949823 4.32105366,19.1611469 4.35651864,19.3233401 C4.39133342,19.4833462 4.42727127,19.6483766 4.47851815,19.8224505 C4.5287602,19.993569 4.65927131,20.1981428 4.99476998,20.1981428 C5.13030529,20.1981428 5.29019322,20.1669336 5.4753204,20.1305229 C5.75307026,20.0762615 6.13337301,20.0020215 6.6094312,20.0020215 C6.87340883,20.0020215 7.14713934,20.0249555 7.42270219,20.0705871 C7.96058765,20.1602544 8.41767208,20.4833403 8.94680951,20.8573776 C9.70475514,21.3933125 10.5631258,22 11.8678231,22 C11.9036427,22 11.9396988,21.9989361 11.975282,21.9962762 C12.0176626,21.9981676 12.0726333,22 12.1311505,22 C13.4362025,22 14.2943958,21.3931943 15.0518686,20.857614 C15.5821882,20.4829857 16.0389771,20.160018 16.5768625,20.0705871 C16.8519525,20.0249555 17.125683,20.0020215 17.3897789,20.0020215 C17.843967,20.0020215 18.2032863,20.0597703 18.5238897,20.122366 C18.7247397,20.161673 18.8863417,20.1816516 19.0044401,20.1816516 L19.0167346,20.181888 L19.0287927,20.181888 C19.2765747,20.181888 19.451417,20.0509041 19.5208101,19.8132887 C19.5710522,19.6427613 19.6071082,19.4819867 19.6426914,19.3192616 C19.6779791,19.1575413 19.7357279,18.8925589 19.7912306,18.8176687 C21.4586755,18.5587743 22.3740856,18.1875743 22.5906584,17.6823166 C22.6185575,17.6176521 22.6344577,17.5505051 22.6382997,17.4830034 C22.6508898,17.257919 22.4918293,17.059788 22.2695822,17.0232"/>
  </g>
</svg>
