<svg xmlns="http://www.w3.org/2000/svg" width="22" height="18" viewBox="0 0 22 18">
  <g fill="none" fill-rule="evenodd" transform="translate(-1 -3)">
    <rect width="24" height="24"/>
    <path fill="#222" fill-rule="nonzero" d="M1,18.9068832 C2.94,20.1368832 5.17,21.1268832 8.25,20.9968832 C15.71,20.6568832 20.71,15.3068832 20.82,7.4868832 C21.62,6.8068832 22.57,6.0068832 23,5.1068832 C22.31,5.4568832 21.49,5.6768832 20.57,5.8068832 C21.41,5.1868832 22.1,4.4268832 22.46,3.3168832 C21.59,3.7768832 20.69,4.1968832 19.58,4.4068832 C16.96,1.2268832 10.68,3.7968832 11.78,8.5268832 C7.37,8.2568832 4.68,6.2568832 2.44,3.8068832 C1.16,5.8768832 2.27,9.0068832 3.78,9.8668832 C3,9.8268832 2.41,9.5868832 1.85,9.3268832 C1.93,11.9268832 3.36,13.1768832 5.37,13.8468832 C4.76,13.9768832 4.08,14.0068832 3.43,13.8968832 C4.05,15.7168832 5.37,16.8568832 7.6,17.0768832 C6.09,18.3668832 3.27,19.2768832 1,18.9068832 L1,18.9068832 Z"/>
  </g>
</svg>
