<svg xmlns="http://www.w3.org/2000/svg" width="22" height="18" viewBox="0 0 22 18">
  <g fill="none" fill-rule="evenodd" transform="translate(-1 -3)">
    <polygon points="0 0 24 0 24 24 0 24"/>
    <path fill="#222" fill-rule="nonzero" d="M10.242,19.6961658 C6.6,20.0551658 3.456,18.4091658 3.22,16.0181658 C2.983,13.6271658 5.745,11.3971658 9.386,11.0371658 C13.028,10.6771658 16.172,12.3231658 16.409,14.7141658 C16.645,17.1051658 13.884,19.3361658 10.242,19.6961658 M17.527,11.7581658 C17.217,11.6661658 17.004,11.6021658 17.166,11.1961658 C17.518,10.3121658 17.554,9.54916576 17.173,9.00516576 C16.459,7.98516576 14.505,8.04016576 12.265,8.97816576 C12.265,8.97716576 11.562,9.28516576 11.742,8.72716576 C12.086,7.62016576 12.034,6.69216576 11.498,6.15716576 C10.283,4.94116576 7.052,6.20316576 4.28,8.97316576 C2.205,11.0481658 1,13.2481658 1,15.1501658 C1,18.7881658 5.666,21.0001658 10.23,21.0001658 C16.213,21.0001658 20.193,17.5231658 20.193,14.7641658 C20.193,13.0961658 18.789,12.1501658 17.527,11.7581658 M10.443,15.3651658 C10.316,15.5831658 10.034,15.6881658 9.814,15.5971658 C9.596,15.5081658 9.528,15.2641658 9.652,15.0501658 C9.779,14.8371658 10.049,14.7331658 10.266,14.8191658 C10.486,14.9001658 10.565,15.1461658 10.443,15.3651658 M9.283,16.8551658 C8.93,17.4171658 8.176,17.6631658 7.608,17.4041658 C7.048,17.1491658 6.883,16.4961658 7.235,15.9481658 C7.583,15.4021658 8.312,15.1591658 8.876,15.3951658 C9.446,15.6391658 9.629,16.2871658 9.283,16.8551658 M10.606,12.8771658 C8.873,12.4261658 6.914,13.2901658 6.161,14.8171658 C5.395,16.3751658 6.136,18.1041658 7.887,18.6691658 C9.701,19.2541658 11.838,18.3571658 12.582,16.6761658 C13.315,15.0331658 12.399,13.3411658 10.606,12.8771658 M18.96,10.1661658 C19.341,10.2881658 19.75,10.0801658 19.872,9.69916576 C20.174,8.76616576 19.985,7.70416576 19.281,6.92416576 L19.281,6.92416576 C18.577,6.14416576 17.539,5.84816576 16.581,6.05116576 C16.189,6.13516576 15.939,6.52116576 16.023,6.91316576 C16.107,7.30316576 16.492,7.55416576 16.883,7.46916576 L16.883,7.47016576 C17.351,7.37016576 17.859,7.51516576 18.204,7.89516576 C18.548,8.27716576 18.64,8.79716576 18.492,9.25316576 L18.493,9.25316576 C18.37,9.63316576 18.578,10.0421658 18.96,10.1661658 M21.5,4.92216576 C20.055,3.32016576 17.924,2.70916576 15.956,3.12816576 L15.956,3.12816576 C15.501,3.22516576 15.21,3.67316576 15.308,4.12716576 C15.405,4.58216576 15.853,4.87316576 16.308,4.77516576 C17.707,4.47816576 19.221,4.91316576 20.249,6.05116576 C21.275,7.18816576 21.554,8.74016576 21.114,10.1011658 L21.115,10.1011658 C20.971,10.5451658 21.214,11.0191658 21.657,11.1621658 C22.1,11.3051658 22.574,11.0631658 22.718,10.6211658 L22.718,10.6181658 C23.335,8.70316576 22.945,6.52216576 21.5,4.92216576"/>
  </g>
</svg>
