<svg id="bag" xmlns="http://www.w3.org/2000/svg" width="19.71" height="22" viewBox="0 0 19.71 22"><title>bag</title><path d="M7.17,5A3.11,3.11,0,0,1,7,4a3,3,0,0,1,3-3,3,3,0,0,1,3,3,3.11,3.11,0,0,1-.17,1h1A3.93,3.93,0,0,0,14,4,4,4,0,0,0,6,4a3.93,3.93,0,0,0,.14,1h1Z" transform="translate(-0.09)" fill="#111"/><path id="Rectangle-17" d="M2.9,5.1h0L2,21.1A1,1,0,0,0,1,20H19a1.11,1.11,0,0,0-1.1,1.1L17,5.1A1.06,1.06,0,0,0,18,6H2a0.9,0.9,0,0,0,.9-0.9h0ZM0.9,5a1.08,1.08,0,0,1,1-1h16a1,1,0,0,1,1,1l0.9,16a1,1,0,0,1-.9,1H1a0.87,0.87,0,0,1-.9-1L0.9,5h0Z" transform="translate(-0.09)" fill="#111"/><rect id="Rectangle-35" x="5.91" y="5" width="1" height="2" fill="#111"/><rect id="Rectangle-35-2" data-name="Rectangle-35" x="12.91" y="5" width="1" height="2" fill="#111"/></svg>