<svg id="giftcard" xmlns="http://www.w3.org/2000/svg" width="40" height="32" viewBox="0 0 40 32"><title>giftcard</title>
<path id="Shape" d="M38,4H16.8A2.93,2.93,0,0,0,14,0a2.85,2.85,0,0,0-2.5,1.4L11,2l-0.5-.7A3,3,0,0,0,8,0,2.93,2.93,0,0,0,5.2,4H2A2,2,0,0,0,0,6V30a2,2,0,0,0,2,2H38a2,2,0,0,0,2-2V6a2,2,0,0,0-2-2h0ZM14,2a1,1,0,0,1,0,2,1.08,1.08,0,0,1-1-1,1.08,1.08,0,0,1,1-1h0ZM7,3A1.08,1.08,0,0,1,8,2,1,1,0,0,1,8,4,1.08,1.08,0,0,1,7,3H7ZM38,30H2V24H38v6h0Zm0-10H2V6H8.1L6,8.8,7.6,10,10,6.8,10.6,6h0L11,5.4,11.4,6h0L12,6.8,14.4,10,16,8.8,13.9,6H38V20h0Z" fill="#000"/>
<polygon id="Fill-7" points="33.8 9 34.8 9 32 15.9 31.7 15.9 29.5 10.3 27.2 15.9 27 15.9 24.2 9 25.2 9 27.1 13.8 29 9 30 9 31.9 13.8 33.8 9" fill="#000" />
<path id="Fill-14" d="M21.3,9h0.9v4.9a4.64,4.64,0,0,1-.2,1.4,0.87,0.87,0,0,1-.5.7,1.69,1.69,0,0,1-1,.3H20.2l-0.2-1h0.2a0.92,0.92,0,0,0,.6-0.1,0.42,0.42,0,0,0,.4-0.3,2.81,2.81,0,0,0,.1-1.1V9Z" fill="#000" /></svg>
