<?xml version="1.0" encoding="utf-8"?>
<!-- Generator: Adobe Illustrator 19.2.0, SVG Export Plug-In . SVG Version: 6.00 Build 0)  -->
<svg version="1.1" id="Layer_1" xmlns="http://www.w3.org/2000/svg" xmlns:xlink="http://www.w3.org/1999/xlink" x="0px" y="0px"
	 viewBox="0 0 20 20" style="enable-background:new 0 0 20 20;" xml:space="preserve">
<title>help</title>
<desc>Created with Sketch.</desc>
<path id="Shape_1_" fill="#000" d="M9,16h2v-2H9V16L9,16z M10,0C4.5,0,0,4.5,0,10s4.5,10,10,10s10-4.5,10-10S15.5,0,10,0L10,0z M10,18
	c-4.4,0-8-3.6-8-8s3.6-8,8-8s8,3.6,8,8S14.4,18,10,18L10,18z M10,4C7.8,4,6,5.8,6,8h2c0-1.1,0.9-2,2-2s2,0.9,2,2c0,2-3,1.8-3,5h2
	c0-2.2,3-2.5,3-5C14,5.8,12.2,4,10,4L10,4z"/>
</svg>
