<?xml version="1.0" encoding="utf-8"?>
<!-- Generator: Adobe Illustrator 19.2.0, SVG Export Plug-In . SVG Version: 6.00 Build 0)  -->
<svg version="1.1" id="Layer_1" xmlns="http://www.w3.org/2000/svg" xmlns:xlink="http://www.w3.org/1999/xlink" x="0px" y="0px"
	 viewBox="0 0 40 36" style="enable-background:new 0 0 40 36;" xml:space="preserve">
<title>store-48px</title>
<desc>Created with Sketch.</desc>
<path id="Shape_1_" d="M20,2.7L34.8,16H34h-2v2v16H8V18v-2H6H5.2L20,2.7L20,2.7z M20,0L0,18h6v18h28V18h6L20,0L20,0L20,0z"/>
<path id="Shape_2_" d="M23,25v10h-6V25H23L23,25z M24,24h-8v12h8V24L24,24L24,24z"/>
<polygon id="Fill-7" points="26.8,11 27.8,11 25,17.9 24.7,17.9 22.5,12.3 20.2,17.9 20,17.9 17.2,11 18.2,11 20.1,15.8 22,11 
	23,11 24.9,15.8 "/>
<path id="Fill-14" d="M14.3,11h0.9v4.9c0,0.6-0.1,1.1-0.2,1.4c0,0.3-0.2,0.5-0.5,0.7c-0.3,0.2-0.6,0.3-1,0.3c-0.1,0-0.2,0-0.3,0
	l-0.2-1h0.2c0.3,0,0.5,0,0.6-0.1c0.2,0,0.3-0.1,0.4-0.3c0.1-0.2,0.1-0.5,0.1-1.1V11z"/>
</svg>
