<svg id="store" data-name="Layer 1" xmlns="http://www.w3.org/2000/svg" width="16" height="19.9" viewBox="0 0 16 19.9"><title>store</title><path id="Shape" d="M2,8H2c0,2,1.3,4.4,3.5,6.8a30.7,30.7,0,0,0,2.6,2.5c0.3,0.3.6,0.5,0.8,0.7a0.53,0.53,0,0,0,.3.2H6.8A1.24,1.24,0,0,1,7.1,18a5,5,0,0,0,.8-0.7,30.7,30.7,0,0,0,2.6-2.5C12.7,12.4,14,10,14,8A6,6,0,0,0,2,8H2ZM0,8H0A8,8,0,0,1,16,8c0,6-8,11.9-8,11.9S0,14,0,8H0Z" fill="currentColor"/><path id="Path-Copy" d="M8,10a2,2,0,1,1,2-2,2,2,0,0,1-2,2H8Z" fill="currentColor"/></svg>
