<svg xmlns="http://www.w3.org/2000/svg" width="16" height="20" viewBox="0 0 16 20">
  <g fill="none" fill-rule="evenodd" transform="translate(-4 -2)">
    <polygon points="0 0 24 0 24 24 0 24"/>
    <path fill="#222" fill-rule="nonzero" d="M5,2.99864581 L5,2.99864581 L5,21.0013542 C5,21.0007758 4.99922173,21 5.00087166,21 L18.9991283,21 C19.0018453,21 19,21.0018456 19,21.0013542 L19,2.99864581 C19,2.99922418 19.0007783,3 18.9991283,3 L5.00087166,3 C4.99815472,3 5,2.9981544 5,2.99864581 L5,2.99864581 Z M4,2.99864581 C4,2.44710896 4.44463086,2 5.00087166,2 L18.9991283,2 C19.5518945,2 20,2.44576991 20,2.99864581 L20,21.0013542 C20,21.552891 19.5553691,22 18.9991283,22 L5.00087166,22 C4.4481055,22 4,21.5542301 4,21.0013542 L4,2.99864581 L4,2.99864581 Z"/>
    <path fill="#222" fill-rule="nonzero" d="M7,14 C7,11.2416667 9.24166667,9 12,9 C14.7583333,9 17,11.2416667 17,14 C17,16.7583333 14.7583333,19 12,19 C9.24166667,19 7,16.7583333 7,14 Z M8,14 C8,16.2061722 9.7938278,18 12,18 C14.2061722,18 16,16.2061722 16,14 C16,11.7938278 14.2061722,10 12,10 C9.7938278,10 8,11.7938278 8,14 Z"/>
    <rect width="14" height="1" x="5" y="6" fill="#222" fill-rule="nonzero"/>
    <rect width="1" height="1" x="17" y="4" fill="#222" fill-rule="nonzero"/>
    <rect width="1" height="1" x="6" y="4" fill="#222" fill-rule="nonzero"/>
    <rect width="1" height="1" x="8" y="4" fill="#222" fill-rule="nonzero"/>
  </g>
</svg>
