<svg xmlns="http://www.w3.org/2000/svg" width="20" height="16" viewBox="0 0 20 16">
  <g fill="none">
    <path fill="#222" d="M19.2982,13.77 C19.4372,14.957 18.5102,16 17.3142,16 L13.5602,16 L5.5602,16 L2.0042,16 C0.7402,16 -0.2088,14.843 0.0392,13.603 L0.5952,10.826 C1.1562,8.02 3.6202,6 6.4822,6 L16.2922,6 L15.7822,2.004 L15.7782,2 L3.5602,2 L3.5602,0 L15.7782,0 C16.7942,0 17.6492,0.761 17.7682,1.77 L19.2982,13.77 Z M13.5602,14 L17.3142,14 L16.5482,8 L6.4822,8 C4.5802,8 2.9292,9.354 2.5562,11.219 L2.0002,13.995 L13.5602,13.998 L13.5602,14 Z"/>
    <circle cx="10" cy="11" r="1" fill="#222"/>
  </g>
</svg>
