<svg xmlns="http://www.w3.org/2000/svg" width="18" height="19" viewBox="0 0 18 19">
  <g fill="none" fill-rule="evenodd" transform="translate(-3 -4)">
    <rect width="24" height="24"/>
    <path fill="#111" fill-rule="nonzero" d="M17.768,15.001 L17.214,20 L6.791,20.003 L6.234,15.001 L6.235,15.001 L5.376,7.272 C6.281,7.088 7.17,6.742 8,6.211 C10.464,7.78 13.537,7.78 16,6.211 C16.831,6.742 17.72,7.088 18.625,7.272 L17.766,15.001 L17.768,15.001 Z M18.988,4 L18.736,6.274 C17.89,6.089 17.058,5.737 16.286,5.2 L16,5 L15.713,5.2 C13.458,6.781 10.542,6.781 8.288,5.2 L8.001,5 L7.715,5.2 C6.943,5.737 6.111,6.089 5.265,6.274 L5.013,4 L3,4 L4.223,15.001 L4.223,15.001 L4.803,20.224 C4.916,21.235 5.77,22 6.787,22 L17.214,22 C18.231,22 19.085,21.235 19.198,20.224 L19.778,15.001 L19.778,15.001 L21,4 L18.988,4 Z"/>
    <polygon fill="#111" fill-rule="nonzero" points="20 8.41 18.59 7 12 13.59 5.41 7 4 8.41 10.59 15 4 21.59 5.41 23 12 16.41 18.59 23 20 21.59 13.41 15"/>
  </g>
</svg>
