<svg xmlns="http://www.w3.org/2000/svg" width="18" height="18" viewBox="0 0 18 18">
  <g fill="none" fill-rule="evenodd" transform="translate(-3 -3)">
    <polygon points="0 0 24 0 24 24 0 24"/>
    <path fill="#111" fill-rule="nonzero" d="M12,18 L12,18 C15.3137085,18 18,15.3137085 18,12 C18,8.6862915 15.3137085,6 12,6 C8.6862915,6 6,8.6862915 6,12 C6,15.3137085 8.6862915,18 12,18 L12,18 Z M12,19 L12,19 C8.13400675,19 5,15.8659932 5,12 C5,8.13400675 8.13400675,5 12,5 C15.8659932,5 19,8.13400675 19,12 C19,15.8659932 15.8659932,19 12,19 L12,19 Z"/>
    <path fill="#111" fill-rule="nonzero" d="M19,5 L19,19 L5,19 L5,5 L19,5 L19,5 Z M19,3 L5,3 C3.9,3 3,3.9 3,5 L3,19 C3,20.1 3.9,21 5,21 L19,21 C20.1,21 21,20.1 21,19 L21,5 C21,3.9 20.1,3 19,3 L19,3 Z"/>
    <polygon fill="#111" fill-rule="nonzero" points="20 5.41 18.59 4 12 10.59 5.41 4 4 5.41 10.59 12 4 18.59 5.41 20 12 13.41 18.59 20 20 18.59 13.41 12"/>
  </g>
</svg>
