<svg xmlns="http://www.w3.org/2000/svg" width="20" height="19" viewBox="0 0 20 19">
  <g fill="none" fill-rule="evenodd" transform="translate(-2 -4)">
    <polygon points="0 0 24 0 24 24 0 24"/>
    <path fill="#000" fill-rule="nonzero" d="M15.6884615,9.90153846 L18.59,7 L20,8.41 L16.7730769,11.6369231 L22,20 L18.41,20 L20,21.59 L18.59,23 L15.59,20 L8.41,20 L5.41,23 L4,21.59 L5.59,20 L2,20 L7.22692308,11.6369231 L4,8.41 L5.41,7 L8.31153846,9.90153846 L12,4 L15.6884615,9.90153846 Z M14.2376534,11.3523466 L12,7.77 L9.76234657,11.3523466 L12,13.59 L14.2376534,11.3523466 Z M15.3218773,13.0881227 L13.41,15 L16.41,18 L18.39,18 L15.3218773,13.0881227 Z M13.59,18 L12,16.41 L10.41,18 L13.59,18 Z M7.59,18 L10.59,15 L8.67812274,13.0881227 L5.61,18 L7.59,18 Z"/>
  </g>
</svg>
