<svg xmlns="http://www.w3.org/2000/svg" width="20" height="20" viewBox="0 0 20 20">
  <g fill="none" fill-rule="evenodd" transform="translate(-2 -2)">
    <polygon points="0 0 24 0 24 24 0 24"/>
    <path fill="#000" fill-rule="nonzero" d="M7.09136996,18.31863 C8.44631217,19.372524 10.1495416,20 12,20 C13.8504584,20 15.5536878,19.372524 16.90863,18.31863 L12,13.41 L7.09136996,18.31863 Z M5.68136996,16.90863 L10.59,12 L5.68136996,7.09136996 C4.62747605,8.44631217 4,10.1495416 4,12 C4,13.8504584 4.62747605,15.5536878 5.68136996,16.90863 Z M7.09136996,5.68136996 L12,10.59 L16.90863,5.68136996 C15.5536878,4.62747605 13.8504584,4 12,4 C10.1495416,4 8.44631217,4.62747605 7.09136996,5.68136996 Z M18.31863,7.09136996 L13.41,12 L18.31863,16.90863 C19.372524,15.5536878 20,13.8504584 20,12 C20,10.1495416 19.372524,8.44631217 18.31863,7.09136996 Z M12,2 C17.52,2 22,6.48 22,12 C22,17.52 17.52,22 12,22 C6.48,22 2,17.52 2,12 C2,6.48 6.48,2 12,2 Z"/>
  </g>
</svg>
