<svg xmlns="http://www.w3.org/2000/svg" width="20" height="19" viewBox="0 0 20 19">
  <g fill="none" fill-rule="evenodd" transform="translate(-2 -4)">
    <polygon points="0 0 24 0 24 24 0 24"/>
    <path fill="#000" fill-rule="nonzero" d="M18.41,20 L20,21.59 L18.59,23 L15.59,20 L15.5602,20 L8.41,20 L5.41,23 L4,21.59 L5.59,20 L4.0042,20 C2.7402,20 1.7912,18.843 2.0392,17.603 L2.5952,14.826 C2.99038213,12.8493849 4.32985921,11.2627939 6.08756574,10.4975657 L4,8.41 L5.41,7 L8.41042046,10.0004205 C8.43432071,10.0001415 8.45824642,10 8.4822,10 L15.59,10 L17.9863585,7.60364154 L17.7822,6.004 L17.7782,6 L5.5602,6 L5.5602,4 L17.7782,4 C18.7942,4 19.6492,4.761 19.7682,5.77 L21.2982,17.77 C21.4372,18.957 20.5102,20 19.3142,20 L18.41,20 Z M13.5874881,17.9974881 L12,16.41 L10.4133357,17.9966643 L13.5874881,17.9974881 Z M7.59406734,17.9959327 L10.59,15 L7.67299841,12.0829984 C6.12785057,12.4038222 4.87506036,13.6246982 4.5562,15.219 L4.0002,17.995 L7.59406734,17.9959327 Z M10.41,12 L12,13.59 L13.59,12 L10.41,12 Z M16.41,12 L13.41,15 L16.41,18 L19.3142,18 L18.5482,12 L16.41,12 Z"/>
  </g>
</svg>
