<svg xmlns="http://www.w3.org/2000/svg" width="20" height="20" viewBox="0 0 20 20">
  <g fill="none" fill-rule="evenodd" transform="translate(-2 -2)">
    <polygon points="0 0 24 0 24 24 0 24"/>
    <path fill="#000" fill-rule="nonzero" d="M12,2 C17.52,2 22,6.48 22,12 C22,17.52 17.52,22 12,22 C6.48,22 2,17.52 2,12 C2,6.48 6.48,2 12,2 Z M12,20 C16.42,20 20,16.42 20,12 C20,7.58 16.42,4 12,4 C7.58,4 4,7.58 4,12 C4,16.42 7.58,20 12,20 Z"/>
    <path fill="#000" fill-rule="nonzero" d="M12.98,8 C14.087,8 14.984,8.897 14.984,10.004 L14.984,10.996 C14.984,12.103 14.087,13 12.98,13 L11.004,13 L11,13 L11,16 L9,16 L9,10.996 L9,10.004 L9,8 L11,8 L11.004,8 L12.98,8 Z M11,11 L13,11 L13,10 L11,10 L11,11 Z"/>
  </g>
</svg>
