<svg xmlns="http://www.w3.org/2000/svg" width="18" height="18" viewBox="0 0 18 18">
  <g fill="none" fill-rule="evenodd" transform="translate(-3 -3)">
    <polygon points="0 0 24 0 24 24 0 24"/>
    <path fill="#000" fill-rule="nonzero" d="M19,3 C20.1,3 21,3.9 21,5 L21,19 C21,20.1 20.1,21 19,21 L5,21 C3.9,21 3,20.1 3,19 L3,5 C3,3.9 3.9,3 5,3 L19,3 Z M19,5 L5,5 L5,19 L19,19 L19,5 Z"/>
    <path fill="#000" fill-rule="nonzero" d="M19.4194097,4 L20.5022427,4 C19.1134408,7.53180957 15.9416956,10 12.2511214,10 C8.5605471,10 5.38880192,7.53180957 4,4 L5.08283308,4 C6.39604423,6.9702001 9.12431006,9 12.2511214,9 C15.3779327,9 18.1061985,6.9702001 19.4194097,4 Z"/>
  </g>
</svg>
