<svg xmlns="http://www.w3.org/2000/svg" width="16" height="21" viewBox="0 0 16 21">
  <g fill="none" fill-rule="evenodd" transform="translate(-4 -1)">
    <rect width="24" height="24"/>
    <path fill="#1D1D1B" fill-rule="nonzero" d="M17.979,1 L20,1 L18.866,8.937 L18.245,13.282 C18.104,14.267 17.26,14.999 16.264,14.999 L7.735,14.999 C6.739,14.999 5.895,14.267 5.754,13.282 L5.134,8.937 L5.133,8.937 L4,1 L6.02,1 L6.178,2.105 C7.369,2.843 8.837,2.814 10,2 C10.61,2.424 11.305,2.659 12,2.659 C12.695,2.659 13.39,2.424 14,2 C15.162,2.814 16.63,2.843 17.821,2.105 L17.979,1 Z M16.845,8.937 L17.648,3.319 C16.47,3.798 15.145,3.751 14,3.164 C13.37,3.484 12.69,3.659 12,3.659 C11.31,3.659 10.63,3.489 10,3.164 C8.854,3.751 7.529,3.798 6.351,3.319 L7.154,8.937 L7.734,12.999 L16.264,12.999 L16.845,8.937 Z"/>
    <rect width="16" height="2" x="4" y="17" fill="#1D1D1B" fill-rule="nonzero"/>
    <rect width="16" height="2" x="4" y="20" fill="#1D1D1B" fill-rule="nonzero"/>
    <path fill="#1D1D1B" fill-rule="nonzero" d="M14.001 6C14.553 6 15 6.447 15 6.999L15 10.001C15 10.553 14.553 11 14.001 11L12.999 11C12.447 11 12 10.553 12 10.001L12 6.999C12 6.447 12.447 6 12.999 6L14.001 6zM14 7L12.999 7 13 10.001 14.001 10 14 7zM10 6L11.001 6 11.001 11 10 11 10 10.001 8 10.001 8 9.001 10 6zM10 7.804L9.202 9.001 10 9.001 10 8.001 10 7.804z"/>
  </g>
</svg>
