<svg xmlns="http://www.w3.org/2000/svg" width="18" height="20" viewBox="0 0 18 20">
  <g fill="none" fill-rule="evenodd" transform="translate(-3 -2)">
    <rect width="24" height="24"/>
    <path fill="#000" fill-rule="nonzero" d="M18.988,4 L21,4 L19.778,15.001 L19.198,20.224 C19.085,21.235 18.231,22 17.214,22 L6.787,22 C5.77,22 4.916,21.235 4.803,20.224 L4.223,15.001 L3,4 L5.013,4 L5.265,6.274 C6.111,6.089 6.943,5.737 7.715,5.2 L8.001,5 L8.288,5.2 C10.542,6.781 13.458,6.781 15.713,5.2 L16,5 L16.286,5.2 C17.058,5.737 17.89,6.089 18.736,6.274 L18.988,4 Z M17.768,15.001 L17.766,15.001 L18.625,7.272 C17.72,7.088 16.831,6.742 16,6.211 C13.537,7.78 10.464,7.78 8,6.211 C7.17,6.742 6.281,7.088 5.376,7.272 L6.235,15.001 L6.234,15.001 L6.791,20.003 L17.214,20 L17.768,15.001 Z"/>
    <path fill="#000" fill-rule="nonzero" d="M8.75,12 C9.165,12 9.5,11.665 9.5,11.25 L9.5,8.5 L10,8.5 L10,12.75 C10,13.165 10.335,13.5 10.75,13.5 C11.165,13.5 11.5,13.165 11.5,12.75 L11.5,8.5 L12,8.5 L12,13.25 C12,13.665 12.335,14 12.75,14 C13.165,14 13.5,13.665 13.5,13.25 L13.5,8.5 L14,8.5 L14,12 C14,12.415 14.335,12.75 14.75,12.75 C15.165,12.75 15.5,12.415 15.5,12 L15.5,6.045 C15.5,6.045 17.635,7.27 17.655,7.275 C17.745,7.325 17.845,7.355 17.955,7.355 C18.105,7.355 18.24,7.305 18.35,7.21 C18.37,7.2 19,6.585 19,6.585 L15.075,2.595 C14.7,2.215 14.19,2 13.65,2 L10,2 C8.9,2 8,2.9 8,4 L8,11.25 C8,11.665 8.335,12 8.75,12"/>
  </g>
</svg>
