<svg xmlns="http://www.w3.org/2000/svg" width="20" height="16" viewBox="0 0 20 16">
  <g fill="none" fill-rule="evenodd" transform="translate(-2 -4)">
    <polygon points="0 0 24 0 24 24 0 24"/>
    <path fill="#000" fill-rule="nonzero" d="M15.5602,18 L15.5602,17.998 L4.0002,17.995 L4.5562,15.219 C4.9292,13.354 6.5802,12 8.4822,12 L18.5482,12 L19.3142,18 L15.5602,18 Z M21.2982,17.77 L19.7682,5.77 C19.6492,4.761 18.7942,4 17.7782,4 L5.5602,4 L5.5602,6 L17.7782,6 L17.7822,6.004 L18.2922,10 L8.4822,10 C5.6202,10 3.1562,12.02 2.5952,14.826 L2.0392,17.603 C1.7912,18.843 2.7402,20 4.0042,20 L7.5602,20 L15.5602,20 L19.3142,20 C20.5102,20 21.4372,18.957 21.2982,17.77 L21.2982,17.77 Z"/>
    <ellipse cx="12" cy="15" fill="#000" fill-rule="nonzero" rx="1" ry="1"/>
    <ellipse cx="16" cy="15" fill="#000" fill-rule="nonzero" rx="1" ry="1"/>
    <ellipse cx="8" cy="15" fill="#000" fill-rule="nonzero" rx="1" ry="1"/>
  </g>
</svg>
