<svg xmlns="http://www.w3.org/2000/svg" width="16" height="18" viewBox="0 0 16 18">
  <g fill="none" fill-rule="evenodd" transform="translate(-4 -3)">
    <rect width="24" height="24"/>
    <path fill="#000" fill-rule="nonzero" d="M17.979,3 L20,3 L18.866,10.937 L18.245,15.282 C18.104,16.267 17.26,16.999 16.264,16.999 L7.735,16.999 C6.739,16.999 5.895,16.267 5.754,15.282 L5.134,10.937 L5.133,10.937 L4,3 L6.02,3 L6.178,4.105 C7.369,4.843 8.837,4.814 10,4 C10.61,4.424 11.305,4.659 12,4.659 C12.695,4.659 13.39,4.424 14,4 C15.162,4.814 16.63,4.843 17.821,4.105 L17.979,3 Z M16.845,10.937 L17.648,5.319 C16.47,5.798 15.145,5.751 14,5.164 C13.37,5.484 12.69,5.659 12,5.659 C11.31,5.659 10.63,5.489 10,5.164 C8.854,5.751 7.529,5.798 6.351,5.319 L7.154,10.937 L7.734,14.999 L16.264,14.999 L16.845,10.937 Z"/>
    <rect width="16" height="2" x="4" y="19" fill="#000" fill-rule="nonzero"/>
    <path fill="#000" fill-rule="nonzero" d="M14.001 8L12.999 8C12.447 8 12 8.447 12 8.999L12 12.001C12 12.553 12.447 13 12.999 13L14.001 13C14.553 13 15 12.553 15 12.001L15 8.999C15 8.447 14.553 8 14.001 8M14 9L14.001 12 13 12.001 12.999 9 14 9M10 8L8 11.001 8 12.001 10 12.001 10 13 11.001 13 11.001 8 10 8zM10 9.804L10 10.001 10 11.001 9.202 11.001 10 9.804z"/>
  </g>
</svg>
