<svg xmlns="http://www.w3.org/2000/svg" width="18" height="18" viewBox="0 0 18 18">
  <g fill="none" fill-rule="evenodd" transform="translate(-3 -3)">
    <polygon points="0 0 24 0 24 24 0 24"/>
    <path fill="#000" fill-rule="nonzero" d="M12,19 C8.13400675,19 5,15.8659932 5,12 C5,8.13400675 8.13400675,5 12,5 C15.8659932,5 19,8.13400675 19,12 C19,15.8659932 15.8659932,19 12,19 Z M12,18 C15.3137085,18 18,15.3137085 18,12 C18,8.6862915 15.3137085,6 12,6 C8.6862915,6 6,8.6862915 6,12 C6,15.3137085 8.6862915,18 12,18 Z"/>
    <path fill="#000" d="M19,3 C20.1,3 21,3.9 21,5 L21,19 C21,20.1 20.1,21 19,21 L5,21 C3.9,21 3,20.1 3,19 L3,5 C3,3.9 3.9,3 5,3 L19,3 Z M19,5 L5,5 L5,19 L19,19 L19,5 Z"/>
    <circle cx="12" cy="12" r="1" fill="#000"/>
  </g>
</svg>
