<svg xmlns="http://www.w3.org/2000/svg" width="18" height="18" viewBox="0 0 18 18">
  <g fill="none" fill-rule="evenodd" transform="translate(-3 -3)">
    <rect width="24" height="24"/>
    <path fill="#000" fill-rule="nonzero" d="M18.988,3.0002 L21,3.0002 L19.778,14.0012 L19.198,19.2242 C19.085,20.2352 18.231,21.0002 17.214,21.0002 L6.787,21.0002 C5.77,21.0002 4.916,20.2352 4.803,19.2242 L4.223,14.0012 L3,3.0002 L5.013,3.0002 L5.265,5.2742 C6.111,5.0892 6.943,4.7372 7.715,4.2002 L8.001,4.0002 L8.288,4.2002 C10.542,5.7812 13.458,5.7812 15.713,4.2002 L16,4.0002 L16.286,4.2002 C17.058,4.7372 17.89,5.0892 18.736,5.2742 L18.988,3.0002 Z M17.768,14.0012 L17.766,14.0012 L18.625,6.2722 C17.72,6.0882 16.831,5.7422 16,5.2112 C13.537,6.7802 10.464,6.7802 8,5.2112 C7.17,5.7422 6.281,6.0882 5.376,6.2722 L6.235,14.0012 L6.234,14.0012 L6.791,19.0032 L17.214,19.0002 L17.768,14.0012 Z"/>
    <path fill="#000" fill-rule="nonzero" d="M14.001 10L12.999 10C12.447 10 12 10.447 12 10.999L12 14.001C12 14.553 12.447 15 12.999 15L14.001 15C14.553 15 15 14.553 15 14.001L15 10.999C15 10.447 14.553 10 14.001 10M14 11L14.001 14 13 14.001 12.999 11 14 11M9.202 13L10 11.803 10 12 10 13 9.202 13zM11 10L10 10 8 13 8 14 10 14 10 15 11.001 15 11.001 10 11 10z"/>
  </g>
</svg>
