<svg xmlns="http://www.w3.org/2000/svg" width="46" height="21" viewBox="0 0 46 21">
  <g fill="#010101">
    <path d="M11.9445013 8.71430746C11.9676403 10.175935 12.8614855 11.4824527 14.2153998 12.0336394 13.9426253 12.8655381 13.5478084 13.652311 13.0438708 14.3682079 12.3392556 15.3657053 11.6049277 16.3632028 10.4503775 16.3844261 9.29582725 16.4056495 8.95200898 15.7349916 7.64040596 15.7349916 6.32880294 15.7349916 5.94253797 16.3674474 4.86439179 16.4056495 3.78624562 16.4438515 2.92033294 15.3232586 2.20722839 14.3300058.751306586 12.3095429-.360796948 8.57423335 1.13332688 6.06138873 1.86586344 4.81409077 3.19322212 4.03631644 4.63942428 4.00696846 5.73454914 4.00696846 6.76175927 4.72007301 7.4366618 4.72007301 8.11156433 4.72007301 9.33827395 3.82020298 10.675345 3.96876643 11.9029267 4.00659519 13.045192 4.60589328 13.7739541 5.59447503 12.6623201 6.2468023 11.9695033 7.4298955 11.9445013 8.71855213M9.82216633 2.62320605C10.4556648 1.90282311 10.7696794.956184068 10.6923237 0 9.73337813.0852617235 8.84198166.529443981 8.19645772 1.2436883 7.55409937 1.92976348 7.22783417 2.85315558 7.29658769 3.79049029 8.26790127 3.80708391 9.19349758 3.37868292 9.80943232 2.62745072M18.3709317 1.43045378C18.8095476 1.3568795 19.2934399 1.29037967 19.8226088 1.23095429 20.4020356 1.16903888 20.9844483 1.13928057 21.5671682 1.14181622 22.3616454 1.12614765 23.1536755 1.23499807 23.9144706 1.46441114 24.5161771 1.64620104 25.0699989 1.95935684 25.5359346 2.38125986 25.9029219 2.74328433 26.1918411 3.17666311 26.3848686 3.65466085 26.5994943 4.19441701 26.7034251 4.7718108 26.6904848 5.35252884 26.7045668 6.04817383 26.5593768 6.73782651 26.2660178 7.36874708 25.9969144 7.93197579 25.6053533 8.42795315 25.1199569 8.82042421 24.6100841 9.2247007 24.0239732 9.52208698 23.3966209 9.69482623 22.6879466 9.89285837 21.9548993 9.99002643 21.2191052 9.98346379 20.6183564 9.99423596 20.018098 9.94302908 19.4278545 9.83065567L19.4278545 16.1976606 18.3709317 16.1976606 18.3709317 1.43045378zM19.4363438 8.87136025C19.7140647 8.94810035 19.998229 8.99924992 20.2852778 9.02416837 20.6022132 9.05246617 20.9417868 9.06661507 21.3039986 9.06661507 22.6651228 9.06661507 23.7192158 8.75675416 24.4662777 8.13703235 25.2417306 7.45307977 25.6557264 6.44788546 25.5868706 5.41619889 25.5992656 4.89865118 25.4993447 4.38456527 25.2939884 3.90934105 25.1047451 3.49220449 24.8126306 3.12998259 24.4450544 2.85666289 24.0623565 2.57346014 23.630651 2.36336346 23.1716534 2.23694108 22.6321457 2.09083951 22.0751475 2.01942948 21.5162321 2.02470758 21.0995792 2.02146095 20.6830393 2.03987938 20.2682991 2.07988829 19.9202362 2.11667543 19.6372582 2.15770724 19.4193651 2.20298372L19.4193651 8.87136025 19.4193651 8.87136025 19.4363438 8.87136025zM35.1628461 13.6508586C35.1628461 14.0781554 35.1699205 14.5026224 35.1840694 14.9242596 35.1975453 15.3402758 35.2429554 15.7546424 35.3198989 16.1637033L34.3224014 16.1637033 34.1653486 14.6568454 34.1186573 14.6568454C33.9677015 14.8831021 33.792646 15.0923149 33.5965629 15.2808119 33.3739193 15.4961516 33.1275687 15.6855426 32.862235 15.845353 32.5654556 16.0282483 32.2457335 16.1709813 31.9114289 16.26982 31.531477 16.3754981 31.1384956 16.426943 30.7441446 16.4226281 30.266281 16.4321932 29.7913719 16.3455836 29.3476482 16.1679479 28.9768982 16.0181447 28.6414932 15.7926137 28.3628848 15.5057794 28.1077361 15.2346911 27.9112202 14.9139078 27.7856097 14.5634627 27.6584768 14.2225436 27.5923823 13.8618973 27.5903548 13.4980505 27.5601759 12.3112628 28.1825797 11.203319 29.2118188 10.6116749 30.2927947 9.93252775 31.9213331 9.60851794 34.0974339 9.63964552L34.0974339 9.33827395C34.0936078 9.01557951 34.0666558 8.69357436 34.0167852 8.37473386 33.963449 8.01359522 33.8440188 7.66537716 33.6644776 7.34752373 33.4689393 7.0080278 33.1879765 6.72560168 32.8495009 6.52830242 32.3978505 6.28585633 31.8885579 6.17137556 31.3766005 6.19721817 30.4338939 6.2021586 29.5126751 6.47926121 28.7236817 6.99521612L28.3841081 6.21844152C28.8420721 5.90491159 29.3481993 5.66833654 29.8824766 5.51807097 30.4068547 5.37589582 30.9478978 5.30451811 31.4912066 5.30583747 32.1281438 5.28100562 32.7616358 5.41061662 33.337638 5.6836131 33.785526 5.91038343 34.1704593 6.24428385 34.4582309 6.65564252 34.7330893 7.06016222 34.9223167 7.51661919 35.0142826 7.99695824 35.1118175 8.48189048 35.1615767 8.9752167 35.1628461 9.46985872L35.1628461 13.6551033 35.1628461 13.6551033 35.1628461 13.6508586zM34.0974339 10.4843348C33.4952877 10.4707567 32.8928701 10.493436 32.2934492 10.5522496 31.7015604 10.6033841 31.1191436 10.7332858 30.5616238 10.9385145 30.0588736 11.1195276 29.6074048 11.4195359 29.2457761 11.8129165 28.8834746 12.2371903 28.6967394 12.7837323 28.7236817 13.3409977 28.6714281 13.9666594 28.9148626 14.5807424 29.3816056 15.0006637 29.794718 15.3455493 30.3163583 15.5334601 30.8545061 15.5312474 31.2549829 15.5372663 31.6536993 15.4770286 32.0345243 15.3529713 32.3600899 15.2455395 32.6656005 15.0848954 32.938639 14.8775683 33.187136 14.6871255 33.4047597 14.4594797 33.5838289 14.2026657 33.7523953 13.9636108 33.8866961 13.702153 33.9828278 13.4258911 34.0443942 13.2170862 34.0828269 13.0021476 34.0974339 12.784946L34.0974339 10.4885795 34.0974339 10.4885795 34.0974339 10.4843348zM37.246979 5.54778366L40.0102592 12.4538617C40.1630673 12.8387118 40.3045563 13.2334661 40.4347262 13.6381246 40.5705556 14.0625916 40.6936511 14.4148992 40.7955231 14.7544728L40.8422145 14.7544728C40.9469164 14.4290481 41.067182 14.0640065 41.2030115 13.659348 41.3388409 13.2546894 41.4902341 12.8372969 41.6571912 12.4071703L44.2421952 5.54353899 45.3755221 5.54353899 42.2302216 13.3409977C41.9132862 14.1672935 41.6147445 14.9157703 41.3345962 15.5864282 41.054448 16.257086 40.77147 16.8626589 40.4856622 17.4031469 40.2252993 17.8969336 39.9332203 18.3733343 39.6112602 18.829356 39.3286226 19.2304317 38.9979037 19.595363 38.6264968 19.9159915 38.2749129 20.2354267 37.8823705 20.5066378 37.4592125 20.7224788 37.10549 20.8922656 36.8677885 20.9997973 36.746108 21.0450737L36.3810664 20.1961397C36.6923544 20.0576284 36.9956183 19.9017451 37.2894257 19.7292261 37.6449691 19.5205735 37.9729513 19.2681698 38.2656998 18.9779195 38.5908988 18.650609 38.8903311 18.2986696 39.1613252 17.9252413 39.5168843 17.4355122 39.8105762 16.9037302 40.0357272 16.3419794 40.1024745 16.1934072 40.1481907 16.0362579 40.1715567 15.8750657 40.1558779 15.712303 40.1098046 15.553926 40.0357272 15.408152L36.1136522 5.54778366 37.246979 5.54778366z"/>
  </g>
</svg>
