<svg xmlns="http://www.w3.org/2000/svg" width="39" height="24" viewBox="0 0 39 24">
  <g fill="none" fill-rule="evenodd">
    <path fill="#DDD" d="M38.6666667,11.958 C38.6666667,18.5626667 33.3126667,23.916 26.7086667,23.916 C20.104,23.916 14.75,18.5626667 14.75,11.958 C14.75,5.35333333 20.104,0 26.7086667,0 C33.3126667,0 38.6666667,5.35333333 38.6666667,11.958"/>
    <path fill="#BBB" d="M23.9166667,11.958 C23.9166667,18.5626667 18.5626667,23.916 11.9586667,23.916 C5.354,23.916 0,18.5626667 0,11.958 C0,5.35333333 5.354,0 11.9586667,0 C18.5626667,0 23.9166667,5.35333333 23.9166667,11.958"/>
    <path fill="#CCC" d="M14.75,11.958 C14.75,15.7766667 16.5466667,19.1693333 19.3333333,21.3586667 C22.12,19.1693333 23.9166667,15.7766667 23.9166667,11.958 C23.9166667,8.13933333 22.12,4.74666667 19.3333333,2.55733333 C16.5466667,4.74666667 14.75,8.13933333 14.75,11.958"/>
  </g>
</svg>
