<svg xmlns="http://www.w3.org/2000/svg" width="77" height="20" viewBox="0 0 77 20">
  <g fill="none" fill-rule="evenodd">
    <path fill="#CCC" d="M59.06 5.38972973L54.9162162 5.38972973C54.6324324 5.38972973 54.3908108 5.59621622 54.3464865 5.87567568L52.6702703 16.5010811C52.6378378 16.7102703 52.8 16.9 53.0113514 16.9L55.1383784 16.9C55.3362162 16.9 55.5059459 16.7551351 55.5362162 16.56L56.0113514 13.547027C56.0556757 13.267027 56.2967568 13.0610811 56.5805405 13.0610811L57.8918919 13.0610811C60.6221622 13.0610811 62.1972973 11.7410811 62.6086486 9.12216216 62.7951351 7.9772973 62.6167568 7.07783784 62.08 6.44810811 61.4908108 5.75621622 60.447027 5.38972973 59.06 5.38972973M59.5378378 9.27081081C59.3113514 10.7578378 58.1751351 10.7578378 57.0767568 10.7578378L56.4513514 10.7578378 56.8908108 7.98054054C56.9167568 7.81297297 57.0610811 7.68918919 57.2324324 7.68918919L57.5183784 7.68918919C58.267027 7.68918919 58.9718919 7.68918919 59.3372973 8.11513514 59.5551351 8.37081081 59.6205405 8.74918919 59.5378378 9.27081081M29.5043243 5.38972973L25.36 5.38972973C25.0778378 5.38972973 24.8356757 5.59621622 24.7913514 5.87567568L23.1156757 16.5010811C23.0816216 16.7102703 23.2437838 16.9 23.4567568 16.9L25.4362162 16.9C25.7178378 16.9 25.96 16.6940541 26.0043243 16.4145946L26.4567568 13.5475676C26.5 13.2675676 26.7416216 13.0616216 27.0254054 13.0616216L28.3367568 13.0616216C31.067027 13.0616216 32.6421622 11.7416216 33.0540541 9.1227027 33.2394595 7.97783784 33.0616216 7.07837838 32.5248649 6.44864865 31.9356757 5.75621622 30.8908108 5.38972973 29.5043243 5.38972973M29.9827027 9.27081081C29.7562162 10.7578378 28.62 10.7578378 27.5210811 10.7578378L26.8967568 10.7578378 27.3351351 7.98054054C27.3616216 7.81297297 27.507027 7.68918919 27.6762162 7.68918919L27.9632432 7.68918919C28.7108108 7.68918919 29.4167568 7.68918919 29.7816216 8.11513514 29.9994595 8.37081081 30.0654054 8.74918919 29.9827027 9.27081081M41.8902703 9.22324324L39.9059459 9.22324324C39.7367568 9.22324324 39.5913514 9.34702703 39.5643243 9.51513514L39.4778378 10.0697297 39.3394595 9.86864865C38.9091892 9.24540541 37.9513514 9.03621622 36.9945946 9.03621622 34.8027027 9.03621622 32.9291892 10.6972973 32.5659459 13.0275676 32.3756757 14.1897297 32.6454054 15.3010811 33.3043243 16.0756757 33.9091892 16.787027 34.7740541 17.0837838 35.8032432 17.0837838 37.5713514 17.0837838 38.5502703 15.9491892 38.5502703 15.9491892L38.4616216 16.5010811C38.4275676 16.7102703 38.5902703 16.9 38.8032432 16.9L40.5897297 16.9C40.8735135 16.9 41.1156757 16.6940541 41.16 16.4145946L42.2318919 9.62216216C42.2643243 9.41297297 42.1021622 9.22324324 41.8902703 9.22324324M39.1248649 13.0854054C38.9335135 14.22 38.032973 14.9805405 36.8848649 14.9805405 36.3097297 14.9805405 35.8481081 14.7945946 35.5518919 14.4448649 35.2589189 14.0972973 35.1486486 13.6021622 35.2416216 13.0513514 35.4194595 11.927027 36.3345946 11.1416216 37.4648649 11.1416216 38.0286486 11.1416216 38.4859459 11.3286486 38.787027 11.6827027 39.0918919 12.0383784 39.2118919 12.5367568 39.1248649 13.0854054M71.4459459 9.22324324L69.4610811 9.22324324C69.2918919 9.22324324 69.147027 9.34702703 69.1189189 9.51513514L69.032973 10.0697297 68.8935135 9.86864865C68.4637838 9.24540541 67.5064865 9.03621622 66.5491892 9.03621622 64.3578378 9.03621622 62.4843243 10.6972973 62.1210811 13.0275676 61.9308108 14.1897297 62.2 15.3010811 62.8594595 16.0756757 63.4648649 16.787027 64.3291892 17.0837838 65.3578378 17.0837838 67.1259459 17.0837838 68.1048649 15.9491892 68.1048649 15.9491892L68.0162162 16.5010811C67.9837838 16.7102703 68.1454054 16.9 68.3583784 16.9L70.1459459 16.9C70.4286486 16.9 70.6702703 16.6940541 70.7145946 16.4145946L71.7875676 9.62216216C71.8205405 9.41297297 71.6572973 9.22324324 71.4459459 9.22324324M68.6805405 13.0854054C68.4886486 14.22 67.5881081 14.9805405 66.4394595 14.9805405 65.8648649 14.9805405 65.4032432 14.7945946 65.1075676 14.4448649 64.812973 14.0972973 64.7027027 13.6021622 64.7962162 13.0513514 64.9745946 11.927027 65.8891892 11.1416216 67.02 11.1416216 67.5837838 11.1416216 68.0416216 11.3286486 68.3427027 11.6827027 68.6481081 12.0383784 68.767027 12.5367568 68.6805405 13.0854054M52.4583784 9.22324324L50.4648649 9.22324324C50.2735135 9.22324324 50.0951351 9.31783784 49.9886486 9.47567568L47.2367568 13.5275676 46.0708108 9.63351351C45.9972973 9.38972973 45.7735135 9.2227027 45.5189189 9.2227027L43.5578378 9.2227027C43.3216216 9.2227027 43.1545946 9.45567568 43.2313514 9.67945946L45.4275676 16.1259459 43.3621622 19.0405405C43.2 19.2686486 43.3637838 19.5854054 43.6437838 19.5854054L45.6367568 19.5854054C45.8248649 19.5854054 46.0021622 19.4924324 46.1097297 19.3372973L52.7427027 9.76486486C52.9010811 9.53621622 52.7372973 9.22324324 52.4583784 9.22324324M73.7843243 5.68162162L72.0837838 16.5010811C72.0497297 16.7113514 72.2124324 16.9010811 72.4248649 16.9010811L74.1356757 16.9010811C74.4189189 16.9010811 74.6610811 16.6940541 74.7043243 16.4151351L76.3821622 5.78918919C76.4156757 5.58 76.2535135 5.39027027 76.0405405 5.39027027L74.127027 5.39027027C73.9551351 5.39027027 73.8108108 5.51351351 73.7843243 5.68162162M6.38864865 5.19837838C6.42810811 4.94756757 6.58918919 4.74162162 6.80540541 4.6372973 6.90540541 4.59027027 7.01459459 4.56432432 7.13027027 4.56432432L11.8362162 4.56432432C12.3935135 4.56432432 12.9135135 4.60054054 13.3886486 4.67675676 13.5243243 4.69891892 13.6567568 4.72378378 13.7837838 4.75297297 13.9118919 4.78108108 14.0372973 4.81351351 14.1572973 4.84864865 14.2172973 4.86594595 14.2772973 4.88432432 14.3351351 4.90324324 14.5686486 4.98162162 14.7859459 5.07243243 14.9859459 5.17891892 15.2216216 3.67567568 14.9837838 2.65405405 14.1713514 1.72810811 13.2767568.708648649 11.66.271891892 9.59135135.271891892L3.58918919.271891892C3.16648649.271891892 2.80702703.579459459 2.74162162.996756757L.242162162 16.847027C.192432432 17.16.434054054 17.4432432.75027027 17.4432432L4.45513514 17.4432432 5.38702703 11.5405405 6.38864865 5.19837838 6.38864865 5.19837838 6.38864865 5.19837838z"/>
    <path fill="#DDD" d="M14.987027,5.17837838 L14.987027,5.17837838 C14.9686486,5.29351351 14.9486486,5.40972973 14.9248649,5.53027027 C14.1340541,9.59459459 11.4254054,10.9994595 7.96648649,10.9994595 L6.20432432,10.9994595 C5.78162162,10.9994595 5.42540541,11.3075676 5.35945946,11.7248649 L4.4572973,17.4432432 L4.20162162,19.0648649 C4.15837838,19.3383784 4.37027027,19.5864865 4.64702703,19.5864865 L7.76972973,19.5864865 C8.14,19.5864865 8.45513514,19.3172973 8.51135135,18.952973 L8.5427027,18.7935135 L9.13135135,15.0616216 L9.16972973,14.8556757 C9.22594595,14.4913514 9.54162162,14.2210811 9.91081081,14.2210811 L10.3789189,14.2210811 C13.4048649,14.2210811 15.7735135,12.9924324 16.4664865,9.43621622 C16.7556757,7.95027027 16.6064865,6.71027027 15.8416216,5.83837838 C15.6102703,5.57459459 15.3221622,5.35675676 14.987027,5.17837838"/>
    <path fill="#BBB" d="M13.7848649,4.75297297 C13.6578378,4.72432432 13.5254054,4.69945946 13.3897297,4.6772973 C12.9145946,4.6 12.3945946,4.56378378 11.8367568,4.56378378 L7.13243243,4.56378378 C7.01567568,4.56378378 6.90540541,4.59027027 6.80702703,4.63783784 C6.59027027,4.74216216 6.42918919,4.94702703 6.38972973,5.19891892 L5.38918919,11.5394595 L5.35945946,11.7243243 C5.42594595,11.3075676 5.78162162,10.9989189 6.20432432,10.9989189 L7.96648649,10.9989189 C11.4254054,10.9989189 14.1340541,9.59405405 14.9254054,5.52918919 C14.9491892,5.40918919 14.9691892,5.29243243 14.987027,5.17783784 C14.7864865,5.07243243 14.5702703,4.98108108 14.3362162,4.90324324 C14.2783784,4.88486486 14.2183784,4.86594595 14.1589189,4.84864865 C14.0372973,4.81351351 13.9135135,4.78108108 13.7848649,4.75297297 Z"/>
  </g>
</svg>
