<svg xmlns="http://www.w3.org/2000/svg" width="77" height="20" viewBox="0 0 77 20">
  <g fill="none">
    <path fill="#033A89" d="M14.2173451,1.72777477 C13.3199155,0.708315315 11.6980352,0.271018018 9.62283099,0.271018018 L3.60164789,0.271018018 C3.17706338,0.271018018 2.81646479,0.579126126 2.75085211,0.996423423 L0.242929577,16.8477748 C0.193584507,17.1602072 0.435971831,17.443991 0.753190141,17.443991 L4.46979577,17.443991 L5.40464085,11.5402072 L5.3748169,11.7250721 C5.44151408,11.3083153 5.79940141,10.9996667 6.22290141,10.9996667 L7.99010563,10.9996667 C11.4599859,10.9996667 14.1772183,9.5948018 14.9705352,5.53047748 C14.9943944,5.40993694 15.015,5.29318018 15.0328944,5.17858559 C14.931493,5.12615315 14.931493,5.12615315 15.0328944,5.17858559 C15.2709437,3.67588288 15.0323521,2.65372072 14.2173451,1.72777477"/>
    <path fill="#009CDE" d="M59.247162,5.3893964 L55.0902465,5.3893964 C54.8055634,5.3893964 54.5631761,5.59588288 54.5187113,5.87534234 L52.8371831,16.5007477 C52.8046479,16.7099369 52.9673239,16.8996667 53.1793451,16.8996667 L55.3131127,16.8996667 C55.5115775,16.8996667 55.6818451,16.7548018 55.7122113,16.5596667 L56.1888521,13.5466937 C56.2333169,13.2666937 56.475162,13.0607477 56.7598451,13.0607477 L58.0753521,13.0607477 C60.8142746,13.0607477 62.3944014,11.7407477 62.8070563,9.12182883 C62.9941338,7.97696396 62.8151901,7.0775045 62.2767324,6.44777477 C61.6856761,5.75588288 60.6385845,5.3893964 59.247162,5.3893964 M59.7265141,9.27047748 C59.4993099,10.7575045 58.359493,10.7575045 57.2576338,10.7575045 L56.6302465,10.7575045 L57.0710986,7.98020721 C57.0971268,7.81263964 57.2419085,7.68885586 57.4138028,7.68885586 L57.7006549,7.68885586 C58.4516761,7.68885586 59.1587746,7.68885586 59.525338,8.1148018 C59.7438662,8.37047748 59.8094789,8.74885586 59.7265141,9.27047748"/>
    <path fill="#003087" d="M29.5978239 5.3893964L25.4403662 5.3893964C25.1573099 5.3893964 24.9143803 5.59588288 24.8699155 5.87534234L23.1889296 16.5007477C23.1547676 16.7099369 23.3174437 16.8996667 23.5310915 16.8996667L25.5168239 16.8996667C25.799338 16.8996667 26.0422676 16.6937207 26.0867324 16.4142613L26.5405986 13.5472342C26.5839789 13.2672342 26.8263662 13.0612883 27.1110493 13.0612883L28.4265563 13.0612883C31.1654789 13.0612883 32.7456056 11.7412883 33.1588028 9.12236937 33.3447958 7.9775045 33.1663944 7.07804505 32.6279366 6.44831532 32.0368803 5.75588288 30.9887042 5.3893964 29.5978239 5.3893964M30.0777183 9.27047748C29.8505141 10.7575045 28.7106972 10.7575045 27.6082958 10.7575045L26.981993 10.7575045 27.4217606 7.98020721C27.448331 7.81263964 27.5941972 7.68885586 27.7639225 7.68885586L28.0518592 7.68885586C28.8017958 7.68885586 29.5099789 7.68885586 29.876 8.1148018 30.0945282 8.37047748 30.1606831 8.74885586 30.0777183 9.27047748M42.0230211 9.22290991L40.0324085 9.22290991C39.8626831 9.22290991 39.7168169 9.34669369 39.6897042 9.5148018L39.6029437 10.0693964 39.4641268 9.86831532C39.032493 9.24507207 38.0716197 9.03588288 37.111831 9.03588288 34.912993 9.03588288 33.0335423 10.696964 32.6691479 13.0272342 32.4782746 14.1893964 32.7488592 15.3007477 33.4098662 16.0753423 34.0166479 16.7866937 34.8842535 17.0834505 35.9167042 17.0834505 37.6904155 17.0834505 38.6724366 15.9488559 38.6724366 15.9488559L38.583507 16.5007477C38.5493451 16.7099369 38.7125634 16.8996667 38.9262113 16.8996667L40.7183592 16.8996667C41.0030423 16.8996667 41.2459718 16.6937207 41.2904366 16.4142613L42.3657254 9.62182883C42.3982606 9.41263964 42.2355845 9.22290991 42.0230211 9.22290991M39.2488521 13.0850721C39.0568944 14.2196667 38.1535 14.9802072 37.0017535 14.9802072 36.4247958 14.9802072 35.9617113 14.7942613 35.6645563 14.4445315 35.3706549 14.096964 35.2600352 13.6018288 35.3533028 13.051018 35.5317042 11.9266937 36.4497394 11.1412883 37.5835915 11.1412883 38.149162 11.1412883 38.6079085 11.3283153 38.9099437 11.6823694 39.2157746 12.038045 39.3361549 12.5364234 39.2488521 13.0850721"/>
    <path fill="#009CDE" d="M71.6723592,9.22290991 L69.6812042,9.22290991 C69.5114789,9.22290991 69.3661549,9.34669369 69.3379577,9.5148018 L69.2517394,10.0693964 L69.111838,9.86831532 C68.6807465,9.24507207 67.7204155,9.03588288 66.7600845,9.03588288 C64.5617887,9.03588288 62.682338,10.696964 62.3179437,13.0272342 C62.1270704,14.1893964 62.3971127,15.3007477 63.058662,16.0753423 C63.6659859,16.7866937 64.5330493,17.0834505 65.5649577,17.0834505 C67.338669,17.0834505 68.3206901,15.9488559 68.3206901,15.9488559 L68.2317606,16.5007477 C68.1992254,16.7099369 68.3613592,16.8996667 68.575007,16.8996667 L70.3682394,16.8996667 C70.651838,16.8996667 70.8942254,16.6937207 70.9386901,16.4142613 L72.0150634,9.62182883 C72.0481408,9.41263964 71.8843803,9.22290991 71.6723592,9.22290991 M68.8981901,13.0850721 C68.7056901,14.2196667 67.8022958,14.9802072 66.650007,14.9802072 C66.0735915,14.9802072 65.610507,14.7942613 65.3138944,14.4445315 C65.0183662,14.096964 64.9077465,13.6018288 65.0015563,13.051018 C65.1805,11.9266937 66.097993,11.1412883 67.2323873,11.1412883 C67.7979577,11.1412883 68.2572465,11.3283153 68.5592817,11.6823694 C68.8656549,12.038045 68.9849507,12.5364234 68.8981901,13.0850721"/>
    <path fill="#003087" d="M52.6246197,9.22290991 L50.6247887,9.22290991 C50.432831,9.22290991 50.2538873,9.3175045 50.1470634,9.47534234 L47.3864507,13.5272342 L46.2168099,9.63318018 C46.1430634,9.3893964 45.9185704,9.22236937 45.663169,9.22236937 L43.6958732,9.22236937 C43.4589085,9.22236937 43.2913521,9.45534234 43.3683521,9.67912613 L45.5715282,16.1256126 L43.4995775,19.0402072 C43.3369014,19.2683153 43.5012042,19.5850721 43.7820915,19.5850721 L45.7813803,19.5850721 C45.9700845,19.5850721 46.1479437,19.4920991 46.2558521,19.336964 L52.9098451,9.76453153 C53.0687254,9.53588288 52.9044225,9.22290991 52.6246197,9.22290991"/>
    <path fill="#009CDE" d="M73.7104646,5.29101802 L72.004535,16.1104775 C71.9703731,16.3207477 72.1335914,16.5104775 72.346697,16.5104775 L74.0629294,16.5104775 C74.3470702,16.5104775 74.5899998,16.3034505 74.6333801,16.0245315 L76.316535,5.39858559 C76.3501548,5.1893964 76.1874787,4.99966667 75.9738308,4.99966667 L74.0542533,4.99966667 C73.8818167,4.99966667 73.737035,5.12290991 73.7104646,5.29101802"/>
    <path fill="#033A89" d="M6.40889437,5.19804505 C6.44847887,4.94723423 6.61007042,4.74128829 6.82697183,4.63696396 C6.92728873,4.58993694 7.03682394,4.56399099 7.1528662,4.56399099 L11.8737254,4.56399099 C12.4327887,4.56399099 12.9544366,4.60020721 13.4310775,4.67642342 C13.5671831,4.69858559 13.7000352,4.72345045 13.8274648,4.75263964 C13.9559789,4.78074775 14.0817817,4.81318018 14.202162,4.84831532 C14.2623521,4.86561261 14.3225423,4.88399099 14.3805634,4.90290991 C14.6148169,4.98128829 14.8328028,5.0720991 15.0334366,5.17858559 C15.2698592,3.67534234 15.0312676,2.65372072 14.2162606,1.72777477 C13.318831,0.708315315 11.6969507,0.271558559 9.62174648,0.271558559 L3.60056338,0.271558559 C3.17652113,0.271558559 2.81592254,0.579126126 2.75030986,0.996423423 L0.242929577,16.8466937 C0.193042254,17.1596667 0.435429577,17.4429099 0.752647887,17.4429099 L4.46925352,17.4429099 L5.40409859,11.5402072 L6.40889437,5.19804505 L6.40889437,5.19804505 L6.40889437,5.19804505 Z"/>
    <path fill="#009CDE" d="M15.0345211,5.17804505 L15.0345211,5.17804505 C15.0160845,5.29318018 14.9960211,5.4093964 14.972162,5.52993694 C14.1788451,9.59426126 11.4616127,10.9991261 7.99173239,10.9991261 L6.22398592,10.9991261 C5.79994366,10.9991261 5.44259859,11.3072342 5.37644366,11.7245315 L4.47142254,17.4429099 L4.21493662,19.0645315 C4.17155634,19.338045 4.38411972,19.5861532 4.66175352,19.5861532 L7.79435211,19.5861532 C8.16579577,19.5861532 8.48192958,19.316964 8.53832394,18.9526396 L8.56977465,18.7931802 L9.16028873,15.0612883 L9.19878873,14.8553423 C9.2551831,14.491018 9.57185915,14.2207477 9.94221831,14.2207477 L10.4118099,14.2207477 C13.4473451,14.2207477 15.8235,12.9920991 16.518669,9.43588288 C16.8087746,7.94993694 16.6591127,6.70993694 15.8918239,5.83804505 C15.6597394,5.57426126 15.3707183,5.35642342 15.0345211,5.17804505"/>
    <path fill="#012668" d="M14.2037887,4.84831532 C14.0817817,4.81318018 13.9576056,4.78074775 13.8285493,4.75263964 C13.7011197,4.72399099 13.5682676,4.69912613 13.432162,4.67696396 C12.9555211,4.59966667 12.4338732,4.56345045 11.8742676,4.56345045 L7.15503521,4.56345045 C7.03790845,4.56345045 6.92728873,4.58993694 6.82859859,4.6375045 C6.61115493,4.74182883 6.44956338,4.94669369 6.40997887,5.19858559 L5.40626761,11.5391261 L5.37644366,11.723991 C5.44314085,11.3072342 5.79994366,10.9985856 6.22398592,10.9985856 L7.99173239,10.9985856 C11.4616127,10.9985856 14.1788451,9.59372072 14.9727042,5.52885586 C14.9965634,5.40885586 15.0166268,5.2920991 15.0345211,5.1775045 C14.8333451,5.0720991 14.6164437,4.98074775 14.3816479,4.90290991 C14.3236268,4.88453153 14.2634366,4.86561261 14.2037887,4.84831532"/>
  </g>
</svg>
