<svg xmlns="http://www.w3.org/2000/svg" width="60" height="20" viewBox="0 0 60 20">
  <path fill="#CCC" d="M20.846875,18.8734167 L23.845,0.335291667 L28.638125,0.335291667 L25.64,18.8734167 L20.846875,18.8734167 L20.846875,18.8734167 Z M43.01625,0.788416667 C42.069375,0.414041667 40.57125,-0.000333333333 38.7175,-0.000333333333 C33.983125,-0.000333333333 30.65,2.52404167 30.63,6.13279167 C30.59125,8.79466667 33.016875,10.2740417 34.831875,11.1615417 C36.686875,12.0690417 37.318125,12.6602917 37.318125,13.4690417 C37.2975,14.7109167 35.819375,15.2840417 34.43875,15.2840417 C32.525,15.2840417 31.5,14.9877917 29.9425,14.2971667 L29.31,14.0009167 L28.640625,18.1627917 C29.765625,18.6752917 31.835,19.1284167 33.985625,19.1490417 C39.015625,19.1490417 42.28875,16.6634167 42.32875,12.8184167 C42.348125,10.7084167 41.06625,9.09154167 38.305625,7.76966667 C36.628125,6.92154167 35.603125,6.34966667 35.603125,5.48216667 C35.623125,4.69341667 36.47125,3.88466667 38.36375,3.88466667 C39.9225,3.84529167 41.06625,4.21966667 41.935,4.59466667 L42.368125,4.79154167 L43.01625,0.788416667 L43.01625,0.788416667 Z M49.3875,12.3059167 C49.781875,11.2409167 51.30125,7.11904167 51.30125,7.11904167 C51.28125,7.15841667 51.695,6.03466667 51.9325,5.34466667 L52.2675,6.94154167 C52.2675,6.94154167 53.175,11.3796667 53.371875,12.3059167 L49.3875,12.3059167 L49.3875,12.3059167 Z M11.6375,10.4127917 L12.149375,12.9765417 L16.84375,0.335291667 L16.84375,0.335916667 L21.9125,0.335916667 L14.378125,18.8540417 L9.309375,18.8540417 L5.03734135,2.74588513 C3.56329874,1.88420477 1.88098869,1.19118853 0,0.710291667 L0.079375,0.335291667 L7.79125,0.335291667 C8.83625,0.374666667 9.685,0.709666667 9.959375,1.89279167 L11.6375,10.4127917 L11.6375,10.4127917 Z M55.304375,0.335291667 L51.595,0.335291667 C50.45125,0.335291667 49.583125,0.670291667 49.09,1.87341667 L41.969375,18.8734167 L46.999375,18.8734167 C46.999375,18.8734167 47.8275,16.5859167 48.00375,16.0927917 L54.15875,16.0927917 C54.2975,16.7434167 54.730625,18.8734167 54.730625,18.8734167 L59.16875,18.8734167 L55.304375,0.335291667 L55.304375,0.335291667 Z"/>
</svg>
