<svg xmlns="http://www.w3.org/2000/svg" width="20" height="22" viewBox="0 0 20 22">
  <g fill="none" fill-rule="evenodd" transform="translate(-2)">
    <rect width="24" height="24" opacity=".2"/>
    <path fill="#111" fill-rule="nonzero" d="M21.0014,4.993 L21.8914,21.007 C21.9214,21.555 21.4914,22 20.9544,22 L2.9384,22 C2.3904,22 1.9714,21.555 2.0014,21.007 L2.8914,4.993 C2.9214,4.445 3.3914,4 3.9394,4 L7.9464,4 C7.9464,1.791 9.7374,0 11.9464,0 C14.1554,0 15.9464,1.791 15.9464,4 L19.9534,4 C20.5014,4 20.9714,4.445 21.0014,4.993 Z M19.0544,6 L4.8384,6 L4.0604,20 L19.8324,20 L19.0544,6 Z M11.9464,1 C10.2894,1 8.9464,2.343 8.9464,4 L14.9464,4 C14.9464,2.343 13.6034,1 11.9464,1 Z"/>
  </g>
</svg>
