<svg xmlns="http://www.w3.org/2000/svg" width="20" height="22" viewBox="0 0 20 22">
  <g fill="none" fill-rule="evenodd" transform="translate(-2)">
    <rect width="24" height="24" opacity=".2"/>
    <path fill="#222" fill-rule="nonzero" d="M11.9465,1 C13.6035,1 14.9465,2.343 14.9465,4 L8.9465,4 C8.9465,2.343 10.2895,1 11.9465,1 L11.9465,1 Z M3.0035,21 L3.8895,5.049 C3.8905,5.029 3.9235,5 3.9395,5 L19.9535,5 C19.9695,5 20.0025,5.029 20.0035,5.049 L20.8895,21 L3.0035,21 Z M21.0015,4.993 C20.9715,4.445 20.5015,4 19.9535,4 L15.9465,4 C15.9465,1.791 14.1555,0 11.9465,0 C9.7375,0 7.9465,1.791 7.9465,4 L3.9395,4 C3.3915,4 2.9215,4.445 2.8915,4.993 L2.0015,21.007 C1.9715,21.555 2.3905,22 2.9385,22 L20.9545,22 C21.4915,22 21.9215,21.555 21.8915,21.007 L21.0015,4.993 Z"/>
  </g>
</svg>
