<svg xmlns="http://www.w3.org/2000/svg" width="22" height="16" viewBox="0 0 22 16">
  <g fill="none" fill-rule="evenodd" transform="translate(-1 -4)">
    <polygon points="0 24 24 24 24 0 0 0"/>
    <path fill="#222" fill-rule="nonzero" d="M16.0500299,18 L7.9499701,18 C7.71827408,19.1409879 6.70927199,20 5.5,20 C4.29072801,20 3.28172592,19.1409879 3.0500299,18 L1,18 L1,6 C1,4.9 1.9,4 3,4 L17,4 L17,7 L20,7 L23,11 L23,18 L20.9499701,18 C20.7182741,19.1409879 19.709272,20 18.5,20 C17.290728,20 16.2817259,19.1409879 16.0500299,18 Z M16.0500299,17 C16.2817259,15.8590121 17.290728,15 18.5,15 C19.709272,15 20.7182741,15.8590121 20.9499701,17 L22,17 L22,11.3335 L19.5,8 L17,8 L16,8 L16,7 L16,5 L3,5 C2.4485,5 2,5.4485 2,6 L2,17 L3.0500299,17 C3.28172592,15.8590121 4.29072801,15 5.5,15 C6.70927199,15 7.71827408,15.8590121 7.9499701,17 L16.0500299,17 Z M5.5,16 C4.673,16 4,16.673 4,17.5 C4,18.327 4.673,19 5.5,19 C6.327,19 7,18.327 7,17.5 C7,16.673 6.327,16 5.5,16 Z M18.5,16 C17.673,16 17,16.673 17,17.5 C17,18.327 17.673,19 18.5,19 C19.327,19 20,18.327 20,17.5 C20,16.673 19.327,16 18.5,16 Z"/>
  </g>
</svg>
