<svg xmlns="http://www.w3.org/2000/svg" width="20" height="20" viewBox="0 0 20 20">
  <g fill="none" fill-rule="evenodd" transform="translate(-2 -3)">
    <polygon points=".25 .995 24.25 .995 24.25 24.995 .25 24.995"/>
    <path fill="#222" fill-rule="nonzero" d="M12.0028932,3.99710678 C12.0034175,3.99763107 3.00710678,12.9971068 3.00710678,12.9971068 C3.00763107,12.9965825 12.0071068,21.9928932 12.0071068,21.9928932 C12.0065825,21.9923689 21.0121353,12.9837704 21.0121353,12.9837704 C21.0023108,12.993343 12.0028932,3.99710678 12.0028932,3.99710678 Z M21.71,12.29 C22.1,12.69 22.1,13.32 21.71,13.7 L12.71,22.7 C12.32,23.09 11.69,23.09 11.3,22.7 L2.3,13.7 C1.91,13.31 1.91,12.68 2.3,12.29 L11.3,3.29 C11.69,2.9 12.32,2.9 12.71,3.29 L21.71,12.29 Z"/>
    <path fill="#222" fill-rule="nonzero" d="M13,15.5 L13,13 L10,13 L10,16 L8,16 L8,12 C8,11.45 8.45,11 9,11 L13,11 L13,8.5 L16.5,12 L13,15.5 L13,15.5 Z"/>
  </g>
</svg>
