<svg xmlns="http://www.w3.org/2000/svg" width="22" height="22" viewBox="0 0 22 22">
  <g fill="none" fill-rule="evenodd" transform="translate(-1 -1)">
    <polygon points="0 24 24 24 24 0 0 0"/>
    <path fill="#1D1D1B" fill-rule="nonzero" d="M14.0197865,9.00170231 L15.2260334,7.72323149 L8.65154424,5 L5,5 C4.4475,5 4,4.5525 4,4 L4,3 C4,2.4475 4.4475,2 5,2 L19,2 C19.4512607,2 19.832476,2.29852698 19.957031,2.708966 L21.2931,1.2929 C21.6836,0.9024 22.3166,0.9024 22.7071,1.2929 C23.0976,1.6834 23.0976,2.3164 22.7071,2.7069 L19,6.25421785 L19,19 L18,19 L18,17.8721357 L10.224523,14.6515151 L8.92751551,15.8925542 L16.4293126,19 L19,19 C19.5525,19 20,19.4475 20,20 L20,21 C20,21.5525 19.5525,22 19,22 L5,22 C4.4475,22 4,21.5525 4,21 L4,20.6074383 L1.4998,22.99975 C1.4023,23.09775 1.2443,23.09775 1.1463,22.99975 C1.0488,22.90225 1.0488,22.74425 1.1463,22.64625 L4.17089699,19.4405451 C4.23177204,19.3504783 4.30694014,19.2708741 4.39315289,19.2049809 L5,18.5617968 L5,5 L6,5 L6,5.67988807 L14.0197865,9.00170231 Z M15.4916504,9.61135176 L18,10.650316 L18,8.87224137 L16.7884817,8.37041609 L15.4916504,9.61135176 Z M17.795423,5 L15.2224314,5 L17.0723693,5.76634648 L17.795423,5 Z M18,7.21111619 L17.1831559,7.992753 L18,8.33111652 L18,7.21111619 Z M15.593159,7.33412435 L16.7053782,6.15531114 L13.9158074,5 L9.95834411,5 L15.593159,7.33412435 Z M19,3.72329911 L19,3 L5,3 L5,4 L18.7389306,4 L19,3.72329911 Z M6,17.5019184 L6.06798963,17.4298577 L6,17.4016973 L6,17.5019184 Z M6,18.693742 L6,19 L5.67993041,19 L5.67993041,19 L9.8589048,19 L6.94238725,17.7920205 L6,18.693742 Z M9.12073186,14.1943222 L6,12.9017078 L6,14.6798987 L7.91439502,15.4728925 L9.12073186,14.1943222 Z M7.54717263,15.8621036 L6,15.2212232 L6,16.8603956 L6.43519679,17.0406627 L7.54717263,15.8621036 Z M8.53269798,16.2703347 L7.33716676,17.4142765 L11.165385,19 L15.1224817,19 L8.53269798,16.2703347 Z M6,6.22120782 L6,7.86038807 L18,12.830816 L18,11.1916357 L6,6.22120782 Z M6,8.40170782 L6,10.1798881 L18,15.150316 L18,13.3721357 L6,8.40170782 Z M6,10.7212078 L6,12.3603881 L18,17.330816 L18,15.6916357 L6,10.7212078 Z M5,21 L19,21 L19,20 L5,20 L5,21 Z M21.64645,1.64645 L21.14645,2.14645 C20.95095,2.34195 20.95095,2.65845 21.14645,2.85345 C21.34195,3.04895 21.65845,3.04895 21.85345,2.85345 L22.35345,2.35345 C22.54895,2.15845 22.54895,1.84195 22.35345,1.64645 C22.15845,1.45095 21.84195,1.45095 21.64645,1.64645 Z"/>
  </g>
</svg>
