<svg xmlns="http://www.w3.org/2000/svg" width="23" height="20" viewBox="0 0 23 20">
  <g fill="none" fill-rule="evenodd" transform="translate(-.258 -2)">
    <polygon points="0 24 24 24 24 0 0 0"/>
    <path fill="#222" fill-rule="nonzero" d="M2.1954,13.0797583 L2.12934658,12.832442 L1.04035,8.76830833 C0.807975,7.9011 1.32201667,7.01005833 2.189225,6.778225 L17.8856417,2.57218333 C18.026475,2.53426667 18.16785,2.51639167 18.3070583,2.51639167 C19.0247667,2.51639167 19.6812667,2.995225 19.875725,3.72105833 L22.959975,15.2320167 C23.19235,16.0986833 22.6777667,16.989725 21.8111,17.2221 L6.11468333,21.4276 C5.97385,21.4655167 5.83193333,21.4833917 5.692725,21.4833917 C4.97555833,21.4833917 4.31905833,21.0051 4.1246,20.278725 L2.19560126,13.0797044 L2.1954,13.0797583 Z M20.5078384,8.17316447 L8.08156643,11.502632 L10.2909298,19.7482239 L21.6708083,16.69885 C22.2476833,16.544475 22.5911,15.9491833 22.436725,15.3717667 L20.5078384,8.17316447 Z M20.4377505,7.91159652 L19.352475,3.86135 C19.225725,3.388475 18.7956417,3.05805833 18.3070583,3.05805833 C18.2128083,3.05805833 18.1180167,3.07051667 18.0253917,3.09543333 L6.64586306,6.14442599 L8.01148052,11.2410636 L20.4377505,7.91159652 Z M2.71836918,12.9396351 L4.64730833,20.1384333 C4.77405833,20.61185 5.20414167,20.941725 5.692725,20.941725 C5.78751667,20.941725 5.88176667,20.9292667 5.97439167,20.9048917 L10.0293624,19.818314 L7.81999748,11.5727162 L2.71836918,12.9396351 Z M2.64828128,12.6780672 L7.74991157,11.3111477 L6.38429404,6.21450991 L2.32951667,7.30093333 C2.05001667,7.376225 1.81601667,7.55551667 1.67139167,7.80576667 C1.52676667,8.05655833 1.48830833,8.34851667 1.56305833,8.62801667 L2.64828128,12.6780672 Z"/>
    <path fill="#222" fill-rule="nonzero" d="M7.74345572,10.7645923 L7.68573333,9.91555833 C7.62615,8.79430833 8.0844,7.99914167 8.84110833,7.79926667 C8.96244167,7.76730833 9.08431667,7.75214167 9.20456667,7.75214167 C9.83344167,7.75214167 10.4108583,8.17139167 10.5831083,8.80514167 C10.7884,9.56076667 10.312275,10.3451 9.32860833,10.8640167 L8.5743498,11.2336568 L9.40677083,11.1770458 C9.4723125,11.1732542 9.53677083,11.1716292 9.60014583,11.1716292 C10.6190208,11.1716292 11.3351042,11.6195875 11.5230625,12.3318792 C11.7223958,13.0891292 11.2722708,13.8691292 10.5171875,14.0744208 C10.4012708,14.1058375 10.2842708,14.1215458 10.1678125,14.1215458 C9.52702083,14.1215458 8.89760417,13.6524625 8.4583125,12.8193792 L8.09587666,12.0795481 L8.15178333,12.901875 C8.194575,14.013375 7.75311667,14.81775 6.99640833,15.017625 C6.875075,15.0495833 6.7532,15.0652917 6.63295,15.0652917 C6.004075,15.0652917 5.42665833,14.6460417 5.25440833,14.01175 C5.048575,13.2566667 5.50790833,12.4620417 6.50945,11.9534167 L7.25902622,11.5859408 L6.42099583,11.6429333 C6.3711625,11.6451 6.3224125,11.6456417 6.27420417,11.6456417 C5.23907917,11.6456417 4.49537083,11.2106833 4.30470417,10.4875583 C4.10482917,9.73085 4.55549583,8.95085 5.31057917,8.74555833 C5.42920417,8.71305833 5.54837083,8.69735 5.6675375,8.69735 C6.3077875,8.69735 6.9399125,9.15614167 7.3689125,10.0006 L7.74345572,10.7645923 Z M9.20456667,8.022975 C9.10544167,8.022975 9.00631667,8.035975 8.9099,8.06143333 C8.27019167,8.23043333 7.90456667,8.93514167 7.956025,9.90093333 L8.043775,11.191725 L9.2089,10.6208083 C10.0625667,10.1706833 10.4915667,9.50064167 10.322025,8.87664167 C10.1849833,8.373975 9.72565,8.022975 9.20456667,8.022975 Z M7.79374167,11.6257083 L6.62861667,12.196625 C5.76953333,12.6332083 5.34215833,13.3021667 5.51549167,13.9407917 C5.65253333,14.4434583 6.11186667,14.7944583 6.63295,14.7944583 C6.732075,14.7944583 6.8312,14.7814583 6.92761667,14.756 C7.55324167,14.5907917 7.918325,13.8844583 7.88095,12.9121667 L7.79374167,11.6257083 Z M9.60014583,11.4424625 C9.54164583,11.4424625 9.4820625,11.4440875 9.42139583,11.4473375 L8.13060417,11.5350875 L8.70152083,12.7002125 C9.08610417,13.4287542 9.6218125,13.8507125 10.1678125,13.8507125 C10.2609792,13.8507125 10.3541458,13.8377125 10.4456875,13.8127958 C11.0572292,13.6470458 11.4228542,13.0132958 11.2608958,12.4012125 C11.1027292,11.8010458 10.4819792,11.4424625 9.60014583,11.4424625 Z M5.6675375,8.96818333 C5.57220417,8.96818333 5.4757875,8.98118333 5.3815375,9.00664167 C4.7705375,9.17293333 4.4049125,9.80614167 4.56632917,10.4187667 C4.72449583,11.0173083 5.36312083,11.3748083 6.27420417,11.3748083 C6.3191625,11.3748083 6.36412083,11.3742667 6.4101625,11.3721 L7.6971625,11.2848917 L7.12570417,10.1197667 C6.7546625,9.38905833 6.22220417,8.96818333 5.6675375,8.96818333 Z"/>
  </g>
</svg>
