<svg xmlns="http://www.w3.org/2000/svg" width="20" height="17" viewBox="0 0 20 17">
  <g fill="none" fill-rule="evenodd" transform="translate(-2 -3)">
    <polygon points="0 0 24 0 24 24 0 24"/>
    <path fill="#000" fill-rule="nonzero" d="M14,14 L14,14 L10,14 L11,13 L11,19 L10,18 L14,18 L13,19 L13,13 L14,14 Z M14,13 L14,13 L14,19 L10,19 L10,13 L14,13 Z"/>
    <path fill="#000" fill-rule="nonzero" d="M19,20 L19,20 L5,20 L5,12 L2,12 L12,3 L22,12 L19,12 L19,20 Z M4.22222222,10 L5,10 L7,10 L7,12 L7,20 L5,18 L19,18 L17,20 L17,12 L17,10 L19,10 L19.7777778,10 L21.4295425,11.4865883 L21.232528,12 L19.0103058,12 L10.6620705,4.48658829 L13.3379295,4.48658829 L4.98969423,12 L2.76747201,12 L2.57045745,11.4865883 L4.22222222,10 L4.22222222,10 Z"/>
  </g>
</svg>
