<svg xmlns="http://www.w3.org/2000/svg" width="18" height="18" viewBox="0 0 18 18">
  <g fill="none" fill-rule="evenodd" transform="translate(-3 -3)">
    <polygon points="24 0 24 24 0 24 0 0"/>
    <path fill="#222" fill-rule="nonzero" d="M16.7485272,9.19244069 L18.8698476,17.6777221 L18.9385082,17.9523647 L18.7383297,18.1525433 L17.3241161,19.5667568 L16.833587,20.057286 L16.5233492,19.4368102 L12.9878152,12.3657424 L13.7885822,12.495689 L9.89949494,16.3847763 L10.0409163,15.9605122 L10.3944697,18.435386 L10.429825,18.6828733 L10.2530483,18.85965 L9.19238816,19.9203102 L8.72367182,20.3890265 L8.40175613,19.8095783 L6.63398917,16.6275978 L6.82824635,16.8218549 L3.64626583,15.054088 L3.06681758,14.7321723 L3.53553391,14.263456 L4.59619408,13.2027958 L4.77297077,13.0260191 L5.02045815,13.0613744 L7.49533188,13.4149278 L7.07106781,13.5563492 L10.9601551,9.66726189 L11.0901017,10.4680289 L4.01903389,6.93249497 L3.39855817,6.62225711 L3.8890873,6.13172798 L5.30330086,4.71751442 L5.50347939,4.51733589 L5.77812206,4.58599656 L14.2634034,6.70731691 L13.7885822,6.83883476 L16.6170094,4.01040764 C17.3991701,3.22824687 18.6632757,3.22824687 19.4454365,4.01040764 C20.2275973,4.79256841 20.2275973,6.05667399 19.4454365,6.83883476 L16.6170094,9.66726189 L16.7485272,9.19244069 Z M18.0312229,17.4454365 L17.8997051,17.9202577 L15.7783847,9.43497631 L15.709724,9.16033364 L15.9099026,8.96015511 L18.7383297,6.13172798 C19.1299662,5.7400915 19.1299662,5.1091509 18.7383297,4.71751442 C18.3466932,4.32587794 17.7157526,4.32587794 17.3241161,4.71751442 L14.495689,7.54594155 L14.2955105,7.74612007 L14.0208678,7.67745941 L5.53558644,5.55613906 L6.01040764,5.4246212 L4.59619408,6.83883476 L4.46624748,6.03806778 L11.5373153,9.57360168 L12.157791,9.88383954 L11.6672619,10.3743687 L7.77817459,14.263456 L7.6013979,14.4402327 L7.35391052,14.4048773 L4.87903679,14.0513239 L5.30330086,13.9099026 L4.24264069,14.9705627 L4.13190876,14.1799307 L7.31388928,15.9476977 L7.43876889,16.0170752 L7.50814645,16.1419548 L9.2759134,19.3239354 L8.48528137,19.2132034 L9.54594155,18.1525433 L9.40452019,18.5768073 L9.0509668,16.1019336 L9.01561146,15.8544462 L9.19238816,15.6776695 L13.0814755,11.7885822 L13.5720046,11.2980531 L13.8822424,11.9185288 L17.4177763,18.9895966 L16.6170094,18.85965 L18.0312229,17.4454365 Z"/>
  </g>
</svg>
