<svg xmlns="http://www.w3.org/2000/svg" width="131" height="12" viewBox="0 0 131 12">
  <g fill="#222">
    <path d="M36.4360846 8.86251818L36.4360846 10.6321091C35.2459783 11.2756091 33.8722391 11.5972909 32.3143167 11.5972909 31.0486939 11.5972909 29.9748197 11.3452909 29.0932441 10.8411545 28.2115311 10.3371545 27.513726 9.64279091 26.9999665 8.75792727 26.4860695 7.8732 26.2291209 6.91606364 26.2291209 5.88638182 26.2291209 4.25097273 26.817434 2.87547273 27.9939226 1.76015455 29.1704112.644836364 30.6213176.0871090909 32.3467792.0871090909 33.5367479.0871090909 34.8593176.395427273 36.3143505 1.01206364L36.3143505 2.74142727C34.9890298 1.99074545 33.6936956 1.61533636 32.4279353 1.61533636 31.12985 1.61533636 30.0519868 2.02156364 29.1946205 2.83388182 28.3372543 3.64633636 27.9086399 4.66388182 27.9086399 5.88638182 27.9086399 7.11979091 28.3306517 8.13324545 29.1744003 8.92688182 30.0182863 9.72051818 31.0973876 10.1173364 32.4117041 10.1173364 33.7855808 10.1173364 35.1269952 9.69897273 36.4360846 8.86251818M49.8272568.231872727L51.8551969.231872727 46.9386492 5.56464545 53.0640104 11.4686455 50.8491361 11.4686455 45.0559648 5.91864545 45.0559648 11.4686455 43.4332551 11.4686455 43.4332551.231872727 45.0559648.231872727 45.0559648 5.37169091 49.8272568.231872727zM81.2616899.231872727L82.8799979.231872727 78.2974283 11.5169182 77.9408916 11.5169182 74.2349456 2.37946364 70.4904848 11.5169182 70.1420637 11.5169182 65.573662.231872727 67.2086139.231872727 70.3322992 7.97773636 73.4767549.231872727 75.010743.231872727 78.1700544 7.97773636 81.2616899.231872727zM89.138854.231818182L90.7615637.231818182 90.7615637 11.4685909 89.138854 11.4685909 89.138854.231818182zM98.2617783.231872727L99.884488.231872727 99.884488 10.0046455 104.98797 10.0046455 104.98797 11.4686455 98.2617783 11.4686455 98.2617783.231872727zM111.392797.231872727L113.015507.231872727 113.015507 10.0046455 118.118989 10.0046455 118.118989 11.4686455 111.392797 11.4686455 111.392797.231872727zM127.331185 6.76048636L126.097887 6.01785C125.32429 5.54944091 124.773942 5.08880455 124.446841 4.63566818 124.119466 4.18253182 123.955915 3.66107727 123.955915 3.07116818 123.955915 2.18644091 124.265547 1.46794091 124.884947.915531818 125.504209.363259091 126.308893.0871227273 127.298722.0871227273 128.245223.0871227273 129.113318.350577273 129.903146.87735L129.903146 2.70325909C129.086358 1.92435 128.207396 1.53489545 127.26626 1.53489545 126.736131 1.53489545 126.300777 1.65639545 125.959921 1.89953182 125.619203 2.14253182 125.448775 2.45357727 125.448775 2.83280455 125.448775 3.16935 125.574361 3.48462273 125.825395 3.77835 126.076428 4.07207727 126.480008 4.38066818 127.036271 4.70371364L128.275622 5.43066818C129.658164 6.24939545 130.349504 7.29135 130.349504 8.55680455 130.349504 9.45775909 130.045238 10.1896227 129.436704 10.7526682 128.828171 11.3157136 128.037105 11.5973045 127.063369 11.5973045 125.94369 11.5973045 124.924149 11.2561227 124.004609 10.5737591L124.004609 8.53075909C124.88082 9.63135 125.895134 10.1815773 127.047138 10.1815773 127.555533 10.1815773 127.97892 10.0413955 128.317025 9.76089545 128.654992 9.48039545 128.824044 9.12912273 128.824044 8.70694091 128.824044 8.02294091 128.326379 7.37412273 127.331185 6.76048636zM2.17743241.272318182L3.72723916.272318182 3.72723916 8.24359091C3.72723916 9.23195455 3.62517502 9.963 3.4211843 10.4367273 3.21705603 10.9103182 2.88761722 11.2894091 2.43314295 11.5735909 1.97853114 11.8579091 1.43093367 12 .790350549 12 .692275443 12 .524461097 11.9845909.286769958 11.9539091L-.0000275105485 10.5250909.395161519 10.5250909C.839456878 10.5250909 1.1790746 10.4713636 1.41415224 10.3637727 1.64909232 10.2561818 1.83506363 10.0666364 1.97206616 9.79527273 2.10893114 9.52377273 2.17743241 8.94763636 2.17743241 8.06686364L2.17743241.272318182zM14.8835231.16755L16.0239729.16755 21.1062716 11.46855 19.4453223 11.46855 17.9347181 8.13855 13.0987763 8.13855 11.6825332 11.46855 10.0148438 11.46855 14.8835231.16755zM17.2675873 6.70686818L15.4388235 2.63682273 13.7429358 6.70686818 17.2675873 6.70686818z"/>
  </g>
</svg>
