<svg xmlns="http://www.w3.org/2000/svg" width="20" height="20" viewBox="0 0 20 20">
  <g fill="none" fill-rule="evenodd" transform="translate(-2 -2)">
    <polygon points="0 0 24 0 24 24 0 24"/>
    <path fill="#222" fill-rule="nonzero" d="M11.8995,2 C17.3665,2 21.7985,6.145 21.7985,11.257 C21.7985,16.369 17.3665,20.514 11.8995,20.514 C10.9105,20.514 9.9565,20.378 9.0555,20.126 L5.6775,22 L5.6775,18.457 C3.4345,16.76 1.9995,14.165 1.9995,11.257 C1.9995,6.145 6.4325,2 11.8995,2 Z M11.8995,4 C7.5435,4 3.9995,7.255 3.9995,11.257 C3.9995,13.432 5.0515,15.475 6.8845,16.862 L7.6775,17.462 L7.6775,18.457 L7.6775,18.603 L8.0855,18.377 L8.8045,17.979 L9.5945,18.2 C10.3385,18.408 11.1135,18.514 11.8995,18.514 C16.2555,18.514 19.7985,15.258 19.7985,11.257 C19.7985,7.255 16.2555,4 11.8995,4 Z"/>
  </g>
</svg>
