<svg xmlns="http://www.w3.org/2000/svg" width="20" height="20" viewBox="0 0 20 20">
  <g fill="none" fill-rule="evenodd" transform="translate(-2 -2)">
    <polygon points="0 0 24 0 24 24 0 24"/>
    <path fill="#222" fill-rule="nonzero" d="M11.9,2 C6.433,2 2,6.145 2,11.257 C2,14.165 3.435,16.76 5.678,18.457 L5.678,22 L9.056,20.126 C9.957,20.378 10.911,20.514 11.9,20.514 C17.367,20.514 21.799,16.369 21.799,11.257 C21.799,6.145 17.367,2 11.9,2 M11.9,3 C16.807,3 20.799,6.704 20.799,11.257 C20.799,15.81 16.807,19.514 11.9,19.514 C11.023,19.514 10.157,19.396 9.326,19.163 L8.931,19.052 L8.571,19.252 L6.678,20.302 L6.678,18.457 L6.678,17.96 L6.282,17.659 C4.196,16.082 3,13.749 3,11.257 C3,6.704 6.993,3 11.9,3"/>
  </g>
</svg>
