<svg xmlns="http://www.w3.org/2000/svg" width="18" height="18" viewBox="0 0 18 18">
  <g fill="none" fill-rule="evenodd" transform="translate(-3 -3)">
    <polygon points="0 24 24 24 24 0 0 0"/>
    <path fill="#000" fill-rule="nonzero" d="M19.5 19.5L4.5 19.5 4.5 18C4.5 16.1387533 8.59074562 14.5 12 14.5L12 13.5C8.08423565 13.5 3.5 15.3364455 3.5 18L3.5 20.5 20.5 20.5 20.5 18C20.5 15.3364455 15.9157643 13.5 12 13.5L12 14.5C15.4092544 14.5 19.5 16.1387533 19.5 18L19.5 19.5zM12 11.3701172C13.8715118 11.3701172 15.3886719 9.85295711 15.3886719 7.98144531 15.3886719 6.10993351 13.8715118 4.59277344 12 4.59277344 10.1284882 4.59277344 8.61132812 6.10993351 8.61132812 7.98144531 8.61132812 9.85295711 10.1284882 11.3701172 12 11.3701172zM12 12.4814453C9.51471863 12.4814453 7.5 10.4667267 7.5 7.98144531 7.5 5.49616394 9.51471863 3.48144531 12 3.48144531 14.4852814 3.48144531 16.5 5.49616394 16.5 7.98144531 16.5 10.4667267 14.4852814 12.4814453 12 12.4814453z"/>
  </g>
</svg>
