<svg xmlns="http://www.w3.org/2000/svg" width="18" height="17" viewBox="0 0 18 17">
  <g fill="none" fill-rule="evenodd" transform="translate(-3 -3)">
    <polygon points="0 24 24 24 24 0 0 0"/>
    <path fill="#222" fill-rule="nonzero" d="M15,6 L20.01755,6 C20.28655,6 20.50755,6.213 20.51705,6.482 L20.98155,19.482 C20.99155,19.765 20.76505,20 20.48205,20 L3.51805,20 C3.23505,20 3.00855,19.765 3.01855,19.482 L3.48255,6.482 C3.49255,6.213 3.71305,6 3.98255,6 L9,6 C9,4.343 10.343,3 12,3 C13.657,3 15,4.343 15,6 Z M10,6 L14,6 C14,4.897 13.103,4 12,4 C10.897,4 10,4.897 10,6 Z M19.53505,7 L4.46505,7 L4.03655,19 L19.96355,19 L19.53505,7 Z"/>
  </g>
</svg>
