<svg xmlns="http://www.w3.org/2000/svg" width="20" height="16" viewBox="0 0 20 16">
  <g fill="none" fill-rule="evenodd" transform="translate(-2 -4)">
    <polygon points="0 24 24 24 24 0 0 0"/>
    <path fill="#222" fill-rule="nonzero" d="M21,4 C21.5525,4 22,4.4475 22,5 L22,19 C22,19.5525 21.5525,20 21,20 L3,20 C2.4475,20 2,19.5525 2,19 L2,5 C2,4.4475 2.4475,4 3,4 L21,4 Z M3,19 L21,19 L21,5 L3,5 L3,19 Z M6,15 L6,14 L18,14 L18,15 L6,15 Z M6,17 L6,16 L18,16 L18,17 L6,17 Z M6,11 L9,11 L9,13 L6,13 L6,11 Z M17.5,7 L18.5,7 L18.5,8 L17.5,8 L17.5,7 Z M15.5,7 L16.5,7 L16.5,8 L15.5,8 L15.5,7 Z"/>
  </g>
</svg>
