<svg xmlns="http://www.w3.org/2000/svg" width="20" height="19" viewBox="0 0 20 19">
  <g fill="none" fill-rule="evenodd" transform="translate(-1.953 -2.32)">
    <polygon points="0 24 24 24 24 0 0 0"/>
    <path fill="#222" fill-rule="nonzero" d="M12,3 C8.73,3 5.8705,4.7455 4.294,7.354 L3.4835,2.9425 L2.5,3.1235 L3.613,9.1785 L9.6685,8.0655 L9.488,7.082 L5.142,7.8805 C6.5855,5.4725 9.157,4 12,4 C16.411,4 20,7.589 20,12 C20,16.411 16.411,20 12,20 C7.589,20 4,16.411 4,12 L3,12 C3,16.9705 7.0295,21 12,21 C16.9705,21 21,16.9705 21,12 C21,7.0295 16.9705,3 12,3"/>
  </g>
</svg>
