<svg xmlns="http://www.w3.org/2000/svg" width="20" height="20" viewBox="0 0 20 20">
  <g fill="none" fill-rule="evenodd" transform="translate(-2 -2)">
    <polygon points="0 0 24 0 24 24 0 24"/>
    <path fill="#111" d="M16.3404493,14.8801826 L21.86,20.3997333 C22.18,20.7197333 21.8533333,21.0464 21.8533333,21.0464 L21.0466667,21.8530667 C20.72,22.1797333 20.4,21.8597333 20.4,21.8597333 L14.8804493,16.3401826 C13.5301062,17.3809122 11.8376522,17.9997333 10,17.9997333 C5.58,17.9997333 2,14.4197333 2,9.99973333 C2,5.57973333 5.58,1.99973333 10,1.99973333 C14.42,1.99973333 18,5.57973333 18,9.99973333 C18,11.8373856 17.3811789,13.5298396 16.3404493,14.8801826 Z M4,9.99973333 C4,13.3130667 6.68666667,15.9997333 10,15.9997333 C13.3133333,15.9997333 16,13.3130667 16,9.99973333 C16,6.6864 13.3133333,3.99973333 10,3.99973333 C6.68666667,3.99973333 4,6.6864 4,9.99973333 Z"/>
  </g>
</svg>
