<svg xmlns="http://www.w3.org/2000/svg" width="17" height="21" viewBox="0 0 17 21">
  <g fill="none" fill-rule="evenodd" transform="translate(-4 -1)">
    <path fill="#222" fill-rule="nonzero" d="M20,20 C20,20.551 19.551,21 19,21 L6,21 C5.449,21 5,20.551 5,20 L5,10 C5,9.449 5.449,9 6,9 L7,9 L8,9 L17,9 L18,9 L19,9 C19.551,9 20,9.449 20,10 L20,20 L20,20 Z M9,5.5 C9,3.57 10.57,2 12.5,2 C14.43,2 16,3.57 16,5.5 L16,8 L9,8 L9,5.5 L9,5.5 Z M19,8 L17,8 L17,5.5 C17,3.016 14.984,1 12.5,1 C10.016,1 8,3.016 8,5.5 L8,8 L6,8 C4.9,8 4,8.9 4,10 L4,20 C4,21.1 4.9,22 6,22 L19,22 C20.1,22 21,21.1 21,20 L21,10 C21,8.9 20.1,8 19,8 L19,8 Z"/>
    <polygon fill="#222" points="12 17 13 17 13 13 12 13"/>
    <rect width="24" height="24"/>
  </g>
</svg>
