<svg xmlns="http://www.w3.org/2000/svg" width="16" height="20" viewBox="0 0 16 20">
  <g fill="none" fill-rule="evenodd" transform="translate(-4 -2)">
    <rect width="24" height="24"/>
    <path fill="#111" fill-rule="nonzero" d="M4,10 C4,5.57714286 7.57714286,2 12,2 C16.4228571,2 20,5.57714286 20,10 C20,16 12,21.8571429 12,21.8571429 C12,21.8571429 4,16 4,10 Z M6,10 C6,12.0164645 7.28536194,14.4035652 9.48420529,16.8379989 C10.2976996,17.7386533 11.174893,18.5782527 12.0515827,19.3297011 C12.3574366,19.5918615 12.6401944,19.8233501 12.8918931,20.0211133 C13.0376304,20.1356212 13.1368002,20.2107069 13.1814777,20.2434172 L10.8185223,20.2434172 C10.8631998,20.2107069 10.9623696,20.1356212 11.1081069,20.0211133 C11.3598056,19.8233501 11.6425634,19.5918615 11.9484173,19.3297011 C12.825107,18.5782527 13.7023004,17.7386533 14.5157947,16.8379989 C16.7146381,14.4035652 18,12.0164645 18,10 C18,6.68171236 15.3182876,4 12,4 C8.68171236,4 6,6.68171236 6,10 Z"/>
    <path fill="#111" fill-rule="nonzero" d="M12,12 C10.896,12 10,11.104 10,10 C10,8.896 10.896,8 12,8 C13.104,8 14,8.896 14,10 C14,11.104 13.104,12 12,12 L12,12 Z"/>
  </g>
</svg>
