<svg xmlns="http://www.w3.org/2000/svg" width="20" height="19" viewBox="0 0 20 19">
  <g fill="none" fill-rule="evenodd" transform="translate(-2 -3)">
    <polygon points="0 0 24 0 24 24 0 24"/>
    <path fill="#111" fill-rule="nonzero" d="M16.5,3 C19.58,3 22,5.42 22,8.5 C22,12.28 18.6,15.36 13.45,20.03 L12,21.35 L10.55,20.04 C5.4,15.36 2,12.28 2,8.5 C2,5.42 4.42,3 7.5,3 C9.24,3 10.91,3.81 12,5.09 C13.09,3.81 14.76,3 16.5,3 Z M12.1,18.55 C16.86,14.24 20,11.39 20,8.5 C20,6.5 18.5,5 16.5,5 C14.96,5 13.46,5.99 12.94,7.36 L11.07,7.36 C10.54,5.99 9.04,5 7.5,5 C5.5,5 4,6.5 4,8.5 C4,11.39 7.14,14.24 11.9,18.55 L12,18.65 L12.1,18.55 Z"/>
  </g>
</svg>
