<svg id="Layer_1" data-name="Layer 1" xmlns="http://www.w3.org/2000/svg" viewBox="0 0 40 23.7"><title>American flag</title><path fill="#787878" d="M39.95,1.83V0H0V12.77H39.94V10.85h-22V9.08h22V7.24h-22V5.48h22V3.64h-22V1.83h22ZM2.44,11.06l-0.62-.33-0.63.32,0.12-.69-0.5-.49,0.7-.1,0.32-.62L2.14,9.79l0.7,0.11-0.51.48ZM2.32,6.47L2.44,7.16,1.82,6.83l-0.63.32,0.12-.69L0.82,6l0.7-.1,0.32-.62L2.14,5.88,2.83,6Zm0-3.9L2.44,3.25,1.82,2.93l-0.63.32,0.12-.69-0.5-.49L1.51,2l0.32-.62L2.14,2l0.7,0.11ZM4.89,9.11L4.27,8.78,3.64,9.1l0.12-.69-0.5-.49L4,7.83,4.28,7.2,4.58,7.83l0.7,0.11-0.51.48ZM4.77,4.52L4.89,5.21,4.27,4.88,3.64,5.2l0.12-.69L3.26,4,4,3.92,4.28,3.3,4.58,3.93,5.28,4Zm2.4,6.55-0.62-.33-0.63.32,0.12-.69-0.5-.49,0.7-.1,0.32-.62L6.88,9.79l0.7,0.11-0.51.48ZM7.06,6.47L7.18,7.16,6.56,6.83l-0.63.32,0.12-.69L5.56,6l0.7-.1,0.32-.62L6.88,5.88,7.57,6Zm0-3.9L7.18,3.25,6.56,2.93l-0.63.32,0.12-.69-0.5-.49L6.25,2l0.32-.62L6.88,2l0.7,0.11ZM9.63,9.11L9,8.78,8.38,9.1,8.5,8.41,8,7.92l0.7-.1L9,7.2,9.32,7.83,10,7.94l-0.51.48ZM9.51,4.52L9.63,5.21,9,4.88,8.38,5.2,8.5,4.51,8,4l0.7-.1L9,3.3,9.32,3.93,10,4Zm2.41,6.55-0.62-.33-0.63.32,0.12-.69-0.5-.49,0.7-.1,0.32-.62,0.31,0.63,0.7,0.11-0.51.48ZM11.8,6.47l0.11,0.69L11.3,6.83l-0.63.32,0.12-.69L10.3,6l0.7-.1,0.32-.62,0.31,0.63L12.31,6Zm0-3.9,0.11,0.69L11.3,2.93l-0.63.32,0.12-.69-0.5-.49L11,2l0.32-.62L11.62,2l0.7,0.11Zm2.56,6.55-0.62-.33-0.63.32,0.12-.69-0.5-.49,0.7-.1,0.32-.62,0.31,0.63,0.7,0.11-0.51.48ZM14.25,4.52l0.11,0.69-0.62-.33-0.63.32,0.12-.69L12.74,4l0.7-.1,0.32-.62,0.31,0.63L14.76,4Zm2.4,6.55L16,10.73l-0.63.32,0.12-.69L15,9.88l0.7-.1L16,9.16l0.31,0.63,0.7,0.11-0.51.48ZM16.54,6.47l0.11,0.69L16,6.83l-0.63.32,0.12-.69L15,6l0.7-.1L16,5.25l0.31,0.63L17.05,6Zm0-3.9,0.11,0.69L16,2.93l-0.63.32,0.12-.69L15,2.07,15.73,2,16,1.35,16.36,2l0.7,0.11Z" transform="translate(0.05 0)"/><rect fill="#787878" y="21.77" width="39.98" height="1.93"/><rect class="cls-1" y="18.17" width="39.98" height="1.83"/><rect fill="#787878" y="14.57" width="39.98" height="1.83"/></svg>
