<?xml version="1.0" encoding="UTF-8"?>
<!DOCTYPE svg PUBLIC "-//W3C//DTD SVG 1.1//EN" "http://www.w3.org/Graphics/SVG/1.1/DTD/svg11.dtd">
<svg xmlns="http://www.w3.org/2000/svg" style="display:none;">

  <symbol id="arrow-bottom" viewBox="0, 0, 25, 25">
    <path fill="currentColor" d="M7.474,14.842 L0.374,10.242 C-0.026,10.042 -0.126,9.542 0.174,9.242 C0.374,8.942 0.874,8.842 1.174,9.042 L7.474,13.142 L13.774,9.042 C14.174,8.842 14.574,8.942 14.774,9.242 C14.974,9.542 14.874,10.042 14.574,10.242 L7.474,14.842 z" />
  </symbol>

  <symbol id="arrow-top" viewBox="0, -10, 25, 25">
    <path fill="currentColor" d="M7.465,0 L14.565,4.6 C14.965,4.8 15.065,5.3 14.765,5.6 C14.565,5.9 14.065,6 13.765,5.8 L7.465,1.7 L1.165,5.8 C0.765,6 0.365,5.9 0.165,5.6 C-0.035,5.3 0.065,4.8 0.365,4.6 L7.465,0 z" />
  </symbol>

  <symbol id="arrow-right" viewBox="0, 12.5, 25, 25">
    <path fill="currentColor" d="M10.452,24.917 L5.852,32.017 C5.652,32.417 5.152,32.517 4.852,32.217 C4.552,32.017 4.452,31.517 4.652,31.217 L8.752,24.917 L4.652,18.617 C4.452,18.217 4.552,17.817 4.852,17.617 C5.152,17.417 5.652,17.517 5.852,17.817 L10.452,24.917 z" />
  </symbol>

  <symbol id="arrow-left" viewBox="0, 30, 25, 25">
    <path fill="currentColor" d="M4.548,42.492 L9.148,49.592 C9.348,49.992 9.848,50.092 10.148,49.792 C10.448,49.592 10.548,49.092 10.348,48.792 L6.248,42.492 L10.348,36.192 C10.548,35.792 10.448,35.392 10.148,35.192 C9.848,34.992 9.348,35.092 9.148,35.392 L4.548,42.492 z" />
  </symbol>

</svg>
