<?xml version="1.0" encoding="utf-8"?>
<!-- Generator: Adobe Illustrator 19.0.0, SVG Export Plug-In . SVG Version: 6.00 Build 0)  -->
<svg version="1.1" id="Layer_1" xmlns="http://www.w3.org/2000/svg" xmlns:xlink="http://www.w3.org/1999/xlink" x="0px" y="0px"
	 width="27.5px" height="35px" viewBox="0 0 27.5 35" style="enable-background:new 0 0 27.5 35;" xml:space="preserve">
<style type="text/css">
	.st0{fill:#010202;}
</style>
<g id="XMLID_80_">
	<path id="XMLID_102_" class="st0" d="M9.6,20.2c0.3,0,0.8,0,1.3-0.9c0.3-0.6,0.3-1.3,0.3-1.6c0-0.8,0-1.7,0-2.2c0-0.2,0-0.4,0-0.4
		c0-0.1,0-0.3,0-0.4c0,0,0.2,0,0.4-0.1l0.1,0v-0.1c0,0,0-0.1,0-0.1v-0.1l-0.1,0c-0.1,0-0.6,0-0.9,0l-0.2,0l-0.1,0
		c-0.1,0-0.1,0-0.2,0l0,0c-0.1,0-0.2,0-0.3,0H9.8l0,0.1c0,0.1,0,0.1,0,0.2l0,0.1l0.1,0c0.1,0,0.1,0,0.2,0c0.1,0,0.3,0,0.3,0
		c0,0,0,0,0,0.1v0.6c0,0.3,0,0.8,0,1.3c0,0.6,0,1.3,0,1.8c0,0.6-0.1,1.3-0.5,1.3c0,0-0.1-0.1-0.2-0.1c-0.1-0.1-0.2-0.1-0.4-0.1
		c-0.1,0-0.1,0-0.2,0.1c0,0-0.2,0.1-0.2,0.3C9,20,9.3,20.2,9.6,20.2z"/>
	<path id="XMLID_101_" class="st0" d="M12.7,14.6c0,0,0.1,0,0.1,0c0.1,0,0.1,0,0.1,0c0,0,0.1,0.1,0.2,0.3l0,0c0.2,0.7,0.6,1.6,1,2.4
		l0.5,1.3h0.3l0,0c0.1-0.1,0.4-0.7,0.7-1.3c0-0.1,0.1-0.2,0.1-0.3c0.3,0.5,0.6,1.3,0.7,1.6l0,0.1h0.3l0-0.1c0-0.1,0.2-0.4,0.3-0.7
		c0.1-0.3,0.2-0.7,0.3-0.8c0-0.1,0.2-0.5,0.3-0.8c0.2-0.5,0.4-1.1,0.5-1.3c0.1-0.3,0.1-0.3,0.4-0.4l0.1,0l0-0.1c0-0.1,0-0.1,0-0.1
		v-0.1h-1.2l0,0.1c0,0.1,0,0.1,0,0.1l0,0l0,0c0.1,0,0.1,0,0.2,0.1c0.1,0,0.2,0,0.2,0c0,0.2-0.5,1.5-0.8,2.3
		c-0.1,0.3-0.2,0.5-0.2,0.6c-0.2-0.4-0.5-1.2-0.6-1.4c0-0.1,0.1-0.2,0.2-0.4c0.1-0.2,0.2-0.5,0.2-0.6c0.2-0.5,0.2-0.6,0.5-0.6
		c0.2,0,0.3,0,0.3-0.2c0-0.1,0-0.1-0.1-0.1l0,0l-0.1,0h-0.6c0,0-0.1,0-0.1,0c-0.1,0-0.2,0-0.3,0c-0.1,0-0.2,0-0.2,0.1l0,0
		c0,0.1,0,0.1,0,0.2l0,0.1l0.1,0c0.1,0,0.3,0.1,0.3,0.1c0,0,0,0,0,0c0,0.1-0.2,0.5-0.4,1c-0.1-0.2-0.2-0.4-0.3-0.6
		c0,0-0.1-0.3-0.2-0.4c0,0,0,0,0.1,0l0.1,0c0.1,0,0.1,0,0.1,0l0.1,0l0,0c0,0,0-0.1,0-0.1c0-0.2-0.2-0.2-0.4-0.2l-0.6,0l-0.2,0
		c0,0-0.2,0-0.3,0l-0.1,0l0,0c-0.1,0-0.1,0.1-0.1,0.1c0,0.1,0,0.1,0,0.1l0,0l0,0c0,0,0.1,0,0.1,0c0.1,0,0.2,0,0.2,0
		c0.1,0.2,0.7,1.6,0.9,1.9c-0.1,0.2-0.4,0.8-0.5,1.1c-0.3-0.7-1.1-2.7-1.2-3.1c0.1,0,0.2,0,0.2,0h0.1l0-0.1c0-0.1,0-0.1,0-0.2l0-0.1
		l-0.1,0c-0.1,0-0.1,0-0.6,0h-0.2c-0.1,0-0.2,0-0.3,0c-0.2,0-0.3,0-0.3,0.1l0,0L12.7,14.6L12.7,14.6z"/>
	<path id="XMLID_97_" class="st0" d="M24.2,11.4H3.3c-0.3,0-0.5,0.2-0.5,0.5v22.6C2.8,34.8,3,35,3.3,35h20.9c0.3,0,0.5-0.2,0.5-0.5
		V11.9C24.7,11.6,24.5,11.4,24.2,11.4z M15.1,34h-2.6v-5.5h2.6V34z M23.7,34h-7.9v-5.9c0-0.2-0.2-0.4-0.4-0.4h-3.3
		c-0.2,0-0.4,0.2-0.4,0.4V34h-8V12.4h19.9V34z"/>
	<path id="XMLID_96_" class="st0" d="M27.4,9.6l-3.4-2.5V2.7c0-0.2-0.2-0.4-0.4-0.4h-2c-0.2,0-0.4,0.2-0.4,0.4v2.5l-7-5.1
		c-0.1-0.1-0.3-0.1-0.4,0L0.2,9.6C0,9.7,0,9.9,0,10c0,0.2,0.2,0.3,0.3,0.3h26.8c0.2,0,0.3-0.1,0.3-0.3C27.5,9.9,27.5,9.7,27.4,9.6z"
		/>
	<path id="XMLID_93_" class="st0" d="M5.4,25.5h3.6c0.2,0,0.4-0.2,0.4-0.4v-3.6c0-0.2-0.2-0.4-0.4-0.4H5.4c-0.2,0-0.4,0.2-0.4,0.4
		v3.6C5.1,25.3,5.2,25.5,5.4,25.5z M5.8,21.8h2.9v2.9H5.8V21.8z"/>
	<path id="XMLID_90_" class="st0" d="M11.6,25.1c0,0.2,0.2,0.4,0.4,0.4h3.6c0.2,0,0.4-0.2,0.4-0.4v-3.6c0-0.2-0.2-0.4-0.4-0.4H12
		c-0.2,0-0.4,0.2-0.4,0.4V25.1z M12.4,21.8h2.9v2.9h-2.9V21.8z"/>
	<path id="XMLID_87_" class="st0" d="M18.2,21.5v3.6c0,0.2,0.2,0.4,0.4,0.4h3.6c0.2,0,0.4-0.2,0.4-0.4v-3.6c0-0.2-0.2-0.4-0.4-0.4
		h-3.6C18.4,21.1,18.2,21.3,18.2,21.5z M19,21.8h2.9v2.9H19V21.8z"/>
	<path id="XMLID_84_" class="st0" d="M22.2,27.8h-3.6c-0.2,0-0.4,0.2-0.4,0.4v3.6c0,0.2,0.2,0.4,0.4,0.4h3.6c0.2,0,0.4-0.2,0.4-0.4
		v-3.6C22.6,27.9,22.4,27.8,22.2,27.8z M21.9,31.4H19v-2.9h2.9V31.4z"/>
	<path id="XMLID_81_" class="st0" d="M5.4,32.1h3.6c0.2,0,0.4-0.2,0.4-0.4v-3.6c0-0.2-0.2-0.4-0.4-0.4H5.4c-0.2,0-0.4,0.2-0.4,0.4
		v3.6C5.1,32,5.2,32.1,5.4,32.1z M5.8,28.5h2.9v2.9H5.8V28.5z"/>
</g>
</svg>
