<svg id="expand" xmlns="http://www.w3.org/2000/svg" width="7.76mm" height="7.76mm" viewBox="0 0 22 22"><title>expand-image</title><path d="M11,22A11,11,0,1,1,22,11,11,11,0,0,1,11,22ZM11,1A10,10,0,1,0,21,11,10,10,0,0,0,11,1Z" transform="translate(0 0.01)" fill="#3c3c3c"/><polygon points="11.25 5.16 11.25 6.16 15.17 6.16 11.16 10.17 11.87 10.88 15.75 7 15.75 10.66 16.75 10.66 16.75 5.16 11.25 5.16" fill="#3c3c3c"/><polygon points="10.13 11.14 6.25 15.03 6.25 11.36 5.25 11.36 5.25 16.86 10.75 16.86 10.75 15.86 6.83 15.86 10.84 11.85 10.13 11.14" fill="#3c3c3c"/></svg>