<?xml version="1.0" encoding="utf-8"?>
<!-- Generator: Adobe Illustrator 19.0.0, SVG Export Plug-In . SVG Version: 6.00 Build 0)  -->
<svg version="1.1" id="Layer_1" xmlns="http://www.w3.org/2000/svg" xmlns:xlink="http://www.w3.org/1999/xlink" x="0px" y="0px"
	 width="28px" height="17.4px" viewBox="0 0 28 17.4" style="enable-background:new 0 0 28 17.4;" xml:space="preserve">
<style type="text/css">
	.st0{fill:#010202;}
</style>
<path id="XMLID_87_" class="st0" d="M27.5,0h-2.9h-9h-3.2H1.8H0.5C0.2,0,0,0.2,0,0.5v1.3v5.3v3.3v6.6c0,0,0,0.1,0,0.1c0,0,0,0,0,0
	c0,0,0,0,0,0c0,0,0,0.1,0.1,0.1c0,0,0,0,0,0c0,0,0.1,0.1,0.1,0.1c0,0,0,0,0,0c0,0,0.1,0,0.1,0.1c0,0,0,0,0,0c0,0,0.1,0,0.1,0h3.4
	h8.6h3.2h11.8h0.1c0.3,0,0.5-0.2,0.5-0.5v-2V0.7V0.5C28,0.2,27.8,0,27.5,0z M16,10.8l9.7,5.6H16V10.8z M27,16.2l-9.2-5.4h1.6
	l7.6,4.4V16.2z M21.3,10.8H27v3.3L21.3,10.8z M27,6.6h-8.4L27,1.5V6.6z M26.2,0.9l-9.4,5.7H16V6l8.7-5.1H26.2z M16,0.9h6.8L16,5V0.9
	z M11.9,6.4L3.4,0.9h8.5V6.4z M0.9,0.9h0.8l8.9,5.7H9.1L0.9,1.5V0.9z M0.9,10.8h8.4l-8.4,5.3V10.8z M0.9,2.6l6.4,4H0.9V2.6z
	 M2.1,16.5l9-5.7h0.8v0.5l-8.2,5.2H2.1z M11.9,16.5H5.5l6.5-4.1V16.5z M12.9,16.5v-4.9v-1.2c0-0.3-0.2-0.5-0.5-0.5H11H0.9V7.5h8h3.2
	h0h0.2c0.3,0,0.5-0.2,0.5-0.5V0.9h2.2v4.8v1.3c0,0.3,0.2,0.5,0.5,0.5h1.4H27v2.4h-7.4h-3.5h-0.6c-0.3,0-0.5,0.2-0.5,0.5v6.1H12.9z"
	/>
</svg>
