<?xml version="1.0" encoding="utf-8"?>
<!-- Generator: Adobe Illustrator 19.0.0, SVG Export Plug-In . SVG Version: 6.00 Build 0)  -->
<svg version="1.1" id="Layer_1" xmlns="http://www.w3.org/2000/svg" xmlns:xlink="http://www.w3.org/1999/xlink" x="0px" y="0px"
	 width="22.8px" height="32.7px" viewBox="0 0 22.8 32.7" style="enable-background:new 0 0 22.8 32.7;" xml:space="preserve">
<style type="text/css">
	.st0{fill:#010202;}
</style>
<g id="XMLID_83_">
	<path id="XMLID_102_" class="st0" d="M22.8,29.3c0-0.2-0.2-0.3-0.3-0.3c-2-0.8-4.3-1.7-4.5-1.9c-0.1-0.1-0.2-0.2-0.3-0.3
		c-0.5-0.5-1.3-1.3-1.8-1.7c-0.5-0.3-0.9-0.4-1.2-0.4c-0.2,0-0.4,0-0.5,0.1l-2.5,0.5c-0.4,0.1-1.7,0.3-1.6,1.2
		c0.1,0.7,1.2,1.2,1.6,1.2c0.1,0,0.1,0,0.2,0c0.2-0.1,1-0.3,1.6-0.4l0.8,0.4c-0.8,0.2-2.3,0.4-2.9,0.4c-0.1,0-0.2,0-0.2,0
		c-0.6-0.1-2.5-1.2-3.1-1.6c-0.4-0.2-1-0.5-1.6-0.5c-0.2,0-0.5,0-0.6,0.1c-0.6,0.3-0.8,0.6-0.8,0.9c0,0.6,0.6,0.9,1,1.1
		c1,0.5,2.8,1.7,3.7,2.3c0.8,0.6,2.2,0.9,2.9,1c0.4,0.1,1.4,0.1,2.8,0.1c0.7,0,1.3,0,1.6,0c0.3,0,1.7,0.6,2.9,1.1c0.1,0,0.1,0,0.2,0
		c0.1,0,0.3-0.1,0.4-0.2l2.2-2.8C22.8,29.6,22.8,29.5,22.8,29.3z M20,31.6c-0.8-0.3-2.4-1-2.9-1c-0.3,0-0.9,0-1.6,0
		c-1,0-2.3,0-2.7-0.1c-0.6-0.1-1.8-0.4-2.4-0.8c-0.3-0.2-2.6-1.8-3.8-2.4C6.3,27.1,6.2,27,6.2,27c0,0,0.1,0,0.1,0c0.1,0,0.2,0,0.3,0
		c0.4,0,0.9,0.2,1.1,0.3c0,0,2.5,1.5,3.4,1.7c0.1,0,0.2,0,0.4,0c1.1,0,3.7-0.6,3.8-0.6c0.1,0,0.3-0.1,0.3-0.3c0.1-0.1,0.1-0.3,0-0.4
		L15.2,27c0-0.1-0.1-0.2-0.2-0.2l-1.1-0.5c-0.1,0-0.2-0.1-0.3,0c-0.1,0-1.4,0.3-1.8,0.4c-0.1,0-0.4-0.2-0.5-0.3
		c0.1-0.1,0.3-0.1,0.7-0.2l2.5-0.5c0,0,0.1,0,0.1,0c0,0,0.1,0,0.2,0c0.2,0,0.4,0.1,0.6,0.2c0.5,0.3,1.2,1.1,1.7,1.6
		c0.1,0.1,0.2,0.3,0.3,0.3c0.3,0.3,2.6,1.3,4.3,1.9L20,31.6z"/>
	<path id="XMLID_84_" class="st0" d="M16.5,21.8L15.9,7.1c0-0.7-0.6-1.3-1.3-1.3h-2.6C11.6,2.7,10.6,0,8.3,0C6,0,5,2.6,4.7,5.8H2
		c-0.7,0-1.3,0.6-1.3,1.3L0,21.8c0,0.7,0.6,1.3,1.3,1.3h13.9C15.9,23.2,16.5,22.6,16.5,21.8z M8.3,1.3c1.2,0,2,1.5,2.3,4.5H6
		C6.5,2.2,7.4,1.3,8.3,1.3z M1.3,21.9L2,7.1l2.6,0c0,0.2,0,0.5,0,0.7c-1.2,0.3-2.1,1.4-2.1,2.6c0,1.5,1.2,2.7,2.7,2.7
		s2.7-1.2,2.7-2.7c0-1.2-0.8-2.3-2-2.6c0-0.3,0-0.5,0-0.8l4.8,0c0,0.2,0,0.5,0,0.7c-1.1,0.3-2,1.4-2,2.6c0,1.5,1.2,2.7,2.7,2.7
		s2.7-1.2,2.7-2.7c0-1.3-0.9-2.4-2.1-2.6c0-0.2,0-0.5,0-0.7l2.5,0l0.7,14.7L1.3,21.9z M5.1,11.2c0.4,0,0.7-0.3,0.7-0.7
		c0-0.4,0-0.8,0-1.2c0.4,0.2,0.7,0.7,0.7,1.2c0,0.8-0.6,1.4-1.4,1.4s-1.4-0.6-1.4-1.4c0-0.5,0.3-1,0.7-1.2c0,0.4,0,0.8,0,1.2
		C4.5,10.9,4.8,11.2,5.1,11.2z M10.9,10.5c0,0.4,0.3,0.7,0.7,0.7s0.7-0.3,0.7-0.7c0-0.4,0-0.8,0-1.2c0.4,0.2,0.8,0.7,0.8,1.2
		c0,0.8-0.6,1.4-1.4,1.4c-0.8,0-1.4-0.6-1.4-1.4c0-0.5,0.3-1,0.7-1.2C10.8,9.7,10.9,10.1,10.9,10.5z"/>
</g>
</svg>
