<?xml version="1.0" encoding="utf-8"?>
<!-- Generator: Adobe Illustrator 19.0.0, SVG Export Plug-In . SVG Version: 6.00 Build 0)  -->
<svg version="1.1" id="Layer_1" xmlns="http://www.w3.org/2000/svg" xmlns:xlink="http://www.w3.org/1999/xlink" x="0px" y="0px"
	 width="34px" height="24.5px" viewBox="0 0 34 24.5" style="enable-background:new 0 0 34 24.5;" xml:space="preserve">
<style type="text/css">
	.st0{fill:#010202;}
</style>
<path class="st0" d="M34,20.5v-3.2c0,0,0,0,0,0v-1c0-0.1,0-0.2-0.1-0.3c0,0,0,0,0,0c0,0,0,0,0,0l0,0l0,0c-0.1-0.1-1.9-2.2-2.8-3.1
	c-0.9-1-2.5-1.9-2.5-1.9c-0.1,0-0.2-0.1-0.3-0.1h-4.8V9.4c0-0.2,0.1-1.6-0.7-2.4c-0.4-0.5-1-0.7-1.7-0.7h-5.8l-0.1-0.1
	c2.2-0.4,3.1-1.3,3.4-1.9c0.5-0.9,0.5-2.1-0.1-3.1C18.2,0.4,17.4,0,16.6,0c-1.2,0-2.5,0.9-3.9,2.7c-0.1,0-0.3-0.1-0.4-0.1
	c-0.3,0-0.6,0-0.9,0.1C9.9,0.9,8.6,0,7.4,0C6.5,0,5.7,0.4,5.3,1.2C4.7,2.2,4.7,3.4,5.2,4.3c0.3,0.6,1.2,1.4,3.4,1.9L8.5,6.3
	c0,0-3.5,0-5.7,0C0.6,6.2,0,7.8,0,8.7l0,1.5v9.6c0,0,0,0,0,0.1c0,0.5-0.1,2,0.8,2.9c0.4,0.4,0.9,0.6,1.5,0.6c0.1,0,0.2,0,0.2,0
	l2.2,0c0.5,0.7,1.2,1.1,2.1,1.1c0.9,0,1.6-0.4,2.1-1.1h14.1c0.3,0,0.5-0.2,0.5-0.5v-0.2h3.3c0.3,1,1.3,1.8,2.4,1.8
	c1.1,0,2.1-0.8,2.4-1.8c0.1,0,0.2,0,0.2,0c0.3,0,0.5,0,0.6,0c0.4,0,0.7-0.1,0.9-0.4C34.1,21.7,34,20.6,34,20.5z M30.9,14l2.2,2.5
	l0,0.3h-6c-0.2,0-0.7-0.1-0.7-0.7V14H30.9z M21.2,7.3c0.4,0,0.7,0.1,0.9,0.4c0.4,0.5,0.5,1.4,0.4,1.7c0,0,0,0,0,0.1v3.8h-9.4V8.1
	l1.8,3.2l0.7-1.7l1.8,0.3L16,7.3H21.2z M16.6,2c0.1,0,0.2,0,0.3,0.2c0.2,0.4,0.2,0.9,0.1,1.1c-0.3,0.5-1.5,0.8-3,1c0,0,0-0.1,0-0.1
	C15.5,2.1,16.4,2,16.6,2z M6.9,3.3C6.8,3.1,6.8,2.6,7,2.2C7.1,2,7.3,2,7.4,2C7.5,2,8.4,2.1,10,4.2c0,0,0,0.1,0,0.1
	C8.4,4.2,7.2,3.8,6.9,3.3z M2.8,7.3c1.7,0,4.1,0,5.2,0L6.5,9.9l1.8-0.3L9,11.3l1.7-3.1v5H1v-3.1l0-1.5C1.1,7.3,2.5,7.3,2.8,7.3z
	 M2.6,22.4C2.6,22.4,2.5,22.4,2.6,22.4c-0.5,0-0.8-0.1-1-0.3C1.1,21.6,1,20.6,1,19.9c0,0,0,0,0-0.1v-4.1h9.7v6.6H9.4
	c0-0.1,0-0.3,0-0.4c0-1.4-1.1-2.5-2.5-2.5c-1.4,0-2.5,1.1-2.5,2.5c0,0.1,0,0.3,0,0.4L2.6,22.4z M6.9,23.5c-0.6,0-1.1-0.3-1.4-0.8
	c-0.1-0.2-0.2-0.5-0.2-0.7c0-0.9,0.7-1.5,1.5-1.5c0.9,0,1.5,0.7,1.5,1.5c0,0.2-0.1,0.5-0.2,0.7C8,23.2,7.5,23.5,6.9,23.5z
	 M13.2,22.4v-6.6h9.4v6.6H13.2z M29.3,23.5c-0.8,0-1.4-0.6-1.5-1.4c0-0.1,0-0.1,0-0.2c0-0.9,0.7-1.5,1.5-1.5s1.5,0.7,1.5,1.5
	c0,0,0,0.1,0,0.2l0,0C30.7,22.9,30.1,23.5,29.3,23.5z M32.8,21.6c-0.1,0.1-0.1,0.1-0.2,0.1c-0.1,0-0.3,0-0.6,0c0,0-0.1,0-0.1,0
	c-0.1-1.3-1.2-2.3-2.5-2.3c-1.3,0-2.4,1-2.5,2.3h-3.2v-9.8h4.7c0.3,0.2,1,0.7,1.7,1.2h-4.1c-0.3,0-0.5,0.2-0.5,0.5v2.6
	c0,1.3,1.1,1.7,1.7,1.7h6l0,2.7C33,20.8,33,21.3,32.8,21.6z"/>
</svg>
