<?xml version="1.0" encoding="utf-8"?>
<!-- Generator: Adobe Illustrator 19.0.0, SVG Export Plug-In . SVG Version: 6.00 Build 0)  -->
<svg version="1.1" id="Layer_1" xmlns="http://www.w3.org/2000/svg" xmlns:xlink="http://www.w3.org/1999/xlink" x="0px" y="0px"
	 width="40px" height="34.6px" viewBox="0 0 40 34.6" style="enable-background:new 0 0 40 34.6;" xml:space="preserve">

<path fill="#010202" d="M39.3,9.5H24.9c3-0.5,4.9-1.4,5.7-2.9c1-1.8,0.6-4.9-1.5-6.1c-0.8-0.5-2.5-1-4.8,0.6c-1,0.7-2,1.7-3,3
	C21.1,4,20.9,4,20.7,3.9c-0.5-0.1-1,0-1.5,0.2c-1.1-1.3-2.1-2.4-3.1-3.1c-2.3-1.6-4-1.1-4.8-0.6C9.3,1.7,8.9,4.7,9.9,6.6
	c0.8,1.4,2.6,2.4,5.5,2.9l0,0H0.7C0.3,9.5,0,9.8,0,10.2v1.4c0,0.4,0.3,0.7,0.7,0.7h1.5v21.5c0,0.4,0.3,0.7,0.7,0.7H37
	c0.4,0,0.7-0.3,0.7-0.7V12.4h1.5c0.4,0,0.7-0.3,0.7-0.7v-1.4C40,9.8,39.7,9.5,39.3,9.5z M26.1,3.6C26.6,3.2,27,3,27.3,3
	c0.1,0,0.2,0,0.3,0.1c0.5,0.3,0.7,1.4,0.4,2c-0.1,0.1-0.3,0.5-1.2,0.8c-0.7,0.3-1.6,0.5-2.7,0.6c-0.2,0-0.4,0.1-0.6,0.1
	c0-0.1,0-0.2-0.1-0.3C24.5,4.8,25.4,4,26.1,3.6z M12.6,5.1c-0.3-0.6-0.1-1.7,0.4-2C13,3,13.1,3,13.2,3c0.3,0,0.8,0.2,1.3,0.5
	c0.6,0.4,1.6,1.3,2.8,3c0,0,0,0.1,0,0.1c-0.2,0-0.5-0.1-0.8-0.1C14,6.2,12.8,5.5,12.6,5.1z M13.8,12.4l-1.5,2.8l2.7-0.5l1.1,2.5
	l2.2-4v5.8H3.7v-6.7H13.8z M3.7,22.9h14.6v10.2H3.7V22.9z M22.1,33.1V22.9h14.2v10.2H22.1z M36.3,19.1H22.1v-5.2l2.6,3.9l0.8-2.7
	l2.8,0.3l-2-2.9h10V19.1z"/>
</svg>
