<?xml version="1.0" encoding="utf-8"?>
<!-- Generator: Adobe Illustrator 19.1.0, SVG Export Plug-In . SVG Version: 6.00 Build 0)  -->
<svg version="1.1" id="Layer_1" xmlns="http://www.w3.org/2000/svg" xmlns:xlink="http://www.w3.org/1999/xlink" x="0px" y="0px"
	 viewBox="0 0 170.408 155.102" enable-background="new 0 0 170.408 155.102" xml:space="preserve">
<g>
	<path fill="#010202" d="M139.508,46.284H70.88c12.205-2.387,16.846-7.073,18.605-10.224c2.728-4.886,2.524-11.895-0.498-17.044
		c-2.521-4.296-6.685-6.76-11.424-6.76c-6.785,0-14.108,4.988-21.851,14.828c-0.753-0.271-1.543-0.468-2.368-0.569
		c-1.767-0.215-3.486,0.021-5.065,0.601c-7.753-9.862-15.084-14.861-21.877-14.861c-4.739,0-8.903,2.464-11.424,6.759
		c-3.022,5.149-3.228,12.158-0.5,17.045c1.76,3.151,6.399,7.837,18.603,10.224h-8.254c-5.309,0-9.629,4.319-9.629,9.629v71.415
		c0,5.309,4.32,9.629,9.629,9.629h114.681c5.309,0,9.629-4.319,9.629-9.629V55.913C149.136,50.603,144.816,46.284,139.508,46.284z
		 M77.562,23.26c0.375,0,1.157,0,1.934,1.326c1.146,1.952,1.12,4.786,0.381,6.11c-1.396,2.498-8.117,4.597-16.807,5.55
		c-0.029-0.19-0.066-0.377-0.104-0.564C71.608,23.995,76.514,23.26,77.562,23.26z M24.084,30.695
		c-0.739-1.324-0.763-4.158,0.383-6.11c0.778-1.326,1.558-1.326,1.934-1.326c1.045,0,5.932,0.734,14.536,12.345
		c-0.047,0.207-0.078,0.421-0.114,0.633C32.166,35.281,25.476,33.186,24.084,30.695z M24.827,51.786h5.449l-8.435,15.558
		l9.818-1.727l3.898,9.193l12.482-23.024h7.884L68.405,74.81l3.898-9.193l9.818,1.727l-8.435-15.558h65.822
		c2.275,0,4.127,1.851,4.127,4.127v46.399H20.7V55.913C20.7,53.637,22.551,51.786,24.827,51.786z M139.508,131.454H24.827
		c-2.275,0-4.127-1.851-4.127-4.127V112.01h122.934v15.317C143.634,129.603,141.783,131.454,139.508,131.454z"/>
	<path fill="#010202" d="M88.723,93.286c1.608,0,4.3,0,6.543-4.448c1.425-2.813,1.637-6.381,1.637-8.258
		c0-4.233-0.095-8.434-0.153-10.945c-0.026-1.089-0.043-1.869-0.043-2.212c0-0.7,0.031-1.498,0.067-1.828
		c0.232-0.141,0.786-0.175,1.722-0.22l0.662-0.126v-0.655c0.011-0.114,0.026-0.261,0.026-0.492v-0.631l-0.629-0.054
		c-0.566-0.048-2.811-0.028-4.298-0.012l-1.136,0.009l-0.329-0.009c-0.279-0.01-0.653-0.009-1.002-0.021l-0.146-0.009
		c-0.551-0.03-1.077-0.058-1.292-0.058h-0.584l-0.094,0.577c-0.051,0.308-0.038,0.462,0.036,0.831l0.07,0.358l0.336,0.142
		c0.359,0.151,0.531,0.147,1.104,0.15c0.677,0.046,1.447,0.097,1.57,0.169c0.005,0.013,0.035,0.091,0.035,0.383v3.061
		c0,1.398,0.04,3.832,0.085,6.482c0.052,3.155,0.11,6.616,0.11,8.987c0,2.883-0.639,6.248-2.435,6.249
		c-0.132-0.027-0.613-0.428-0.964-0.721c-0.552-0.46-1.194-0.713-1.808-0.713c-0.314,0-0.572,0.085-0.955,0.325
		c-0.23,0.165-0.841,0.602-0.841,1.635C86.015,92.643,87.419,93.286,88.723,93.286z"/>
	<path fill="#010202" d="M104.322,65.232c0.079,0.032,0.314,0.093,0.58,0.159c0.259,0.064,0.56,0.132,0.709,0.191
		c0.067,0.046,0.325,0.295,0.853,1.644c1.171,3.567,3.08,8.039,4.773,11.938l2.715,6.632h1.543l0.206-0.259
		c0.578-0.724,1.893-3.438,3.425-6.644c0.219-0.459,0.441-0.923,0.635-1.326c1.294,2.605,3.08,6.564,3.48,7.761l0.157,0.469h1.688
		l0.183-0.404c0.238-0.522,0.788-2.075,1.373-3.718c0.579-1.631,1.178-3.318,1.449-3.933c0.231-0.635,0.852-2.277,1.539-4.096
		c0.966-2.557,2.063-5.462,2.407-6.443c0.49-1.446,0.669-1.513,2.065-2.03l0.351-0.13l0.082-0.365
		c0.064-0.29,0.062-0.445,0.05-0.672v-0.688h-6.343l-0.129,0.523c-0.071,0.285-0.046,0.443,0.035,0.757l0.056,0.223l0.179,0.144
		c0.273,0.22,0.431,0.259,0.856,0.345c0.341,0.083,0.754,0.183,0.934,0.268c-0.124,1.43-2.583,7.689-4.069,11.467
		c-0.458,1.167-0.866,2.205-1.178,3.024c-0.928-2.163-2.527-5.776-3.013-6.854c0.185-0.426,0.47-1.111,0.767-1.829
		c0.454-1.093,1.02-2.455,1.2-2.804c1.044-2.557,1.157-2.756,2.594-2.989c0.768-0.127,1.562-0.259,1.562-1.196
		c0-0.373-0.191-0.606-0.333-0.748l-0.156-0.154l-0.741-0.111l-1.02,0.034l-2.329-0.045c-0.399-0.009-0.916-0.022-1.322-0.022
		c-0.368,0-0.861,0.048-1.112,0.275l-0.172,0.242c-0.134,0.314-0.177,0.498-0.102,0.817l0.082,0.349l0.333,0.133
		c0.274,0.109,1.286,0.289,1.295,0.289c0.048,0.014,0.087,0.122,0.095,0.122c0,0,0.001-0.001,0.001-0.003
		c0,0.482-0.764,2.473-1.86,4.885c-0.431-1.008-0.862-2.003-1.261-2.825c-0.081-0.179-0.598-1.497-0.831-2.116
		c0.097-0.015,0.208-0.03,0.329-0.048l0.451-0.056c0.442-0.053,0.556-0.071,0.758-0.128l0.287-0.082l0.136-0.265
		c0.054-0.103,0.142-0.315,0.142-0.576c0-1.014-0.916-1.011-1.859-1.013l-3.038,0.098l-0.978-0.028
		c-0.087,0.009-0.297,0.01-0.551,0.01l-1.797-0.014l-0.172,0.113c-0.305,0.2-0.441,0.546-0.441,0.801
		c0,0.326,0.086,0.521,0.216,0.712l0.153,0.227l0.267,0.06c0.095,0.021,0.302,0.05,0.557,0.083c0.296,0.039,0.943,0.124,1.213,0.199
		c0.658,1.013,3.554,7.704,4.29,9.479c-0.426,1.138-1.758,3.876-2.648,5.556c-1.465-3.477-5.18-12.824-5.99-15.098
		c0.345-0.024,0.77-0.04,1.096-0.04h0.626l0.059-0.623c0.036-0.388,0.04-0.546-0.004-0.848l-0.071-0.479l-0.474-0.095
		c-0.392-0.079-0.592-0.079-3.036-0.079h-0.838c-0.645-0.009-1.124-0.015-1.486-0.015c-1.028,0-1.392,0.037-1.777,0.477l-0.2,0.229
		l0.114,1.006L104.322,65.232z"/>
</g>
</svg>
