<?xml version="1.0" encoding="utf-8"?>
<!-- Generator: Adobe Illustrator 19.0.0, SVG Export Plug-In . SVG Version: 6.00 Build 0)  -->
<svg version="1.1" id="Layer_1" xmlns="http://www.w3.org/2000/svg" xmlns:xlink="http://www.w3.org/1999/xlink" x="0px" y="0px"
	 width="23.4px" height="23.4px" viewBox="0 0 23.4 23.4" style="enable-background:new 0 0 23.4 23.4;" xml:space="preserve">
<style type="text/css">
	.st0{fill:#010202;}
</style>
<g id="XMLID_81_">
	<path id="XMLID_87_" class="st0" d="M19.5,2.2l1.8,1.8c0.5-0.5,0.5-1.3,0-1.8S20,1.7,19.5,2.2z"/>
	<path id="XMLID_82_" class="st0" d="M22.6,0.9C22,0.3,21.2,0,20.5,0s-1.5,0.3-2.1,0.9l-5,5l-0.6-0.3c0.4-0.7,0.4-1.6-0.2-2.2
		c-0.7-0.7-1.8-0.7-2.5,0L9.2,4.1L3.2,1.6c-0.2-0.1-0.4,0-0.5,0.1l-1,1C1.6,2.8,1.5,2.9,1.5,3.1c0,0.1,0.1,0.3,0.1,0.4l7,7l-2.8,4.2
		l-4.2-0.2c-0.2,0-0.4,0.1-0.5,0.2l-1.2,2.1c-0.1,0.1-0.1,0.3,0,0.5c0.1,0.1,0.2,0.3,0.4,0.3l2.9,0.3c-0.1,0.2-0.2,0.4-0.2,0.7
		c0,0.3,0.1,0.9,0.6,1.4c0.3,0.3,0.7,0.5,1.1,0.5c0.3,0,0.6-0.1,0.9-0.2L5.9,23c0,0.2,0.1,0.3,0.3,0.4c0.1,0,0.2,0.1,0.2,0.1
		c0.1,0,0.2,0,0.2-0.1l2.1-1.2C8.9,22.1,9,21.9,9,21.7l-0.2-4.2l4.2-2.8l7,7c0.2,0.2,0.5,0.2,0.7,0l1-1c0.1-0.1,0.2-0.4,0.1-0.5
		l-2.5-6l0.7-0.7c0.7-0.7,0.7-1.8,0-2.5c-0.6-0.6-1.5-0.7-2.2-0.2l-0.3-0.6l4.9-4.9l0.1-0.1C23.7,3.9,23.7,2,22.6,0.9z M10.6,4.1
		c0.3-0.3,0.8-0.3,1.1,0c0.3,0.3,0.3,0.8,0,1.1l0,0l-1.6-0.7L10.6,4.1z M19.3,11.6c0.3,0.3,0.3,0.8,0,1.1l-0.5,0.5l-0.7-1.6
		C18.5,11.3,19,11.3,19.3,11.6z M21.9,4.4l-5.3,5.3c-0.1,0.1-0.2,0.4-0.1,0.5l0.6,1.5c0,0,0,0.1,0.1,0.1l1,2.5c0,0,0,0.1,0.1,0.1
		l2.5,5.9l-0.4,0.4l-6.9-6.9c-0.2-0.2-0.4-0.2-0.6-0.1L8,16.9c-0.1,0.1-0.2,0.3-0.2,0.4l0.2,4.2l-1.1,0.6l-0.3-3
		c0-0.2-0.2-0.4-0.3-0.4c0,0-0.1,0-0.1,0c-0.1,0-0.3,0.1-0.4,0.2c-0.1,0.1-0.5,0.5-0.9,0.5c-0.1,0-0.2,0-0.4-0.2
		c-0.2-0.2-0.3-0.4-0.3-0.6c0-0.3,0.4-0.7,0.5-0.8c0.2-0.1,0.2-0.3,0.2-0.5c-0.1-0.2-0.2-0.3-0.4-0.4l-3-0.3L2,15.5l4.2,0.2
		c0.2,0,0.3-0.1,0.4-0.2l3.1-4.8c0.1-0.2,0.1-0.5-0.1-0.6L2.7,3.1l0.4-0.4l5.9,2.5l0,0l4.1,1.8c0.2,0.1,0.4,0,0.5-0.1L19,1.6
		C19.4,1.2,19.9,1,20.5,1s1,0.2,1.4,0.6C22.6,2.3,22.6,3.6,21.9,4.4z"/>
</g>
</svg>
