<?xml version="1.0" encoding="utf-8"?>
<!-- Generator: Adobe Illustrator 18.1.1, SVG Export Plug-In . SVG Version: 6.00 Build 0)  -->
<svg version="1.1" id="Layer_1" xmlns="http://www.w3.org/2000/svg" xmlns:xlink="http://www.w3.org/1999/xlink" x="0px" y="0px"
	 width="185.7px" height="47.3px" viewBox="0 0 185.7 47.3" style="enable-background:new 0 0 185.7 47.3;" xml:space="preserve">
<style type="text/css">
	.st0{fill:#3D3D3D;}
</style>
<g>
	<path class="st0" d="M10.2,1.5C9.9,1.5,9,1.5,8.1,1.5c-0.9,0-1.8-0.1-2.2-0.1c-0.1,0.3-0.1,0.4,0,0.9c0.4,0.2,0.5,0.2,1.4,0.2
		c3,0.2,3.5,0.3,3.5,1.9v4.8c0,4.8,0.3,17.3,0.3,24.1c0,2.5-0.4,10.8-4.8,10.8c-0.5,0-1-0.4-2.2-1.4c-0.6-0.5-1.4-0.9-2.1-0.9
		c-0.3,0-0.5,0.1-0.9,0.3c-0.4,0.3-0.9,0.7-0.9,1.7c0,1.9,2.4,2.1,3.1,2.1c2.5,0,6,0,9.2-6.3c2-3.9,2.4-9,2.4-12.4
		c0-9.4-0.3-18.7-0.3-20.5c0-1,0.1-3.2,0.2-3.4c0.6-0.7,1.5-0.8,3.6-0.9c0-0.2,0.1-0.4,0.1-0.9C17.3,1.4,11.5,1.5,10.2,1.5z"/>
	<path class="st0" d="M27.2,24.2c-1.9,1.1-5.6,4.2-5.6,6.9c0,0.4,0.1,2.8,2.7,2.8c3.2,0,3.9-0.6,8-3.4c0.2,1.5,0.5,3.4,3.4,3.4
		c2.9,0,3.9-3.5,3.9-3.5c0.1-0.2-0.1-0.4-0.2-0.5c-0.3-0.1-0.4,0.3-1.1,0.9c-0.3,0.2-0.8,0.6-1.4,0.6c-0.5,0-1.4-0.4-1.6-1.2v-5.5
		l0.1-3.5c0.1-4.8,0-5.3-1.3-6.6C32.8,13,31.5,13,29.5,13C24,13,21,19.6,21,20.4c0,0.5,1,0.7,1.3,0.7c0.6,0,1.2-0.4,1.7-0.7
		c0.3-0.5,0.5-0.7,0.5-1c0.2-1,0.2-1.1,0.5-2c0.6-1.8,2.3-2.9,4.1-2.9c3.2,0,3.6,3.1,3.3,7.2C31.7,22.2,28,23.7,27.2,24.2z
		 M32.2,29.2c-2.1,2-3.8,2.8-4.8,2.8c-1.5,0-2.3-1.1-2.3-2.2c0-2.8,4.1-5.7,7.2-6.8C32.4,24.8,32.2,29.1,32.2,29.2z"/>
	<path class="st0" d="M78.7,30.8c-0.9-1-4.9-5.6-5.9-6.6c-0.5-0.5-2.2-2.4-2.4-2.6c4.3-3.8,5.4-4.7,7.2-5.6c0.4-0.2,2.7-0.7,3.2-0.8
		c0.2-0.3,0.2-0.4,0.1-0.7c-0.6-0.1-2.8-0.1-3.4-0.1l-4.5,0l-2.3,0.1c-0.2,0.4-0.1,0.5-0.1,0.7c1.6,0.4,2.3,0.5,3,0.9
		c0.1,0.1,0.3,0.4,0.3,0.7c0,0.8-2.3,2.6-3.2,3.3c-3.2,2.2-3.5,2.5-4.6,2.5v-2.9c0-3.6,0.1-8.2,0.1-11V5.8l-0.1-3c0-2,0-2.3,0.1-2.9
		L65.4,0c-2.5,1.4-3.3,1.8-5.4,2.3C60,2.6,60,2.6,60,2.9c2.7,0.4,3.1,0.4,3.1,2.5v13l0,9.8c0,3.4-0.2,3.5-0.7,3.7
		c-0.4,0.1-2.2,0.2-2.5,0.5l0.1,0.7c1.4,0.1,8-0.1,9.5-0.1c-0.1-0.6-0.1-0.9-1.6-1.1c-1.1-0.1-1.7-0.4-1.7-4.3c0-1,0-3.2,0.1-4.1
		c2.3-0.1,2.5,0.2,4.2,2.1c1,1.2,4.7,5.3,4.8,6.1c-0.3,0.4-0.6,0.4-2.4,0.5c-0.9,0-1,0-1.2,0.4c-0.1,0.3-0.1,0.3,0.1,0.5
		c0.2,0.1,0.3,0.1,0.5,0.1c1.1,0,6.6-0.2,7.9-0.2c0.8,0,1.7,0,2.5,0.1c0.1-0.3,0.1-0.3-0.1-0.7C79.7,31.7,79.5,31.6,78.7,30.8z"/>
	<path class="st0" d="M132.6,6c0.9-2.7,1.5-3,3.8-3.8c0.1-0.5,0.1-0.6,0.1-0.8h-7.9c0,0.2,0,0.3,0.1,0.7c0.3,0.2,0.3,0.2,0.8,0.3
		c1.5,0.4,2.4,0.6,2.4,1.3c0,3.1-8.3,22.7-9.1,25.5h-0.1c-0.5-1.3-5.7-13.1-5.9-13.5c0.6-1.2,2.8-6.8,3.2-7.6c1.6-4,2-4.8,4.8-5.3
		c1.2-0.2,1.6-0.3,1.6-0.8c0-0.2-0.1-0.3-0.2-0.4l-0.6-0.1l-1.7,0.1l-1.1-0.1h-1.7c-0.4,0-1.9-0.1-2.9-0.1c-0.6,0-1,0.1-1,0.2
		c-0.1,0.4-0.1,0.4-0.1,0.6c0.3,0.1,1.6,0.4,1.9,0.4c0.8,0.2,1,1.1,1,1.2c0,1.7-3.5,9.2-4,10.2c-1-2.2-2-4.7-2.9-6.6
		c-0.1-0.2-1.6-3.9-1.6-4.2c0-0.5,0.6-0.5,1.6-0.7c1.2-0.2,1.4-0.2,1.7-0.3c0.1-0.1,0.1-0.3,0.1-0.4c0-0.5-0.4-0.5-1.8-0.5l-2.3,0.1
		h-1.3l-1.2,0l-1.4,0c-0.5,0-2.9,0-3.4,0c-0.1,0.1-0.2,0.3-0.2,0.4c0,0.3,0.1,0.4,0.2,0.5c0.5,0.1,2.8,0.3,3.2,0.6
		c0.8,0.7,6.6,14.3,7.1,15.6c-0.7,2.1-4.3,9.5-5.3,11.1c-1.1-2.2-10.4-25.8-10.4-26.4c0-0.2,0.1-0.4,0.1-0.4
		c0.6-0.2,2.3-0.2,2.9-0.2c0.1-0.6,0.1-0.7,0-1.1c-0.5-0.1-0.9-0.1-4.5-0.1h-1.3c-3.8-0.1-3.9-0.1-4.2,0.4l0.1,0.5
		c0.3,0.1,1.7,0.4,2,0.6c0.9,0.3,1.7,2.7,1.9,3.2c1.9,5.7,4.9,12.9,7.4,18.5l3.9,9.7h1.2c1.4-1.7,6.5-13,7.1-14.1
		c2,3.7,5.7,11.8,6.4,14.1h1.2c0.7-1.6,3.5-10,4.3-11.8C127.3,20,131.7,8.6,132.6,6z"/>
	<path class="st0" d="M144.1,32c-1.4-0.5-1.6-0.6-1.6-1.9l0.1-17.1c0-0.5-0.1-1.1-0.1-1.7c-0.3-0.1-0.4-0.1-0.8,0
		c-1.7,2.5-3.4,3-5.2,3.6v0.7c3,0.7,3,1,3,3.5c0,1.4,0,10.6-0.1,11.1c-0.2,1-0.4,1.3-1.1,1.4c-3,0.7-3.2,0.7-3.2,1.2
		c0,0.1,0,0.2,0.1,0.3c0.1,0,1.3-0.1,2.6-0.1c1.3,0,2.7,0,3.2,0c0.8,0,4.4,0.3,5.2,0.3c0.1-0.2,0.2-0.2,0.2-0.4
		c0-0.1-0.1-0.2-0.1-0.3L144.1,32z"/>
	<path class="st0" d="M140.7,5c1.5,0,2.3-1.4,2.3-2.1c0-0.8-0.8-2.1-2.3-2.1c-1,0-2.2,0.7-2.2,2C138.6,4.5,139.9,5,140.7,5z"/>
	<path class="st0" d="M152.7,33.1c0.8,0,1.8,0.1,2.7,0.1c1,0,1.8,0,2.1,0c0.3,0,0.5,0,0.5-0.5c0-0.5-1.2-0.6-2.1-0.7
		c-2-0.2-2-0.5-2-3.7c0-4.1,0.3-23.6,0.2-28.1H153l-5.2,1.7v0.6c0.4,0.2,2,0.9,2.4,1.1c0.6,0.4,0.9,0.6,0.9,1.7L151,25.7
		c0,1.1,0,4.1-0.1,5.1c-0.1,0.9-0.4,0.9-3,1.3c-0.9,0.2-1,0.2-1,0.6c0,0.4,0.4,0.5,0.7,0.5c0.5,0,1.4,0,2.4-0.1
		C151,33.1,152,33.1,152.7,33.1z"/>
	<path class="st0" d="M159.1,33.2c0.5,0,1.4,0,2.4-0.1c1,0.1,2.1,0,2.8,0c0.8,0,1.8,0.1,2.7,0.1c1,0,1.8,0,2.1,0
		c0.3,0,0.5,0,0.5-0.5c0-0.5-1.2-0.6-2.1-0.7c-2-0.2-2-0.5-2-3.7c0-4.1,0.3-23.6,0.2-28.1h-1.1l-5.2,1.7v0.6c0.4,0.2,2,0.9,2.4,1.1
		c0.6,0.4,0.9,0.6,0.9,1.7l0,20.5c0,1.1,0,4.1-0.2,5.1c-0.1,0.9-0.4,0.9-3,1.3c-0.9,0.2-1,0.2-1,0.6
		C158.4,33.1,158.7,33.2,159.1,33.2z"/>
	<path class="st0" d="M180.2,21.4c-3.5-1.4-5.1-2-5.1-4.3c0-2.1,1.5-3.3,3.3-3.3c2.4,0,4.4,2.3,5.2,4.5c0.5,0,0.6,0,0.9-0.1
		c-0.1-1.2-0.3-3.9-0.4-4.5c-1.6-0.9-3.8-1.1-5.6-1.1c-1.6,0-6.4,1-6.4,5.6c0,2.2,1.4,4.2,4.6,5.4c3,1.1,6.4,2.4,6.4,5.9
		c0,2.2-2.6,3.3-3.8,3.3c-4.1,0-5.5-3.7-6.5-6c-0.7-0.1-0.8,0.2-0.8,0.5l0.5,5c0.2,0.9,3.9,1.6,6.1,1.6c3.8,0,6.9-2.7,6.9-5.9
		C185.7,23.7,181.7,22,180.2,21.4z"/>
	<path class="st0" d="M57.8,30.3c0.3-0.4,0.3-0.7,0.1-0.9c-0.2-0.2-0.6,0.2-0.9,0.5c-0.7,0.5-2,1.6-4.6,1.6c-4.5,0-7.4-4.2-7.4-9.3
		c0-4.9,2.5-7.7,5.8-7.7c1.4,0,2.3,0.7,2.7,1.2c1.1,1.2,1.3,1.9,2.4,1.9c0.9,0,1.8-0.2,1.8-1.4c0-2.4-3.3-3.1-5.4-3.1
		c-7.4,0-10.3,6.1-10.3,11.3c0,5.3,3.7,9.5,8.8,9.5C53.9,33.9,56.5,32,57.8,30.3z"/>
	<rect x="22.1" y="44.2" class="st0" width="21.7" height="0.8"/>
	<rect x="148.1" y="44.4" class="st0" width="21.7" height="0.8"/>
	<path class="st0" d="M63.3,44.5c0.3-0.2,0.5-0.3,0.6-0.5c0.1-0.2,0.2-0.4,0.2-0.6c0-0.2-0.1-0.5-0.2-0.6c-0.1-0.2-0.3-0.3-0.5-0.4
		c-0.2-0.1-0.5-0.2-0.7-0.2h-3.1v0.1c0.1,0,0.1,0,0.1,0.1c0,0,0,0.1,0,0.1v4.5c0,0,0,0.1,0,0.1c0,0-0.1,0-0.2,0v0.1h2.9
		c0.4,0,0.7-0.1,0.9-0.2s0.5-0.3,0.6-0.5c0.1-0.2,0.2-0.5,0.2-0.7c0-0.3-0.1-0.5-0.2-0.7C63.8,44.8,63.6,44.6,63.3,44.5z M60.5,42.9
		h1.9c0.1,0,0.3,0,0.4,0.1c0.1,0.1,0.2,0.1,0.3,0.2c0.1,0.1,0.1,0.2,0.1,0.3c0,0.1,0,0.2-0.1,0.3c-0.1,0.1-0.2,0.2-0.3,0.2
		c-0.1,0.1-0.3,0.1-0.4,0.1h-1.8V42.9z M63.2,46c-0.1,0.1-0.2,0.2-0.3,0.3c-0.1,0.1-0.3,0.1-0.5,0.1h-1.8v-1.6h1.9
		c0.3,0,0.5,0.1,0.6,0.2c0.2,0.1,0.2,0.3,0.2,0.6C63.3,45.8,63.3,45.9,63.2,46z"/>
	<path class="st0" d="M53,42.1h-4.1v0.1c0.1,0,0.1,0,0.2,0.1c0,0,0.1,0.1,0.1,0.1v4.5c0,0.1-0.1,0.1-0.2,0.1v0.1h1.3v-0.1
		C50.1,47,50,47,50,47c0,0,0,0,0-0.1v-2h1.9c0,0,0.1,0,0.1,0c0,0,0,0.1,0,0.2h0.1V44H52c0,0.1,0,0.2-0.1,0.2c0,0,0,0-0.1,0h-1.9
		v-1.4h3c0,0,0.1,0,0.1,0c0,0,0,0.1,0.1,0.2h0.1V42h-0.1C53.1,42.1,53.1,42.1,53,42.1z"/>
	<path class="st0" d="M68.9,42.2c0.1,0,0.2,0.1,0.2,0.2v3c0,0.4-0.1,0.6-0.3,0.8c-0.2,0.2-0.6,0.3-1.1,0.3c-0.3,0-0.6,0-0.8-0.1
		c-0.2-0.1-0.4-0.2-0.4-0.4c-0.1-0.2-0.1-0.4-0.1-0.6v-3c0-0.1,0.1-0.1,0.2-0.2v-0.1h-1.3v0.1c0.1,0,0.2,0.1,0.2,0.2v3
		c0,1.2,0.7,1.9,2.2,1.9c1.5,0,2.2-0.6,2.2-1.9v-3c0-0.1,0.1-0.1,0.2-0.2v-0.1L68.9,42.2L68.9,42.2z"/>
	<path class="st0" d="M58.3,46.9l-1.9-4.6c0,0,0-0.1,0-0.1c0,0,0.1,0,0.1,0v-0.1h-1.5v0.1c0.1,0,0.2,0.1,0.2,0.1c0,0,0,0.1,0,0.1
		l-1.8,4.5c0,0.1-0.1,0.1-0.2,0.1v0.1h1.2v-0.1c-0.1,0-0.2,0-0.2-0.1l0.5-1.2h2.2l0.5,1.2c-0.1,0-0.1,0.1-0.2,0.1v0.1h1.3v-0.1
		C58.4,47.1,58.4,47,58.3,46.9C58.3,47,58.3,47,58.3,46.9z M55,45.1l0.8-2.1l0.8,2.1H55z"/>
	<path class="st0" d="M127.9,42.1C127.9,42.1,127.9,42.1,127.9,42.1l-4.7,0c0,0-0.1,0-0.1,0c0,0,0-0.1-0.1-0.2H123v1.1h0.1
		c0-0.1,0.1-0.2,0.2-0.2h1.9v4.1c0,0,0,0.1,0,0.1c0,0-0.1,0-0.2,0v0.1h1.3v-0.1c-0.1,0-0.2-0.1-0.2-0.2v-4h1.9
		c0.1,0,0.1,0.1,0.1,0.2h0.1v-1.1H128C127.9,42,127.9,42.1,127.9,42.1z"/>
	<path class="st0" d="M120.3,42.2c0.1,0,0.1,0,0.2,0.1c0,0,0,0.1,0,0.1v4.5c0,0,0,0.1,0,0.1c0,0-0.1,0-0.2,0v0.1h1.3v-0.1
		c-0.1,0-0.2-0.1-0.2-0.1v-4.5c0-0.1,0.1-0.1,0.2-0.2v-0.1L120.3,42.2L120.3,42.2z"/>
	<path class="st0" d="M129.4,42.2c0.1,0,0.1,0,0.2,0.1c0,0,0,0.1,0,0.1v4.5c0,0,0,0.1,0,0.1c0,0-0.1,0-0.2,0v0.1h1.3v-0.1
		c-0.1,0-0.2-0.1-0.2-0.1v-4.5c0-0.1,0.1-0.1,0.2-0.2v-0.1L129.4,42.2L129.4,42.2z"/>
	<path class="st0" d="M141.7,42.2c0.1,0,0.2,0.1,0.2,0.2v1.8h-3v-1.8c0-0.1,0.1-0.1,0.2-0.1v-0.1h-1.3v0.1c0.1,0,0.1,0,0.2,0.1
		c0,0,0,0,0,0.1v4.6c0,0.1-0.1,0.1-0.2,0.1v0.1h1.3v-0.1c-0.1,0-0.1,0-0.2-0.1c0,0,0,0,0-0.1v-2h3v2c0,0.1-0.1,0.1-0.2,0.1v0.1h1.3
		v-0.1c-0.1,0-0.1,0-0.1,0c0,0,0,0-0.1,0c0,0,0,0,0-0.1v-4.5c0-0.1,0.1-0.1,0.2-0.2v-0.1L141.7,42.2L141.7,42.2z"/>
	<path class="st0" d="M117.4,45c0.3,0,0.5-0.1,0.7-0.2c0.2-0.1,0.4-0.3,0.5-0.5c0.1-0.2,0.2-0.5,0.2-0.7c0-0.2,0-0.4-0.1-0.6
		c-0.1-0.2-0.2-0.3-0.3-0.5c-0.1-0.1-0.3-0.2-0.5-0.3c-0.2-0.1-0.4-0.1-0.6-0.1h-3.4v0.1c0.1,0,0.2,0.1,0.2,0.1v4.5
		c0,0.1-0.1,0.1-0.2,0.1v0.1h1.3v-0.1c-0.1,0-0.1,0-0.2-0.1c0,0,0,0,0-0.1V45h1.6l1.4,2c0,0-0.1,0.1-0.2,0.1v0.1h1.4v-0.1
		c-0.1,0-0.2,0-0.2-0.1L117.4,45z M114.8,44.3v-1.4h2.3c0.2,0,0.4,0,0.5,0.1c0.1,0.1,0.2,0.2,0.3,0.3c0,0.1,0.1,0.2,0.1,0.3
		c0,0.2-0.1,0.4-0.3,0.5c-0.2,0.1-0.4,0.2-0.8,0.2H114.8z"/>
	<path class="st0" d="M134.7,44.1c-0.5,0-0.8-0.1-1-0.1c-0.2,0-0.4-0.1-0.6-0.2c-0.1-0.1-0.2-0.2-0.2-0.4c0-0.1,0.1-0.3,0.2-0.4
		c0.1-0.1,0.3-0.2,0.4-0.2c0.2-0.1,0.4-0.1,0.6-0.1c0.2,0,0.5,0,0.8,0.1c0.3,0.1,0.6,0.1,0.8,0.2c0.2,0.1,0.3,0.2,0.3,0.2
		c0,0,0,0.1,0,0.2l0.1,0l0.5-1.1l-0.1,0c0,0.1-0.1,0.1-0.1,0.1c0,0-0.1,0-0.2-0.1c-0.4-0.1-0.7-0.2-1-0.3c-0.3-0.1-0.6-0.1-0.9-0.1
		c-0.3,0-0.6,0-0.9,0.1c-0.3,0.1-0.5,0.2-0.7,0.3c-0.2,0.1-0.3,0.3-0.4,0.5c-0.1,0.2-0.2,0.4-0.2,0.6c0,0.3,0.1,0.6,0.2,0.7
		c0.2,0.2,0.4,0.3,0.7,0.4c0.3,0.1,0.7,0.2,1.1,0.2l0.5,0.1c0.4,0,0.7,0.1,0.9,0.2c0.2,0.1,0.3,0.3,0.3,0.4c0,0.2-0.1,0.4-0.3,0.6
		c-0.2,0.2-0.5,0.2-0.9,0.2c-0.3,0-0.6,0-0.9-0.1c-0.3-0.1-0.6-0.2-0.8-0.3c-0.2-0.1-0.3-0.2-0.3-0.2v0c0,0,0,0,0-0.1l-0.1,0l-0.6,1
		l0,0c0.1-0.1,0.2-0.2,0.2-0.2c0,0,0.1,0,0.4,0.1c0.2,0.1,0.5,0.2,0.7,0.3c0.2,0.1,0.4,0.1,0.6,0.2c0.2,0,0.4,0,0.6,0
		c0.4,0,0.8-0.1,1.1-0.2c0.3-0.1,0.6-0.3,0.8-0.6c0.2-0.2,0.3-0.5,0.3-0.8c0-0.4-0.1-0.7-0.4-1C136,44.4,135.5,44.2,134.7,44.1z"/>
	<path class="st0" d="M111.7,44.5c0.3-0.2,0.5-0.3,0.6-0.5c0.1-0.2,0.2-0.4,0.2-0.6c0-0.2-0.1-0.5-0.2-0.6c-0.1-0.2-0.3-0.3-0.5-0.4
		c-0.2-0.1-0.5-0.2-0.7-0.2h-3.1v0.1c0.1,0,0.1,0,0.1,0.1c0,0,0,0.1,0,0.1v4.5c0,0,0,0.1,0,0.1c0,0-0.1,0-0.2,0v0.1h2.9
		c0.4,0,0.7-0.1,0.9-0.2s0.5-0.3,0.6-0.5c0.1-0.2,0.2-0.5,0.2-0.7c0-0.3-0.1-0.5-0.2-0.7C112.3,44.8,112.1,44.6,111.7,44.5z
		 M109,42.9h1.9c0.1,0,0.3,0,0.4,0.1c0.1,0.1,0.2,0.1,0.3,0.2c0.1,0.1,0.1,0.2,0.1,0.3c0,0.1,0,0.2-0.1,0.3
		c-0.1,0.1-0.2,0.2-0.3,0.2c-0.1,0.1-0.3,0.1-0.4,0.1H109V42.9z M111.6,46c-0.1,0.1-0.2,0.2-0.3,0.3c-0.1,0.1-0.3,0.1-0.5,0.1H109
		v-1.6h1.9c0.3,0,0.5,0.1,0.6,0.2c0.2,0.1,0.2,0.3,0.2,0.6C111.8,45.8,111.7,45.9,111.6,46z"/>
	<path class="st0" d="M75.8,46.4c0,0-0.1,0-0.1,0h-3v-4c0-0.1,0.1-0.1,0.2-0.2v-0.1h-1.3v0.1c0.1,0,0.2,0.1,0.2,0.2v4.5
		c0,0.1-0.1,0.1-0.2,0.1v0.1h4.1c0.1,0,0.1,0,0.1,0c0,0,0,0.1,0,0.2h0.1v-1.1h-0.1C75.9,46.3,75.8,46.4,75.8,46.4z"/>
	<path class="st0" d="M91.7,44.1c-0.5,0-0.8-0.1-1-0.1c-0.2,0-0.4-0.1-0.6-0.2C90,43.8,90,43.6,90,43.5c0-0.1,0.1-0.3,0.2-0.4
		c0.1-0.1,0.3-0.2,0.4-0.2c0.2-0.1,0.4-0.1,0.6-0.1c0.2,0,0.5,0,0.8,0.1c0.3,0.1,0.6,0.1,0.8,0.2c0.2,0.1,0.3,0.2,0.3,0.2
		c0,0,0,0.1,0,0.2l0.1,0l0.5-1.1l-0.1,0c0,0.1-0.1,0.1-0.1,0.1c0,0-0.1,0-0.2-0.1c-0.4-0.1-0.7-0.2-1-0.3c-0.3-0.1-0.6-0.1-0.9-0.1
		c-0.3,0-0.6,0-0.9,0.1c-0.3,0.1-0.5,0.2-0.7,0.3c-0.2,0.1-0.3,0.3-0.4,0.5c-0.1,0.2-0.2,0.4-0.2,0.6c0,0.3,0.1,0.6,0.2,0.7
		c0.2,0.2,0.4,0.3,0.7,0.4c0.3,0.1,0.7,0.2,1.1,0.2l0.5,0.1c0.4,0,0.7,0.1,0.9,0.2c0.2,0.1,0.3,0.3,0.3,0.4c0,0.2-0.1,0.4-0.3,0.6
		c-0.2,0.2-0.5,0.2-0.9,0.2c-0.3,0-0.6,0-0.9-0.1c-0.3-0.1-0.6-0.2-0.8-0.3c-0.2-0.1-0.3-0.2-0.3-0.2v0c0,0,0,0,0-0.1l-0.1,0l-0.6,1
		l0,0c0.1-0.1,0.2-0.2,0.2-0.2c0,0,0.1,0,0.4,0.1c0.2,0.1,0.5,0.2,0.7,0.3c0.2,0.1,0.4,0.1,0.6,0.2c0.2,0,0.4,0,0.6,0
		c0.4,0,0.8-0.1,1.1-0.2c0.3-0.1,0.6-0.3,0.8-0.6c0.2-0.2,0.3-0.5,0.3-0.8c0-0.4-0.1-0.7-0.4-1C93,44.4,92.5,44.2,91.7,44.1z"/>
	<path class="st0" d="M80.9,42.5c-0.4-0.3-1-0.4-1.7-0.4c-0.4,0-0.7,0.1-1.1,0.2c-0.3,0.1-0.6,0.3-0.8,0.5c-0.2,0.2-0.4,0.5-0.6,0.8
		c-0.1,0.3-0.2,0.7-0.2,1c0,0.5,0.1,0.9,0.4,1.3c0.2,0.4,0.6,0.7,1,0.9c0.4,0.2,0.9,0.3,1.4,0.3c0.5,0,1-0.1,1.4-0.3
		c0.4-0.2,0.7-0.5,1-0.9c0.2-0.4,0.3-0.8,0.3-1.3c0-0.4-0.1-0.8-0.3-1.2C81.6,43.1,81.3,42.7,80.9,42.5z M80.9,45.4
		c-0.1,0.2-0.2,0.4-0.4,0.6c-0.2,0.2-0.4,0.3-0.6,0.4c-0.2,0.1-0.5,0.1-0.7,0.1c-0.4,0-0.7-0.1-0.9-0.2c-0.3-0.2-0.5-0.4-0.6-0.7
		c-0.1-0.3-0.2-0.6-0.2-1c0-0.4,0.1-0.7,0.2-1c0.2-0.3,0.4-0.5,0.7-0.7c0.3-0.2,0.6-0.2,1-0.2c0.3,0,0.6,0.1,0.9,0.2
		c0.3,0.2,0.5,0.4,0.6,0.7c0.2,0.3,0.2,0.6,0.2,1C81.1,44.9,81,45.2,80.9,45.4z"/>
	<path class="st0" d="M86.7,42.2c0.1,0,0.2,0.1,0.2,0.2v3c0,0.4-0.1,0.6-0.3,0.8c-0.2,0.2-0.6,0.3-1.1,0.3c-0.3,0-0.6,0-0.8-0.1
		c-0.2-0.1-0.4-0.2-0.5-0.4c-0.1-0.2-0.1-0.4-0.1-0.6v-3c0-0.1,0.1-0.1,0.2-0.2v-0.1h-1.3v0.1c0.1,0,0.2,0.1,0.2,0.2v3
		c0,1.2,0.7,1.9,2.2,1.9c1.5,0,2.2-0.6,2.2-1.9v-3c0-0.1,0.1-0.1,0.2-0.2v-0.1L86.7,42.2L86.7,42.2z"/>
	<path class="st0" d="M102.9,42.2c0.1,0,0.2,0,0.2,0.1c0,0,0,0.1-0.1,0.2l-1.4,1.8l-1.5-1.9c0-0.1-0.1-0.1-0.1-0.1
		c0,0,0.1,0,0.2-0.1v-0.1h-1.4v0.1c0.1,0,0.2,0.1,0.3,0.1l2,2.7v1.9c0,0,0,0.1,0,0.1c0,0-0.1,0-0.2,0v0.1h1.3v-0.1c0,0-0.1,0-0.1,0
		c0,0-0.1,0-0.1,0c0,0,0,0,0-0.1V45l1.8-2.5c0.1-0.1,0.2-0.2,0.2-0.3c0,0,0.1,0,0.2-0.1v-0.1L102.9,42.2L102.9,42.2z"/>
	<path class="st0" d="M99,46.4c0,0-0.1,0-0.1,0h-3v-4c0-0.1,0.1-0.1,0.2-0.2v-0.1h-1.3v0.1c0.1,0,0.2,0.1,0.2,0.2v4.5
		c0,0.1-0.1,0.1-0.2,0.1v0.1h4.1c0.1,0,0.1,0,0.1,0c0,0,0,0.1,0,0.2h0.1v-1.1h-0.1C99,46.3,99,46.4,99,46.4z"/>
</g>
</svg>
