<?xml version="1.0" encoding="utf-8"?>
<!-- Generator: Adobe Illustrator 18.1.1, SVG Export Plug-In . SVG Version: 6.00 Build 0)  -->
<svg version="1.1" id="Layer_1" xmlns="http://www.w3.org/2000/svg" xmlns:xlink="http://www.w3.org/1999/xlink" x="0px" y="0px"
	 width="352px" height="28.3px" viewBox="0 0 352 28.3" enable-background="new 0 0 352 28.3" xml:space="preserve">
<!-- Visa -->
<g>
	<g>
		<g>
			<rect x="53.4" y="1.3" fill-rule="evenodd" clip-rule="evenodd" fill="#005A9B" width="42.6" height="26.7"/>
		</g>
		<g>
			<g>
				<path fill-rule="evenodd" clip-rule="evenodd" fill="#FAA929" d="M65.8,17.1c4.1-1.8,9.9-3.4,17.6-1.8l0.1-2
					c-8.1-0.9-13.9,1.7-17.7,3.5V17.1z"/>
			</g>
			<g>
				<polygon fill-rule="evenodd" clip-rule="evenodd" fill="#FFFFFF" points="58.3,18.6 62.2,18.6 62.2,19.7 59.8,19.7 59.8,20.8
					62.2,20.8 62.2,22 59.8,22 59.8,23.1 62.2,23.1 62.2,24.2 58.3,24.2 				"/>
			</g>
			<g>
				<rect x="63.2" y="18.1" fill-rule="evenodd" clip-rule="evenodd" fill="#FFFFFF" width="1.4" height="6.1"/>
			</g>
			<g>
				<path fill-rule="evenodd" clip-rule="evenodd" fill="#FFFFFF" d="M69.5,23.8c-0.5,0.4-1.2,0.6-1.9,0.6c-1.5,0-2.2-1.1-2.2-2.1
					c0-1.2,0.9-2.3,2.2-2.3c1.6,0,2.1,1.1,2.1,2.5h-2.8c0,0.3,0.2,0.9,1,0.9c0.5,0,0.8-0.1,1.2-0.4L69.5,23.8z M68.5,21.7
					c0-0.4-0.2-0.8-0.7-0.8c-0.4,0-0.8,0.4-0.9,0.8H68.5z"/>
			</g>
			<g>
				<path fill-rule="evenodd" clip-rule="evenodd" fill="#FFFFFF" d="M74.1,24c-0.4,0.2-1,0.4-1.5,0.4c-1.3,0-2.2-0.8-2.2-2.1
					c0-1.4,0.9-2.3,2.3-2.3c0.5,0,1.1,0.2,1.4,0.4l-0.5,0.9c-0.2-0.1-0.4-0.2-0.7-0.2c-0.7,0-1.2,0.4-1.2,1.1c0,0.6,0.5,1.1,1.1,1.1
					c0.3,0,0.5-0.1,0.8-0.2L74.1,24z"/>
			</g>
			<g>
				<path fill-rule="evenodd" clip-rule="evenodd" fill="#FFFFFF" d="M74.6,20.1h0.6l0-1.4h1.4l0,1.4h1.2l0,1h-1.2
					c0,0.6,0,1.2,0,1.5c0,0.4,0.1,0.5,0.4,0.5c0.2,0,0.4-0.1,0.5-0.2l0.3,1c-0.4,0.3-0.9,0.4-1.4,0.4c-1.2,0-1.2-0.7-1.2-1.7
					c0-0.5,0-1,0-1.6h-0.6L74.6,20.1z"/>
			</g>
			<g>
				<path fill-rule="evenodd" clip-rule="evenodd" fill="#FFFFFF" d="M78.5,20.1h1.4v0.6h0c0.2-0.4,0.5-0.7,1-0.7c0.2,0,0.3,0,0.5,0
					l-0.2,1.4c-0.1,0-0.3-0.1-0.5-0.1c-0.5,0-0.8,0.4-0.8,0.5l0,2.4h-1.4L78.5,20.1z"/>
			</g>
			<g>
				<path fill-rule="evenodd" clip-rule="evenodd" fill="#FFFFFF" d="M84,20c1.5,0,2.3,1,2.3,2.2c0,1.2-0.8,2.2-2.3,2.2
					c-1.5,0-2.3-1-2.3-2.2C81.7,20.9,82.5,20,84,20 M84,23.3c0.7,0,0.9-0.6,0.9-1.1c0-0.5-0.2-1.1-0.9-1.1c-0.7,0-0.9,0.6-0.9,1.1
					C83.1,22.7,83.3,23.3,84,23.3"/>
			</g>
			<g>
				<path fill-rule="evenodd" clip-rule="evenodd" fill="#FFFFFF" d="M87,20.1h1.4v0.4c0.3-0.3,0.8-0.6,1.3-0.6
					c0.9,0,1.3,0.5,1.3,1.6c0,0.8,0,1.8,0,2.7h-1.4c0-0.8,0-1.6,0-2.4c0-0.3-0.1-0.6-0.5-0.6c-0.2,0-0.6,0.2-0.7,0.4l0,2.7H87
					L87,20.1z"/>
			</g>
			<g>
				<polygon fill-rule="evenodd" clip-rule="evenodd" fill="#FFFFFF" points="70,11.6 71.8,5.7 73.4,5.7 71.6,11.6 				"/>
			</g>
			<g>
				<path fill-rule="evenodd" clip-rule="evenodd" fill="#FFFFFF" d="M69.3,5.7l-1.4,2.5c-0.4,0.7-0.6,1-0.7,1.4h0
					c0-0.5,0-1.2-0.1-1.5l-0.2-2.4h-2.7l0,0.2c0.7,0,1.1,0.3,1.2,1.1l0.5,4.7h1.7L71,5.7H69.3z"/>
			</g>
			<g>
				<path fill-rule="evenodd" clip-rule="evenodd" fill="#FFFFFF" d="M81.8,11.6l0-0.9l-2,0l-0.4,0.9h-1.7l3.2-5.9h2.1l0.5,5.9H81.8
					z M81.6,8.1c0-0.4,0-1,0-1.4h0C81.4,7,81,7.9,80.8,8.3l-0.6,1.3h1.4L81.6,8.1z"/>
			</g>
			<g>
				<path fill-rule="evenodd" clip-rule="evenodd" fill="#FFFFFF" d="M75.1,11.8c-1.1,0-1.9-0.4-2.4-0.7l0.8-1.2
					c0.5,0.3,0.9,0.6,1.7,0.6c0.3,0,0.5-0.1,0.7-0.3c0.2-0.4-0.1-0.6-0.7-0.9L74.9,9C74,8.4,73.6,7.8,74,6.7c0.3-0.7,1-1.2,2.2-1.2
					c0.8,0,1.6,0.4,2.1,0.7l-0.9,1c-0.4-0.4-0.8-0.5-1.2-0.5c-0.3,0-0.6,0.1-0.7,0.3c-0.2,0.3,0.1,0.6,0.5,0.9l0.4,0.2
					c1.1,0.7,1.4,1.5,1.1,2.2C77,11.5,76.1,11.8,75.1,11.8"/>
			</g>
		</g>
	</g>
</g>
<!-- Visa Electron -->
<g>
	<g>
		<polygon fill="#332F6F" points="104.3,1.3 104.3,28 146.9,28 146.9,1.3 104.3,1.3 		"/>
	</g>
	<g>
		<path fill="#EF8114" d="M121.7,14.7c0-6.5,5.3-11.9,11.9-11.9c6.5,0,11.9,5.3,11.9,11.9c0,6.5-5.3,11.9-11.9,11.9
			C127,26.5,121.7,21.2,121.7,14.7L121.7,14.7z"/>
	</g>
	<g>
		<path fill="#E40F1B" d="M125.6,5.9c0,0-0.6,0.5-1,1.1h2.1c0,0,0.7,0.8,1,1.4h-4.1c0,0-0.4,0.6-0.7,1.2h5.5c0,0,0.5,0.9,0.6,1.4
			h-6.6c0,0-0.2,0.6-0.3,1.1l7.3,0c0.2,0.9,0.7,3.6-0.3,6.5l-6.6,0c0.1,0.4,0.3,0.8,0.5,1.2h5.7c-0.2,0.5-0.6,1.1-0.8,1.4l-4.2,0
			c0.2,0.3,0.6,0.9,0.8,1.1l2.6,0c-0.5,0.7-1.3,1.3-1.3,1.3h0l0,0c-2.1,1.9-4.9,3-7.9,3c-6.5,0-11.9-5.3-11.9-11.9
			c0-6.5,5.3-11.9,11.9-11.9C120.7,2.8,123.5,4,125.6,5.9L125.6,5.9z"/>
	</g>
	<g>
		<path fill="#332F6F" d="M119.7,13l-0.2,1.1l-1,0c0,0-0.5,0.1-0.5,0.4c0,0.2,0.4,0.5,1,0.7c0.6,0.2,0.6,0.9,0.5,1.4
			c-0.1,0.5-0.1,1.4-1.8,1.5c-1,0-1.5-0.2-1.5-0.2l0.2-1.1c0,0,1.2,0.3,1.5,0.1c0.3-0.2,0.6-0.5,0.1-0.7c-0.5-0.2-1.4-0.6-1.4-1.4
			c0-0.9,0.4-1.4,0.9-1.6C118.1,12.8,119,12.9,119.7,13L119.7,13z"/>
	</g>
	<g>
		<polygon fill="#332F6F" points="111.5,17.9 110.3,17.9 111,13.7 109.5,17.8 108.7,17.8 108.5,13.6 107.7,17.9 106.6,17.9
			107.7,11.5 109.1,11.5 109.6,15.2 111.2,11.5 112.6,11.5 111.5,17.9 		"/>
	</g>
	<g>
		<path fill="#332F6F" d="M120.8,18c-0.4,0-0.7-0.1-0.8-0.3c-0.2-0.2-0.3-0.4-0.3-0.8c0-0.1,0-0.2,0-0.3c0-0.1,0-0.2,0-0.3l0.7-4.1
			h1.1l-0.2,0.8h1.1l-0.2,1h-1.1l-0.3,1.7c0,0.1,0,0.2-0.1,0.4c0,0.1,0,0.2,0,0.3c0,0.2,0,0.3,0.1,0.4c0.1,0.1,0.2,0.1,0.3,0.1
			c0.1,0,0.1,0,0.2,0c0.1,0,0.2-0.1,0.2-0.1h0.1l-0.2,1c-0.1,0.1-0.3,0.1-0.4,0.1C121.2,18,121,18,120.8,18L120.8,18z"/>
	</g>
	<g>
		<path fill="#332F6F" d="M129,14.4c-0.2-0.2-0.8-0.2-0.9,0.2l-0.5,3.2h-1.1l0.8-4.8h1.1l0,0.4c0.2-0.2,0.5-0.4,1.1-0.4
			C129.4,13.1,129,13.8,129,14.4L129,14.4z"/>
	</g>
	<g>
		<path fill="#332F6F" d="M131.1,18c-0.6,0-1.1-0.2-1.5-0.6c-0.3-0.4-0.5-1-0.5-1.8c0-0.6,0.1-1.2,0.2-1.7c0.1-0.5,0.4-0.9,0.6-1.3
			c0.3-0.4,0.6-0.6,0.9-0.8c0.4-0.2,0.7-0.3,1.1-0.3c0.3,0,0.6,0.1,0.9,0.1c0.1,0,0.4,0.2,0.4,0.2l-0.3,1.5
			c-0.1-0.2-0.3-0.3-0.4-0.4c-0.2-0.1-0.4-0.2-0.7-0.2c-0.5,0-0.9,0.3-1.2,0.8c-0.3,0.5-0.5,1.2-0.5,1.9c0,0.5,0.1,0.9,0.3,1.1
			c0.2,0.2,0.4,0.3,0.7,0.3c0.3,0,0.6-0.1,0.8-0.2c0.1-0.1,0.2-0.2,0.4-0.3l-0.3,1.4c0,0-0.1,0.1-0.2,0.1c-0.2,0.1-0.3,0.1-0.4,0.1
			C131.5,18,131.3,18,131.1,18L131.1,18z"/>
	</g>
	<g>
		<path fill="#332F6F" d="M114.3,17.7c0,0-0.1,0.1-0.1,0.1c-0.1,0.1-0.2,0.1-0.3,0.2c-0.1,0-0.2,0.1-0.4,0.1c-0.3,0-0.5-0.1-0.7-0.3
			c-0.2-0.2-0.3-0.5-0.3-0.9c0-0.4,0.1-0.7,0.2-1c0.1-0.3,0.3-0.5,0.6-0.6c0.2-0.2,0.5-0.3,0.9-0.3l0.2,0c0.3-0.1,0.6-0.1,0.9-0.1
			c0,0,0-0.1,0-0.1c0,0,0-0.1,0-0.1c0-0.2-0.1-0.3-0.2-0.4c-0.1-0.1-0.3-0.1-0.6-0.1h-0.1c-0.2,0-0.4,0.1-0.6,0.1
			c-0.2,0.1-0.4,0.2-0.5,0.2h-0.1l0.2-1.1c0.1-0.1,0.3-0.1,0.6-0.2c0.1,0,0.3-0.1,0.4-0.1c0.1,0,0.3,0,0.4,0c0.6,0,1,0.1,1.2,0.3
			c0.3,0.2,0.4,0.5,0.4,0.9c0,0.1,0,0.1,0,0.2c0,0.1,0,0.2,0,0.2l-0.6,3.3h-1.1l0.1-0.5c-0.1,0.1-0.2,0.1-0.3,0.2
			C114.4,17.6,114.4,17.7,114.3,17.7L114.3,17.7z M114.3,15.7c-0.1,0-0.2,0.1-0.3,0.1c-0.1,0.1-0.2,0.2-0.3,0.3
			c-0.1,0.1-0.1,0.3-0.1,0.5c0,0.2,0,0.3,0.1,0.3c0.1,0.1,0.2,0.1,0.4,0.1c0.1,0,0.1,0,0.2,0c0.1,0,0.1,0,0.2-0.1
			c0.1-0.1,0.2-0.2,0.4-0.3l0.2-1c-0.2,0-0.4,0.1-0.6,0.1C114.4,15.7,114.4,15.7,114.3,15.7L114.3,15.7z"/>
	</g>
	<g>
		<path fill="#332F6F" d="M124.1,13.9c-0.2,0-0.3,0.1-0.4,0.2c-0.2,0.2-0.3,0.4-0.4,0.7h0.8h0.8c0-0.1,0-0.1,0-0.1c0,0,0-0.1,0-0.1
			c0-0.2-0.1-0.4-0.2-0.5c-0.1-0.1-0.2-0.2-0.4-0.2C124.2,13.9,124.2,13.9,124.1,13.9L124.1,13.9z M124.1,16.9h0.2
			c0.2,0,0.5-0.1,0.7-0.2c0.2-0.1,0.4-0.2,0.6-0.4h0.1l-0.2,1.2c-0.2,0.1-0.5,0.2-0.7,0.3c-0.2,0.1-0.4,0.1-0.7,0.1H124
			c-0.6,0-1.1-0.2-1.4-0.5c-0.3-0.4-0.5-0.9-0.5-1.5c0-0.4,0.1-0.8,0.2-1.2c0.1-0.4,0.3-0.7,0.5-1c0.2-0.3,0.4-0.5,0.7-0.6
			c0.2-0.1,0.4-0.2,0.6-0.2c0.1,0,0.2,0,0.3,0c0.5,0,0.9,0.1,1.2,0.4c0.3,0.3,0.4,0.7,0.4,1.3c0,0.2,0,0.4,0,0.6
			c0,0.2-0.1,0.4-0.1,0.5h-1.7h-0.9v0.1v0.1c0,0.3,0.1,0.6,0.3,0.8C123.6,16.8,123.8,16.9,124.1,16.9L124.1,16.9z"/>
	</g>
	<g>
		<path fill="#332F6F" d="M134.7,17.7c0,0-0.1,0.1-0.1,0.1c-0.1,0.1-0.2,0.1-0.3,0.2c-0.1,0-0.2,0.1-0.4,0.1c-0.3,0-0.5-0.1-0.7-0.3
			c-0.2-0.2-0.3-0.5-0.3-0.9c0-0.4,0.1-0.7,0.2-1c0.1-0.3,0.3-0.5,0.6-0.6c0.2-0.2,0.5-0.3,0.9-0.3c0.1,0,0.2,0,0.2,0
			c0.3-0.1,0.6-0.1,0.9-0.1c0,0,0-0.1,0-0.1c0,0,0-0.1,0-0.1c0-0.2-0.1-0.3-0.2-0.4c-0.1-0.1-0.3-0.1-0.6-0.1h-0.1
			c-0.2,0-0.4,0.1-0.6,0.1c-0.2,0.1-0.4,0.2-0.5,0.2h-0.1l0.2-1.1c0.1-0.1,0.3-0.1,0.6-0.2c0.1,0,0.3-0.1,0.4-0.1c0.1,0,0.3,0,0.4,0
			c0.6,0,1,0.1,1.2,0.3c0.3,0.2,0.4,0.5,0.4,0.9c0,0.1,0,0.1,0,0.2c0,0.1,0,0.2,0,0.2l-0.6,3.3H135l0.1-0.5
			c-0.1,0.1-0.2,0.1-0.3,0.2L134.7,17.7L134.7,17.7z M134.7,15.7c-0.1,0-0.2,0.1-0.3,0.1c-0.1,0.1-0.2,0.2-0.3,0.3
			c-0.1,0.1-0.1,0.3-0.1,0.5c0,0.2,0,0.3,0.1,0.3c0.1,0.1,0.2,0.1,0.4,0.1c0.1,0,0.1,0,0.2,0c0.1,0,0.1,0,0.2-0.1
			c0.1-0.1,0.2-0.2,0.4-0.3l0.2-1c-0.2,0-0.4,0.1-0.6,0.1C134.8,15.7,134.8,15.7,134.7,15.7L134.7,15.7z"/>
	</g>
	<g>
		<path fill="#332F6F" d="M139.5,14.4c-0.2-0.2-0.8-0.2-0.9,0.2l-0.5,3.2h-1.1l0.8-4.8h1.1l0,0.4c0.2-0.2,0.5-0.4,1.1-0.4
			C140,13.1,139.5,13.8,139.5,14.4L139.5,14.4z"/>
	</g>
	<g>
		<path fill-rule="evenodd" clip-rule="evenodd" fill="#332F6F" d="M141.7,14.1c-0.1,0-0.1,0.1-0.2,0.1c-0.1,0.1-0.3,0.3-0.4,0.4
			c-0.1,0.2-0.2,0.4-0.2,0.6c-0.1,0.3-0.1,0.5-0.1,0.8c0,0.3,0.1,0.5,0.2,0.6c0.1,0.1,0.3,0.2,0.5,0.2c0.1,0,0.1,0,0.2-0.1
			c0,0,0.1,0,0.1-0.1c0.1-0.1,0.2-0.1,0.3-0.2l0.4-2.4c-0.1,0-0.1-0.1-0.2-0.1c-0.1,0-0.2-0.1-0.3-0.1
			C141.9,14,141.8,14.1,141.7,14.1L141.7,14.1z M141.7,17.6c-0.1,0.1-0.2,0.2-0.3,0.2c-0.1,0.1-0.2,0.1-0.3,0.1c-0.1,0-0.2,0-0.3,0
			c-0.3,0-0.6-0.2-0.8-0.4c-0.2-0.3-0.3-0.7-0.3-1.3c0-0.5,0-0.9,0.2-1.3c0.1-0.4,0.3-0.8,0.4-1.1c0.2-0.3,0.4-0.5,0.7-0.7
			c0.2-0.2,0.5-0.3,0.7-0.3h0c0.2,0,0.4,0,0.5,0.1c0.1,0.1,0.3,0.1,0.4,0.3l0.3-1.7h1.1l-1,6.3h-1.1l0.1-0.5
			C141.9,17.5,141.8,17.5,141.7,17.6L141.7,17.6z"/>
	</g>
	<g>
		<path fill="#FFFFFF" d="M120,12.8l-0.2,1.1l-1,0c0,0-0.5,0.1-0.5,0.4c0,0.2,0.4,0.5,1,0.7c0.6,0.2,0.6,0.9,0.5,1.4
			c-0.1,0.5-0.1,1.4-1.8,1.5c-1,0-1.5-0.2-1.5-0.2l0.2-1.1c0,0,1.2,0.3,1.5,0.1c0.3-0.2,0.6-0.5,0.1-0.7c-0.5-0.2-1.4-0.6-1.4-1.4
			c0-0.9,0.4-1.4,0.9-1.6C118.3,12.7,119.3,12.7,120,12.8L120,12.8z"/>
	</g>
	<g>
		<polygon fill="#FFFFFF" points="111.7,17.7 110.5,17.7 111.2,13.5 109.7,17.7 108.9,17.7 108.7,13.4 108,17.7 106.8,17.7
			107.9,11.4 109.3,11.4 109.8,15 111.4,11.4 112.8,11.4 111.7,17.7 		"/>
	</g>
	<g>
		<path fill="#FFFFFF" d="M121,17.8c-0.4,0-0.7-0.1-0.8-0.3c-0.2-0.2-0.3-0.4-0.3-0.8c0-0.1,0-0.2,0-0.3c0-0.1,0-0.2,0-0.3l0.7-4.1
			h1.1l-0.2,0.8h1.1l-0.2,1h-1.1l-0.3,1.7c0,0.1,0,0.2-0.1,0.4c0,0.1,0,0.2,0,0.3c0,0.2,0,0.3,0.1,0.4c0.1,0.1,0.2,0.1,0.3,0.1
			c0.1,0,0.1,0,0.2,0c0.1,0,0.2-0.1,0.2-0.1h0.1l-0.2,1c-0.1,0.1-0.3,0.1-0.4,0.1C121.4,17.8,121.2,17.8,121,17.8L121,17.8z"/>
	</g>
	<g>
		<path fill="#FFFFFF" d="M129.2,14.3c-0.2-0.2-0.8-0.2-0.9,0.2l-0.5,3.2h-1.1l0.8-4.8h1.1l0,0.4c0.2-0.2,0.5-0.4,1.1-0.4
			C129.6,12.9,129.2,13.6,129.2,14.3L129.2,14.3z"/>
	</g>
	<g>
		<path fill="#FFFFFF" d="M131.3,17.8c-0.6,0-1.1-0.2-1.5-0.6c-0.3-0.4-0.5-1-0.5-1.8c0-0.6,0.1-1.2,0.2-1.7
			c0.2-0.5,0.4-0.9,0.6-1.3c0.3-0.4,0.6-0.6,0.9-0.8c0.4-0.2,0.7-0.3,1.1-0.3c0.3,0,0.6,0.1,0.9,0.1c0.1,0,0.4,0.2,0.4,0.2l-0.3,1.5
			c-0.1-0.2-0.3-0.3-0.4-0.4c-0.2-0.1-0.4-0.2-0.7-0.2c-0.5,0-0.9,0.3-1.2,0.8c-0.3,0.5-0.5,1.2-0.5,1.9c0,0.5,0.1,0.9,0.3,1.1
			c0.2,0.2,0.4,0.3,0.7,0.3c0.3,0,0.6-0.1,0.8-0.2c0.1-0.1,0.2-0.2,0.4-0.3l-0.3,1.4c0,0-0.1,0.1-0.2,0.1c-0.2,0.1-0.3,0.1-0.4,0.1
			C131.7,17.8,131.6,17.8,131.3,17.8L131.3,17.8z"/>
	</g>
	<g>
		<path fill="#FFFFFF" d="M114.5,17.5c0,0-0.1,0.1-0.1,0.1c-0.1,0.1-0.2,0.1-0.3,0.2c-0.1,0-0.2,0.1-0.4,0.1c-0.3,0-0.5-0.1-0.7-0.3
			c-0.2-0.2-0.3-0.5-0.3-0.9c0-0.4,0.1-0.7,0.2-1c0.1-0.3,0.3-0.5,0.6-0.6c0.2-0.2,0.5-0.3,0.9-0.3l0.2,0c0.3-0.1,0.6-0.1,0.9-0.1
			c0,0,0-0.1,0-0.1c0,0,0-0.1,0-0.1c0-0.2-0.1-0.3-0.2-0.4c-0.1-0.1-0.3-0.1-0.6-0.1h-0.1c-0.2,0-0.4,0.1-0.6,0.1
			c-0.2,0.1-0.4,0.2-0.5,0.2h-0.1l0.2-1.1c0.1-0.1,0.3-0.1,0.6-0.2c0.1,0,0.3-0.1,0.4-0.1c0.1,0,0.3,0,0.4,0c0.6,0,1,0.1,1.2,0.3
			c0.3,0.2,0.4,0.5,0.4,0.9c0,0.1,0,0.1,0,0.2c0,0.1,0,0.2,0,0.2l-0.6,3.3h-1.1l0.1-0.5c-0.1,0.1-0.2,0.1-0.3,0.2
			C114.6,17.5,114.6,17.5,114.5,17.5L114.5,17.5z M114.5,15.6c-0.1,0-0.2,0.1-0.3,0.1c-0.1,0.1-0.2,0.2-0.3,0.3
			c-0.1,0.1-0.1,0.3-0.1,0.5c0,0.2,0,0.3,0.1,0.3c0.1,0.1,0.2,0.1,0.4,0.1c0.1,0,0.1,0,0.2,0c0.1,0,0.1,0,0.2-0.1
			c0.1-0.1,0.2-0.2,0.4-0.3l0.2-1c-0.2,0-0.4,0.1-0.6,0.1C114.6,15.5,114.6,15.5,114.5,15.6L114.5,15.6z"/>
	</g>
	<g>
		<path fill="#FFFFFF" d="M124.3,13.7c-0.1,0-0.3,0.1-0.4,0.2c-0.2,0.2-0.3,0.4-0.4,0.7h0.8h0.8c0-0.1,0-0.1,0-0.1c0,0,0-0.1,0-0.1
			c0-0.2-0.1-0.4-0.2-0.5c-0.1-0.1-0.2-0.2-0.4-0.2C124.5,13.7,124.4,13.7,124.3,13.7L124.3,13.7z M124.3,16.7h0.2
			c0.2,0,0.5-0.1,0.7-0.2c0.2-0.1,0.4-0.2,0.6-0.4h0.1l-0.2,1.2c-0.2,0.1-0.5,0.2-0.7,0.3c-0.2,0.1-0.4,0.1-0.7,0.1h-0.1
			c-0.6,0-1.1-0.2-1.4-0.5c-0.3-0.4-0.5-0.9-0.5-1.5c0-0.4,0.1-0.8,0.2-1.2c0.1-0.4,0.3-0.7,0.5-1c0.2-0.3,0.4-0.5,0.7-0.6
			c0.2-0.1,0.4-0.2,0.6-0.2c0.1,0,0.2,0,0.3,0c0.5,0,0.9,0.1,1.2,0.4c0.3,0.3,0.4,0.7,0.4,1.3c0,0.2,0,0.4,0,0.6
			c0,0.2-0.1,0.4-0.1,0.5h-1.7h-0.9v0.1v0.1c0,0.3,0.1,0.6,0.3,0.8C123.9,16.6,124.1,16.7,124.3,16.7L124.3,16.7z"/>
	</g>
	<g>
		<path fill="#FFFFFF" d="M135,17.5c0,0-0.1,0.1-0.1,0.1c-0.1,0.1-0.2,0.1-0.3,0.2c-0.1,0-0.2,0.1-0.4,0.1c-0.3,0-0.5-0.1-0.7-0.3
			c-0.2-0.2-0.3-0.5-0.3-0.9c0-0.4,0.1-0.7,0.2-1c0.1-0.3,0.3-0.5,0.6-0.6c0.2-0.2,0.5-0.3,0.9-0.3c0.1,0,0.2,0,0.2,0
			c0.3-0.1,0.6-0.1,0.9-0.1c0,0,0-0.1,0-0.1c0,0,0-0.1,0-0.1c0-0.2-0.1-0.3-0.2-0.4c-0.1-0.1-0.3-0.1-0.6-0.1H135
			c-0.2,0-0.4,0.1-0.6,0.1c-0.2,0.1-0.4,0.2-0.5,0.2h-0.1l0.2-1.1c0.1-0.1,0.3-0.1,0.6-0.2c0.1,0,0.3-0.1,0.4-0.1c0.1,0,0.3,0,0.4,0
			c0.6,0,1,0.1,1.2,0.3c0.3,0.2,0.4,0.5,0.4,0.9c0,0.1,0,0.1,0,0.2c0,0.1,0,0.2,0,0.2l-0.6,3.3h-1.1l0.1-0.5
			c-0.1,0.1-0.2,0.1-0.3,0.2L135,17.5L135,17.5z M135,15.6c-0.1,0-0.2,0.1-0.3,0.1c-0.1,0.1-0.2,0.2-0.3,0.3
			c-0.1,0.1-0.1,0.3-0.1,0.5c0,0.2,0,0.3,0.1,0.3c0.1,0.1,0.2,0.1,0.4,0.1c0.1,0,0.1,0,0.2,0c0.1,0,0.1,0,0.2-0.1
			c0.1-0.1,0.2-0.2,0.4-0.3l0.2-1c-0.2,0-0.4,0.1-0.6,0.1C135,15.5,135,15.5,135,15.6L135,15.6z"/>
	</g>
	<g>
		<path fill="#FFFFFF" d="M139.7,14.3c-0.2-0.2-0.8-0.2-0.9,0.2l-0.5,3.2h-1.1l0.8-4.8h1.1l0,0.4c0.2-0.2,0.5-0.4,1.1-0.4
			C140.2,12.9,139.8,13.6,139.7,14.3L139.7,14.3z"/>
	</g>
	<g>
		<path fill-rule="evenodd" clip-rule="evenodd" fill="#FFFFFF" d="M142,13.9c-0.1,0-0.1,0.1-0.2,0.1c-0.2,0.1-0.3,0.3-0.4,0.4
			c-0.1,0.2-0.2,0.4-0.2,0.6c-0.1,0.3-0.1,0.5-0.1,0.8c0,0.3,0.1,0.5,0.1,0.6c0.1,0.1,0.3,0.2,0.5,0.2c0.1,0,0.2,0,0.2-0.1
			c0,0,0.1,0,0.1-0.1c0.1-0.1,0.2-0.1,0.3-0.2l0.4-2.4c-0.1,0-0.1-0.1-0.2-0.1c-0.1,0-0.2-0.1-0.3-0.1
			C142.2,13.9,142.1,13.9,142,13.9L142,13.9z M142,17.4c-0.1,0.1-0.2,0.2-0.3,0.2c-0.1,0.1-0.2,0.1-0.3,0.1c-0.1,0-0.2,0-0.3,0
			c-0.3,0-0.6-0.2-0.8-0.4c-0.2-0.3-0.3-0.7-0.3-1.3c0-0.5,0-0.9,0.2-1.3c0.1-0.4,0.3-0.8,0.4-1.1c0.2-0.3,0.4-0.5,0.7-0.7
			c0.2-0.2,0.5-0.3,0.8-0.3h0c0.2,0,0.4,0,0.5,0.1c0.1,0.1,0.3,0.1,0.4,0.3l0.3-1.7h1.1l-1,6.3h-1.1l0.1-0.5
			C142.1,17.3,142.1,17.4,142,17.4L142,17.4z"/>
	</g>
</g>

<!-- Mastercard -->
<g>
	<rect x="257.2" y="1.3" fill="#FFFFFF" width="42.6" height="26.7"/>
	<path fill="#CCCCCC" d="M300.2,28.5h-43.4V0.9h43.4V28.5z M257.6,27.6h41.7V1.8h-41.7V27.6z"/>
</g>
<!-- Meastro -->
<g>
	<g>
		<g>
			<g>
				<g>
					<g>
						<path fill="#009BDE" d="M281.9,19.2h-1.5c-0.1,0-0.2,0.1-0.2,0.2l-0.6,3.9c0,0.1,0,0.1,0.1,0.1h0.8c0.1,0,0.1-0.1,0.1-0.1
							l0.2-1.1c0-0.1,0.1-0.2,0.2-0.2h0.5c1,0,1.6-0.5,1.7-1.4c0.1-0.4,0-0.7-0.2-1C282.8,19.3,282.4,19.2,281.9,19.2z M282.1,20.6
							c-0.1,0.5-0.5,0.5-0.9,0.5H281l0.2-1c0-0.1,0.1-0.1,0.1-0.1h0.1c0.3,0,0.5,0,0.7,0.2C282.1,20.3,282.1,20.4,282.1,20.6z"/>
					</g>
					<g>
						<path fill="#002F87" d="M271.2,19.2h-1.5c-0.1,0-0.2,0.1-0.2,0.2l-0.6,3.9c0,0.1,0,0.1,0.1,0.1h0.7c0.1,0,0.2-0.1,0.2-0.2
							l0.2-1c0-0.1,0.1-0.2,0.2-0.2h0.5c1,0,1.6-0.5,1.7-1.4c0.1-0.4,0-0.7-0.2-1C272.1,19.3,271.7,19.2,271.2,19.2z M271.3,20.6
							c-0.1,0.5-0.5,0.5-0.9,0.5h-0.2l0.2-1c0-0.1,0.1-0.1,0.1-0.1h0.1c0.3,0,0.5,0,0.7,0.2C271.3,20.3,271.4,20.4,271.3,20.6z"/>
					</g>
					<g>
						<path fill="#002F87" d="M275.7,20.6h-0.7c-0.1,0-0.1,0-0.1,0.1l0,0.2l-0.1-0.1c-0.2-0.2-0.5-0.3-0.9-0.3
							c-0.8,0-1.5,0.6-1.6,1.4c-0.1,0.4,0,0.8,0.3,1.1c0.2,0.3,0.5,0.4,0.9,0.4c0.6,0,1-0.4,1-0.4l0,0.2c0,0.1,0,0.1,0.1,0.1h0.6
							c0.1,0,0.2-0.1,0.2-0.2l0.4-2.5C275.8,20.6,275.7,20.6,275.7,20.6z M274.7,22c-0.1,0.4-0.4,0.7-0.8,0.7
							c-0.2,0-0.4-0.1-0.5-0.2c-0.1-0.1-0.1-0.3-0.1-0.5c0.1-0.4,0.4-0.7,0.8-0.7c0.2,0,0.4,0.1,0.5,0.2
							C274.7,21.6,274.7,21.8,274.7,22z"/>
					</g>
					<g>
						<path fill="#009BDE" d="M286.4,20.6h-0.7c-0.1,0-0.1,0-0.1,0.1l0,0.2l-0.1-0.1c-0.2-0.2-0.5-0.3-0.9-0.3
							c-0.8,0-1.5,0.6-1.6,1.4c-0.1,0.4,0,0.8,0.3,1.1c0.2,0.3,0.5,0.4,0.9,0.4c0.6,0,1-0.4,1-0.4l0,0.2c0,0.1,0,0.1,0.1,0.1h0.6
							c0.1,0,0.2-0.1,0.2-0.2l0.4-2.5C286.5,20.6,286.5,20.6,286.4,20.6z M285.4,22c-0.1,0.4-0.4,0.7-0.8,0.7
							c-0.2,0-0.4-0.1-0.5-0.2c-0.1-0.1-0.1-0.3-0.1-0.5c0.1-0.4,0.4-0.7,0.8-0.7c0.2,0,0.4,0.1,0.5,0.2
							C285.4,21.6,285.4,21.8,285.4,22z"/>
					</g>
					<g>
						<path fill="#002F87" d="M279.5,20.6h-0.7c-0.1,0-0.1,0-0.2,0.1l-1,1.5l-0.4-1.4c0-0.1-0.1-0.1-0.2-0.1h-0.7
							c-0.1,0-0.1,0.1-0.1,0.2l0.8,2.3l-0.7,1.1c-0.1,0.1,0,0.2,0.1,0.2h0.7c0.1,0,0.1,0,0.2-0.1l2.4-3.5
							C279.7,20.7,279.6,20.6,279.5,20.6z"/>
					</g>
					<g>
						<path fill="#009BDE" d="M287.2,19.3l-0.6,3.9c0,0.1,0,0.1,0.1,0.1h0.6c0.1,0,0.2-0.1,0.2-0.2l0.6-3.9c0-0.1,0-0.1-0.1-0.1
							h-0.7C287.3,19.2,287.3,19.2,287.2,19.3z"/>
					</g>
				</g>
			</g>
		</g>
	</g>
	<g>
		<g>
			<path fill="#009BDE" d="M283.3,8.2c0.1-0.9,0-1.6-0.5-2.2c-0.6-0.6-1.6-0.9-2.9-0.9h-3.8c-0.3,0-0.5,0.2-0.5,0.5l-1.6,10
				c0,0.2,0.1,0.4,0.3,0.4h2.3l-0.2,1c0,0.2,0.1,0.3,0.3,0.3h2c0.2,0,0.4-0.2,0.5-0.4l0-0.1l0.4-2.4l0-0.1c0-0.2,0.2-0.4,0.5-0.4
				h0.3c1.9,0,3.4-0.8,3.8-3c0.2-0.9,0.1-1.7-0.4-2.3C283.7,8.4,283.5,8.3,283.3,8.2L283.3,8.2"/>
		</g>
		<g>
			<path fill="#022169" d="M283.3,8.2c0.1-0.9,0-1.6-0.5-2.2c-0.6-0.6-1.6-0.9-2.9-0.9h-3.8c-0.3,0-0.5,0.2-0.5,0.5l-1.6,10
				c0,0.2,0.1,0.4,0.3,0.4h2.3l0.6-3.7l0,0.1c0-0.3,0.3-0.5,0.5-0.5h1.1c2.2,0,3.9-0.9,4.4-3.5C283.3,8.3,283.3,8.2,283.3,8.2"/>
		</g>
		<g>
			<path fill="#002F87" d="M277.9,8.2c0-0.2,0.1-0.3,0.3-0.4c0.1,0,0.1,0,0.2,0h3c0.4,0,0.7,0,1,0.1c0.1,0,0.2,0,0.3,0
				c0.1,0,0.2,0,0.2,0.1c0,0,0.1,0,0.1,0c0.1,0,0.3,0.1,0.4,0.2c0.1-0.9,0-1.6-0.5-2.2c-0.6-0.6-1.6-0.9-2.9-0.9h-3.8
				c-0.3,0-0.5,0.2-0.5,0.5l-1.6,10c0,0.2,0.1,0.4,0.3,0.4h2.3l0.6-3.7L277.9,8.2z"/>
		</g>
	</g>
</g>
<!-- Switch -->
<g>
	<g>
		<polygon fill-rule="evenodd" clip-rule="evenodd" fill="#06326E" points="155.2,27.9 197.5,27.9 197.5,1.2 155.2,1.2 155.2,27.9
					"/>
	</g>
	<g>
		<path fill-rule="evenodd" clip-rule="evenodd" fill="#0097D9" d="M176.3,23c2.3-2.1,3.8-5.2,3.8-8.6s-1.5-6.5-3.8-8.6
			c-2-1.9-4.8-3-7.8-3c-6.4,0-11.6,5.2-11.6,11.6c0,6.4,5.2,11.6,11.6,11.6C171.6,26,174.3,24.9,176.3,23L176.3,23z"/>
	</g>
	<g>
		<path fill-rule="evenodd" clip-rule="evenodd" fill="#0097D9" d="M176.3,23c2.3-2.1,3.8-5.2,3.8-8.6s-1.5-6.5-3.8-8.6V23L176.3,23
			z"/>
	</g>
	<g>
		<path fill-rule="evenodd" clip-rule="evenodd" fill="#E40520" d="M184.1,2.8c-3,0-5.7,1.1-7.8,3c-0.4,0.4-0.8,0.8-1.2,1.2h2.3
			c0.3,0.4,0.6,0.8,0.9,1.2h-4.1c-0.3,0.4-0.5,0.8-0.7,1.2h5.5c0.2,0.4,0.4,0.8,0.5,1.2h-6.4c-0.1,0.4-0.3,0.8-0.3,1.3h7.1
			c0.2,0.8,0.3,1.6,0.3,2.5c0,1.3-0.2,2.5-0.6,3.7h-6.4c0.1,0.4,0.3,0.8,0.5,1.2h5.5c-0.2,0.4-0.4,0.8-0.7,1.2h-4.1
			c0.3,0.4,0.6,0.8,0.9,1.2h2.3c-0.4,0.4-0.8,0.8-1.2,1.2c2.1,1.9,4.8,3,7.8,3c6.4,0,11.6-5.2,11.6-11.6
			C195.7,8,190.5,2.8,184.1,2.8L184.1,2.8z"/>
	</g>
	<g>
		<path fill-rule="evenodd" clip-rule="evenodd" fill="#E40520" d="M194.2,20.9c0-0.2,0.2-0.4,0.4-0.4c0.2,0,0.4,0.2,0.4,0.4
			c0,0.2-0.2,0.4-0.4,0.4C194.4,21.3,194.2,21.1,194.2,20.9L194.2,20.9z M194.6,21.2c0.2,0,0.3-0.1,0.3-0.3c0-0.2-0.1-0.3-0.3-0.3
			c-0.2,0-0.3,0.1-0.3,0.3C194.3,21.1,194.4,21.2,194.6,21.2L194.6,21.2z M194.6,21.1L194.6,21.1l-0.1-0.3h0.1c0,0,0.1,0,0.1,0
			c0,0,0,0,0,0.1c0,0,0,0.1,0,0.1l0,0.1H194.6l0-0.1h0V21.1L194.6,21.1z M194.6,20.9L194.6,20.9C194.6,20.9,194.6,20.9,194.6,20.9
			c0.1,0,0.1,0,0.1,0L194.6,20.9C194.6,20.8,194.6,20.8,194.6,20.9L194.6,20.9L194.6,20.9L194.6,20.9z"/>
	</g>
	<g>
		<polygon fill-rule="evenodd" clip-rule="evenodd" fill="#06326E" points="166.7,17.7 165.3,17.7 166.1,13.2 164.2,17.7
			162.9,17.7 162.7,13.2 161.7,17.7 160.4,17.7 161.5,11.8 163.8,11.8 163.8,15.4 165.4,11.8 167.9,11.8 166.7,17.7 		"/>
	</g>
	<g>
		<path fill-rule="evenodd" clip-rule="evenodd" fill="#06326E" d="M182.9,17.6c-0.4,0.1-0.7,0.2-1,0.2c-0.7,0-1.1-0.4-1.1-1
			c0-0.1,0-0.3,0-0.4l0.1-0.5l0.1-0.4l0.7-3.7h1.4l-0.2,1.1h0.7l-0.2,1.2h-0.8l-0.4,2c0,0.1,0,0.2,0,0.2c0,0.3,0.2,0.3,0.5,0.3
			c0.2,0,0.3,0,0.4,0L182.9,17.6L182.9,17.6z"/>
	</g>
	<g>
		<path fill-rule="evenodd" clip-rule="evenodd" fill="#06326E" d="M177.1,14.4c0,0.6,0.3,1,1.1,1.3c0.6,0.3,0.7,0.3,0.7,0.5
			c0,0.3-0.3,0.4-0.8,0.4c-0.5,0-0.8-0.1-1.3-0.2l-0.2,1.1h0.1l0.3,0c0.1,0,0.2,0,0.4,0c0.3,0,0.6,0,0.8,0c1.5,0,2.3-0.5,2.3-1.6
			c0-0.7-0.3-1-1-1.3c-0.6-0.2-0.7-0.3-0.7-0.5c0-0.3,0.3-0.4,0.7-0.4c0.3,0,0.7,0,1.1,0.1l0.2-1.1c-0.4-0.1-1-0.1-1.3-0.1
			C177.7,12.8,177.1,13.5,177.1,14.4L177.1,14.4z"/>
	</g>
	<g>
		<path fill-rule="evenodd" clip-rule="evenodd" fill="#06326E" d="M171.4,17.7h-1.2l0-0.5c-0.4,0.4-0.9,0.6-1.5,0.6
			c-0.8,0-1.3-0.5-1.3-1.3c0-1.2,0.9-1.8,2.5-1.8c0.2,0,0.4,0,0.6,0c0-0.2,0-0.2,0-0.3c0-0.3-0.3-0.5-0.9-0.5
			c-0.4,0-0.9,0.1-1.2,0.1l-0.2,0.1l-0.1,0l0.2-1.1c0.7-0.2,1.2-0.3,1.7-0.3c1.3,0,1.9,0.5,1.9,1.4c0,0.3,0,0.4-0.1,1l-0.3,1.7
			l0,0.3l0,0.3l0,0.2V17.7L171.4,17.7z M170.4,15.5c-0.2,0-0.2,0-0.3,0c-0.8,0-1.2,0.3-1.2,0.7c0,0.3,0.2,0.5,0.5,0.5
			C170,16.7,170.4,16.2,170.4,15.5L170.4,15.5z"/>
	</g>
	<g>
		<path fill-rule="evenodd" clip-rule="evenodd" fill="#06326E" d="M176.1,17.6c-0.5,0.1-1,0.2-1.5,0.2c-1.6,0-2.5-0.8-2.5-2.2
			c0-1.6,1.1-2.8,2.5-2.8c1.2,0,2,0.7,2,1.7c0,0.4,0,0.7-0.2,1.2h-2.9c0,0.1,0,0.1,0,0.2c0,0.5,0.4,0.8,1.3,0.8c0.5,0,1-0.1,1.5-0.3
			L176.1,17.6L176.1,17.6z M175.5,14.7c0-0.1,0-0.2,0-0.3c0-0.4-0.3-0.6-0.7-0.6c-0.5,0-0.8,0.3-0.9,0.9H175.5L175.5,14.7z"/>
	</g>
	<g>
		<path fill-rule="evenodd" clip-rule="evenodd" fill="#06326E" d="M191.6,15.5c-0.2,1.6-1.3,2.3-2.8,2.3c-1.6,0-2.3-1-2.3-2.2
			c0-1.7,1.1-2.8,2.8-2.8c1.5,0,2.3,1,2.3,2.2C191.6,15.2,191.6,15.2,191.6,15.5L191.6,15.5z M190.1,14.9c0-0.5-0.2-1-0.8-1
			c-0.7,0-1.2,0.9-1.2,1.6c0,0.7,0.3,1.1,0.8,1.1c0.3,0,1-0.4,1.1-1.2C190.1,15.3,190.1,15.1,190.1,14.9L190.1,14.9z"/>
	</g>
	<g>
		<path fill-rule="evenodd" clip-rule="evenodd" fill="#FFFFFF" d="M191.7,17c0-0.2,0.2-0.4,0.4-0.4c0.2,0,0.4,0.2,0.4,0.4
			c0,0.2-0.2,0.4-0.4,0.4C191.9,17.3,191.7,17.2,191.7,17L191.7,17z M192.1,17.2c0.2,0,0.3-0.1,0.3-0.3c0-0.2-0.1-0.3-0.3-0.3
			s-0.3,0.1-0.3,0.3C191.8,17.1,191.9,17.2,192.1,17.2L192.1,17.2z M192.1,17.1L192.1,17.1l-0.1-0.3h0.1c0,0,0.1,0,0.1,0
			c0,0,0,0,0,0.1c0,0,0,0.1-0.1,0.1l0.1,0.1H192.1l0-0.1h0V17.1L192.1,17.1z M192.1,16.9L192.1,16.9
			C192.1,16.9,192.1,16.9,192.1,16.9C192.2,16.9,192.2,16.9,192.1,16.9L192.1,16.9C192.1,16.9,192.1,16.9,192.1,16.9L192.1,16.9
			L192.1,16.9L192.1,16.9z"/>
	</g>
	<g>
		<polygon fill-rule="evenodd" clip-rule="evenodd" fill="#FFFFFF" points="167.1,17.3 165.6,17.3 166.5,12.8 164.5,17.3
			163.2,17.3 163,12.8 162.1,17.3 160.8,17.3 161.9,11.4 164.2,11.4 164.3,15.1 165.9,11.4 168.2,11.4 167.1,17.3 		"/>
	</g>
	<g>
		<path fill-rule="evenodd" clip-rule="evenodd" fill="#FFFFFF" d="M183.2,17.3c-0.4,0.1-0.7,0.2-1,0.2c-0.7,0-1.1-0.4-1.1-1
			c0-0.1,0-0.3,0-0.4l0.1-0.5l0.1-0.4l0.7-3.7h1.4l-0.2,1.1h0.8l-0.2,1.2h-0.8l-0.4,2c0,0.1,0,0.2,0,0.2c0,0.3,0.2,0.4,0.5,0.4
			c0.2,0,0.3,0,0.4,0L183.2,17.3L183.2,17.3z"/>
	</g>
	<g>
		<path fill-rule="evenodd" clip-rule="evenodd" fill="#06326E" d="M186.9,13.9l0-0.2l0.3-0.8c-0.1,0-0.1,0-0.1,0
			c-0.1,0-0.1,0-0.1,0c0,0-0.1,0-0.1,0c-0.5,0-0.8,0.2-1.3,0.8l0.2-0.9h-1.5l-0.9,4.8h1.4c0.2-1.1,0.3-1.7,0.4-2.3
			c0.2-0.9,0.8-1.3,1.3-1.2c0,0,0.1,0,0.2,0l0.1,0L186.9,13.9L186.9,13.9z"/>
	</g>
	<g>
		<path fill-rule="evenodd" clip-rule="evenodd" fill="#FFFFFF" d="M187.4,12.6c-0.1,0-0.1,0-0.2,0c-0.1,0-0.1,0-0.1,0
			c0,0-0.1,0-0.2,0c-0.5,0-0.8,0.2-1.3,0.8l0.1-0.7h-1.3l-0.9,4.8h1.5c0.5-2.9,0.7-3.5,1.4-3.5c0,0,0.1,0,0.2,0l0.2,0L187.4,12.6
			L187.4,12.6z"/>
	</g>
	<g>
		<path fill-rule="evenodd" clip-rule="evenodd" fill="#FFFFFF" d="M177.5,14.1c0,0.6,0.3,1,1.1,1.3c0.6,0.3,0.7,0.3,0.7,0.5
			c0,0.3-0.3,0.4-0.8,0.4c-0.4,0-0.8-0.1-1.3-0.2l-0.2,1.1h0.1l0.3,0.1c0.1,0,0.2,0,0.4,0c0.3,0,0.6,0,0.8,0c1.5,0,2.3-0.5,2.3-1.6
			c0-0.7-0.3-1-1-1.3c-0.6-0.2-0.7-0.3-0.7-0.5c0-0.3,0.3-0.4,0.7-0.4c0.3,0,0.7,0,1,0.1l0.2-1.1c-0.4-0.1-1-0.1-1.3-0.1
			C178.1,12.4,177.5,13.2,177.5,14.1L177.5,14.1z"/>
	</g>
	<g>
		<path fill-rule="evenodd" clip-rule="evenodd" fill="#FFFFFF" d="M171.8,17.3h-1.2l0-0.5c-0.4,0.4-0.9,0.6-1.5,0.6
			c-0.8,0-1.3-0.5-1.3-1.3c0-1.2,0.9-1.8,2.5-1.8c0.2,0,0.4,0,0.6,0c0-0.2,0-0.2,0-0.3c0-0.3-0.3-0.4-0.9-0.4c-0.4,0-0.9,0-1.2,0.1
			l-0.2,0.1l-0.1,0l0.2-1.1c0.7-0.2,1.2-0.3,1.7-0.3c1.3,0,1.9,0.5,1.9,1.4c0,0.3,0,0.4-0.1,1l-0.3,1.7l0,0.3l0,0.3l0,0.2
			L171.8,17.3L171.8,17.3z M170.7,15.2c-0.2,0-0.2,0-0.3,0c-0.8,0-1.2,0.3-1.2,0.7c0,0.3,0.2,0.5,0.5,0.5
			C170.3,16.4,170.7,15.9,170.7,15.2L170.7,15.2z"/>
	</g>
	<g>
		<path fill-rule="evenodd" clip-rule="evenodd" fill="#FFFFFF" d="M176.5,17.2c-0.5,0.1-1,0.2-1.5,0.2c-1.6,0-2.5-0.8-2.5-2.2
			c0-1.6,1.1-2.8,2.5-2.8c1.2,0,1.9,0.7,1.9,1.7c0,0.4,0,0.7-0.2,1.2H174c0,0.1,0,0.1,0,0.2c0,0.5,0.4,0.8,1.3,0.8
			c0.5,0,1-0.1,1.5-0.3L176.5,17.2L176.5,17.2z M175.8,14.4c0-0.1,0-0.2,0-0.3c0-0.4-0.3-0.6-0.7-0.6c-0.5,0-0.8,0.3-0.9,0.9H175.8
			L175.8,14.4z"/>
	</g>
	<g>
		<path fill-rule="evenodd" clip-rule="evenodd" fill="#FFFFFF" d="M191.9,15.2c-0.2,1.6-1.3,2.3-2.8,2.3c-1.6,0-2.3-1-2.3-2.2
			c0-1.7,1.1-2.8,2.8-2.8c1.5,0,2.3,1,2.3,2.2C192,14.9,192,14.9,191.9,15.2L191.9,15.2z M190.4,14.5c0-0.5-0.2-1-0.8-1
			c-0.7,0-1.2,0.9-1.2,1.6c0,0.6,0.3,1.1,0.8,1.1c0.3,0,1-0.4,1.1-1.2C190.4,15,190.4,14.7,190.4,14.5L190.4,14.5z"/>
	</g>
</g>
<!-- Paypal -->
<g>
	<g>
		<rect x="2.1" y="1.2" fill="#FFFFFF" width="42.6" height="26.7"/>
		<path fill="#CCCCCC" d="M45.1,28.3H1.7V0.8h43.4V28.3z M2.5,27.5h41.7V1.6H2.5V27.5z"/>
	</g>
	<g>
		<g>
			<g>
				<polygon fill="#005CA8" points="21.2,19.7 18.5,19.7 20.2,9.3 22.9,9.3 				"/>
			</g>
			<g>
				<path fill="#005CA8" d="M16.2,9.3l-2.6,7.1l-0.3-1.5l0,0l-0.9-4.7c0,0-0.1-0.9-1.3-0.9H6.9l0,0.2c0,0,1.3,0.3,2.8,1.2l2.4,9h2.8
					l4.3-10.4H16.2z"/>
			</g>
			<g>
				<path fill="#005CA8" d="M37.5,19.7H40L37.8,9.3h-2.2c-1,0-1.2,0.8-1.2,0.8l-4,9.6h2.8l0.6-1.5h3.4L37.5,19.7z M34.5,16.1
					l1.4-3.9l0.8,3.9H34.5z"/>
			</g>
			<g>
				<path fill="#005CA8" d="M30.5,11.8l0.4-2.2c0,0-1.2-0.5-2.4-0.5c-1.3,0-4.5,0.6-4.5,3.4c0,2.7,3.7,2.7,3.7,4.1s-3.4,1.2-4.5,0.3
					l-0.4,2.3c0,0,1.2,0.6,3.1,0.6c1.8,0,4.6-1,4.6-3.6c0-2.7-3.8-3-3.8-4.1C26.8,11,29.4,11.2,30.5,11.8z"/>
			</g>
		</g>
		<g>
			<path fill="#F6A723" d="M13.3,14.9l-0.9-4.7c0,0-0.1-0.9-1.3-0.9H6.9l0,0.2c0,0,2,0.4,4,2C12.7,13.1,13.3,14.9,13.3,14.9z"/>
		</g>
	</g>
</g>
<!-- Delta -->
<g>
	<g>
		<rect x="308.7" y="1.2" fill="#FFFFFF" width="42.6" height="26.7"/>
		<path fill="#CCCCCC" d="M351.7,28.3h-43.4V0.8h43.4V28.3z M309.1,27.5h41.7V1.6h-41.7V27.5z"/>
	</g>
	<g>
		<polygon fill-rule="evenodd" clip-rule="evenodd" fill="#005CA8" points="308.3,0.8 351.6,28.3 351.6,0.7 		"/>
	</g>
	<g>
		<polygon fill-rule="evenodd" clip-rule="evenodd" fill="#F6A500" points="309.4,14.7 330.8,14.7 330.8,27.8 309.4,14.7 		"/>
	</g>
	<g>
		<polygon fill-rule="evenodd" clip-rule="evenodd" fill="#E20613" points="309.3,21.3 319.9,21.3 319.9,28 309.3,21.3 		"/>
	</g>
	<g>
		<path fill-rule="evenodd" clip-rule="evenodd" fill="#FFFFFF" d="M326.5,9h2.1c1.6,0,2.5-0.9,2.5-2.5S330.3,4,328.7,4h-2.1V9
			L326.5,9z M327.8,5h0.7c0.9,0,1.4,0.4,1.4,1.4c0,0.9-0.5,1.3-1.4,1.3h-0.7V5L327.8,5z"/>
	</g>
	<g>
		<polygon fill-rule="evenodd" clip-rule="evenodd" fill="#FFFFFF" points="332.2,9 336.3,9 336.3,7.7 333.5,7.7 333.5,6.8 336,6.8
			336,5.7 333.5,5.7 333.5,5 336.1,5 336.1,4 332.2,4 332.2,9 		"/>
	</g>
	<g>
		<polygon fill-rule="evenodd" clip-rule="evenodd" fill="#FFFFFF" points="337.4,9 340.9,9 340.9,7.7 338.6,7.7 338.6,4 337.4,4
			337.4,9 		"/>
	</g>
	<g>
		<polygon fill-rule="evenodd" clip-rule="evenodd" fill="#FFFFFF" points="345,4 340.8,4 340.8,5 342.2,5 342.2,9 343.6,9 343.6,5
			345,5 345,4 		"/>
	</g>
	<g>
		<path fill-rule="evenodd" clip-rule="evenodd" fill="#FFFFFF" d="M347.3,5.4L347.3,5.4l0.5,1.6h-1.1L347.3,5.4L347.3,5.4z
			 M344.9,9h1.2l0.4-0.9h1.8l0.4,0.9h1.2l-1.8-5h-1.4L344.9,9L344.9,9z"/>
	</g>
</g>
<g>
	<g>
		<path fill-rule="evenodd" clip-rule="evenodd" fill="#1D1D1B" d="M205.7,20.8l0,7l43.3,0v-7.1C249,20.8,205.5,20.6,205.7,20.8z"/>
	</g>
	<g>
		<polygon fill-rule="evenodd" clip-rule="evenodd" fill="#009644" points="248.7,1.2 248.7,2.5 248.7,2.5 248.7,20.9 248.7,20.9
			205.5,20.9 205.5,2.5 205.5,2.5 205.5,1.2 		"/>
	</g>
	<g>
		<path fill-rule="evenodd" clip-rule="evenodd" fill="#1D1D1B" d="M224.9,9.2c-0.1,0.6-0.2,1.3-0.1,2c0.1,0.7,0.3,1.3,0.6,1.9
			c0.3,0.6,0.7,1.1,1.1,1.6l0,0l1.5-1.5l0,0c-0.3-0.3-0.6-0.7-0.8-1.1c-0.2-0.4-0.3-0.8-0.4-1.3c-0.1-0.4,0-0.9,0.1-1.3
			c0.1-0.4,0.3-0.8,0.5-1.2c0.2-0.4,0.5-0.7,0.9-1c0.4-0.3,0.8-0.5,1.3-0.7c0.5-0.2,1-0.2,1.5-0.2c0.5,0,1,0.1,1.4,0.3
			c0.5,0.2,0.9,0.5,1.2,0.8l0,0l1.5-1.5l0,0c-0.5-0.5-1.2-1-1.9-1.3c-0.7-0.3-1.5-0.5-2.2-0.5c-0.8,0-1.5,0.1-2.2,0.4
			c-0.7,0.3-1.4,0.7-1.9,1.1c-0.5,0.5-1,1-1.3,1.6S225,8.6,224.9,9.2L224.9,9.2z"/>
	</g>
	<g>
		<path fill-rule="evenodd" clip-rule="evenodd" fill="#FFFFFF" d="M224,15.6c0.4,0.2,0.9,0.3,1.3,0.4c0.5,0,0.9,0,1.4-0.1
			c0.3-0.1,0.7-0.2,1-0.4c0.3-0.2,0.6-0.4,0.8-0.6c0.3-0.3,0.5-0.5,0.6-0.9c0.2-0.3,0.3-0.8,0.4-1.2c0.1-0.4,0.1-0.9,0-1.3
			c-0.1-0.4-0.2-0.8-0.4-1.2c-0.2-0.4-0.4-0.7-0.7-1.1l0,0l1.5-1.5l0,0c0.5,0.5,1,1.2,1.3,1.8c0.3,0.7,0.5,1.4,0.5,2.2
			c0,0.7-0.1,1.5-0.3,2.2c-0.2,0.6-0.5,1.1-0.8,1.6c-0.4,0.5-0.8,0.9-1.3,1.3c-0.5,0.4-1,0.7-1.6,0.9c-0.7,0.3-1.5,0.4-2.2,0.4
			c-0.8,0-1.5-0.2-2.2-0.5c-0.7-0.3-1.3-0.7-1.9-1.3l0,0l1.5-1.4l0,0C223.2,15.1,223.6,15.4,224,15.6L224,15.6z"/>
	</g>
	<g>
		<path fill-rule="evenodd" clip-rule="evenodd" fill="#FFFFFF" d="M218.2,23.9l-0.7,0l0,0c0-0.2,0.1-0.5-0.2-0.6
			c-0.3-0.2-0.5-0.2-0.8-0.2c-0.2,0-0.3,0.1-0.5,0.1c-0.1,0-0.1,0-0.1,0.1c0,0-0.1,0.1-0.1,0.1c-0.2,0.2-0.2,0.4-0.1,0.6
			c0.1,0.1,0.1,0.1,0.2,0.1l0,0l1.2,0.3l0,0c0.2,0.1,0.4,0.1,0.5,0.3c0.1,0.1,0.1,0.1,0.1,0.2c0.1,0.2,0,0.5,0,0.7
			c-0.1,0.2-0.2,0.4-0.4,0.6c-0.1,0.1-0.1,0.1-0.2,0.2c-0.1,0.1-0.2,0.1-0.3,0.2c-0.4,0.2-0.7,0.2-1.1,0.2c-0.2,0-0.5,0-0.7-0.1
			c-0.1,0-0.2,0-0.2-0.1c-0.1,0-0.1-0.1-0.2-0.1c-0.1,0-0.1-0.1-0.2-0.2c-0.3-0.3-0.3-0.7-0.2-1.1l0,0l0.8-0.1l0,0
			c0,0.1,0,0.1,0,0.2c0,0.2,0,0.4,0.1,0.6c0.1,0.1,0.2,0.1,0.3,0.2c0,0,0.1,0,0.2,0c0.2,0,0.4,0,0.6,0c0.2-0.1,0.5-0.1,0.7-0.4
			c0.2-0.2,0.2-0.4,0.1-0.6c-0.1-0.1-0.1-0.1-0.2-0.1l0,0l-1-0.2l0,0c-0.2-0.1-0.4-0.1-0.6-0.3c0,0-0.1-0.1-0.1-0.2
			c-0.1-0.1-0.1-0.2-0.1-0.3c0-0.2,0-0.4,0.1-0.6c0.1-0.1,0.2-0.2,0.2-0.3c0.1-0.1,0.2-0.2,0.3-0.2c0.1-0.1,0.2-0.1,0.4-0.2
			c0.1,0,0.3-0.1,0.5-0.1c0.3,0,0.7,0,1,0.1c0.1,0,0.2,0.1,0.3,0.2c0.1,0.1,0.2,0.2,0.2,0.2c0.1,0.1,0.1,0.2,0.1,0.3
			C218.2,23.6,218.2,23.7,218.2,23.9L218.2,23.9L218.2,23.9L218.2,23.9z M222.3,26.6l-0.3-2.9l-1.8,2.9h-0.7l-0.2-4h0.7l0.1,2.8
			l1.8-2.8h0.7l0.2,2.9l1.7-2.9h0.8l-2.4,4H222.3L222.3,26.6L222.3,26.6z M226,26.6h-0.8l1.1-4h0.7L226,26.6L226,26.6L226,26.6z
			 M231.4,23.3h-1.3l-0.9,3.3h-0.7l0.9-3.3H228l0.2-0.6l3.3,0L231.4,23.3L231.4,23.3L231.4,23.3z M236,23.9l-0.7,0.1l0,0
			c0-0.2-0.1-0.5-0.3-0.7c0,0-0.1-0.1-0.1-0.1c-0.1,0-0.1,0-0.2-0.1c-0.1,0-0.1,0-0.2,0c-0.4-0.1-0.8,0-1.2,0.3
			c-0.1,0.1-0.2,0.1-0.3,0.2c-0.1,0.1-0.2,0.2-0.2,0.3c-0.1,0.2-0.3,0.4-0.3,0.7c-0.1,0.2-0.1,0.4-0.1,0.6c0,0.2,0,0.3,0.1,0.5
			c0.1,0.1,0.1,0.2,0.3,0.3c0.1,0,0.1,0.1,0.2,0.1c0.1,0,0.1,0.1,0.2,0.1c0.3,0.1,0.7,0,1-0.1c0.2-0.1,0.4-0.2,0.5-0.4
			c0.1-0.1,0.2-0.2,0.3-0.3c0.1-0.1,0.2-0.2,0.2-0.3l0,0l0.7,0.1l0,0c-0.1,0.2-0.2,0.3-0.3,0.5c-0.1,0.2-0.3,0.3-0.4,0.4
			c-0.2,0.1-0.3,0.2-0.5,0.3c-0.2,0.1-0.4,0.2-0.7,0.2c-0.2,0.1-0.5,0.1-0.7,0.1c-0.2,0-0.5-0.1-0.6-0.1c-0.2,0-0.2-0.1-0.3-0.1
			s-0.2-0.1-0.2-0.2c-0.1-0.1-0.1-0.1-0.2-0.2c-0.1-0.1-0.1-0.2-0.1-0.3c-0.1-0.2-0.1-0.5-0.1-0.7c0.1-0.5,0.3-1.1,0.7-1.6
			c0.1-0.1,0.2-0.2,0.3-0.3c0.1-0.1,0.2-0.2,0.3-0.2c0.4-0.2,0.8-0.3,1.1-0.4c0.3,0,0.5,0,0.8,0c0.1,0,0.2,0,0.3,0.1
			c0.1,0,0.2,0.1,0.3,0.1c0.2,0.1,0.3,0.2,0.5,0.4c0.1,0.1,0.1,0.2,0.1,0.3C236,23.7,236,23.8,236,23.9L236,23.9L236,23.9L236,23.9z
			 M240.1,26.6h-0.7l0.5-1.8l-2.2,0l-0.5,1.8h-0.7l1.1-4h0.7l-0.4,1.6h2.2l0.4-1.6h0.7L240.1,26.6L240.1,26.6L240.1,26.6z"/>
	</g>
</g>
</svg>
