<?xml version="1.0" encoding="utf-8"?>
<!-- Generator: Adobe Illustrator 18.1.1, SVG Export Plug-In . SVG Version: 6.00 Build 0)  -->
<svg version="1.1" xmlns="http://www.w3.org/2000/svg" style="display:none;">

<symbol id="Facebook" viewBox="0 0 1012.5 135">
<g>
	<g>
		<g>
			<g>
				<g>
					<path d="M85.1,69.8H71.9v21.7v13.8H58.4V91.5V69.8H49V57.1h9.4V46.2c0-8.6,5.5-16.4,18.3-16.4c5.2,0,9,0.5,9,0.5l-0.3,11.9
						c0,0-3.9,0-8.1,0c-4.6,0-5.3,2.1-5.3,5.6v9.3h13.8L85.1,69.8z"/>
				</g>
			</g>
			<g>
				<path d="M67.4,135c-37.2,0-67.5-30.3-67.5-67.5S30.2,0,67.4,0s67.5,30.3,67.5,67.5S104.6,135,67.4,135z M67.4,3
					C31.8,3,2.9,31.9,2.9,67.5S31.8,132,67.4,132s64.5-28.9,64.5-64.5S103,3,67.4,3z"/>
			</g>
		</g>
	</g>
</g>
</symbol>
<symbol id="Twitter" viewBox="0 0 1012.5 135">
<g>
	<g>
		<g>
			<g>
				<g>
					<path d="M267.7,54.4c0,0.6,0,1.1,0,1.7c0,17.5-13.3,37.6-37.6,37.6c-7.5,0-14.4-2.2-20.3-5.9c1,0.1,2.1,0.2,3.2,0.2
						c6.2,0,11.9-2.1,16.4-5.7c-5.8-0.1-10.7-3.9-12.3-9.2c0.8,0.2,1.6,0.2,2.5,0.2c1.2,0,2.4-0.2,3.5-0.5c-6-1.2-10.6-6.6-10.6-13
						c0-0.1,0-0.1,0-0.2c1.8,1,3.8,1.6,6,1.7c-3.5-2.4-5.9-6.4-5.9-11c0-2.4,0.7-4.7,1.8-6.6c6.5,8,16.2,13.3,27.2,13.8
						c-0.2-1-0.3-2-0.3-3c0-7.3,5.9-13.2,13.2-13.2c3.8,0,7.2,1.6,9.6,4.2c3-0.6,5.8-1.7,8.4-3.2c-1,3.1-3.1,5.7-5.8,7.3
						c2.7-0.3,5.2-1,7.6-2.1C272.5,50.2,270.2,52.5,267.7,54.4"/>
				</g>
			</g>
			<g>
				<path d="M242,135c-37.2,0-67.5-30.3-67.5-67.5S204.8,0,242,0s67.5,30.3,67.5,67.5S279.3,135,242,135z M242,3
					c-35.6,0-64.5,28.9-64.5,64.5S206.5,132,242,132s64.5-28.9,64.5-64.5S277.6,3,242,3z"/>
			</g>
		</g>
	</g>
</g>
</symbol>
<symbol id="Instagram" >
<g>
	<g>
		<g>
			<g>
				<path d="M443.2,102h-53c-4.4,0-8-3.6-8-8V41c0-4.4,3.6-8,8-8h53c4.4,0,7.9,3.6,7.9,8v53C451.1,98.4,447.6,102,443.2,102
					 M416.7,54.3c-7.3,0-13.3,5.9-13.3,13.3c0,7.3,5.9,13.3,13.3,13.3c7.3,0,13.3-5.9,13.3-13.3C429.9,60.2,424,54.3,416.7,54.3
					 M443.2,43.7c0-1.5-1.2-2.6-2.6-2.6h-8c-1.5,0-2.6,1.2-2.6,2.6v7.9c0,1.5,1.2,2.7,2.6,2.7h8c1.5,0,2.6-1.2,2.6-2.7V43.7z
					 M443.2,62.2h-6c0.4,1.7,0.7,3.5,0.7,5.3c0,11.7-9.5,21.2-21.2,21.2c-11.7,0-21.2-9.5-21.2-21.2c0-1.8,0.3-3.6,0.7-5.3h-6v29.1
					c0,1.5,1.2,2.6,2.6,2.6h47.7c1.5,0,2.6-1.2,2.6-2.6V62.2z"/>
			</g>
			<g>
				<path d="M416.7,135c-37.2,0-67.5-30.3-67.5-67.5S379.5,0,416.7,0s67.5,30.3,67.5,67.5S453.9,135,416.7,135z M416.7,3
					c-35.6,0-64.5,28.9-64.5,64.5s28.9,64.5,64.5,64.5s64.5-28.9,64.5-64.5S452.3,3,416.7,3z"/>
			</g>
		</g>
	</g>
</g>
</symbol>

<symbol id="Pinterest" viewBox="0 0 1012.5 135">
<g>
	<g>
		<g>
			<g>
				<g>
					<path d="M597.3,86.3c-5.1,0-9.8-2.6-11.5-5.7c0,0-2.5,9.6-3.1,11.9c-1.7,6.5-7.7,15.4-8.2,16.1c-0.3,0.4-0.9,0.3-1-0.2
						c-0.2-0.9-1.9-11.7-0.4-18.3c0.9-3.9,5.9-24.9,5.9-24.9s-1.5-3-1.5-7.4c0-7,4-12.2,9.1-12.2c4.3,0,6.3,3.2,6.3,7.1
						c0,4.3-2.7,10.7-4.1,16.7c-1.2,5,2.5,9,7.4,9c8.9,0,15.7-9.4,15.7-22.9c0-12-8.6-20.4-20.9-20.4c-14.2,0-22.6,10.7-22.6,21.7
						c0,4.3,1.7,8.9,3.7,11.4c0.4,0.5,0.5,0.9,0.3,1.4c-0.4,1.6-1.2,5-1.4,5.7c-0.2,0.9-0.7,1.1-1.7,0.7c-6.3-2.9-10.2-12-10.2-19.4
						c0-15.8,11.5-30.3,33.1-30.3c17.4,0,30.9,12.4,30.9,28.9C623.3,72.4,612.4,86.3,597.3,86.3z"/>
				</g>
			</g>
			<g>
				<path d="M591.3,135c-37.2,0-67.5-30.3-67.5-67.5S554.1,0,591.3,0s67.5,30.3,67.5,67.5S628.6,135,591.3,135z M591.3,3
					c-35.6,0-64.5,28.9-64.5,64.5s28.9,64.5,64.5,64.5s64.5-28.9,64.5-64.5S626.9,3,591.3,3z"/>
			</g>
		</g>
	</g>
</g>
</symbol>
<symbol id="YouTube" viewBox="0 0 1012.5 135">
<g>
	<g>
		<g>
			<g>
				<g>
					<path d="M791.3,83.9c0-2.1-0.7-3.2-2.1-3.2c-1.4,0-2.1,1.1-2.1,3.2V86h4.2V83.9z"/>
				</g>
				<g>
					<path d="M753.9,25.5l-3.2,12.3l-3.3-12.3l-4.9,0c1,2.9,2,5.8,3,8.7c1.5,4.4,2.5,7.7,2.9,9.9l0,12.7l4.7,0l0-12.7l5.6-18.7
						L753.9,25.5z"/>
				</g>
				<g>
					<path d="M732.5,68.9c-1.2,5.3-1.2,11-1.2,16.4c0,5.4,0,11.1,1.2,16.4c0.9,3.7,3.9,6.4,7.5,6.8c8.6,1,17.3,0.9,26,0.9
						c8.7,0,17.4,0,26-1c3.6-0.4,6.6-3.1,7.5-6.8c1.2-5.3,1.2-11,1.2-16.4c0-5.4,0-11.1-1.2-16.4c-0.9-3.7-3.9-6.4-7.5-6.8
						c-8.1-0.9-16.3-0.9-24.5-0.9c-0.5,0-1,0-1.5,0c-8.7,0-17.4,0-26,1C736.4,62.5,733.4,65.2,732.5,68.9z M782.9,84.7
						c0-2.5,0.4-4.3,1.3-5.4c1.2-1.6,2.9-2.4,5-2.4c2.1,0,3.8,0.8,4.9,2.4c0.9,1.2,1.3,3,1.3,5.4v4.8h-8.4v4.1
						c0,2.1,0.7,3.2,2.1,3.2c1,0,1.6-0.6,1.9-1.7c0-0.2,0.1-1.2,0.1-2.8h4.3v0.6c0,1.4-0.1,2.3-0.1,2.7c-0.1,0.9-0.5,1.8-1,2.5
						c-1.2,1.7-2.9,2.5-5.1,2.5c-2.2,0-3.9-0.8-5.1-2.4c-0.9-1.2-1.3-3-1.3-5.4V84.7z M767.4,69.2h4.2v10.1c1.4-1.7,2.8-2.5,4.3-2.5
						c1.7,0,2.8,0.9,3.4,2.6c0.3,0.9,0.4,2.5,0.4,4.6v9.2c0,2.1-0.1,3.7-0.4,4.7c-0.6,1.7-1.7,2.6-3.4,2.6c-1.5,0-2.9-0.8-4.3-2.6
						v2.2h-4.2V69.2z M751.7,77.2h4.2v17c0,1,0,1.5,0,1.6c0.1,0.7,0.4,1,1,1c0.8,0,1.7-0.7,2.7-2V77.2h4.2v23.1h-4.2v-2.5
						c-1.7,1.9-3.2,2.8-4.8,2.8c-1.4,0-2.3-0.5-2.7-1.7c-0.2-0.7-0.4-1.8-0.4-3.4V77.2z M751.1,73.6h-5v26.7h-4.7V73.6h-4.9v-4.4
						h14.6V73.6z"/>
				</g>
				<g>
					<path d="M780,53.4c-0.6,0-0.9-0.3-1-1c0-0.1,0-0.7-0.1-1.7l0-17.2l-4.2,0l0,18.5c0,1.6,0.1,2.8,0.4,3.5
						c0.4,1.2,1.4,1.7,2.7,1.7c1.5,0,3.2-0.9,4.8-2.9l0,2.6l4.2,0l0-23.4l-4.2,0l0,17.9C781.7,52.7,780.9,53.4,780,53.4z"/>
				</g>
				<g>
					<path d="M775.5,93.7v-9.9c0-2.1-0.6-3.2-1.8-3.2c-0.7,0-1.4,0.3-2.1,1v14.1c0.7,0.7,1.4,1,2.1,1
						C774.9,96.8,775.5,95.8,775.5,93.7z"/>
				</g>
				<g>
					<path d="M765,57.2c2.1,0,3.8-0.8,4.9-2.4c0.9-1.2,1.3-3,1.3-5.5l0-8.2c0-2.5-0.4-4.3-1.3-5.5c-1.2-1.6-2.8-2.4-4.9-2.4
						c-2.1,0-3.8,0.8-4.9,2.4c-0.9,1.2-1.3,3-1.3,5.5l0,8.2c0,2.5,0.4,4.3,1.3,5.5C761.2,56.4,762.9,57.2,765,57.2z M763,40.3
						c0-2.2,0.7-3.2,2-3.2c1.4,0,2,1.1,2,3.2v9.8c0,2.2-0.7,3.2-2,3.2c-1.4,0-2-1.1-2-3.2V40.3z"/>
				</g>
			</g>
			<g>
				<path d="M766,135c-37.2,0-67.5-30.3-67.5-67.5S728.8,0,766,0s67.5,30.3,67.5,67.5S803.2,135,766,135z M766,3
					c-35.6,0-64.5,28.9-64.5,64.5S730.4,132,766,132s64.5-28.9,64.5-64.5S801.6,3,766,3z"/>
			</g>
		</g>
	</g>
</g>
</symbol>
<symbol id="Blog" viewBox="0 0 1012.5 135">
	<g>
	<g>
		<g>
			<g>
				<g>
					<path d="M910.4,56.4c-0.4,2.6-2.2,4.6-3.4,6.3c-1,1.2-3.7,4.1-5.6,6.3c0,0-3.1,2.1-2.9,3.2c0,0.3,3.9,2.9,5.7,4.6
						c1.3,1.2,1.6,2.1,2.1,3.3c0.3,0.7,0.5,2.1,0.5,2.4c0,0.3,0.2,1.4,0,2.1c-0.1,0.9-0.2,2.2-0.5,3.2c-0.3,0.9-0.7,1.7-1.2,2.7
						c-0.1,0.4-0.7,1.1-1.1,1.7c-0.6,0.7-2.8,2.2-3,2.2c-0.3,0-0.7,0.4-0.9,0.4c-0.4,0.1-1.3-0.3-1.6-0.3c-0.4,0.1-0.1,0.2-0.5,0.2
						c-0.4,0.1-0.1-0.3-0.3-0.3c-1.8-0.2-3.5-2.6-4.2-4.2c-0.3-0.2-0.9-0.5-1.5-0.9c-0.4-0.8-0.8-2.3-0.9-2.7c0-0.2,0-3.4,0.2-5
						l1-14c0.1-1.6,0.4-5.4,0.7-8c-0.1-0.2-0.2-0.4-0.1-0.6c0-1,0.7-3.1,0.6-3.3c0-0.3-1-1.1-1.1-1.5c0-0.3,0.5-0.9,0.9-1.4
						c0.3-0.2,0.6-0.1,0.8-0.3c1.7-1.6,3.9-2.1,5.7-2.3c0.2,0,1.9-0.1,2.6-0.1l0.2,0l0.3-0.2c0,0.1,0.1,0.2,0.3,0.3
						c0.8,0.2,2,0.4,2.3,0.4c0.3,0,0.1-0.1,0.1-0.3c0.5,0.6,1.4,0.5,2.1,0.8c0.6,0.2,1.2,0.5,1.9,1c0.1,0.2,0.4,0.6,0.6,0.9
						c0.3,0.4,0.8,1.5,0.9,1.9C910.8,55,910.3,56.2,910.4,56.4z M900.4,77.1c-0.9-0.9-2.2-2-4.2-3.2c-0.2,2.1-0.4,3.8-0.7,5.7
						c0,1.1-0.3,3.1-0.6,4.6c0,0.2-0.2,0.1-0.3,0.3l0.2,1.4l0.7-0.8c0,0.3-0.1,0.4,0,0.6c0.4-0.3,0.6-0.2,0.7-0.4
						c0.1,1.1,0.5,2.2,0.6,3.3c0.2-0.3,0.4-0.3,0.4-0.3c-0.2,0.8-0.2,1.5-0.1,2c0.7-0.4,1.5-0.7,1.9-1.2c0.5-0.5,0.9-1.3,1.5-1.8
						c0-0.1,0-0.2,0.1-0.4c0.4-0.9,0.9-1.5,1.1-2.4c0.1-0.7,0.2-1.4,0.2-2.3c-0.1-0.9-0.1-1.5-0.1-1.7
						C901.8,79.1,901.3,78,900.4,77.1z M904,53.3c-0.4,0.1-0.1,0.3-0.4,0.3c-0.3,0-0.6,0-0.9,0c-1.6,0.2-2.7,0.9-4.5,1.6
						c-0.6,0.3-1,0.9-1.3,0.9c0.1,2.4,0.2,4.9,0.3,7.2c-0.1,0.5-0.1,1.5,0.2,1.8c0.1-0.7,1-1.1,1.1-1.2c1.4-1.6,2.6-3.2,3.7-5
						c0.2-0.2,0.1-0.7,0.1-0.7c0.4-0.5,0.8-0.9,1-1.2c0.8-1.1,1.6-2.5,1.9-3.6C904.9,53.4,904.2,53.3,904,53.3z"/>
				</g>
				<g>
					<path d="M934.4,84.4c0,0.2,0.2,0.3,0.3,0.3c-0.8,0.4-2,1.5-2.3,1.5c-0.4,0.1-0.1-0.2-0.5-0.1c-0.2,0-2.3,1-3.2,1.3
						c-3.9,0.9-7.8,2.8-11.3,3.3c-0.3,0-2.6,0-3.9-0.3c-0.7-0.3-2.2-1.5-2.9-2.4c-0.6-0.7-0.8-1.7-1.1-2.5c-0.2-0.2-0.3-0.4-0.3-0.8
						c-0.4-2.8,1.5-8.5,2.1-11.2c0.3-1.7,0.6-3.9,1.1-5.9c0-0.2,0.2-0.6,0.2-0.8c0.4-2.8,1.4-6.7,1.2-10c0.3-0.7,0.3-1.5,0.3-2.2
						c0-1,0.2-2.2,0.3-3.4c0-0.3-0.1-1-0.1-1.4l0.9-0.1c0.3,0,0.5-0.1,0.7,0c2.6,0.8,3,2.5,3.2,3.9c0,0.3,0,1,0,1.4
						c0,1.9,0.1,2.8-0.2,4.1c-0.8,5.5-0.9,9.2-2.1,14.4c-0.8,3.4-1.7,7.7-2.4,11.7l0,0.3l11.7-2.6l5.1-0.6c0.2,0,2-0.6,2.8-0.8
						l0,0.1c0.3,0.3,0.6,0.8,1.1,1c0.1,0.3,0.1,0.7,0.3,1C935.2,83.7,934.8,83.9,934.4,84.4z"/>
				</g>
				<g>
					<path d="M961.1,62.2c0.3,0.2,0.3,0.4,0.3,0.5c-1.7,7.5-5.5,15.7-9.3,20.6c-0.3,0.5-0.9,0.9-1.4,1.2c-0.1,0.2-0.3,0.7-0.6,0.9
						c-2.1,1.9-2.3,2-4.4,2.3l-2.2,0.3c-0.3,0-0.7-0.2-1.2-0.5c-0.3-0.1-0.9-0.1-1.4-0.4c-1-0.6-2.1-1.4-3.2-2.5
						c-0.6-0.7-1.3-1.6-1.8-2.3c-0.6-1.2-1.3-2.5-1.7-3.8c-0.4-1.1-0.7-3.1-0.7-3.5c0-0.2-0.2-2.2-0.3-4.3c0.1-0.9,0.2-2.5,0.5-3.7
						c0.1-0.3-0.1-0.9,0.1-1.4c0.2-1.4,0.7-2.9,0.9-4.3c0.3-0.2,0.4-0.7,0.6-1.4c0.3-2.7,5.5-14.8,9.1-15.2c0.4-0.1,1.5,0.4,1.9,0.3
						c0.2,0,0.8-0.5,1.3-0.6c0.2,0,0.9,0,1.6,0.1c0.5,0.2,1.2,0,1.7,0c1,0.1,2,0.6,2.9,1c1.2,0.6,2.1,1.4,3,2.1c0,0.2,0,0.5,0.1,0.7
						c0.6,0.7,1.3,1.8,2.1,2.4c0.4,0.9,0.8,2,1.2,3.1c0.5,1.1,0.7,2.7,0.6,3.9c0.2,0.2,0.3,0.4,0.3,0.7c0,0.7-0.7,1.5,0.2,2.3
						c0.2-0.2,0.3-0.3,0.3-0.3C961.7,60.8,961.7,61.9,961.1,62.2z M956.7,55.5c-0.2-1.2-0.6-3-1-4.2c0-0.2-1.8-3.9-3.4-3.7
						c-1.4,0.2-1.9,0.9-3.6,2.6c-0.4,0.3-0.8,0.5-0.9,0.6c-0.8,0.8-1.2,2.1-2.1,2.8c-0.2,0.2-0.1,0.5-0.3,0.7
						c-0.3-0.1-0.3-0.4-0.5-0.2c-0.2,0.4-0.3,0.9-0.8,1c-0.3,0,0-0.2-0.3-0.1c-0.4,0.1-0.1,0.4-0.5,0.5c-0.3,0-0.1-0.2-0.4-0.2
						c-0.4,0.1-0.8,1.1-1,1.6l0.1,0.5c-0.3,1.2-0.6,2.2-0.9,3.2c-0.3,0.9-0.4,2.2-0.6,2.9c-0.2,0.8-0.7,1.5-0.8,2.3
						c-0.3,1.6-0.3,3.2-0.5,4.8c-0.3,1.5-0.2,3.7-0.2,4.9c0,0.5,0,1.5,0,1.7c0.2,1.5,1.7,6.6,3,7.1c3.2-0.2,7.1-6.4,9.2-9.6
						c0.3-0.5,0.1-1.1,0.4-1.3c0.3-0.5,0.7-0.8,0.9-1.3c0.1-0.3,0-0.9,0.2-1.1c0-0.4,0.6-0.6,1-0.8c0-0.2-0.2-0.3-0.1-0.5
						c1.2-3.1,2.5-6.5,3.2-9.9c0.1-0.9,0.1-3.1,0.5-4C957.1,55.8,956.9,55.7,956.7,55.5z"/>
				</g>
				<g>
					<path d="M988.5,70.4c-0.7,1.1-1.4,2.3-2.2,3.4c-1.8,2.2-3.9,4.5-6.1,6.7c-0.8,0.7-4.3,3.6-5.9,3.8l-1.3,0.2
						c-1.8,0.2-3.7-0.1-5.2-1.3c-0.2,0-0.7,0.1-0.2,0.4c-3-1.8-3.7-4.1-4.6-6.1c-0.3-0.6-0.2-1.8-0.4-2.8c-0.1-0.4-0.3-0.8-0.3-1.1
						c-0.1-0.4,0-0.9,0-1.4c0.1-0.5-0.2-0.9-0.2-1.4c0.6-4.7,2-10.2,4.1-15.1l-0.1-0.5c0.9-1.7,1.7-3.8,2.8-5.8
						c-0.3-0.1-0.4-0.1-0.6,0c0.8-1.3,2.1-3.3,2.7-4c0.5-1.4,2.1-2.2,2.3-3.3c0.7-0.8,1.6-0.8,2.3-1.1c0.2-0.1-0.1-0.3,0.3-0.4
						s0,0.2,0.4,0.1c0.4-0.1,0-0.3,0.4-0.3s1.3,0.2,1.8,0.5c0.2-0.2,0.1-0.2,0.2-0.4c2.5,0.6,6,2.4,6.3,4.8c0.1,1.1-0.2,2.7-0.8,3.4
						c-0.2,0.3-0.3,1.2-0.8,1.3c-0.4,0.1-0.1-0.1-0.3-0.3c-0.4,0.7-0.7,1.4-1.1,2.2c-0.2,0-0.3-0.2-0.6-0.2
						c-0.4,0.1-0.2,0.3-0.2,0.4c-0.2,0-0.3-0.1-0.5-0.2c-0.5,0.1-0.5,0.3-0.4,0.8c-0.2-0.2-0.4-0.4-0.5-0.8
						c-0.1-1.1,0.4-1.7,0.9-3.3c0.3-1.4,0.7-3.3,0.6-3.7c-0.1-0.6-0.5-1.1-1-1c-0.3,0-1.1,0.5-1.5,0.8c-2,1-2.8,2.8-4.4,5.1
						c-0.4,0.6-0.6,1.5-0.9,2.3c-0.2,0.5-0.8,1.3-1.1,2.2c0,0.2,0,0.5-0.2,0.7c-0.1,0.3-0.5,0.8-0.7,1.1c-0.8,2.1-2.6,6.9-3.3,9.4
						c-0.3,1-0.7,2.7-1,4.3c-0.1,0.4,0.1,1.2,0,1.6c-0.1,0.5-0.2,1.1-0.2,1.7c0,1.3,0,4.4,0.1,4.7c0.3,2.1,0.7,3.4,3.1,3.1l1.1-0.1
						c0.4-0.1,0.3-0.3,0.5-0.4c1.7-1.1,3.5-1.7,4.9-3.4c0-0.1,0-0.1-0.1-0.1l0.3,0c0.3,0,0.7-0.9,1.1-1.2l0-0.1c0-0.1,0-0.1-0.1-0.1
						c-0.2,0.3-0.6,0.4-0.8,0.6c0.9-0.8,1.7-1.9,2.6-2.8c1-0.2,1.8-1.9,2.4-2.9c-0.1,0-0.2,0-0.4,0c-0.4,0.1-0.8,0.4-1.3,0.6
						c-0.4,0.2-1.2,0.3-1.7,0.6c-1.1,0.7-3.5,2.1-3.8,2.1c-0.2,0-1.7-0.7-2.4-1c-0.2-0.2-0.3-0.3-0.4-0.5c0.3-0.5-0.4-1.5-0.9-1.6
						c0-0.3,0.2-0.6,0.6-0.9c0.9-0.6,2.4-1.6,2.8-1.6c0.3,0,0.1,0.3,0.5,0.2c0.4-0.1,2.4-2,2.8-2c0.3,0,0,0.2,0.4,0.1
						c0.6-0.1,1.6-0.9,1.8-1c0.7-0.3,2.2-0.9,2.6-0.9c0.4-0.1,0.4,0.1,0.8,0c0.4-0.1,2.4-0.3,3.7,0c0.3,0.2,1.1,0.5,1.4,0.7
						c0.7,0.4,1.7,1.5,1.8,1.9C990.5,66.9,988.8,70.1,988.5,70.4z M970.3,47.4l-0.1-0.2l-0.3,0.4l0.1,0.2L970.3,47.4z M970.6,46.9
						l-0.2,0l-0.1,0.4l0.2,0.1L970.6,46.9z M979.1,74.4l-0.1-0.1l-0.5,0.5l0.2,0.2L979.1,74.4z M979.9,73.5l-0.1-0.2l-0.7,0.7
						l0.2,0.2L979.9,73.5z"/>
				</g>
			</g>
			<g>
				<path d="M940.6,135c-37.2,0-67.5-30.3-67.5-67.5S903.4,0,940.6,0s67.5,30.3,67.5,67.5S977.9,135,940.6,135z M940.6,3
					c-35.6,0-64.5,28.9-64.5,64.5s28.9,64.5,64.5,64.5s64.5-28.9,64.5-64.5S976.2,3,940.6,3z"/>
			</g>
		</g>
	</g>
</g>
</symbol>
</svg>
