<svg id="Layer_1" data-name="Layer 1" xmlns="http://www.w3.org/2000/svg" viewBox="0 0 17.91 18"><title>linkedin</title><path id="shape" d="M16.7,0H1.3A1.32,1.32,0,0,0,0,1.3V16.7A1.32,1.32,0,0,0,1.3,18H16.6a1.32,1.32,0,0,0,1.3-1.3V1.3A1.18,1.18,0,0,0,16.7,0Z" transform="translate(0 0)" style="fill:#0076b3"/><path id="i" d="M2.7,6.7H5.4v8.6H2.7V6.7ZM4,2.5A1.47,1.47,0,0,1,5.5,4,1.56,1.56,0,0,1,4,5.6,1.5,1.5,0,0,1,2.5,4,1.42,1.42,0,0,1,4,2.5" transform="translate(0 0)" style="fill:#fff"/><path id="n" d="M7,6.7H9.6V7.9h0a2.77,2.77,0,0,1,2.5-1.4c2.7,0,3.2,1.8,3.2,4.1v4.7H12.6V11.1c0-1,0-2.3-1.4-2.3S9.6,9.9,9.6,11v4.2H7V6.7Z" transform="translate(0 0)" style="fill:#fff"/></svg>