<?xml version="1.0" encoding="utf-8"?>
<!-- Generator: Adobe Illustrator 15.0.2, SVG Export Plug-In . SVG Version: 6.00 Build 0)  -->
<!DOCTYPE svg PUBLIC "-//W3C//DTD SVG 1.1//EN" "http://www.w3.org/Graphics/SVG/1.1/DTD/svg11.dtd">
<svg version="1.1" id="Layer_1" xmlns="http://www.w3.org/2000/svg" xmlns:xlink="http://www.w3.org/1999/xlink" x="0px" y="0px"
	 width="33.148px" height="31.481px" viewBox="0 0 33.148 31.481" enable-background="new 0 0 33.148 31.481" xml:space="preserve">
<g>
	<defs>
		<rect id="SVGID_1_" y="0" width="33.149" height="31.482"/>
	</defs>
	<clipPath id="SVGID_2_">
		<use xlink:href="#SVGID_1_"  overflow="visible"/>
	</clipPath>
	<path clip-path="url(#SVGID_2_)" fill="#FFFFFF" d="M8.268,5.304c0.015-0.142,0.059-0.433,0.11-0.791
		C7.25,3.916,5.18,4.101,4.451,4.191C4.43,4.61,4.405,4.941,4.389,5.108c0.286-0.016,0.792-0.141,1.168-0.167
		C6.159,4.907,7.579,4.941,8.268,5.304"/>
	<path clip-path="url(#SVGID_2_)" fill="#FFFFFF" d="M4.484,4.038c0.731-0.097,2.795-0.275,3.934,0.325
		c0.174-1.155,0.506-3.052,0.684-3.455c0,0,0.108-0.248-0.091-0.322c-0.194-0.08-0.922-0.361-2.138-0.523
		c-1.202-0.138-2.13-0.014-2.321,0.04c-0.199,0.064-0.136,0.31-0.136,0.31C4.562,1.579,4.537,3.061,4.484,4.038"/>
	<path clip-path="url(#SVGID_2_)" fill="#FFFFFF" d="M1.394,20.081c-0.04,0.02-0.061,0.045-0.082,0.079
		c0.143-0.045,0.308-0.072,0.493-0.064c-0.017-0.015-0.04-0.025-0.057-0.028C1.646,20.02,1.493,20.028,1.394,20.081"/>
	<path clip-path="url(#SVGID_2_)" fill="#FFFFFF" d="M6.299,5.471c-0.043,0-0.074,0.001-0.116,0.004
		C6.267,5.472,6.35,5.471,6.438,5.471H6.299z"/>
	<path clip-path="url(#SVGID_2_)" fill="#FFFFFF" d="M6.184,5.476C6.058,5.477,5.933,5.48,5.828,5.484
		C5.931,5.48,6.058,5.476,6.184,5.476"/>
	<path clip-path="url(#SVGID_2_)" fill="#FFFFFF" d="M9.178,12.986c-0.005-0.021-0.019-0.048-0.038-0.064
		c0.027-0.08,0.038-0.164,0.038-0.265c0-0.093-0.014-0.193-0.043-0.296c-0.081-0.234-0.246-0.389-0.344-0.478l-0.004-0.005
		L8.78,11.876l-0.024-0.03c-0.004,0-0.012-0.003-0.015-0.006c0.003-0.019,0.003-0.044,0.009-0.057
		c0.009-0.038,0.009-0.064,0.009-0.086v-0.028v-0.005l-0.003-0.039c-0.031-0.125-0.004-0.278-0.075-0.396
		c-0.038-0.058-0.09-0.062-0.099-0.143c-0.011-0.058,0.014-0.126,0.015-0.19c0.013-0.138,0.023-0.273,0.023-0.408
		c0.015-2.344-0.722-3.746-0.788-3.996c-0.066-0.253,0.058-0.3,0.235-0.389c0.17-0.074,0.234-0.196,0.26-0.314
		c0.036,0.014,0.068,0.036,0.097,0.052C8.54,5.838,8.648,5.83,8.759,5.81C8.787,5.803,9.012,5.78,9.146,5.7
		c0.159-0.051,0.317-0.135,0.297-0.265C9.418,5.329,9.271,5.282,9.153,5.359C9.098,5.396,8.94,5.478,8.806,5.496
		C8.697,5.506,8.598,5.499,8.509,5.49c0,0-0.027,0.006-0.033-0.004C8.41,5.478,8.346,5.466,8.293,5.435
		c0-0.015-0.739-0.404-2.724-0.358C5.201,5.086,4.417,5.22,4.417,5.23C4.293,5.263,4.136,5.263,3.964,5.239
		C3.829,5.214,3.68,5.125,3.621,5.082C3.513,4.993,3.36,5.031,3.334,5.133C3.27,5.386,3.875,5.496,3.922,5.506
		c0.146,0.035,0.298,0.059,0.45,0.074h0.044C4.397,5.649,4.373,5.709,4.373,5.709c-0.02,0.074-0.038,0.149-0.055,0.227
		c-0.02,0.041-0.051,0.088-0.085,0.131c-0.005,0.005-0.012,0.01-0.016,0.019C4.05,6.166,3.499,6.458,3.295,6.91
		c0,0-0.082,0.135,0.217,0.057C3.562,6.951,3.63,6.937,3.708,6.92c0.25-0.038,0.451,0.077,0.58,0.19
		c0.197,0.387,0.54,0.68,0.954,0.808c0.146,0.504,0.223,1.251,0.222,1.5c0,0,0.255,2.315-1.598,5.675
		c-0.301,0.546-0.378,1.049-0.378,1.374v0.042v0.079c-0.005,0.104-0.012,0.258-0.012,0.397c0,0.086,0.003,0.18,0.012,0.257
		c0.017,0.082,0.019,0.147,0.091,0.231l0.006,0.008l0.01,0.008c0.012,0.012,0.054,0.038,0.117,0.038
		c0.051,0,0.087-0.015,0.112-0.026c0.079-0.042,0.189-0.07,0.312-0.07c0.11,0,0.222,0.021,0.329,0.062v0.096
		c-0.253,0.358-0.72,1.269,0.138,2.263c0,0,0.238,0.22,0.319,0.426c0.003,0.022,0.008,0.045,0.017,0.065
		c0.009,0.044,0.009,0.078-0.005,0.108c-0.055,0.171-0.046,0.377-0.258,0.38c-0.303,0.014-0.495-0.274-0.726-0.41
		c-0.177-0.116-0.365-0.213-0.542-0.319c-0.349-0.197-0.733-0.382-1.047-0.631c-0.165-0.133-0.868-0.403-1.614,0.114
		c0,0-0.733-0.009-0.576,0.725c0.011,0.053,0.045,0.22,0.093,0.247c0.13,0.065,0.111-0.152,0.198-0.222
		c0.142-0.127,0.324-0.035,0.492,0c-0.624,0.449-0.57,1.363-0.57,1.376c0,0.139,0.091,0.252,0.204,0.252
		c0.113,0,0.205-0.113,0.205-0.252v-0.019h0.003c0.022-1.002,0.457-1.16,1.012-1.16c0.859,0,0.936,0.997,0.936,0.997v8.722h0.399
		v-7.811c0-0.098,0.115-0.913-0.158-1.56c0.106,0.155,0.142,0.332,0.273,0.528c0.15,0.221,0.434,0.191,0.549,0.367
		c0.071,0.102-0.069,0.654,0.205,0.432c0.155-0.118,0.2-0.364,0.205-0.516c0.006-0.234-0.294-0.536-0.196-0.445
		c0.099,0.096,1.611,1.104,1.815,1.232c0.009,0.005,0.024,0.008,0.035,0.008c0.827,1.391,2.101,2.645,4.034,3.307
		c0.052,0.055,0.101,0.11,0.158,0.159c1.39,1.23,1.341,1.172,1.36,1.805c0.019,0.369,0.03,1.385,0.049,1.749
		c0,0.092-0.019,0.229,0.028,0.311c0,0.007,0.005,0.007,0.008,0.014c-0.017-0.007-0.036-0.014-0.053-0.019
		c-1.033-0.218-1.42,0.104-1.42,0.104s-0.182-0.092-0.405,0.031c-0.272,0.155-0.163,0.662-0.079,0.564
		c0.131-0.141,0.343-0.129,0.343-0.129s0.146,0.111,0.419,0.168c0.071,0.015,0.142,0.02,0.21,0.027
		c-0.13,0.121-0.169,0.215-0.169,0.215s-0.179,0.006-0.298,0.195c-0.151,0.236,0.134,0.579,0.169,0.475
		c0.04-0.17,0.207-0.251,0.207-0.251s0.159,0.024,0.387-0.052c0.29-0.095,0.466-0.287,0.466-0.287
		c0.06-0.102,0.385-0.26,0.586-0.352h0.033c0,0,0-0.004-0.005-0.016c0.008-0.005,0.019-0.005,0.027-0.012
		c0.237-0.01,0.528-0.01,0.62,0.04c0,0,0.277,0.098,0.615,0.036c0.277-0.053,0.424-0.167,0.424-0.167s0.206-0.004,0.334,0.134
		c0.089,0.095,0.202-0.407-0.068-0.563c-0.22-0.123-0.401-0.033-0.401-0.033s-0.357-0.297-1.292-0.147
		c0.003-0.017,0.005-0.034,0.005-0.054c0.014-0.257,0.003-1.168,0.027-1.426c0,0-0.071-1.2,0.641-1.739
		c0.146-0.114,0.291-0.26,0.434-0.428c0.565-0.133,1.104-0.371,1.603-0.691c0.298,0.578,0.694,0.991,1.328,1.05
		c1.777,0.163,2.401,0.328,2.353-0.491c-0.025-0.295-0.236-1.152-0.51-2.173c1.284-0.324,2.87-0.656,4.491-1.035
		c8.497-1.98,9.949-0.892,10.56-1.15c1.157-0.49-14.802-1.673-14.802-1.673c-0.681-0.071-1.231-0.581-1.739-1.229
		c-0.463-0.869-0.867-2.003-1.963-3.1c-1.127-1.113-3.152-1.898-4.571-2.348L9.178,12.986z M1.312,20.16
		c0.021-0.034,0.042-0.06,0.082-0.079c0.099-0.053,0.253-0.062,0.354-0.014c0.018,0.003,0.04,0.014,0.058,0.028
		C1.62,20.088,1.455,20.115,1.312,20.16 M6.299,5.471h0.138c-0.088,0-0.171,0.001-0.254,0.004c-0.126,0-0.252,0.005-0.356,0.009
		c0.105-0.004,0.23-0.008,0.356-0.009C6.226,5.472,6.256,5.471,6.299,5.471"/>
</g>
</svg>
