<?xml version="1.0" encoding="utf-8"?>
<!-- Generator: Adobe Illustrator 19.0.0, SVG Export Plug-In . SVG Version: 6.00 Build 0)  -->
<svg version="1.1" id="Layer_1" xmlns="http://www.w3.org/2000/svg" xmlns:xlink="http://www.w3.org/1999/xlink" x="0px" y="0px"
	 width="25.2px" height="28.4px" viewBox="0 0 25.2 28.4" style="enable-background:new 0 0 25.2 28.4;" xml:space="preserve">
<style type="text/css">
	.st0{fill:#010202;}
</style>
<g id="XMLID_85_">
	<path id="XMLID_101_" class="st0" d="M25,0.1c-0.2-0.2-0.5-0.1-0.7,0.1l-3.7,4.5l-2.1-1.7c-0.1-0.1-0.3-0.1-0.4-0.1l-5.4,0.9
		c-0.1,0-0.2,0.1-0.3,0.2L0.1,18.9c-0.2,0.2-0.1,0.5,0.1,0.7l10.5,8.7c0.1,0.1,0.2,0.1,0.3,0.1c0,0,0,0,0,0c0.1,0,0.3-0.1,0.3-0.2
		l12.4-14.9c0.1-0.1,0.1-0.2,0.1-0.3l-0.1-5.5c0-0.1-0.1-0.3-0.2-0.4l-2.2-1.8l3.7-4.5C25.3,0.6,25.3,0.3,25,0.1z M22.8,7.7l0.1,5.1
		l-12,14.4l-9.7-8.1l12-14.4l5-0.9L20,5.4l-1.5,1.8C18.2,7.1,17.8,7,17.5,7c-0.7,0-1.4,0.3-1.8,0.8c-0.8,1-0.7,2.5,0.3,3.3
		c0.4,0.3,1,0.5,1.5,0.5c0.7,0,1.4-0.3,1.8-0.9c0.4-0.5,0.6-1.1,0.5-1.7c0-0.5-0.2-0.9-0.5-1.2l1.5-1.8L22.8,7.7z M18.8,9.2
		c0,0.4-0.1,0.7-0.3,1c-0.3,0.3-0.6,0.5-1,0.5c-0.3,0-0.6-0.1-0.9-0.3C16,9.9,15.9,9,16.4,8.4c0.3-0.3,0.6-0.5,1-0.5
		c0.1,0,0.3,0,0.4,0.1l-0.6,0.7c-0.2,0.2-0.1,0.5,0.1,0.7c0.1,0.1,0.2,0.1,0.3,0.1c0.1,0,0.3-0.1,0.4-0.2l0.6-0.7
		C18.7,8.8,18.8,9,18.8,9.2z"/>
	<polygon id="XMLID_100_" class="st0" points="8.3,18.8 9.7,20 7.3,20 7,20.3 9,22 9.3,21.7 7.9,20.4 10.3,20.5 10.6,20.1 8.6,18.4 
			"/>
	<polygon id="XMLID_87_" class="st0" points="11.5,18.4 11,17.9 11.7,17.1 11.4,16.8 10.7,17.7 10.1,17.2 10.9,16.3 10.6,16.1 
		9.5,17.4 11.5,19.1 12.6,17.8 12.3,17.5 	"/>
	<polygon id="XMLID_86_" class="st0" points="13.6,12.5 14.5,14.1 12.8,13.5 12.5,13.9 13.3,15.5 11.6,14.9 11.3,15.3 14,16.2 
		14.1,16.1 13.2,14.2 15.2,14.8 15.3,14.7 14,12.1 	"/>
</g>
</svg>
