<?xml version="1.0" encoding="utf-8"?>
<!-- Generator: Adobe Illustrator 19.0.0, SVG Export Plug-In . SVG Version: 6.00 Build 0)  -->
<svg version="1.1" id="Layer_1" xmlns="http://www.w3.org/2000/svg" xmlns:xlink="http://www.w3.org/1999/xlink" x="0px" y="0px"
	 width="37px" height="20.7px" viewBox="0 0 37 20.7" style="enable-background:new 0 0 37 20.7;" xml:space="preserve">
<g id="XMLID_82_">
	<path id="XMLID_100_" fill="#010202" d="M36.3,19.3h-8.1c0-0.2,0-0.4,0-0.7c0-5.4-4.4-9.8-9.8-9.8s-9.8,4.4-9.8,9.8c0,0.2,0,0.4,0,0.7
		H0.7C0.3,19.3,0,19.7,0,20s0.3,0.7,0.7,0.7h35.6c0.4,0,0.7-0.3,0.7-0.7S36.7,19.3,36.3,19.3z M10.1,18.7c0-4.6,3.8-8.4,8.4-8.4
		s8.4,3.8,8.4,8.4c0,0.2,0,0.4,0,0.7h-6.7c0-0.1,0.1-0.3,0.1-0.5c0-0.2,0-0.3-0.1-0.5l3.7-3.5c0.3-0.3,0.3-0.7,0-1
		c-0.3-0.3-0.7-0.3-1,0l-3.6,3.5c-0.2-0.1-0.5-0.2-0.8-0.2c-0.4,0-0.7,0.1-1,0.3l-2.3-1.9c-0.3-0.2-0.7-0.2-1,0.1
		c-0.2,0.3-0.2,0.7,0.1,1l2.4,2c0,0.1,0,0.1,0,0.2c0,0.2,0,0.3,0.1,0.5h-6.7C10.1,19.1,10.1,18.9,10.1,18.7z"/>
	<path id="XMLID_87_" fill="#010202" d="M18.5,7c0.4,0,0.7-0.3,0.7-0.7V0.7c0-0.4-0.3-0.7-0.7-0.7c-0.4,0-0.7,0.3-0.7,0.7v5.6
		C17.9,6.6,18.2,7,18.5,7z"/>
	<path id="XMLID_86_" fill="#010202" d="M0.6,15.4L6,16.8c0.1,0,0.1,0,0.2,0c0.3,0,0.6-0.2,0.7-0.5c0.1-0.4-0.1-0.7-0.5-0.8l-5.4-1.4
		c-0.4-0.1-0.7,0.1-0.8,0.5C0,14.9,0.2,15.3,0.6,15.4z"/>
	<path id="XMLID_85_" fill="#010202" d="M9.8,9.7c0.1,0.1,0.3,0.2,0.4,0.2c0.2,0,0.4-0.1,0.5-0.2c0.2-0.3,0.2-0.7-0.1-1L6.5,5
		c-0.3-0.2-0.7-0.2-1,0.1C5.3,5.3,5.4,5.8,5.6,6L9.8,9.7z"/>
	<path id="XMLID_84_" fill="#010202" d="M30.3,16.3c0.1,0.3,0.4,0.5,0.7,0.5c0.1,0,0.1,0,0.2,0l5.4-1.4c0.4-0.1,0.6-0.5,0.5-0.8
		c-0.1-0.4-0.5-0.6-0.8-0.5l-5.4,1.4C30.4,15.6,30.2,16,30.3,16.3z"/>
	<path id="XMLID_83_" fill="#010202" d="M26.8,9.9c0.2,0,0.3-0.1,0.4-0.2L31.5,6c0.3-0.2,0.3-0.7,0.1-1c-0.2-0.3-0.7-0.3-1-0.1
		l-4.2,3.7c-0.3,0.2-0.3,0.7-0.1,1C26.4,9.8,26.6,9.9,26.8,9.9z"/>
</g>
</svg>
