<?xml version="1.0" encoding="utf-8"?>
<!-- Generator: Adobe Illustrator 19.0.0, SVG Export Plug-In . SVG Version: 6.00 Build 0)  -->
<svg version="1.1" id="Layer_1" xmlns="http://www.w3.org/2000/svg" xmlns:xlink="http://www.w3.org/1999/xlink" x="0px" y="0px"
	 width="23.7px" height="24.2px" viewBox="0 0 23.7 24.2" style="enable-background:new 0 0 23.7 24.2;" xml:space="preserve">
<style type="text/css">
	.st0{fill:#010202;}
</style>
<g id="XMLID_84_">
	<path id="XMLID_128_" class="st0" d="M7,7.7c0.1,0.1,0.3,0.2,0.4,0.2c0.1,0,0.3-0.1,0.4-0.2c0.2-0.2,0.3-0.6,0-0.9L4.8,3.7
		c-0.2-0.2-0.6-0.3-0.9,0c-0.2,0.2-0.3,0.6,0,0.9L7,7.7z"/>
	<path id="XMLID_127_" class="st0" d="M5.1,11.7c0.3,0,0.6-0.2,0.6-0.5c0-0.3-0.2-0.6-0.5-0.7L0.7,10C0.3,10,0,10.3,0,10.6
		c0,0.3,0.2,0.6,0.5,0.7L5.1,11.7C5,11.7,5,11.7,5.1,11.7z"/>
	<path id="XMLID_102_" class="st0" d="M6.6,14.5c-0.1-0.3-0.5-0.4-0.8-0.3l-4,2c-0.3,0.1-0.4,0.5-0.3,0.8c0.1,0.2,0.3,0.3,0.5,0.3
		c0.1,0,0.2,0,0.3-0.1l4-2C6.6,15.2,6.7,14.8,6.6,14.5z"/>
	<path id="XMLID_101_" class="st0" d="M8.6,17.9c-0.3-0.2-0.7-0.1-0.8,0.2l-2.3,3.8c-0.2,0.3-0.1,0.7,0.2,0.8
		c0.1,0.1,0.2,0.1,0.3,0.1c0.2,0,0.4-0.1,0.5-0.3l2.3-3.8C9,18.4,8.9,18,8.6,17.9z"/>
	<path id="XMLID_100_" class="st0" d="M11.1,5.7C11.1,5.7,11.1,5.7,11.1,5.7c0.4,0,0.6-0.3,0.6-0.7l-0.4-4.5c0-0.3-0.3-0.6-0.7-0.5
		C10.3,0,10,0.3,10,0.7l0.4,4.5C10.5,5.4,10.7,5.7,11.1,5.7z"/>
	<path id="XMLID_87_" class="st0" d="M14.5,6.6c0.1,0,0.2,0.1,0.3,0.1c0.2,0,0.4-0.1,0.5-0.3l2-4c0.1-0.3,0-0.7-0.3-0.8
		c-0.3-0.1-0.7,0-0.8,0.3l-2,4C14.1,6.1,14.2,6.4,14.5,6.6z"/>
	<path id="XMLID_86_" class="st0" d="M18.4,8.9c0.1,0,0.2,0,0.3-0.1l3.8-2.3c0.3-0.2,0.4-0.5,0.2-0.8s-0.5-0.4-0.8-0.2l-3.8,2.3
		c-0.3,0.2-0.4,0.5-0.2,0.8C18,8.8,18.2,8.9,18.4,8.9z"/>
	<path id="XMLID_85_" class="st0" d="M23.5,23.2L18,17.7l4.8-0.6c0.3,0,0.5-0.2,0.5-0.5c0-0.3-0.1-0.5-0.3-0.6L10,9.7
		C9.8,9.6,9.5,9.6,9.3,9.8c-0.2,0.2-0.2,0.5-0.1,0.7l6.3,12.9c0.1,0.2,0.4,0.4,0.6,0.3c0.3,0,0.5-0.3,0.5-0.5l0.5-4.7l5.5,5.5
		c0.1,0.1,0.3,0.2,0.4,0.2c0.2,0,0.3-0.1,0.4-0.2c0.1-0.1,0.2-0.3,0.2-0.4C23.7,23.4,23.6,23.3,23.5,23.2z"/>
</g>
</svg>
