<?xml version="1.0" encoding="utf-8"?>
<!-- Generator: Adobe Illustrator 18.1.1, SVG Export Plug-In . SVG Version: 6.00 Build 0)  -->
<svg version="1.1" id="Layer_1" xmlns="http://www.w3.org/2000/svg" xmlns:xlink="http://www.w3.org/1999/xlink" x="0px" y="0px"
	 width="21.4px" height="26.6px" viewBox="0 0 21.4 26.6" style="enable-background:new 0 0 21.4 26.6;" xml:space="preserve">
<g>
	<path class="icon-basket" fill="#3D3D3D" d="M19.2,8.5h-1.8c-0.1,1.2-1.1,2.2-2.4,2.2c-1.2,0-2.3-1-2.4-2.2h-2h-2c-0.1,1.2-1.1,2.2-2.4,2.2
		c-1.2,0-2.3-1-2.4-2.2H2.3L0.4,26.6h10.4h10.4L19.2,8.5z M10.7,24.7H2.4l1.3-11.5h7h7l1.3,11.5H10.7z"/>
	<path class="st0" d="M6.3,9.2c0.5,0,0.9-0.4,0.9-0.9V5.4c0-2,1.6-3.5,3.5-3.5s3.5,1.6,3.5,3.5v2.9c0,0.5,0.4,0.9,0.9,0.9
		c0.5,0,0.9-0.4,0.9-0.9V5.4c0-3-2.4-5.4-5.4-5.4S5.3,2.4,5.3,5.4v2.9C5.3,8.8,5.8,9.2,6.3,9.2z"/>
</g>
</svg>
