<?xml version="1.0" encoding="utf-8"?>
<!-- Generator: Adobe Illustrator 19.0.0, SVG Export Plug-In . SVG Version: 6.00 Build 0)  -->
<svg version="1.1" id="Layer_1" xmlns="http://www.w3.org/2000/svg" xmlns:xlink="http://www.w3.org/1999/xlink" x="0px" y="0px"
	 width="35px" height="18.7px" viewBox="0 0 35 18.7" style="enable-background:new 0 0 35 18.7;" xml:space="preserve">
<style type="text/css">
	.st0{fill:#010202;}
</style>
<path id="XMLID_16_" class="st0" d="M35,11.4v-1c0-0.1,0-0.2-0.1-0.3l0,0c-0.2-0.3-1.9-2.3-2.8-3.2c-1-1-2.5-2-2.6-2
	c-0.1,0-0.2-0.1-0.3-0.1h-5l0-1.5c0-0.1,0.2-1.6-0.7-2.5c-0.4-0.5-1-0.7-1.7-0.7H2.9C0.6,0,0,1.6,0,2.4l0,11.5c0,0.5-0.1,2.1,0.8,3
	c0.4,0.4,0.9,0.6,1.5,0.6c0.1,0,0.2,0,0.2,0l2.3,0c0.5,0.7,1.3,1.1,2.1,1.1c0.9,0,1.6-0.4,2.1-1.1h14.5c0.3,0,0.5-0.2,0.5-0.5l0-0.2
	h3.4c0.3,1.1,1.3,1.8,2.5,1.8c1.2,0,2.2-0.8,2.5-1.9l0.2,0c0.3,0,0.5,0,0.7,0c0.4,0,0.7-0.1,1-0.4c0.6-0.6,0.5-1.7,0.5-1.8L35,11.4
	C35,11.4,35,11.4,35,11.4z M31.8,8l2.2,2.6l0,0.3h-6.2c0,0-0.4,0-0.6-0.2c-0.1-0.1-0.2-0.3-0.2-0.5V8H31.8z M7.1,17.7
	c-0.6,0-1.1-0.3-1.4-0.9c-0.1-0.2-0.2-0.5-0.2-0.7c0-0.9,0.7-1.6,1.6-1.6c0.9,0,1.6,0.7,1.6,1.6c0,0.3-0.1,0.5-0.2,0.7
	C8.3,17.4,7.7,17.7,7.1,17.7z M23.2,3.2v13.4H9.6c0-0.2,0.1-0.3,0.1-0.5c0-1.4-1.2-2.6-2.6-2.6c-1.4,0-2.6,1.2-2.6,2.6
	c0,0.2,0,0.3,0.1,0.5l-2,0c-0.4,0-0.8-0.1-1-0.3C1.1,15.7,1,14.7,1,14L1,2.4C1,2.2,1.2,1,2.9,1h19c0.4,0,0.8,0.1,1,0.4
	C23.3,1.9,23.3,2.8,23.2,3.2z M30.1,17.7c-0.8,0-1.5-0.6-1.6-1.4c0-0.1,0-0.1,0-0.2c0-0.9,0.7-1.6,1.6-1.6s1.6,0.7,1.6,1.6
	c0,0.1,0,0.1,0,0.2C31.6,17.1,30.9,17.7,30.1,17.7z M33.7,15.7c-0.1,0.1-0.1,0.1-0.3,0.1c-0.1,0-0.4,0-0.6,0l-0.2,0
	c-0.1-1.3-1.2-2.3-2.6-2.3c-1.4,0-2.5,1-2.6,2.4h-3.3l0-10.2H29c0.3,0.2,1.1,0.7,1.7,1.3h-4.3C26.2,7,26,7.2,26,7.5v2.7
	c0,0.5,0.2,0.9,0.5,1.2c0.5,0.5,1.2,0.5,1.3,0.5c0,0,0,0,0,0H34l0,2.8C34,14.9,34,15.5,33.7,15.7z"/>
</svg>
