<?xml version="1.0" encoding="utf-8"?>
<!-- Generator: Adobe Illustrator 19.2.1, SVG Export Plug-In . SVG Version: 6.00 Build 0)  -->
<svg version="1.1" id="Layer_1" xmlns="http://www.w3.org/2000/svg" xmlns:xlink="http://www.w3.org/1999/xlink" x="0px" y="0px"
	 viewBox="0 0 48 48" style="enable-background:new 0 0 48 48;" xml:space="preserve">
<style type="text/css">
	.st0{fill:#787878;}
	.st1{fill:none;}
</style>
<polygon class="st0" points="18.4,-39 18.3,-39 18.4,-39 "/>
<g>
	<polygon class="st1" points="15,34 25,34 27,34 32,34 32,15 32,13 32,9 25,9 21,9 21,22.1 18,19.2 15,22.1 15,20.9 15,9 12,9 
		12,34 13,34 	"/>
	<path class="st1" d="M34,36h-4.2H27h-2H15h-1h-1c-0.6,0-1,0.4-1,1v1c0,0.6,0.4,1,1,1h10h4h2.8H36V15h-2V36z"/>
	<path class="st0" d="M34,13V7h-9H15h-5l0,29.6c0,0.1,0,0.3,0,0.4v1c0,1.7,1.3,3,3,3h10h4h11V13H34z M12,9h3v11.9v1.2l3-2.9l3,2.9V9
		h4h7v4v2v19h-5h-2H15h-2h-1V9z M36,39h-6.2H27h-4H13c-0.6,0-1-0.4-1-1v-1c0-0.6,0.4-1,1-1h1h1h10h2h2.8H34V15h2V39z"/>
</g>
</svg>
