<svg xmlns="http://www.w3.org/2000/svg" style="display:none;">

  <symbol id="arrow-bottom" viewBox="0, 0, 25, 25">
    <path fill="currentColor" d="M7.474,14.842 L0.374,10.242 C-0.026,10.042 -0.126,9.542 0.174,9.242 C0.374,8.942 0.874,8.842 1.174,9.042 L7.474,13.142 L13.774,9.042 C14.174,8.842 14.574,8.942 14.774,9.242 C14.974,9.542 14.874,10.042 14.574,10.242 L7.474,14.842 z"></path>
  </symbol>

  <symbol id="arrow-top" viewBox="0, -10, 25, 25">
    <path fill="currentColor" d="M7.465,0 L14.565,4.6 C14.965,4.8 15.065,5.3 14.765,5.6 C14.565,5.9 14.065,6 13.765,5.8 L7.465,1.7 L1.165,5.8 C0.765,6 0.365,5.9 0.165,5.6 C-0.035,5.3 0.065,4.8 0.365,4.6 L7.465,0 z"></path>
  </symbol>

  <symbol id="arrow-right" viewBox="-4, 12.5, 25, 25">
    <path fill="currentColor" d="M10.452,24.917 L5.852,32.017 C5.652,32.417 5.152,32.517 4.852,32.217 C4.552,32.017 4.452,31.517 4.652,31.217 L8.752,24.917 L4.652,18.617 C4.452,18.217 4.552,17.817 4.852,17.617 C5.152,17.417 5.652,17.517 5.852,17.817 L10.452,24.917 z"></path>
  </symbol>

  <symbol id="arrow-left" viewBox="-4, 30, 25, 25">
    <path fill="currentColor" d="M4.548,42.492 L9.148,49.592 C9.348,49.992 9.848,50.092 10.148,49.792 C10.448,49.592 10.548,49.092 10.348,48.792 L6.248,42.492 L10.348,36.192 C10.548,35.792 10.448,35.392 10.148,35.192 C9.848,34.992 9.348,35.092 9.148,35.392 L4.548,42.492 z"></path>
  </symbol>

  <symbol id="plus" viewBox="0 0 42.02 42">
     <polygon fill="currentColor" points="42.02 21.77 42 19.77 22.01 19.99 22.01 0 20.01 0 20.01 20.01 0 20.23 0.02 22.23 20.01 22.01 20.01 42 22.01 42 22.01 21.99 42.02 21.77"/>
   </symbol>

 <symbol id="minus" viewBox="0 0 42.02 2.22">
   <polyline fill="currentColor" points="42.02 0 0 0.22 0.02 2.22 42.02 2"/>
 </symbol>

 <symbol id="denim-fit" viewBox="0 0 50 48">

 <style type="text/css">
     .st0{fill:#2F3E51;}
 </style>
 <g>
     <path fill="#2F3E51" d="M22.4,17.5c0.1-0.1,0-0.2,0-0.2c-0.2-0.1-0.4,0-0.4,0s-0.1,0.2,0,0.4C22.3,17.7,22.3,17.6,22.4,17.5z"></path>
     <path fill="#2F3E51" d="M19.2,16.2c0.2-0.2,0.1-0.2,0.1-0.2c-0.1-0.1-0.4,0.2-0.5,0.5c0,0.4,0.1,0.4,0.2,0.4c0.1,0,0.1-0.1,0-0.2
         C19,16.5,19,16.2,19.2,16.2z"></path>
     <path fill="#2F3E51" d="M21.4,19.3c-0.1,0.1-0.2,0.1-0.5,0.2c-0.2,0.1-0.5-0.2-0.5-0.2s-0.5-0.4-0.5,0c0,0.4,0.2,0.4,0.6,0.6
         c0.4,0.2,0.5,0,0.5,0c0.1-0.1,0.2-0.2,0.5-0.4c0.2-0.1,0.4-0.1,0.5-0.2c0.1-0.1,0.2,0,0.5-0.1c0.2-0.1,0.2-0.5,0.4-0.9
         C23,18,22.8,18,22.8,18c-0.2,0-0.2,0.4-0.4,0.6c-0.1,0.2-0.1,0.2-0.4,0.4c-0.1,0-0.1,0-0.4,0.2C21.4,19.4,21.5,19.3,21.4,19.3z"></path>
     <circle fill="#2F3E51" cx="6.8" cy="19.2" r="0.1"></circle>
     <circle fill="#2F3E51" cx="7.3" cy="19.7" r="0.1"></circle>
     <circle fill="#2F3E51" cx="6.2" cy="20.1" r="0.1"></circle>
     <path fill="#2F3E51" d="M17.3,23.8c-0.2,0.4,0,0.6,0.2,0.6c0.2,0.1,0.6,0.5,0.9,0.7c0.2,0.2,0.5,0.1,0.5,0.1l2.1-0.6
         c0.4-0.1,0.4-0.6,0.6-0.9c0.1-0.2,0.1-0.5,0.1-0.5s-0.1-0.5-0.1-1c0-0.4-0.4-0.2-0.4-0.2s-3,0.7-3.3,0.9
         C17.6,23,17.6,23.4,17.3,23.8z"></path>
     <path fill="#2F3E51" d="M21.5,29.2c0.1-0.1,0.2-0.4,0.4-0.5c0.1-0.1,0.2-0.6,0.1-1c-0.1-0.5-0.4-0.4-0.9-0.4c-0.5,0-0.6-0.1-0.6-0.1
         S20.3,27,20,27s-0.1,0.2-0.1,0.2c0.2,0.2,0.6,0.5,1.2,0.5c0.6,0,0.5,0.6,0.2,1.1c-0.2,0.5-1,0.4-1,0.4s-0.2-0.1-0.6-0.1
         c-0.4,0-0.9-0.4-0.9-0.4s-0.2-0.4-0.7-0.5c-0.5-0.1-1.5-0.9-1.5-0.9l-1.2-0.9c0,0-1-0.7-1.2-1c-0.4-0.4-0.2-0.6-0.2-1
         c0-0.4-0.1-0.4-0.1-0.4s-0.2,0-0.2,0.4c0,0.4,0.2,0.9,0.5,1.2c0.2,0.4,0,0.2,0,0.2c-0.5-0.1-0.6-0.6-0.7-1
         c-0.1-0.4-0.5-0.2-0.5-0.2s-1.1,0.4-1.4,0.5c-0.2,0.1-0.4,0.2-0.4,0.2s0,0,0.1,0.6c0,0.5,0.2,0.7,0.5,1.1c0.2,0.4,0.5,0.1,0.5,0.1
         l1.1-0.4l1.1-0.4c0,0,0.2,0,0.2-0.2c0.1-0.2,0.5,0.1,0.5,0.1c0.2,0.2,1,0.6,1.5,1c0.5,0.4,1.1,0.6,1.4,0.7c0.2,0.1,0.5,0.4,0.9,0.6
         c0.2,0.2,0.9,0.5,1.1,0.5s0.5,0,0.9,0C21,29.4,21.4,29.2,21.5,29.2z"></path>
     <path fill="#2F3E51" d="M19.7,29.8c0,0-0.1,0-0.4-0.1c-0.2-0.1-0.2,0-0.2,0.1c0,0.1-0.1,0.2-0.2,0.5c-0.1,0.4-0.2,0.6-0.4,1
         c-0.1,0.2,0.4,0.6,0.7,0.7c0.4,0.1,0.4-0.4,0.5-0.6c0.1-0.2,0.5-1,0.5-1.2c0.1-0.2-0.1-0.4-0.2-0.4C19.8,29.8,19.7,29.8,19.7,29.8z
         "></path>
     <path fill="#2F3E51" d="M5,19.1c0.4,0.5,1.5-0.2,1.9-0.4c0.4-0.1,0.5,0,0.5,0s0.2,0.4,0.5,0.6c0.2,0.2,0,0.5,0,0.5s-0.5,1-0.6,1.4
         c-0.2,0.4,0.1,0.6,0.1,0.6c0.4,0.5,1.2,1,1.2,1l1.7,0.7c0,0,0.6,0.4,0.9,0.4c0.4,0,0.7-0.4,1-0.6c0.2-0.2,0.6-0.5,0.6-0.5
         s0.4-0.2,0.5-0.2c0.2,0,0.2,0.2,0.1,0.6c0,0.4,0.6,0.5,0.6,0.5c0.7,0.2,1.5,0.1,1.9,0.1c0.4,0,0.4,0.2,0.4,0.4c0,0.1,0,0.1,0.1,0.2
         c0.1,0.1,0.4,0.4,0.5,0.5c0.1,0.1,0.7,0.6,1,0.9c0.1,0.2,0.5,0.5,0.6,0.5c0.1,0,0.7,0.4,0.7,0.4s0.2,0.1,0.2,0
         c0.1-0.1-0.1-0.2-0.4-0.2c-0.1-0.1-0.2-0.1-0.5-0.4c-0.2-0.2-0.5-0.4-0.5-0.4c-0.9-0.6-1.4-1.4-1.4-1.4s-0.4-0.5,0.1-0.5
         c0.4-0.1,0.5-0.6,0.7-1.6c0.2-1,0.5-1.7,0.6-2.2c0.1-0.5,0.1-0.9,0.1-1.1c0-0.2-0.1-0.5-0.2-0.9c-0.1-0.4-0.1-0.4-1-0.4
         c-1,0-2,0.1-2.2,0.2c-0.2,0-0.4,0.1-0.9,0.2c-0.5,0-1.1,0.2-1.1,0.2s-1.2,0.1-2,0.4c-0.7,0.2-1,0.5-1.2,0.6
         c-0.1,0.1-0.4,0.2-0.7,0.1c-0.4,0,0-0.4,0.2-0.6c0.1-0.2,0.5-0.2,0.6-0.2c0.2,0,0.5-0.1,0.5-0.1L12,18c0,0,3-0.6,3.5-0.7
         c0.5-0.1,1.6-0.1,2-0.1c0.4,0,0.2-0.4,0.2-0.4s-0.2-0.4-0.2-0.9c0-0.5-0.1-0.6-0.1-0.6c-0.2-0.5-1-0.4-1.7-0.4
         c-0.7-0.1-1.2-0.1-2,0c-0.7,0.1-1.4,0.1-2,0.2c-0.6,0.1-1.1,0.4-1.5,0.5c-0.4,0.1-0.5,0.5-0.9,0.9c-0.4,0.4-0.4,0.5-0.5,0.7
         c-0.1,0.2-0.7,0.5-0.9,0.6c-0.1,0-0.1-0.1,0-0.2C8,17.5,8,17.3,8,17.2c0-0.1,0.4-0.2,0.5-0.4c0.1-0.1,0.2-0.2,0.4-0.4
         C9,16.3,9,16.3,9.2,16.1c0.1-0.2,0-0.2,0-0.2c-0.1-0.1-1,0.5-1.5,0.7c-0.5,0.2-0.6,0.4-1.4,0.9c-0.6,0.6-1,0.9-1.4,1.2
         C4.7,18.9,5,19.1,5,19.1z"></path>
     <path fill="#2F3E51" d="M47,27.7c0,0,0,0.1,0,0.1c0,0,0,0,0,0S47.1,27.3,47,27.7z"></path>
     <path fill="#2F3E51" d="M48,21.2c0.5,0,0.4-0.4,0.4-0.4s0-0.5-0.1-0.9c0-0.4-0.4-0.2-0.7-0.2c-0.4,0-0.4-0.4-0.4-0.7
         c0-0.4,0.4-0.2,0.7-0.4c0.4,0,0.2-0.4,0.2-0.5s-0.2-0.5-0.2-0.9c0-0.4-0.5-0.1-0.9-0.1c-0.4,0-0.4-0.6-0.4-0.9s0.1-0.2,0.1-0.2
         l0.5-0.1c0.1,0,0.2-0.1,0.2-0.4c0-0.4-0.2-0.7-0.5-1c-0.1-0.2-0.4,0-0.7,0c-0.2,0.1-0.4-0.1-0.4-0.1s-0.2-0.4-0.2-0.7
         c-0.1-0.4,0.2-0.4,0.6-0.5c0.4-0.1,0.1-0.4,0.1-0.4s-0.5-0.6-0.6-1c-0.1-0.4-0.4-0.1-0.7,0.1c-0.4,0.2-0.5-0.1-0.5-0.1
         s-0.2-0.4-0.4-0.6c-0.1-0.2,0.2-0.5,0.5-0.7c0.2-0.2,0.1-0.5,0-0.6c-0.1-0.1-0.4-0.4-0.5-0.6c-0.1-0.2-0.4,0-0.4,0s0,0-0.2,0.2
         c-0.2,0.2-0.4,0-0.4,0S42.8,9,42.7,8.8c-0.1-0.2,0.2-0.5,0.4-0.6c0.2-0.1,0-0.4,0-0.4c-0.1-0.2-0.4-0.5-0.6-0.7
         c-0.2-0.2-0.5,0-0.7,0.2c-0.2,0.2-0.5,0-0.5,0s-0.2-0.5-0.4-0.6c-0.1-0.1,0-0.4,0-0.4L41.1,6c0,0,0.1-0.2-0.1-0.5
         c-0.2-0.1-0.4-0.2-0.6-0.5c-0.2-0.2-0.4,0-0.6,0.4c-0.2,0.4-0.5,0-0.5,0S38.7,5.1,38.6,5c-0.2-0.1,0.1-0.5,0.2-0.6
         c0.1-0.2,0-0.4-0.2-0.5s-0.5-0.2-0.7-0.5c-0.2-0.1-0.5,0.1-0.6,0.4C37,4,36.9,3.9,36.9,3.9s-0.4-0.2-0.6-0.4
         c-0.1-0.1,0-0.4,0.1-0.7c0.1-0.4-0.2-0.4-0.2-0.4L35.2,2C35,1.9,35,2.1,35,2.1s-0.1,0.2-0.2,0.4c-0.1,0.1-0.4,0-0.4,0
         s-0.5-0.1-0.7-0.2C33.5,2.1,33.5,2,33.5,2s0-0.1,0.1-0.4c0.1-0.2-0.2-0.2-0.2-0.2l-0.9-0.2c-0.2-0.1-0.4,0.2-0.4,0.2s0,0-0.1,0.2
         c-0.1,0.2-0.4,0.2-0.5,0.2c0,0-0.6-0.1-0.9-0.2c-0.2,0-0.1-0.2-0.1-0.2s0-0.2,0.1-0.6c0-0.4-0.2-0.2-0.2-0.2s-0.6,0-1,0
         c-0.2,0-0.2,0.2-0.2,0.2v0.5c0,0.4-0.4,0.2-0.4,0.2s-0.5-0.1-0.7-0.1c-0.2,0-0.2-0.4-0.2-0.4V0.5c0-0.4-0.4-0.2-0.4-0.2
         s-0.5,0-0.9,0c-0.4,0-0.4,0.2-0.4,0.6c0,0.4-0.4,0.4-0.4,0.4s-0.5,0-0.7,0c-0.2,0-0.2-0.1-0.2-0.5s-0.4-0.2-0.4-0.2h-0.7
         c-0.5,0-0.4,0.4-0.4,0.7c0,0.4-0.2,0.4-0.2,0.4s-0.2,0-0.6,0.1c-0.4,0-0.4-0.1-0.4-0.5c0-0.4-0.4-0.1-0.4-0.1s-0.6,0.2-1,0.2
         c-0.4,0.1-0.2,0.2-0.1,0.6c0.1,0.4-0.2,0.4-0.2,0.4S20,2.5,19.8,2.6c-0.2,0.1-0.4-0.1-0.5-0.5C19.2,1.8,18.9,2,18.9,2
         s-0.4,0.1-0.7,0.2c-0.4,0.1-0.1,0.6-0.1,0.6c0.1,0.4-0.1,0.5-0.1,0.5s-0.2,0.1-0.6,0.2c-0.4,0.1-0.4,0-0.5-0.4
         c-0.1-0.4-0.5-0.1-0.5-0.1s-0.5,0.4-0.9,0.5c-0.4,0.1-0.1,0.5-0.1,0.5l0.1,0.2c0.2,0.2,0,0.5,0,0.5S15.3,5,15,5.1
         c-0.2,0.1-0.4,0-0.4,0s0,0-0.2-0.2c-0.2-0.2-0.6,0-0.6,0S13.6,5,13.2,5.2c-0.4,0.2-0.1,0.5-0.1,0.5L13.4,6c0.2,0.4,0,0.5,0,0.5
         S13,6.8,12.7,6.9c-0.2,0.2-0.4,0-0.4,0s0,0-0.2-0.2c-0.2-0.2-0.4,0-0.4,0S11.3,6.9,11,7.3c-0.2,0.2,0,0.5,0,0.5s0,0.1,0.2,0.2
         c0.2,0.2,0,0.4,0,0.4s-0.1,0.2-0.4,0.5c-0.2,0.2-0.2,0.2-0.6-0.1C10,8.6,9.7,8.9,9.7,8.9S9.4,9.4,9.3,9.7C9,9.9,9.3,10,9.3,10
         s0,0,0.4,0.2c0.2,0.2,0,0.5,0,0.5S9.5,11,9.3,11.4c-0.2,0.2-0.5,0-0.9-0.1C8,11.2,8,11.4,8,11.4s-0.2,0.4-0.4,0.7
         c-0.2,0.4,0.5,0.5,0.5,0.5c0.5,0.1,0.2,0.4,0.1,0.5c-0.1,0.1-0.1,0.4-0.2,0.6c-0.1,0.2-0.4,0.2-0.7,0c-0.4-0.2-0.5,0.1-0.5,0.1
         s-0.1,0.4-0.2,0.7c-0.1,0.4,0.1,0.6,0.5,0.7c0.4,0.1,0.1,0.5,0.1,0.7c-0.1,0.4,0.4,0.1,0.4,0.1s2.7-1.4,3.1-1.5
         c0.2-0.1,0.4-0.2,0.9,0c0.5,0.2,1.6-0.2,1.6-0.2s0.5-0.2,1.4-0.2c0.9,0,0-0.4,0-0.4s-2.1-1.2-2.3-1.5c-0.5-0.1,0-0.6,0-0.6
         c1.7-2.5,3-3.6,3.2-3.7c0.2-0.1,0.4-0.2,0.5-0.4c0.1-0.1,0.4-0.4,0.6-0.5c0.2-0.1,0.6-0.4,0.6-0.4c1.5-1,2.7-1.5,3.2-1.6
         c0.5-0.1,0.5,0.2,0.5,0.2l1.1,3.3c0,0,0.6,2.2,0.7,2.7c0.1,0.5,0.4,0.4,1.2,0.7c0.9,0.4,1,1.1,1.1,1.4c0,0.4-0.1,0.2-0.4-0.1
         c-0.1-0.5-0.5-0.6-1-0.9c-0.5-0.2-0.7-0.4-1.2-0.5c-0.5-0.1-0.7-0.2-0.9-0.5c-0.1-0.2-0.4-0.1-0.5,0c-0.1,0.1-0.7,0.2-0.7,0.2
         c-1.9,0.2-2,1.4-2.1,1.6c-0.1,0.2,0.1,0.6,0.2,0.7c0.1,0.1,0.1,0.2,0.1,0.5c-0.1,0.2,0,0.2,0,0.2c0.1,0.1,0.9,0.2,1.2,0.2
         c0.4,0,0.2,0.4,0.2,0.6c0,0.2,0,0.4,0.2,0.4c0.1,0,0.2-0.1,0.2-0.4c0-0.2-0.1-0.2-0.1-0.2s-0.1-0.2,0.1-0.2c0.2,0,0.6,0.2,0.9,0.5
         c0.2,0.1,0.9,0.7,1.2,0.9c0.4,0.1,0.5,0.4,1.1,0.4c0.5,0,1-0.5,1.2-0.7c0.2-0.2,0-0.7-0.1-0.9c-0.1-0.1-0.2-0.4,0-0.5
         c0.2-0.1,0.4,0.4,0.5,0.9c0.1,0.5-0.1,0.7-0.6,1.1c-0.5,0.2-0.2,0.7-0.1,0.7c0.1,0,0.2,0.4,0,0.6c-0.2,0.2-0.6,0.1-0.9-0.1
         c-0.2-0.2-0.2,0.2-0.2,0.5s0,0.4-0.5,0.5c-0.5,0.1-0.2,0.1-0.9,0.5c-0.5,0.4,0,0.5,0,0.5s1.1,0.6,1.6,0.9c0.5,0.2,0.2,0.5,0.1,0.7
         c-0.1,0.2,0,0.6-0.2,0.6c-0.2,0-0.2-0.1-0.1-0.7c0.1-0.6-0.5-0.5-0.5-0.5s-0.4,0-0.7,0.5c-0.4,0.4-0.2,1-0.1,1.6
         c0.1,0.6-0.2,1.1-0.2,1.1s-0.9,1.7-1.1,2.1c-0.2,0.4,0.1,0.4,0.1,0.4l0.4,0.1c0.5,0.2,0.9-0.6,0.9-0.6l0.6-1.4c0,0,0.6-1,1.1-1.5
         c0.5-0.4,0.6-0.7,0.7-1c0.1-0.4,0.1-0.5-0.1-0.9c-0.2-0.4,0-0.4,0.2,0c0.2,0.4,0.1,1.1,0.1,1.1c-0.1,0.6-0.6,1-0.9,1.2
         c-0.2,0.1-0.1,0.4-0.1,0.4c0.1,0.2-0.1,0.6-0.1,0.6L23,26.4c0,0-0.4,0.5-0.5,1.2c-0.1,0.9-0.5,1.4-0.9,1.7
         c-0.4,0.4-0.6,0.7-0.6,0.7l-1.5,2.7l-1.9,3.5c-0.2,0.4-0.5,0.1-0.5,0.1c-1.1-0.5-2.6-1.7-2.8-2c-0.2-0.2-0.4,0.1-0.4,0.4
         s0,0.5-0.1,1c-0.1,0.5-0.2,0.9-0.4,0.9c-0.1,0,0-0.4,0-1.2s-0.1-1.5-0.5-2.5c-0.4-1-1.1-2.3-1.2-2.8c-0.1-0.5-0.5-1.5-0.9-2.2
         c-0.4-0.6-0.6-1.6-0.6-1.6c-0.1-0.7,0-0.9,0-0.9l0.4-0.9c0.1-0.4-0.1-0.5-0.1-0.5s0,0-0.5-0.1c-0.5-0.1-0.6,0.4-0.6,0.4l-0.4,1
         c-0.4,0.9,0.1,1.5,0.6,2.2c0.5,0.7,0.6,1.4,1.2,3c0.5,1.5,0.9,1.5,1.6,3.1c0.7,1.6,0.5,2.3,0.4,2.8c-0.4,0.4-0.5,0.9-0.6,2.1
         c-0.2,1.1-0.6,1.9-0.9,2.7c-0.4,0.7-0.5,1.6-0.5,3.3c0,1.7-0.1,2.5-0.1,3.1s-0.2,0.6-0.2,0.6c-0.6,0.1-1.1-0.1-1.1-0.1
         c0.7-0.4,0.6-0.7,0.6-1.2c0-0.5,0-1.9,0-1.9c0.1-1.6,0.5-4.3,0.9-5.6c0.4-1.2,0.7-1.6,1-3.7c0.2-2.1-2-4.5-2-4.5s-0.7-0.7-0.7-2
         S8.5,27.5,8,27c-0.4-0.5-0.4-1,0-1.7c0.4-0.7,0.6-1.4,0.7-1.7c0.1-0.4-0.4-0.6-0.4-0.6s-1.2-0.9-1.6-1C6.4,21.7,6.3,22,6.3,22
         s-0.5,1.2-0.9,1.6c-0.2,0.4-0.7,1.2-1,1.9c-0.1,0.6-0.4,2,0.7,3.1c1,1.1,1.1,1.2,1.1,3c0,1.6,1,2.5,1.5,3c0.5,0.5,0.7,0.6,0.9,1.7
         C8.8,37.4,8.3,38,8.3,38s-0.9,0.9-1.1,2c-0.4,1.1-0.5,1.2-0.5,1.2c0-1.7,0.6-2.6,1-3.1C8,37.6,8,36.9,8,36.9c0-1.1-0.7-2.1-1.4-3
         S5.9,32,5.9,31.1c0-1-0.7-1.7-0.7-1.7l-0.6-0.9c0,0-0.4-0.4-0.5-1.7c-0.1-1.4,1.1-3.2,1.1-3.2s0.7-1.2,0.9-1.5
         c0.1-0.2,0-0.5-0.1-0.6c-0.1-0.1-0.4-0.4-0.6-0.5c-0.4-0.2-0.5,0.2-0.5,0.2s0,0.2-0.9,1.1c-0.9,0.9-1.4,2.2-1.4,2.2
         c-1,2.3,0.5,4,0.5,4s0.9,0.9,1,2.2c0.1,1.5,1.2,3,1.2,3s0.9,1.2,0.9,3c0,1.7-0.2,2.2-0.5,2.7c-0.2,0.5-1,2.7-1,2.7
         c-0.4,0.9-0.4,1.6-0.4,1.6l-0.2,2.7c0,0.2,0,0.6,0.4,0.6c0.4,0,0.7,0,0.7,0c0.4,0,0.4,0,0.9,0c0.4-0.1,0.2-0.7,0.2-0.7
         c-0.1-1.5,0-3.2,0-3.2c0-0.5,0.1-0.4,0.1-0.4c0.1,0,0.1,0.5,0.1,0.5c0,1.5,0.2,3.8,0.2,3.8s0,0,0,0.5c0,0.5-0.2,0.2-0.4,0
         c-0.1-0.1-0.2-0.1-1.5-0.1s-1.7-0.2-1.7-0.2V47c0.4,0,0.4-0.2,0.4-0.6c0-0.4,0-0.6,0.1-1.1c0.1-0.5,0.2-1.5,0.2-2
         c0-0.5,0.2-1.5,0.9-2.8c0.7-1.5,0.7-3.2,0.7-3.2c0-2.2-1-3.6-1.2-4c-0.2-0.4-0.5-1.1-0.5-1.6s-0.2-1.2-0.5-1.6
         c-0.1-0.4-0.2-0.7-0.9-1.7C2,27.3,1.9,27,1.6,26c-0.1-1,0.9-2.5,1.4-3.2c0.4-0.6,1.1-1.6,1.4-1.9s0-0.4,0-0.4s0,0-0.2-0.2
         c-0.2-0.2-0.5,0.1-0.5,0.1c-1.2,1.1-2.1,2.5-2.1,2.5c-1.1,1.5-1.4,2.7-1.5,3.6S0.8,29,0.8,29c0.6,1.6,1.7,2.6,2.1,3.1
         c0.4,0.5,0.2,1.2,0.2,1.2c0.1,2.1,0.5,2.2,0.9,2.8c0.4,0.6,0.5,1.2-0.1,2c-0.2,0.7-0.5,1.6-0.5,1.6s-0.4,1.5-0.9,3
         c-0.4,1.5-0.2,2.8-0.2,3.3c0,0.5,0.1,0.6,0.4,0.7c0.2,0.1,0,0.2,0,0.2c-0.2,0.1-0.1,0.4-0.1,0.4l0.1,1.2c0.1,0.9,0.7,0.9,0.7,0.9
         h0.9c0.4,0,0.6-0.1,1,0c0.4,0.1,0.5,0.1,0.9,0.1c0.4,0,0.5,0.2,0.5,0.2c0.2,0.5,1.1,0.5,1.5,0.2c0.4-0.2,0.9,0,0.9,0
         c0.6,0.1,1.4,0,2.3,0c1-0.1,0.9-0.1,1.6-0.2c0.6-0.1,0.9-0.1,0.9-0.1c0.5-0.1,0.4-0.6,0.4-0.6v-0.6c0-0.5-0.2-0.7-0.9-0.9
         c-0.5-0.1-1.1-0.2-1.1-0.2c-0.1,0.1,0-0.2,0-0.2l0.4-3.3c0.1-2.1,0.6-4.2,0.6-4.2s0.4-2,0.5-2.3c0-0.4,0.2-0.1,0.2-0.1
         c0.6,0.6,1.5,1.2,1.7,1.4c0.2,0.1,0,0.4,0,0.4s-0.1,0.1-0.2,0.5c-0.1,0.4,0,0.5,0,0.5s0.5,0.2,0.7,0.4c0.4,0.1,0.5-0.1,0.5-0.1
         l0.2-0.4c0.1-0.2,0.4-0.1,0.4-0.1s0.2,0.1,0.6,0.4c0.4,0.1,0.1,0.4-0.1,0.7c-0.2,0.4,0.1,0.5,0.1,0.5s0.4,0.1,0.7,0.4
         c0.4,0.2,0.4-0.1,0.6-0.6c0.2-0.5,0.6-0.2,1,0c0.4,0.1,0.4,0.1,0.1,0.7c-0.2,0.6,0.5,0.6,1.1,0.9c0.5,0.1,0.5-0.2,0.6-0.6
         c0.1-0.4,0.6-0.2,1-0.1c0.4,0.1,0.2,0.1,0.2,0.7c-0.1,0.6,0.6,0.6,1.1,0.6c0.5,0,0.5-0.4,0.5-0.7s0.5-0.2,1-0.2
         c0.5,0,0.4,0.7,0.4,0.7c0,0.5,0.5,0.4,1.1,0.4c0.6,0,0.5-0.5,0.4-0.9c0-0.4,0.7-0.2,1-0.2s0.2,0,0.4,0.6c0.1,0.5,0.6,0.4,0.6,0.4
         s0.1,0,0.6-0.1c0.5,0,0.2-0.6,0.2-0.7c0-0.2,0-0.2,0.2-0.4c0.2,0,0.4-0.1,0.6-0.1c0.2-0.1,0.4,0.1,0.4,0.5c0,0.4,0.5,0.4,0.5,0.4
         c0.6-0.1,0.5-0.1,0.9-0.2c0.4-0.1,0.1-0.4,0.1-0.4s0-0.1-0.1-0.4c-0.1-0.2,0.1-0.4,0.1-0.4s0.4-0.1,0.7-0.2c0.4-0.1,0.4,0,0.5,0.5
         c0.1,0.5,0.5,0.4,0.7,0.1c0.2-0.2,0.4-0.1,0.6-0.2c0.2-0.1,0-0.5,0-0.5l-0.2-0.5c-0.1-0.2,0.1-0.4,0.1-0.4c0.5-0.2,0.7-0.4,0.7-0.4
         c0.2-0.1,0.4,0.1,0.4,0.1l0.2,0.5c0.2,0.4,0.5,0.1,0.5,0.1c0.5-0.2,0.5-0.2,0.7-0.5s0-0.4,0-0.4l-0.2-0.4c-0.1-0.2,0.1-0.4,0.1-0.4
         l0.7-0.5c0.2-0.1,0.4,0,0.4,0l0.4,0.5c0.2,0.4,0.7-0.2,0.7-0.2s0.1-0.2,0.4-0.4c0.2-0.2,0-0.4,0-0.4l-0.4-0.6c-0.1-0.2,0-0.4,0-0.4
         c0.2-0.2,0.5-0.4,0.6-0.6c0.1-0.2,0.4,0,0.4,0s0.1,0.1,0.4,0.4s0.4,0,0.4,0s0.6-0.6,0.7-0.7c0.2-0.1-0.1-0.4-0.1-0.4
         s-0.2-0.1-0.4-0.4c-0.1-0.2,0-0.4,0-0.4c0.1-0.1,0.4-0.5,0.6-0.7c0.1-0.2,0.4,0,0.4,0l0.4,0.2c0.4,0.2,0.5-0.1,0.5-0.1
         c0.1-0.2,0.2-0.5,0.5-0.7c0.2-0.2-0.2-0.4-0.2-0.4s-0.2-0.1-0.5-0.2c-0.2-0.1-0.1-0.4-0.1-0.4s0.2-0.5,0.4-0.7
         c0.1-0.2,0.4-0.1,0.4-0.1s0.1,0.1,0.4,0.2c0.2,0.2,0.5-0.1,0.5-0.1s0.4-0.6,0.5-1c0.1-0.4-0.2-0.4-0.2-0.4s-0.2-0.1-0.5-0.2
         c-0.2-0.1-0.1-0.4-0.1-0.4s0.2-0.6,0.4-0.9c0.1-0.2,0.4-0.1,0.4-0.1l0.4,0.1c0.2,0.1,0.4-0.1,0.4-0.1s0.2-0.5,0.3-0.9
         c-0.1,0-0.4-0.1-0.6-0.2c-0.2-0.1-0.1-0.4-0.1-0.4s0.1-0.5,0.2-0.7c0-0.2,0.4-0.1,0.4-0.1s0.2,0,0.5,0s0.2-0.2,0.2-0.2
         s0.1-0.5,0.1-0.9c0-0.4-0.2-0.4-0.2-0.4h-0.4c0,0-0.2,0-0.2-0.2s0.1-0.9,0.1-0.9c0-0.2,0.4-0.2,0.4-0.2h0.4c0.5,0,0.4-0.4,0.4-0.4
         s0-0.5,0-0.7c0-0.2-0.2-0.2-0.2-0.2s-0.2,0-0.4,0c-0.2,0-0.2-0.2-0.2-0.2v-0.4C47.2,21,47.5,21.2,48,21.2z M36.1,6.8
         c0,0,0.1-0.5,0.6-0.1c0.5,0.4,4.3,3,6.6,7.7c0,0,0.4,0.6-0.2,0.7l-4.2,1.4c0,0-2.7,1-3.8,1.4c-1.1,0.4-4.6,1.4-4.6,1.4
         s-0.4,0.1-0.5-0.1c-0.1-0.1,0.1-0.5,0.1-0.5l1.9-3.5l2-4.1L36.1,6.8z M24.4,8.2c0,0-0.1-0.6-0.2-0.9c0,0-0.1-0.1-0.1-0.4
         c0-0.2-0.1-0.1-0.1-0.6c0,0-0.1-0.6-0.2-0.7c0,0-0.1-0.1-0.1-0.4c0-0.2-0.1-0.5-0.1-0.5s-0.2-0.5,0.2-0.5c0.4,0,6.3-1,10.3,0.9
         c0,0,0.4,0.1,0.1,0.5c-0.1,0.4-0.2,0.5-0.4,0.7c0,0.1-0.2,0.4-0.5,1s-3.8,7.3-3.8,7.3l-1.4,2.7c0,0-0.1,0.4-0.5,0.4
         c-0.4,0-0.4-0.6-0.4-0.6s-0.7-2-1-3C25.8,13.1,24.4,8.2,24.4,8.2z M29.1,21.4c0,0-0.1,0.1-0.2-0.2c0,0-0.4-0.9-1.5-1
         c0,0-0.2,0-0.7,0c0,0,0.2-0.2,0.7-0.2c0.5,0,1.4,0.6,1.7,1.1C29.1,21,29.2,21.4,29.1,21.4z M26.1,20.3c0,0-0.4,0.5-0.5,0.4
         C25.5,20.5,26.1,20.3,26.1,20.3z M30.5,39c-0.5,0.2-1.4,0.5-3.6,0.5s-4.3-0.1-5.9-0.7l-1-0.4c0,0-0.5-0.1-0.1-0.5
         c0.4-0.4,1.1-2.2,1.9-3.3c0.7-1.1,1.5-2.7,1.5-2.7s0.9-1.7,1.5-3c0.6-1.4,1.2-2.3,1.2-2.3s0.2-0.7,0.5-0.7h0.2c0,0,0.4-0.1,0.5,0.4
         l0.6,2.1l1,3.6l0.7,2.5c0,0,0.1,0.4,0.2,0.9c0,0.4,0.7,2.8,0.7,2.8S31,38.7,30.5,39z M41.9,30.7c-0.2,0.5-1.1,1.6-1.9,2.5
         c-0.7,0.9-2.2,3-6.1,4.7c0,0-0.6,0.4-0.7-0.2c0,0-1.4-4.2-1.6-4.8c-0.2-0.6-2-6.6-2-6.6l-0.2-1c0,0-0.1-0.2,0-0.5
         c0.2-0.1,0.4-0.5,0.7-0.4c0.4,0.1,2.6,1.2,2.6,1.2l4.5,2.1c2.1,1.1,4.7,2.5,4.7,2.5S42.2,30.2,41.9,30.7z M44.4,22.5
         c-0.1,0.4-0.1,1.7-0.1,1.9c0,0.1-0.5,2.5-0.9,3.2c0,0-0.1,0.4-0.5,0.2c0,0-1.5-0.7-2.5-1.2c-0.9-0.5-6.6-3.1-6.6-3.1l-2-1
         c0,0-0.5-0.4-0.9-0.5c0,0-0.2-0.1-0.2-0.4c0-0.2,0.4-0.4,0.4-0.4l5.1-1.5l7.4-2.5c0,0,0.4-0.2,0.5,0.2c0.1,0.5,0.4,2.3,0.4,4.2
         C44.5,21.8,44.4,22.2,44.4,22.5z"></path>
 </g>

 </symbol>


  <symbol id="Facebook" viewBox="0 0 40.5 40.5">
    <path fill="currentColor" d="M38.3,0H2.2A2.22,2.22,0,0,0,0,2.2V38.3a2.22,2.22,0,0,0,2.2,2.2H38.3a2.22,2.22,0,0,0,2.2-2.2V2.1A2.14,2.14,0,0,0,38.3,0ZM33.4,22.3H27.6V37.7H21.7V22.3H17.6V16.8h4.1V12.1c0-3.7,2.4-7.1,8-7.1a37.11,37.11,0,0,1,3.9.2l-0.1,5.2H30c-2,0-2.3.9-2.3,2.5V17h6Z" />
  </symbol>

  <symbol id="Twitter" viewBox="0 0 48.8 39.7">
    <path fill="currentColor" d="M44,9.8v1.3c0,13.3-10.1,28.6-28.6,28.6A28.93,28.93,0,0,1,0,35.2a19.27,19.27,0,0,0,2.4.1A20.34,20.34,0,0,0,14.9,31a10.13,10.13,0,0,1-9.4-7,11.08,11.08,0,0,0,1.9.2,7.46,7.46,0,0,0,2.6-.4A10.07,10.07,0,0,1,1.9,14V13.9a11.21,11.21,0,0,0,4.5,1.3A10.1,10.1,0,0,1,1.9,6.8a9.4,9.4,0,0,1,1.4-5A28.18,28.18,0,0,0,24,12.3a8.52,8.52,0,0,1-.3-2.3,10,10,0,0,1,10-10A9.74,9.74,0,0,1,41,3.2,23.47,23.47,0,0,0,47.4.8,10.62,10.62,0,0,1,43,6.4a19.22,19.22,0,0,0,5.8-1.6,17.44,17.44,0,0,1-4.8,5" />
  </symbol>

    <symbol id="Instagram" viewBox="0 0 40.6 39.54">
      <path d="M9,16a11.93,11.93,0,0,0-1.06,5A12.69,12.69,0,0,0,20.78,33.51,12.63,12.63,0,0,0,33.64,21a13.84,13.84,0,0,0-1.06-5h6.34V3.57a1.09,1.09,0,0,0-1.14-1.06H3.17A1.15,1.15,0,0,0,2,3.57V16.07H9V16ZM29.42,5.15a0.38,0.38,0,0,1,.35-0.35h6.52a0.38,0.38,0,0,1,.35.35V11.4a0.38,0.38,0,0,1-.35.35H29.77a0.38,0.38,0,0,1-.35-0.35V5.15Zm-8.54,5.64A10.32,10.32,0,0,1,31.35,20.92,10.27,10.27,0,0,1,20.87,31,10.32,10.32,0,0,1,10.39,20.92,10.27,10.27,0,0,1,20.87,10.79Z" transform="translate(-0.09 -0.57)" fill="#fff"/><path d="M37.69,0.57H3.08a3,3,0,0,0-3,3V37.12a3,3,0,0,0,3,3H37.69a3,3,0,0,0,3-3V3.57A3,3,0,0,0,37.69.57ZM3.08,2.42H37.69a1.15,1.15,0,0,1,1.14,1.06V16H32.5a11.93,11.93,0,0,1,1.06,5A12.69,12.69,0,0,1,20.7,33.51,12.61,12.61,0,0,1,7.93,21,13.84,13.84,0,0,1,9,16h-7V3.57A1.17,1.17,0,0,1,3.08,2.42Z" transform="translate(-0.09 -0.57)" fill="currentColor"/><ellipse cx="20.78" cy="20.34" rx="10.48" ry="10.13" fill="currentColor"/><path d="M29.77,11.85h6.52a0.38,0.38,0,0,0,.35-0.35V5.24a0.38,0.38,0,0,0-.35-0.35H29.77a0.38,0.38,0,0,0-.35.35v6.25A0.38,0.38,0,0,0,29.77,11.85Z" transform="translate(-0.09 -0.57)" fill="currentColor"/>
    </symbol>

    <symbol id="Pinterest" viewBox="0 0 36.8 44.2">
      <path fill="currentColor" d="M22,34.3c-2.9,0-5.7-1.6-6.7-3.4,0,0-1.6,6.3-1.9,7.5a23.87,23.87,0,0,1-2.7,5.8L7.5,43A23,23,0,0,1,8,36.7c0.5-2.2,3.5-14.8,3.5-14.8a9.94,9.94,0,0,1-.9-4.3c0-4,2.3-7.1,5.3-7.1,2.5,0,3.7,1.9,3.7,4.1,0,2.5-1.6,6.2-2.4,9.7a4.19,4.19,0,0,0,4.3,5.2c5.2,0,8.6-6.6,8.6-14.5,0-6-4-10.4-11.3-10.4-8.3,0-13.4,6.2-13.4,13.1A7.69,7.69,0,0,0,7.2,23a1.27,1.27,0,0,1,.4,1.5A18,18,0,0,1,7,26.7a1,1,0,0,1-1.4.7C1.8,25.8,0,21.7,0,17,0,9.3,6.5,0,19.5,0,29.9,0,36.8,7.5,36.8,15.6c-0.1,10.7-6,18.7-14.8,18.7" />
    </symbol>

    <symbol id="snapchat" viewBox="0 0 40.74 38.25">
      <path fill="currentColor" d="M40.73,30c-0.34.86-2.14,1.54-5.13,2.05a1.73,1.73,0,0,0-.6,1.28c-0.09.34-.17,0.6-0.26,0.94a0.5,0.5,0,0,1-.6.43h0a3.54,3.54,0,0,1-.86-0.09A15.81,15.81,0,0,0,31,34.32a10.48,10.48,0,0,0-1.63.17,7.19,7.19,0,0,0-3.08,1.63,9.08,9.08,0,0,1-5.48,2.14H20.28a9.08,9.08,0,0,1-5.48-2.14,7.8,7.8,0,0,0-3.17-1.54A11.69,11.69,0,0,0,10,34.4a14.52,14.52,0,0,0-2.31.26,3.21,3.21,0,0,1-.86.09,0.7,0.7,0,0,1-.68-0.43C6.08,34,6,33.72,5.9,33.38c-0.17-.77-0.26-1.2-0.6-1.28-3-.43-4.79-1.11-5.22-2C0.09,30,0,30,0,29.87a0.54,0.54,0,0,1,.43-0.51A10.64,10.64,0,0,0,6.76,25.5,15,15,0,0,0,8.9,22.08h0a2,2,0,0,0,.17-1.8C8.64,19.34,7.36,19,6.5,18.66c-0.17-.09-0.43-0.09-0.6-0.17-0.77-.26-2.05-0.94-1.88-1.8a1.71,1.71,0,0,1,1.63-1.11,1.09,1.09,0,0,1,.51.09,5.16,5.16,0,0,0,2.05.51,1.7,1.7,0,0,0,1.2-.34c0-.43-0.09-0.86-0.09-1.2h0c-0.17-2.74-.43-6.25.43-8.22A10.71,10.71,0,0,1,19.6,0h0.77a10.69,10.69,0,0,1,9.93,6.33c0.86,2,.68,5.39.51,8.22v0.17c0,0.34-.09.77-0.09,1.11a1.59,1.59,0,0,0,1.11.34,4.8,4.8,0,0,0,2-.51,1.67,1.67,0,0,1,.6-0.09,1.61,1.61,0,0,1,.68.17h0a1.35,1.35,0,0,1,1,1.11c0,0.43-.34,1-1.88,1.71a1.24,1.24,0,0,1-.6.17c-0.86.26-2.14,0.68-2.57,1.63a2,2,0,0,0,.26,1.8h0c0.09,0.26,2.74,6.16,8.56,7.1a0.48,0.48,0,0,1,.43.51c0.51,0,.43.09,0.43,0.17" />
    </symbol>


    <symbol id="YouTube" viewBox="0 0 39.2 47.5">
      <path d="M15.5,0H12.7L10.9,6.9,9.1,0H6.2C6.7,1.6,7.4,3.2,7.8,4.8a37.38,37.38,0,0,1,1.6,5.5v7.1h2.8V10.3Zm7.1,13.6V9a5.63,5.63,0,0,0-.7-3.2,3.5,3.5,0,0,0-5.6,0A5.23,5.23,0,0,0,15.6,9v4.6a4.56,4.56,0,0,0,.7,3,3.5,3.5,0,0,0,5.6,0A8.8,8.8,0,0,0,22.6,13.6Zm-2.5.5c0,1.2-.5,1.8-1.2,1.8s-1.2-.7-1.2-1.8V8.6c0-1.2.5-1.8,1.2-1.8s1.2,0.7,1.2,1.8v5.5Zm11.3,3.6V4.6H29.1V14.8A2.07,2.07,0,0,1,27.5,16a0.54,0.54,0,0,1-.5-0.5V4.7H24.7V15.1a6.19,6.19,0,0,0,.2,2.1c0.2,0.7.7,0.9,1.6,0.9a3.92,3.92,0,0,0,2.8-1.6v1.4h2.1V17.7Z" fill="currentColor"/><path id="_Path_" data-name="&lt;Path&gt;" d="M23.8,31.4a1.55,1.55,0,0,0-1.2.7v8.1a1.55,1.55,0,0,0,1.2.7c0.7,0,.9-0.7.9-1.8V33.6C24.9,31.8,24.4,31.4,23.8,31.4Z" fill="currentColor"/><path id="_Path_2" data-name="&lt;Path&gt;" d="M32.7,31.4c-0.7,0-1.2.7-1.2,1.8v1.2h2.3V33.2C33.9,31.8,33.4,31.4,32.7,31.4Z" fill="currentColor"/><path d="M38.5,24.7a4.88,4.88,0,0,0-4.1-3.9,143.44,143.44,0,0,0-14.8-.5,147.36,147.36,0,0,0-14.8.5A4.67,4.67,0,0,0,.7,24.7,40.78,40.78,0,0,0,0,33.9a40.78,40.78,0,0,0,.7,9.2A4.88,4.88,0,0,0,4.8,47a143.44,143.44,0,0,0,14.8.5A147.36,147.36,0,0,0,34.4,47a4.67,4.67,0,0,0,4.1-3.9,40.78,40.78,0,0,0,.7-9.2A40.78,40.78,0,0,0,38.5,24.7ZM11.1,27.2H8.3v15H5.8v-15H3V24.9h8.3v2.3H11.1Zm7.1,15.2H15.9V41a3.34,3.34,0,0,1-2.8,1.6,1.47,1.47,0,0,1-1.6-.9,4.44,4.44,0,0,1-.2-1.8V29.5h2.3V40.1c0,0.5.2,0.5,0.5,0.5,0.5,0,.9-0.5,1.6-1.2V29.5H18V42.4h0.2Zm9-3.9A7.59,7.59,0,0,1,27,41a1.73,1.73,0,0,1-1.8,1.4A3.59,3.59,0,0,1,22.7,41v1.2H20.4V24.9h2.3v5.8a3.25,3.25,0,0,1,2.5-1.4A1.73,1.73,0,0,1,27,30.7a8.27,8.27,0,0,1,.2,2.5v5.3Zm9-2.3H31.4v2.3c0,1.2.5,1.8,1.2,1.8a1.09,1.09,0,0,0,1.2-.9V37.8h2.3v1.8a2.65,2.65,0,0,1-.5,1.4A3.5,3.5,0,0,1,30,41a4.93,4.93,0,0,1-.7-3V33.4a4.56,4.56,0,0,1,.7-3,3.5,3.5,0,0,1,5.6,0,4.93,4.93,0,0,1,.7,3v2.8H36.2Z" fill="currentColor"/>
    </symbol>



    <symbol id="Blog" viewBox="0 0 43.93 43.93">
      <path d="M22,0.27a22.27,22.27,0,0,0-22,22,22.16,22.16,0,0,0,22,22,22.16,22.16,0,0,0,22-22A22.05,22.05,0,0,0,22,.27ZM11.15,25.56a3.92,3.92,0,0,1-.83.83,4.18,4.18,0,0,1-1.66.33H5.49V17.41H8a8.35,8.35,0,0,1,2,.33,1.37,1.37,0,0,1,.83.83,3.09,3.09,0,0,1,.33,1.16c0,0.83-.5,1.33-1.16,2.16a3.17,3.17,0,0,1,1.66.83,2.52,2.52,0,0,1,.67,1.33A8.9,8.9,0,0,0,11.15,25.56Zm7.16,1.33H12.65V17.57h1.16v8h4.33l0.17,1.33h0Zm9.32-1.33a5.28,5.28,0,0,1-3.83,1.16,6.28,6.28,0,0,1-3.49-1.16,4.8,4.8,0,0,1-1.16-3.33,5.36,5.36,0,0,1,1.16-3.33,4.94,4.94,0,0,1,3.49-1.16,5.86,5.86,0,0,1,3.49,1.16,4.8,4.8,0,0,1,1.16,3.33A3,3,0,0,1,27.62,25.56Zm8,1.33a7.41,7.41,0,0,1-3.83-1.16,4.8,4.8,0,0,1-1.16-3.33,5.36,5.36,0,0,1,1.16-3.33,4.94,4.94,0,0,1,3.49-1.16,3.66,3.66,0,0,1,1.33.17c0.5,0.17.83,0.33,2,.67V19.9a6,6,0,0,0-3.16-.83,5,5,0,0,0-2.66.83A3.23,3.23,0,0,0,32,22.57a5,5,0,0,0,.83,2.66c0.67,0.67,1.33.83,2.83,0.83a12.29,12.29,0,0,0,2-.33h0.17v-2h-2V22.57h3v3.83A11.31,11.31,0,0,1,35.61,26.89Z" transform="translate(0 -0.27)" fill="currentColor"/><path d="M9.15,22.9a3.24,3.24,0,0,0-1.33-.17H6.66v2.83H7.82a2.51,2.51,0,0,0,1.33-.17,2.3,2.3,0,0,0,.67-0.5A1.25,1.25,0,0,0,10,24.06a1.5,1.5,0,0,0-.17-0.83A2.37,2.37,0,0,1,9.15,22.9Z" transform="translate(0 -0.27)" fill="currentColor"/><path d="M24.3,18.57a6.13,6.13,0,0,0-2.83.83,3.23,3.23,0,0,0-.83,2.66,3.91,3.91,0,0,0,.83,2.66,3.23,3.23,0,0,0,2.66.83,5,5,0,0,0,2.66-.83,3.23,3.23,0,0,0,.83-2.66,3.91,3.91,0,0,0-.83-2.66A6.33,6.33,0,0,0,24.3,18.57Z" transform="translate(0 -0.27)" fill="currentColor"/><path d="M9,21.23a1.52,1.52,0,0,0,.5-0.83c0-.83-0.5-1.16-1.66-1.16h-1v2.83H7.66A9.29,9.29,0,0,0,9,21.23Z" transform="translate(0 -0.27)" fill="currentColor"/>
    </symbol>

    <symbol id="linkedin" viewBox="0 0 17.91 18">
      <path fill="currentColor" d="M16.7,0H1.3A1.32,1.32,0,0,0,0,1.3V16.7A1.32,1.32,0,0,0,1.3,18H16.6a1.32,1.32,0,0,0,1.3-1.3V1.3A1.18,1.18,0,0,0,16.7,0Z" transform="translate(0 0)" />
      <path fill="#fff" d="M2.7,6.7H5.4v8.6H2.7V6.7ZM4,2.5A1.47,1.47,0,0,1,5.5,4,1.56,1.56,0,0,1,4,5.6,1.5,1.5,0,0,1,2.5,4,1.42,1.42,0,0,1,4,2.5" transform="translate(0 0)" />
      <path fill="#fff" d="M7,6.7H9.6V7.9h0a2.77,2.77,0,0,1,2.5-1.4c2.7,0,3.2,1.8,3.2,4.1v4.7H12.6V11.1c0-1,0-2.3-1.4-2.3S9.6,9.9,9.6,11v4.2H7V6.7Z" transform="translate(0 0)" />
    </symbol>

    <symbol id="appStore" viewBox="0 0 131.1 42.9">
      <path d="M131,37.1a5.8,5.8,0,0,1-5.8,5.8H5.8A5.8,5.8,0,0,1,0,37.1V5.8A5.8,5.8,0,0,1,5.8,0H125.3a5.8,5.8,0,0,1,5.8,5.8V37.1H131Z" /><path d="M22.6,7.3H12A2.26,2.26,0,0,0,9.7,9.6V33.2A2.26,2.26,0,0,0,12,35.5H22.7A2.26,2.26,0,0,0,25,33.2V9.6A2.41,2.41,0,0,0,22.6,7.3ZM17.3,33.9a1.5,1.5,0,1,1,1.5-1.5A1.54,1.54,0,0,1,17.3,33.9Zm5.8-3.8H11.5V12.6H23.2V30.1H23.1Z" fill="currentColor"/><path d="M33.7,11.5l-0.6,2H32.3l2.1-6.2h1l2.1,6.2H36.6l-0.7-2H33.7Zm2-.6L35.1,9.1C35,8.7,34.9,8.3,34.8,8h0c-0.1.4-.2,0.8-0.3,1.1l-0.6,1.8h1.8Z" fill="currentColor"/><path d="M38.3,9l0.9,2.5c0.1,0.4.3,0.8,0.4,1.2h0a8.4,8.4,0,0,1,.4-1.2L40.9,9h0.9L40,13.5H39.2L37.5,9h0.8Z" fill="currentColor"/><path d="M45.4,12.4a3.75,3.75,0,0,0,.1,1.1H44.8l-0.1-.6h0a1.49,1.49,0,0,1-1.4.7,1.29,1.29,0,0,1-1.4-1.3c0-1.1,1-1.7,2.7-1.7V10.5a0.88,0.88,0,0,0-1-1,2.38,2.38,0,0,0-1.2.3l-0.2-.5a3.31,3.31,0,0,1,1.5-.4,1.55,1.55,0,0,1,1.7,1.8v1.7Zm-0.8-1.2c-0.9,0-1.9.1-1.9,1a0.79,0.79,0,0,0,.8.8,1.11,1.11,0,0,0,1.1-.8v-1Z" fill="currentColor"/><path d="M47,8.2a0.5,0.5,0,1,1,.5-0.5c0.1,0.2-.1.5-0.5,0.5h0Zm-0.3,5.3V9h0.8v4.5H46.7Z" fill="currentColor"/><path d="M48.8,6.9h0.8v6.6H48.8V6.9Z" fill="currentColor"/>
      <path d="M54.1,12.4a3.75,3.75,0,0,0,.1,1.1H53.5l-0.2-.6h0a1.49,1.49,0,0,1-1.4.7,1.29,1.29,0,0,1-1.4-1.3c0-1.1,1-1.7,2.7-1.7V10.5a0.88,0.88,0,0,0-1-1,2.38,2.38,0,0,0-1.2.3l-0.2-.5a3.71,3.71,0,0,1,1.5-.4A1.55,1.55,0,0,1,54,10.7v1.7h0.1Zm-0.8-1.2c-0.9,0-1.9.1-1.9,1a0.79,0.79,0,0,0,.8.8,1.11,1.11,0,0,0,1.1-.8v-1Z" fill="currentColor"/><path d="M55.3,6.9h0.8V9.7h0a1.82,1.82,0,0,1,1.6-.8,2,2,0,0,1,1.9,2.3,2.13,2.13,0,0,1-2,2.4,1.76,1.76,0,0,1-1.5-.8h0v0.7H55.4V6.9H55.3Zm0.8,4.8V12a1.27,1.27,0,0,0,1.2,1,1.46,1.46,0,0,0,1.4-1.7,1.51,1.51,0,0,0-1.3-1.7,1.19,1.19,0,0,0-1.2,1v1.1H56.1Z" fill="currentColor"/><path d="M60.6,6.9h0.8v6.6H60.6V6.9Z" fill="currentColor"/><path d="M63.1,11.4A1.44,1.44,0,0,0,64.6,13a3.26,3.26,0,0,0,1.2-.2l0.1,0.6a4.31,4.31,0,0,1-1.5.3,2.08,2.08,0,0,1-2.2-2.3A2.14,2.14,0,0,1,64.3,9a1.84,1.84,0,0,1,1.8,2.1v0.4Zm2.4-.6a1.14,1.14,0,0,0-1.1-1.3,1.48,1.48,0,0,0-1.3,1.3h2.4Z" fill="currentColor"/><path d="M71,13.6a2.18,2.18,0,0,1-2.2-2.3A2.21,2.21,0,0,1,71,8.9a2.13,2.13,0,0,1,2.2,2.3A2.15,2.15,0,0,1,71,13.6h0Zm0-.6a1.56,1.56,0,0,0,1.4-1.8,1.39,1.39,0,1,0-2.7,0c0,1,.5,1.8,1.3,1.8h0Z" fill="currentColor"/><path d="M74.2,10.2V9h0.7V9.7h0a1.92,1.92,0,0,1,1.6-.8,1.66,1.66,0,0,1,1.6,1.9v2.7H77.3V10.9a1.1,1.1,0,0,0-1-1.3,1.33,1.33,0,0,0-1.1.8c0,0.1-.1.3-0.1,0.4v2.7H74.3V10.2H74.2Z" fill="currentColor"/>
      <path d="M82.2,7.9V9h1.2V9.6H82.2V12q0,0.9.6,0.9a0.75,0.75,0,0,0,.5-0.1v0.6a1.48,1.48,0,0,1-.7.1,1.22,1.22,0,0,1-.9-0.3,1.92,1.92,0,0,1-.3-1.2V9.6H80.7V9h0.7V8.2Z" fill="currentColor"/>
      <path d="M84.3,6.9h0.8V9.7h0a1.7,1.7,0,0,1,.6-0.6,1.88,1.88,0,0,1,.8-0.2,1.66,1.66,0,0,1,1.6,1.9v2.7H87.3V10.9a1.1,1.1,0,0,0-1-1.3,1.33,1.33,0,0,0-1.1.8,2.27,2.27,0,0,0-.1.4v2.7H84.3V6.9Z" fill="currentColor"/><path d="M89.8,11.4A1.44,1.44,0,0,0,91.3,13a3.26,3.26,0,0,0,1.2-.2l0.1,0.6a4.31,4.31,0,0,1-1.5.3,2.08,2.08,0,0,1-2.2-2.3A2.14,2.14,0,0,1,91,9a1.84,1.84,0,0,1,1.8,2.1v0.4Zm2.4-.6a1.14,1.14,0,0,0-1.1-1.3,1.48,1.48,0,0,0-1.3,1.3h2.4Z" fill="currentColor"/><path d="M96.3,8.2a0.5,0.5,0,1,1,.5-0.5,0.54,0.54,0,0,1-.5.5h0Zm-0.4,5.3V9h0.8v4.5H95.9Z" fill="currentColor"/><path d="M98,7.3a6.62,6.62,0,0,1,1.5-.1,3,3,0,0,1,1.8.5,2,2,0,0,1,.6,1.3,1.73,1.73,0,0,1-.5,1.3,2.35,2.35,0,0,1-1.9.7,1.08,1.08,0,0,1-.6-0.1v2.5H98V7.3Zm0.8,3c0.2,0,.4.1,0.7,0.1a1.36,1.36,0,0,0,1.6-1.3,1.25,1.25,0,0,0-1.5-1.2,1.72,1.72,0,0,0-.8.1v2.3Z" fill="currentColor"/><path d="M102.8,6.9h0.8V9.7h0a1.7,1.7,0,0,1,.6-0.6,1.88,1.88,0,0,1,.8-0.2,1.66,1.66,0,0,1,1.6,1.9v2.7h-0.8V10.9a1.1,1.1,0,0,0-1-1.3,1.33,1.33,0,0,0-1.1.8,2.27,2.27,0,0,0-.1.4v2.7h-0.8V6.9Z" fill="currentColor"/><path d="M109.8,13.6a2.18,2.18,0,0,1-2.2-2.3,2.21,2.21,0,0,1,2.2-2.4,2.13,2.13,0,0,1,2.2,2.3,2.2,2.2,0,0,1-2.2,2.4h0Zm0-.6a1.56,1.56,0,0,0,1.4-1.8,1.39,1.39,0,1,0-2.7,0,1.49,1.49,0,0,0,1.3,1.8h0Z" fill="currentColor"/>
      <path d="M113,10.2V9h0.7V9.7h0a1.61,1.61,0,0,1,1.5-.8,1.66,1.66,0,0,1,1.6,1.9v2.7H116V10.9a1.1,1.1,0,0,0-1-1.3,1.33,1.33,0,0,0-1.1.8c0,0.1-.1.3-0.1,0.4v2.7H113V10.2Z" fill="currentColor" />
      <path d="M118.5,11.4A1.44,1.44,0,0,0,120,13a3.26,3.26,0,0,0,1.2-.2l0.1,0.6a4.31,4.31,0,0,1-1.5.3,2.08,2.08,0,0,1-2.2-2.3A2.14,2.14,0,0,1,119.7,9a1.84,1.84,0,0,1,1.8,2.1v0.4Zm2.4-.6a1.14,1.14,0,0,0-1.1-1.3,1.48,1.48,0,0,0-1.3,1.3h2.4Z" fill="currentColor"/><path d="M37.5,17.7L32,33.9h2.5l1.6-5h5.3l1.7,5h2.6L40.2,17.7H37.5Zm1.3,2.7c0.2,0.7.4,1.5,0.6,2.3L40.9,27H36.7l1.5-4.3C38.4,21.9,38.6,21.2,38.8,20.4Z" fill="currentColor"/><path d="M52.9,21.9A4.41,4.41,0,0,0,49,23.8l-0.1-1.6H46.7v0.2c0.1,1,.1,2.1.1,3.7V38.6h2.4V32.8a4.37,4.37,0,0,0,3.3,1.4,5.23,5.23,0,0,0,3.7-1.6,6.55,6.55,0,0,0,1.6-4.7,6.73,6.73,0,0,0-1.4-4.3A4.27,4.27,0,0,0,52.9,21.9Zm-0.6,2c2.2,0,3.2,2,3.2,4,0,2.6-1.2,4.2-3.3,4.2a2.9,2.9,0,0,1-2.9-2.3,2,2,0,0,1-.1-0.8V27a1.27,1.27,0,0,1,.1-0.6V26.2A3.21,3.21,0,0,1,52.3,23.9Z" fill="currentColor"/><path d="M65.5,21.9a4.41,4.41,0,0,0-3.9,1.9l-0.1-1.6H59.3v0.2c0.1,1,.1,2.1.1,3.7V38.6h2.4V32.8a4.37,4.37,0,0,0,3.3,1.4,5.23,5.23,0,0,0,3.7-1.6,6.55,6.55,0,0,0,1.6-4.7A6.73,6.73,0,0,0,69,23.6,4.27,4.27,0,0,0,65.5,21.9Zm-0.6,2c2.2,0,3.2,2,3.2,4,0,2.6-1.2,4.2-3.3,4.2a2.9,2.9,0,0,1-2.9-2.3,2,2,0,0,1-.1-0.8V27a1.27,1.27,0,0,1,.1-0.6V26.2A3.21,3.21,0,0,1,64.9,23.9Z" fill="currentColor"/><path d="M81.3,24.6c-2.3-.9-3-1.6-3-2.9,0-1.1.9-2.2,2.8-2.2a6.75,6.75,0,0,1,2.9.7l0.2,0.1,0.7-2-0.1-.1a7.68,7.68,0,0,0-3.6-.8c-3.1,0-5.3,1.8-5.3,4.5,0,2.1,1.4,3.6,4.3,4.7,2.1,0.8,2.8,1.6,2.8,2.9C83,31,81.8,32,79.9,32a7.11,7.11,0,0,1-3.5-1l-0.3-.1L75.4,33l0.1,0.1a8.58,8.58,0,0,0,4.1,1.1c4.2,0,5.7-2.6,5.7-4.8S84.2,25.7,81.3,24.6Z" fill="currentColor"/><path d="M89.8,19.4l-2.4.8v2H85.6v2h1.8v6a5,5,0,0,0,.8,3.1,3.09,3.09,0,0,0,2.4.9,6.13,6.13,0,0,0,1.9-.3h0.1l-0.1-2H92.3a3.42,3.42,0,0,1-1.1.1c-0.9,0-1.4-.6-1.4-2V24.1h3v-2h-3V19.4Z" fill="currentColor"/>
      <path d="M98.8,21.9c-3.4,0-5.8,2.6-5.8,6.2s2.3,6,5.6,6h0c2.8,0,5.8-2,5.8-6.2a5.89,5.89,0,0,0-1.6-4.3A5,5,0,0,0,98.8,21.9Zm0,1.9c2.2,0,3.2,2.1,3.2,4.1,0,2.5-1.4,4.2-3.3,4.2h0c-1.9,0-3.2-1.8-3.2-4.2C95.5,26,96.5,23.8,98.8,23.8Z" fill="currentColor"/>
      <path d="M112,22h-0.1a1.27,1.27,0,0,0-.6-0.1,3.65,3.65,0,0,0-3.1,2l-0.1-1.7h-2.2v0.2c0.1,1,.1,2.1.1,3.5v8h2.4V27.7a2.48,2.48,0,0,1,.1-0.9,2.77,2.77,0,0,1,2.6-2.5h1V22H112Z" fill="currentColor"/><path d="M117.5,21.9c-3.3,0-5.5,2.6-5.5,6.3s2.3,5.9,5.8,5.9a10.84,10.84,0,0,0,3.9-.7l0.1-.1-0.5-1.8-0.2.1a7.6,7.6,0,0,1-3.1.5,3.45,3.45,0,0,1-3.7-3.5h7.9V28.4a2.79,2.79,0,0,0,.1-1C122.4,24.9,121.1,21.9,117.5,21.9Zm-0.2,1.9a2.27,2.27,0,0,1,1.8.7,3.38,3.38,0,0,1,.8,2.3h-5.6C114.6,25.3,115.5,23.8,117.3,23.8Z" fill="currentColor"/> </symbol>


</svg>
