<svg id="Layer_1" data-name="Layer 1" xmlns="http://www.w3.org/2000/svg" viewBox="0 0 27.34 27.96"><title>web-exclusives</title><path fill="#787878" d="M8.05,8.95a0.7,0.7,0,0,0,1-1L5.52,4.23a0.7,0.7,0,0,0-1,1Z" transform="translate(0 0)"/><path fill="#787878" d="M5.85,13.48a0.7,0.7,0,0,0,.06-1.39l-5.15-.48A0.7,0.7,0,1,0,.63,13l5.15,0.48H5.85Z" transform="translate(0 0)"/><path fill="#787878" d="M7.61,16.79a0.7,0.7,0,0,0-.94-0.31L2.05,18.79A0.7,0.7,0,1,0,2.68,20L7.3,17.72A0.7,0.7,0,0,0,7.61,16.79Z" transform="translate(0 0)"/><path fill="#787878" d="M9.92,20.66a0.7,0.7,0,0,0-1,.24L6.29,25.32a0.7,0.7,0,1,0,1.2.72l2.67-4.42A0.7,0.7,0,0,0,9.92,20.66Z" transform="translate(0 0)"/><path fill="#787878" d="M12.78,6.55h0.07a0.7,0.7,0,0,0,.63-0.76L13,0.64a0.7,0.7,0,0,0-1.39.13l0.48,5.15A0.7,0.7,0,0,0,12.78,6.55Z" transform="translate(0 0)"/><path fill="#787878" d="M16.79,7.61a0.7,0.7,0,0,0,.94-0.31L20,2.68a0.7,0.7,0,1,0-1.25-.63L16.47,6.68A0.7,0.7,0,0,0,16.79,7.61Z" transform="translate(0 0)"/><path fill="#787878" d="M21.25,10.26a0.7,0.7,0,0,0,.36-0.1L26,7.49a0.7,0.7,0,0,0-.72-1.2L20.89,9A0.7,0.7,0,0,0,21.25,10.26Z" transform="translate(0 0)"/><path fill="#787878" d="M27.13,26.77l-6.33-6.33,5.53-.65a0.7,0.7,0,0,0,.22-1.32l-15-7.25a0.7,0.7,0,0,0-.93.94l7.3,15a0.7,0.7,0,0,0,1.32-.23l0.58-5.44,6.31,6.31A0.7,0.7,0,1,0,27.13,26.77Z" transform="translate(0 0)"/></svg>
