<?xml version="1.0" encoding="utf-8"?>
<!-- Generator: Adobe Illustrator 18.1.1, SVG Export Plug-In . SVG Version: 6.00 Build 0)  -->
<svg version="1.1" id="Layer_1" xmlns="http://www.w3.org/2000/svg" xmlns:xlink="http://www.w3.org/1999/xlink" x="0px" y="0px"
	 width="24px" height="24px" viewBox="0 0 24 24" style="enable-background:new 0 0 24 24;" xml:space="preserve">
<g>
	<path class="icon-wishlist" fill="#3D3D3D" d="M12,23.7l-8.7-9.3c-0.1-0.1-3.2-3.6-3.2-7.1c0-3.4,2.4-7.1,6.9-7.1c2.5,0,4,1,4.9,1.9c0.9-0.9,2.5-1.9,4.9-1.9
		c4.5,0,6.9,3.6,6.9,7.1c0,3.4-3.1,6.9-3.2,7.1l0,0L12,23.7z M5,12.9l7,7.5l7-7.5c0.1-0.2,2.6-3,2.6-5.6c0-2.4-1.6-4.8-4.7-4.8
		c-2.9,0-3.9,2-3.9,2l-1,1.6l-1-1.6c0-0.1-1.1-2-3.9-2C4,2.5,2.4,5,2.4,7.4C2.4,9.9,4.8,12.7,5,12.9z"/>
</g>
</svg>
