<svg xmlns="http://www.w3.org/2000/svg" style="display:none;">
<!-- Fabric of Jack icons -->

<!-- FOJ Logo -->
<symbol id="fabricOfJackLogo" viewBox="0 0 134 34">
  <g fill="none" fill-rule="evenodd" transform="translate(-2 -13)">
    <rect width="138" height="60"/>
    <path fill="currentColor" fill-rule="nonzero" d="M7.57485232,28.4901695 L7.34021097,28.4901695 C7.21582278,28.040678 7.11405063,27.6027119 6.65324895,27.4038983 C6.16406697,27.2410411 5.64832541,27.1774141 5.13514768,27.2166102 C4.72523207,27.2166102 4.53016878,27.1964407 4.40578059,27.2684746 C4.3435865,27.3116949 4.32379747,27.4989831 4.32379747,27.8015254 L4.32379747,30.1440678 C5.73729958,30.2074576 5.93518987,29.6311864 5.99455696,28.8791525 L6.22919831,28.8791525 C6.22919831,29.3488136 6.20940928,29.83 6.18679325,30.299661 C6.16417722,30.769322 6.2178903,31.1640678 6.22919831,31.5962712 L5.99455696,31.5962712 C5.86168776,30.4955932 5.29628692,30.4754237 4.32379747,30.4754237 L4.32379747,31.7922034 C4.30505713,32.2547264 4.33921108,32.7179006 4.42556962,33.1723729 C4.57822785,33.5901695 5.0814346,33.5066102 5.44046414,33.5267797 L5.44046414,33.7659322 C4.91746835,33.7659322 4.38316456,33.7342373 3.86016878,33.7227119 C3.337173,33.7111864 2.82548523,33.7544068 2.27987342,33.7659322 L2.27987342,33.5267797 C2.60780591,33.5267797 3.02902954,33.5267797 3.16189873,33.1723729 C3.25058013,32.7104245 3.28568732,32.239454 3.26649789,31.7691525 L3.26649789,28.8330508 C3.28529372,28.3686162 3.25114119,27.9035274 3.16472574,27.4471186 C3.03185654,27.0927119 2.59932489,27.0927119 2.28270042,27.0927119 L2.28270042,26.8535593 C2.90746835,26.8535593 3.51244726,26.8852542 4.11742616,26.8967797 C5.2143038,26.8967797 6.31118143,26.8650847 7.40805907,26.8535593 L7.57485232,28.4901695 Z M53.2535865,28.8330508 C53.2726019,28.3676572 53.2384484,27.9015884 53.1518143,27.4442373 C53.0189451,27.0898305 52.5864135,27.0898305 52.269789,27.0898305 L52.269789,26.850678 C52.7616878,26.850678 53.2535865,26.8823729 53.7454852,26.8938983 C54.237384,26.9054237 54.7801688,26.8622034 55.2946835,26.850678 L55.2946835,27.0898305 C54.9667511,27.0898305 54.5455274,27.0898305 54.4126582,27.4442373 C54.3259733,27.9015815 54.2918194,28.3676563 54.3108861,28.8330508 L54.3108861,31.7691525 C54.2918194,32.2345471 54.3259733,32.7006219 54.4126582,33.1579661 C54.5455274,33.5123729 54.9780591,33.5123729 55.2946835,33.5123729 L55.2946835,33.7515254 C54.8140928,33.7515254 54.3108861,33.7198305 53.8189873,33.7083051 C53.3270886,33.6967797 52.7843038,33.74 52.269789,33.7515254 L52.269789,33.5267797 C52.5977215,33.5267797 53.0189451,33.5267797 53.1518143,33.1723729 C53.2384484,32.7150217 53.2726019,32.248953 53.2535865,31.7835593 L53.2535865,28.8330508 Z M68.0925316,26.8708475 L68.2451899,26.8708475 L68.327173,28.9310169 L68.0925316,28.9310169 C67.9172574,27.7784746 67.1172152,26.9544068 65.9298734,26.9544068 C64.0951477,26.9544068 63.5410549,28.8042373 63.5410549,30.3716949 C63.5410549,31.9391525 64.1347257,33.6333898 65.9496624,33.6333898 C67.3857806,33.6333898 67.9087764,32.5874576 68.2112658,31.3283051 L68.3950211,31.3283051 L68.3950211,33.6161017 L68.2621519,33.6161017 L68.0162025,33.0830508 C67.3794828,33.6132659 66.576453,33.8915452 65.7545992,33.8667797 C63.6739241,33.8667797 62.2575949,32.4981356 62.2575949,30.3659322 C62.2232356,29.3851027 62.5904526,28.4338536 63.2713548,27.7398605 C63.952257,27.0458674 64.8855624,26.6715903 65.8478903,26.7066102 C66.5912756,26.6929168 67.3197649,26.9199024 67.9285654,27.3549153 L68.0925316,26.8708475 Z M95.3250633,31.7950847 C95.3427116,32.3089757 95.2224892,32.8180389 94.9773418,33.2674576 C94.5476371,33.9272881 93.8917722,34.0944068 93.1624051,34.0944068 C92.6902954,34.0944068 91.5510127,34.0223729 91.5510127,33.3308475 C91.5500529,33.2184829 91.5947965,33.1107313 91.6746067,33.0332083 C91.7544168,32.9556853 91.8621649,32.9153151 91.9722363,32.9216949 C92.2379747,32.9216949 92.3821519,33.1320339 92.4839241,33.359661 C92.5574416,33.6785216 92.8510337,33.8927899 93.1708861,33.8610169 C93.6906223,33.912924 94.1534979,33.5262233 94.2055696,32.9966102 C94.2480672,32.7725616 94.2688983,32.5448043 94.2677637,32.3166102 L94.2677637,28.0550847 C94.2698477,27.8450339 94.2353909,27.6362689 94.1659916,27.4384746 C94.0218143,27.0840678 93.6005907,27.0840678 93.2839662,27.0840678 L93.2839662,26.8420339 C93.775865,26.8420339 94.2677637,26.8737288 94.7596624,26.8852542 C95.2515612,26.8967797 95.785865,26.8535593 96.3088608,26.8420339 L96.3088608,27.0811864 C95.9809283,27.0811864 95.5794937,27.0811864 95.4268354,27.4355932 C95.3356945,27.8122791 95.3013769,28.2009165 95.3250633,28.5881356 L95.3250633,31.7950847 Z M121.667089,27.0898305 L121.819747,27.0898305 L121.90173,29.15 L121.667089,29.15 C121.491814,27.9974576 120.691772,27.1733898 119.50443,27.1733898 C117.669705,27.1733898 117.115612,29.0232203 117.115612,30.590678 C117.115612,32.1581356 117.709283,33.8523729 119.524219,33.8523729 C120.960338,33.8523729 121.483333,32.8064407 121.785823,31.5472881 L121.969578,31.5472881 L121.969578,33.8437288 L121.836709,33.8437288 L121.590759,33.310678 C120.95404,33.840893 120.15101,34.1191724 119.329156,34.0944068 C117.245654,34.0944068 115.832152,32.7257627 115.832152,30.5935593 C115.797793,29.6127298 116.16501,28.6614807 116.845912,27.9674876 C117.526814,27.2734945 118.460119,26.8992174 119.422447,26.9342373 C120.165833,26.9205439 120.894322,27.1475295 121.503122,27.5825424 L121.667089,27.0898305 Z M130.784177,31.3772881 L130.784177,32.6105085 C130.784177,33.6045763 130.815274,33.6564407 131.799072,33.74 L131.799072,33.9791525 C131.295865,33.9791525 130.803966,33.9474576 130.300759,33.9359322 C129.797553,33.9244068 129.266076,33.9676271 128.74308,33.9791525 L128.74308,33.74 C129.071013,33.74 129.492236,33.74 129.625105,33.3855932 C129.711689,32.9282352 129.745842,32.4621725 129.726878,31.9967797 L129.726878,29.0462712 C129.745842,28.5808784 129.711689,28.1148157 129.625105,27.6574576 C129.492236,27.3030508 129.059705,27.3030508 128.74308,27.3030508 L128.74308,27.0638983 C129.234979,27.0638983 129.718397,27.0955932 130.210295,27.1071186 C130.702194,27.1186441 131.267595,27.0754237 131.799072,27.0638983 L131.799072,27.3030508 C130.815274,27.3866102 130.784177,27.45 130.784177,28.4325424 L130.784177,30.9825424 C131.276076,30.4610169 133.254979,28.3288136 133.254979,27.7208475 C133.254979,27.2828814 132.794177,27.3347458 132.486034,27.3030508 L132.486034,27.0638983 C132.895949,27.0638983 133.297384,27.0955932 133.7073,27.1071186 C134.066329,27.1071186 134.414051,27.0754237 134.77308,27.0638983 L134.77308,27.3030508 C134.207679,27.3030508 134.07481,27.45 133.738397,27.879322 L132.098734,29.9481356 L133.512236,31.619322 C133.636624,31.7749153 134.710886,33.2184746 135.194304,33.5728814 C135.373289,33.6920749 135.58624,33.7468433 135.799283,33.7284746 L135.799283,33.9676271 C135.256498,33.9676271 134.710886,33.9359322 134.168101,33.9244068 C133.625316,33.9128814 133.133418,33.9561017 132.610422,33.9676271 L132.610422,33.7284746 C132.794177,33.7284746 133.458523,33.7601695 133.458523,33.4144068 C133.458523,33.1954237 132.811139,32.420339 132.647173,32.2215254 L131.39481,30.6857627 L130.784177,31.3772881 Z M82.6233333,26.0698305 L82.3236709,26.0698305 L88.9388608,13 L89.1763291,13.1238983 L82.6233333,26.0698305 Z M78.7107595,33.9157627 L72.1662447,46.8645763 L71.9316034,46.740678 L78.4308861,33.8811864 L78.7107595,33.9157627 Z M83.5647257,29.0347458 L83.4375105,29.0347458 C83.3724895,28.7955932 83.3159494,28.559322 83.07,28.4584746 C82.8085903,28.3712527 82.5329645,28.3369936 82.2586498,28.3576271 C82.1280445,28.3398762 81.9952531,28.3496838 81.8685232,28.3864407 C81.8345992,28.4094915 81.8232911,28.510339 81.8232911,28.6745763 L81.8232911,29.9279661 C82.5752743,29.9625424 82.6713924,29.6542373 82.7166245,29.2508475 L82.8438397,29.2508475 C82.8438397,29.5015254 82.8438397,29.7608475 82.8212236,30.0115254 C82.7986076,30.2622034 82.8381857,30.4754237 82.8438397,30.7030508 L82.7166245,30.7030508 C82.6402954,30.1267797 82.3491139,30.1037288 81.8232911,30.1037288 L81.8232911,30.809661 C81.8131719,31.0568261 81.8311966,31.3043537 81.8770042,31.5472881 C81.9589873,31.7720339 82.2275527,31.7259322 82.419789,31.7374576 L82.419789,31.8671186 L81.5716878,31.8440678 L80.7235865,31.8671186 L80.7235865,31.7374576 C80.8988608,31.7374576 81.1250211,31.7374576 81.1956962,31.5472881 C81.2417383,31.3024414 81.2597631,31.0529781 81.2494093,30.8038983 L81.2494093,29.2191525 C81.2597886,28.9700723 81.2417636,28.7206061 81.1956962,28.4757627 C81.1250211,28.2855932 80.9129958,28.2855932 80.7235865,28.2855932 L80.7235865,28.1559322 L81.704557,28.1789831 L83.4657806,28.1559322 L83.5647257,29.0347458 Z M14.9985654,31.4983051 C14.8459072,31.8959322 14.5066667,32.6681356 14.5066667,33.0772881 C14.5066667,33.4864407 15.0268354,33.4979661 15.3349789,33.5267797 L15.3349789,33.7659322 C14.9561603,33.7659322 14.5858228,33.7342373 14.2041772,33.7227119 C13.8225316,33.7111864 13.4974262,33.7544068 13.1383966,33.7659322 L13.1383966,33.5267797 C13.5948189,33.5383512 14.0004121,33.2318716 14.1221941,32.7833898 C14.4048945,32.1149153 14.6875949,31.4550847 14.9702954,30.7866102 L16.5392827,26.6777966 L16.8870042,26.6777966 L18.9591983,31.9881356 C19.1057232,32.3867145 19.2844374,32.7722173 19.4935021,33.140678 C19.7196624,33.4432203 20.0278059,33.4864407 20.3755274,33.5267797 L20.3755274,33.7659322 C19.8949367,33.7659322 19.400211,33.7342373 18.9196203,33.7227119 C18.4390295,33.7111864 17.9245148,33.7544068 17.432616,33.7659322 L17.432616,33.5267797 C17.7153165,33.5267797 18.2213502,33.5267797 18.2213502,33.1291525 C18.1988758,32.8473061 18.1290705,32.5714882 18.0149789,32.3137288 L17.6135443,31.2361017 L15.0692405,31.2361017 L14.9985654,31.4983051 Z M17.4891561,30.9047458 L16.3583544,27.9571186 L15.2218987,30.9047458 L17.4891561,30.9047458 Z M45.0326582,32.9216949 C45.2589898,33.2721909 45.6291984,33.4990106 46.0390717,33.5383051 L46.0390717,33.7774576 C45.7309283,33.7774576 45.4227848,33.7457627 45.1174684,33.7342373 C44.860211,33.7342373 44.6057806,33.7659322 44.3485232,33.7774576 L43.8651055,33.1723729 L42.168903,31.02 C41.8296624,30.6223729 41.8720675,30.5589831 41.3208017,30.5589831 L41.3208017,31.7691525 C41.3042058,32.234141 41.3354736,32.6996218 41.4140928,33.1579661 C41.538481,33.5238983 41.9568776,33.5123729 42.2848101,33.5123729 L42.2848101,33.7515254 C41.8127004,33.7515254 41.3321097,33.7198305 40.840211,33.7083051 C40.3483122,33.6967797 39.8140084,33.74 39.3023207,33.7515254 L39.3023207,33.5267797 C39.6302532,33.5267797 40.0599578,33.5267797 40.173038,33.1723729 C40.2516572,32.7140286 40.282925,32.2485478 40.2663291,31.7835593 L40.2663291,28.8330508 C40.282925,28.3680624 40.2516572,27.9025816 40.173038,27.4442373 C40.0599578,27.0783051 39.6302532,27.0898305 39.3023207,27.0898305 L39.3023207,26.850678 C39.8875105,26.850678 40.4811814,26.8823729 41.0663713,26.8938983 C41.4960759,26.8938983 41.9370886,26.8622034 42.3696203,26.850678 C43.54,26.850678 44.7188608,27.1215254 44.7188608,28.5794915 C44.7188608,29.7089831 43.8707595,30.2823729 42.861519,30.3774576 L45.0326582,32.9216949 Z M41.3208017,30.2766102 C42.6014346,30.2766102 43.537173,30.2449153 43.537173,28.729322 C43.537173,27.8101695 43.0254852,27.1618644 42.1010549,27.1618644 C41.8791521,27.140624 41.6557846,27.140624 41.4338819,27.1618644 C41.3010127,27.2252542 41.3208017,27.4240678 41.3208017,27.539322 L41.3208017,30.2766102 Z M104.306456,31.7115254 C104.153797,32.1091525 103.814557,32.8813559 103.814557,33.2905085 C103.814557,33.699661 104.337553,33.7083051 104.645696,33.74 L104.645696,33.9791525 C104.266878,33.9791525 103.89654,33.9474576 103.514895,33.9359322 C103.133249,33.9244068 102.808143,33.9676271 102.449114,33.9791525 L102.449114,33.74 C102.905536,33.7515715 103.311129,33.445092 103.432911,32.9966102 C103.715612,32.3281356 103.998312,31.6683051 104.281013,30.9998305 L105.85,26.8910169 L106.197722,26.8910169 L108.269916,32.2013559 C108.416441,32.5999348 108.595155,32.9854376 108.804219,33.3538983 C109.03038,33.6564407 109.338523,33.699661 109.686245,33.74 L109.686245,33.9791525 C109.202827,33.9791525 108.710928,33.9474576 108.230338,33.9359322 C107.749747,33.9244068 107.235232,33.9676271 106.743333,33.9791525 L106.743333,33.74 C107.026034,33.74 107.532068,33.74 107.532068,33.3423729 C107.509593,33.0605264 107.439788,32.7847085 107.325696,32.5269492 L106.927089,31.449322 L104.382785,31.449322 L104.306456,31.7115254 Z M106.785738,31.1150847 L105.654937,28.1674576 L104.524135,31.1150847 L106.785738,31.1150847 Z M75.8413502,30.0201695 C75.876716,28.9217463 76.7763152,28.058938 77.8541772,28.089661 C78.555604,28.0461129 79.2224479,28.4043245 79.5836639,29.0186971 C79.94488,29.6330698 79.9403425,30.4013393 79.571896,31.0112353 C79.2034494,31.6211313 78.5324227,31.9711346 77.8315612,31.9189831 C76.7657806,31.9189831 75.8413502,31.1438983 75.8413502,30.0201695 Z M76.5283122,30.0201695 C76.5283122,30.8845763 76.8675527,31.7691525 77.8683122,31.7691525 C78.8690717,31.7691525 79.1404641,30.8355932 79.1404641,30.0028814 C79.1404641,29.1701695 78.8012236,28.2423729 77.8343882,28.2423729 C76.8675527,28.2423729 76.5367932,29.190339 76.5367932,30.0201695 L76.5283122,30.0201695 Z M27.5476371,28.8330508 C27.5642331,28.3680624 27.5329652,27.9025816 27.454346,27.4442373 C27.3412658,27.0783051 26.9115612,27.0898305 26.5836287,27.0898305 L26.5836287,26.850678 C27.0755274,26.850678 27.5589451,26.8823729 28.0508439,26.8938983 C28.4607595,26.8938983 28.8621941,26.8622034 29.2721097,26.850678 C30.3491983,26.8189831 31.7937975,27.1013559 31.7937975,28.4930508 C31.7937975,29.4438983 31.0361603,29.8530508 30.2559072,30.0922034 L30.2559072,30.1123729 C30.7830859,30.1229613 31.298855,30.2707483 31.7542194,30.5416949 C32.2783224,30.8655018 32.580576,31.4610013 32.5370798,32.0840848 C32.4935836,32.7071684 32.1116523,33.2530521 31.5478481,33.4979661 C30.9824473,33.7861017 30.2559072,33.7688136 29.6622363,33.7688136 C29.2099156,33.7688136 28.768903,33.7371186 28.3194093,33.7255932 C27.7540084,33.7255932 27.1603376,33.7572881 26.5864557,33.7688136 L26.5864557,33.5267797 C26.9143882,33.5267797 27.3440928,33.5267797 27.457173,33.1723729 C27.5357922,32.7140286 27.5670601,32.2485478 27.5504641,31.7835593 L27.5476371,28.8330508 Z M28.6049367,29.9855932 L28.9328692,29.9855932 C29.3521931,30.0353263 29.7766412,29.9592193 30.154135,29.7666102 C30.5838397,29.4784746 30.6771308,29.0347458 30.6771308,28.5333898 C30.6771308,27.6027119 30.1852321,27.1445763 29.2636287,27.1445763 C29.0605615,27.1231253 28.8553482,27.1407181 28.6586498,27.1964407 C28.5879747,27.2598305 28.5964557,27.5508475 28.5964557,27.6344068 L28.6049367,29.9855932 Z M28.6049367,31.7144068 C28.5832763,32.1571649 28.6251813,32.6007736 28.7293249,33.0311864 C28.9017722,33.4979661 29.4134599,33.4979661 29.8035865,33.4979661 C30.807173,33.4979661 31.2594937,32.8928814 31.2594937,31.8988136 C31.3065994,31.3274741 31.0168264,30.7820491 30.5216456,30.51 C30.0495359,30.259322 29.444557,30.2910169 28.9215612,30.2910169 L28.6049367,30.2910169 L28.6049367,31.7144068 Z"/>
  </g>
</symbol>



<!-- Athleisure Box Logo -->
<symbol id="athleisureBoxLogo" viewBox="0 0 134 56">
  <g fill="none" fill-rule="evenodd" transform="translate(-2 -2)">
    <rect width="138" height="60"/>
    <path fill="currentColor" fill-rule="nonzero" d="M103.601102,40.1891237 C103.781189,40.9443736 104.452159,41.3681207 105.294502,41.3681207 C106.136845,41.3681207 106.81072,40.9011341 106.81072,40.0997621 C106.81072,39.5001744 106.482497,39.1283147 105.727292,38.9207652 L104.957565,38.6988024 C104.396971,38.5431402 104.086176,38.3730649 104.086176,37.8916651 C104.086176,37.3353169 104.571249,37.0268752 105.169603,37.0268752 C105.717292,36.979883 106.226223,37.311042 106.401167,37.8282472 L106.781674,37.8282472 C106.601586,37.153711 106.06423,36.6751939 105.169603,36.6751939 C104.376639,36.6751939 103.717287,37.1335326 103.717287,37.9060783 C103.717287,38.5517881 104.12684,38.8400514 104.768764,39.0187747 L105.640153,39.2637985 C106.22108,39.425226 106.433118,39.707724 106.433118,40.10841 C106.433118,40.6849366 105.948044,41.0193221 105.288693,41.0193221 C104.714205,41.0646398 104.18105,40.720181 103.990323,40.1804758 L103.601102,40.1891237 Z M97.7918394,41.3018201 L97.7860301,36.7616729 L99.1831578,36.7616729 C100.510574,36.7616729 101.413915,37.640876 101.413915,39.0274226 C101.413915,40.4139691 100.519288,41.3018201 99.1889671,41.3018201 L97.7918394,41.3018201 Z M98.1723461,40.9530215 L99.1889671,40.9530215 C100.318869,40.9530215 101.027599,40.1891237 101.027599,39.02454 C101.027599,37.8599562 100.315964,37.0960584 99.1889671,37.0960584 L98.1723461,37.0960584 L98.1723461,40.9530215 Z M95.2009082,39.02454 C95.2009082,40.4168518 94.3295187,41.3652381 93.1676662,41.3652381 C92.0058136,41.3652381 91.1344242,40.4168518 91.1344242,39.02454 C91.1344242,37.6322281 92.0058136,36.6838418 93.1676662,36.6838418 C94.3295187,36.6838418 95.2009082,37.6293455 95.2009082,39.02454 Z M94.8145922,39.02454 C94.8145922,37.8541909 94.1407177,37.0384057 93.1705708,37.0384057 C92.2004239,37.0384057 91.5352633,37.8541909 91.5352633,39.02454 C91.5352633,40.194889 92.19171,41.0106742 93.1705708,41.0106742 C94.1494316,41.0106742 94.8145922,40.194889 94.8145922,39.02454 Z M88.8165283,39.02454 C88.8165283,40.4168518 87.9451389,41.3652381 86.7832863,41.3652381 C85.6214338,41.3652381 84.7500443,40.4168518 84.7500443,39.02454 C84.7500443,37.6322281 85.6214338,36.6838418 86.7832863,36.6838418 C87.9451389,36.6838418 88.8165283,37.6293455 88.8165283,39.02454 Z M88.4302123,39.02454 C88.4302123,37.8541909 87.7563378,37.0384057 86.786191,37.0384057 C85.8160441,37.0384057 85.1508835,37.8541909 85.1508835,39.02454 C85.1508835,40.194889 85.8073302,41.0106742 86.786191,41.0106742 C87.7650517,41.0106742 88.4302123,40.194889 88.4302123,39.02454 Z M82.0719742,39.5001744 C82.034214,40.4572086 81.5113803,41.0193221 80.599326,41.0193221 C79.6291792,41.0193221 78.9320676,40.2554243 78.9320676,39.0274226 C78.9320676,37.7994209 79.6349884,37.0384057 80.5906121,37.0384057 C81.2064523,37.0061215 81.7635854,37.3990126 81.9354565,37.986792 L82.3159632,37.986792 C82.1394678,37.1920732 81.409467,36.6407914 80.5906121,36.6838418 C79.4549013,36.6838418 78.5573702,37.5803408 78.5573702,39.0274226 C78.5573702,40.4745044 79.4607105,41.3681207 80.6109446,41.3681207 C81.7611786,41.3681207 82.4466716,40.5984576 82.4466716,39.4338739 L82.4466716,39.1686716 L80.8868846,39.1686716 L80.8868846,39.5030571 L82.0719742,39.5001744 Z M72.5825433,39.5001744 C72.5447831,40.4572086 72.0219495,41.0193221 71.1098952,41.0193221 C70.1397483,41.0193221 69.4426368,40.2554243 69.4426368,39.0274226 C69.4426368,37.7994209 70.1455576,37.0384057 71.1011813,37.0384057 C71.7170215,37.0061215 72.2741546,37.3990126 72.4460257,37.986792 L72.8265324,37.986792 C72.6500369,37.1920732 71.9200361,36.6407914 71.1011813,36.6838418 C69.9654704,36.6838418 69.0679393,37.5803408 69.0679393,39.0274226 C69.0679393,40.4745044 69.9712797,41.3681207 71.1215137,41.3681207 C72.2717478,41.3681207 72.9572408,40.5984576 72.9572408,39.4338739 L72.9572408,39.1686716 L71.3974537,39.1686716 L71.3974537,39.5030571 L72.5825433,39.5001744 Z M66.4479618,36.7616729 L66.0819782,36.7616729 L66.0819782,40.5552181 L63.3922896,36.7616729 L63.026306,36.7616729 L63.026306,41.3133507 L63.3922896,41.3133507 L63.3922896,37.3381996 L66.1923542,41.287407 L66.4450572,41.287407 L66.4479618,36.7616729 Z M60.1652441,36.7616729 L59.7847373,36.7616729 L59.7847373,41.310468 L60.1652441,41.310468 L60.1652441,36.7616729 Z M53.6036817,37.1104716 L55.2767494,37.1104716 L55.2767494,41.3133507 L55.6572561,41.3133507 L55.6572561,37.0960584 L57.3390377,37.0960584 L57.3390377,36.7616729 L53.6182048,36.7616729 L53.6036817,37.1104716 Z M49.7840914,39.3128033 L48.6716175,39.3214512 L48.6716175,41.3392944 L48.2911108,41.3392944 L48.2911108,36.7876166 L49.9118952,36.7876166 C50.8210448,36.7876166 51.3642109,37.2315421 51.3642109,38.0617405 C51.3642109,38.8025772 50.9256115,39.2234416 50.2023583,39.3128033 L51.5849629,41.3306465 L51.1434589,41.3306465 L49.7840914,39.3128033 Z M48.6861407,37.1104716 L48.6861407,38.9784178 L49.9118952,38.9784178 C50.614816,38.9784178 50.9953227,38.6440324 50.9953227,38.0444447 C50.9953227,37.444857 50.614816,37.1104716 49.9118952,37.1104716 L48.6861407,37.1104716 Z M45.7292259,39.0360705 C45.7292259,40.4283823 44.8578365,41.3767686 43.6959839,41.3767686 C42.5341314,41.3767686 41.6627419,40.4283823 41.6627419,39.0360705 C41.6627419,37.6437587 42.5341314,36.6953724 43.6959839,36.6953724 C44.8578365,36.6953724 45.7292259,37.640876 45.7292259,39.0360705 Z M45.3516238,39.02454 L45.3429099,39.0360705 C45.3429099,37.8657214 44.6603216,37.0499363 43.6988886,37.0499363 C42.7374556,37.0499363 42.072295,37.8541909 42.072295,39.02454 C42.072295,40.194889 42.7287417,41.0106742 43.7076025,41.0106742 C44.6864632,41.0106742 45.3516238,40.194889 45.3516238,39.02454 Z M37.950623,39.3445122 L36.6754898,39.3473949 L36.6754898,41.310468 L36.2949831,41.310468 L36.2949831,36.7587903 L37.950623,36.7587903 C38.8510587,36.7587903 39.4029387,37.1940679 39.4029387,38.0473273 C39.4029387,38.9005867 38.8481541,39.3445122 37.950623,39.3445122 Z M39.0195274,38.05021 L39.0195274,38.0473273 C39.0195274,37.4535049 38.6448299,37.098941 37.9360998,37.098941 L36.6725852,37.098941 L36.6725852,38.9985963 L37.9360998,38.9985963 C38.6448299,38.9985963 39.0195274,38.6497976 39.0195274,38.05021 Z M30.4711971,40.2093022 C30.6512843,40.964552 31.3222541,41.3882991 32.1675019,41.3882991 C33.0127496,41.3882991 33.6837195,40.9213126 33.6837195,40.1199405 C33.6837195,39.5203528 33.3554961,39.1484932 32.6002919,38.9409436 L31.8305646,38.7189808 C31.2699708,38.5633186 30.9591752,38.3932433 30.9591752,37.9118436 C30.9591752,37.3554954 31.4442486,37.0470536 32.0426027,37.0470536 C32.5902913,37.0000614 33.0992227,37.3312204 33.2741664,37.8484256 L33.6546731,37.8484256 C33.474586,37.1738895 32.9372292,36.6953724 32.0426027,36.6953724 C31.2496383,36.6953724 30.590287,37.153711 30.590287,37.9262567 C30.590287,38.5719665 30.99984,38.8602299 31.6417636,39.0389531 L32.513153,39.2839769 C33.0940793,39.4454044 33.3061174,39.7279024 33.3061174,40.1285884 C33.3061174,40.7051151 32.8210439,41.0395005 32.1616926,41.0395005 C31.5861678,41.0861835 31.0514204,40.741467 30.8604177,40.2006543 L30.4711971,40.2093022 Z"/>
    <path fill="currentColor" fill-rule="nonzero" d="M2,2 L135.281917,2 L135.281917,57.3292603 L2,57.3292603 L2,2 Z M133.202201,55.2768256 L133.202201,4.05243479 L4.07971609,4.05243479 L4.07971609,55.2768256 L133.202201,55.2768256 Z M25.6378904,18.0245576 L26.6138466,18.0245576 L30.9707937,27.6986744 L29.550429,27.6986744 L28.257868,24.8477502 L24.1100543,24.8477502 L22.898823,27.6986744 L21.472649,27.6986744 L25.6378904,18.0245576 Z M27.6740371,23.631279 L26.1113454,20.1461756 L24.6590297,23.631279 L27.6740371,23.631279 Z M55.5178338,18.0850929 L57.2518987,18.0850929 L53.0488971,22.6511838 L58.2859475,27.7044396 L56.3921278,27.7044396 L51.4368267,22.9538602 L51.4368267,27.7044396 L50.0513175,27.7044396 L50.0513175,18.0850929 L51.4368267,18.0850929 L51.4368267,22.4868737 L55.5178338,18.0850929 Z M82.3972929,18.0850929 L83.7828021,18.0850929 L79.8644543,27.7476791 L79.5565634,27.7476791 L76.3905151,19.9242128 L73.1867067,27.7476791 L72.8904343,27.7476791 L68.983705,18.0850929 L70.3808327,18.0850929 L73.0530936,24.7180317 L75.7427823,18.0850929 L77.0527711,18.0850929 L79.7540783,24.7180317 L82.3972929,18.0850929 Z M89.1331331,18.0879755 L90.521547,18.0879755 L90.521547,27.7073223 L89.1331331,27.7073223 L89.1331331,18.0879755 Z M96.9349731,18.0850929 L98.3233869,18.0850929 L98.3233869,26.4533769 L102.686143,26.4533769 L102.686143,27.7044396 L96.9349731,27.7044396 L96.9349731,18.0850929 Z M108.164278,18.0850929 L109.552692,18.0850929 L109.552692,26.4533769 L113.915448,26.4533769 L113.915448,27.7044396 L108.164278,27.7044396 L108.164278,18.0850929 Z M121.792809,23.6774012 L120.738428,23.0432219 C120.195195,22.7424839 119.715813,22.340151 119.326777,21.8584596 C119.046655,21.4674646 118.900073,20.9977134 118.90851,20.5180352 C118.884205,19.8168237 119.174662,19.1410559 119.701474,18.67315 C120.27397,18.1847592 121.012455,17.9311846 121.766667,17.9640223 C122.561428,17.9596743 123.338622,18.195994 123.994519,18.6414411 L123.994519,20.2038282 C123.408155,19.5864321 122.598012,19.2264443 121.74343,19.2035545 C121.346826,19.1869437 120.95518,19.2959759 120.625147,19.5148789 C120.352616,19.6902608 120.188509,19.9910172 120.189452,20.3133683 C120.193864,20.6133466 120.308518,20.9013985 120.511866,21.1233882 C120.811239,21.4412184 121.160429,21.7089148 121.545915,21.9161123 L122.614819,22.5387611 C123.797973,23.2402018 124.389549,24.1318963 124.389549,25.2138446 C124.415274,25.9230033 124.130307,26.6084721 123.608203,27.0933214 C123.052074,27.5894291 122.322029,27.8492196 121.574961,27.8168623 C120.631146,27.8236767 119.711725,27.5195241 118.960793,26.9520724 L118.960793,25.1907835 C119.710188,26.1324437 120.581577,26.6032738 121.574961,26.6032738 C121.969002,26.6170613 122.354794,26.4890965 122.661294,26.2429446 C122.939355,26.0255587 123.099384,25.6919358 123.094084,25.3406805 C123.094084,24.7641538 122.668071,24.2087665 121.816046,23.6745185 L121.792809,23.6774012 Z M14.7716643,18.1225671 L16.0961762,18.1225671 L16.0961762,24.9428771 C16.1283944,25.5791432 16.0397132,26.2157456 15.8347594,26.8194713 C15.6618301,27.2234976 15.3664008,27.5640436 14.9895117,27.7938013 C14.5658829,28.0468991 14.0779376,28.1739647 13.5836701,28.1598957 C13.4397317,28.1543661 13.2962147,28.1408929 13.1537846,28.1195388 L12.9097956,26.8973024 L13.2467328,26.8973024 C13.5436986,26.9112377 13.8403628,26.8641309 14.1181223,26.758936 C14.328842,26.6560279 14.4971617,26.4838902 14.5944818,26.271771 C14.7106671,26.0392386 14.7687597,25.5463083 14.7687597,24.7929802 L14.7716643,18.1225671 Z M44.0677768,25.4761642 L44.0677768,26.9924293 C42.9825429,27.5623134 41.7691195,27.8489884 40.5415542,27.8255102 C39.5823012,27.8557479 38.6321305,27.6329353 37.7879636,27.1798004 C37.040893,26.755289 36.4228272,26.1389168 35.9987107,25.3954505 C35.5598738,24.6454771 35.3321511,23.7922598 35.3393594,22.9250339 C35.3133052,21.5882347 35.8626944,20.3038024 36.8497677,19.3938083 C37.8466757,18.4382282 39.1879311,17.9190795 40.5735052,17.9524918 C41.7465442,17.9879273 42.9003679,18.2575321 43.9661147,18.7452159 L43.9661147,20.2240067 C42.9629561,19.618911 41.8168478,19.2868297 40.6432163,19.2612072 C39.6180408,19.2285664 38.622317,19.6043249 37.8780072,20.3047204 C37.1769816,20.9927336 36.7808048,21.9294205 36.7769897,22.9078729 C36.7731747,23.8863254 37.1620353,24.826027 37.8576748,25.5194037 C38.6074701,26.2104687 39.6032241,26.5775487 40.6257885,26.5398559 C41.8544039,26.5233515 43.0511482,26.1495077 44.0677768,25.4646337 L44.0677768,25.4761642 Z"/>
  </g>
</symbol>

<!-- Athleisure No Box Logo -->
<symbol id="athleisureNoboxLogo" viewBox="0 0 113 25">
  <g fill="none" fill-rule="evenodd" transform="translate(-12 -17)">
    <rect width="138" height="60"/>
    <path fill="currentColor" fill-rule="nonzero" d="M103.601102 40.1891237C103.781189 40.9443736 104.452159 41.3681207 105.294502 41.3681207 106.136845 41.3681207 106.81072 40.9011341 106.81072 40.0997621 106.81072 39.5001744 106.482497 39.1283147 105.727292 38.9207652L104.957565 38.6988024C104.396971 38.5431402 104.086176 38.3730649 104.086176 37.8916651 104.086176 37.3353169 104.571249 37.0268752 105.169603 37.0268752 105.717292 36.979883 106.226223 37.311042 106.401167 37.8282472L106.781674 37.8282472C106.601586 37.153711 106.06423 36.6751939 105.169603 36.6751939 104.376639 36.6751939 103.717287 37.1335326 103.717287 37.9060783 103.717287 38.5517881 104.12684 38.8400514 104.768764 39.0187747L105.640153 39.2637985C106.22108 39.425226 106.433118 39.707724 106.433118 40.10841 106.433118 40.6849366 105.948044 41.0193221 105.288693 41.0193221 104.714205 41.0646398 104.18105 40.720181 103.990323 40.1804758L103.601102 40.1891237zM97.7918394 41.3018201L97.7860301 36.7616729 99.1831578 36.7616729C100.510574 36.7616729 101.413915 37.640876 101.413915 39.0274226 101.413915 40.4139691 100.519288 41.3018201 99.1889671 41.3018201L97.7918394 41.3018201zM98.1723461 40.9530215L99.1889671 40.9530215C100.318869 40.9530215 101.027599 40.1891237 101.027599 39.02454 101.027599 37.8599562 100.315964 37.0960584 99.1889671 37.0960584L98.1723461 37.0960584 98.1723461 40.9530215zM95.2009082 39.02454C95.2009082 40.4168518 94.3295187 41.3652381 93.1676662 41.3652381 92.0058136 41.3652381 91.1344242 40.4168518 91.1344242 39.02454 91.1344242 37.6322281 92.0058136 36.6838418 93.1676662 36.6838418 94.3295187 36.6838418 95.2009082 37.6293455 95.2009082 39.02454zM94.8145922 39.02454C94.8145922 37.8541909 94.1407177 37.0384057 93.1705708 37.0384057 92.2004239 37.0384057 91.5352633 37.8541909 91.5352633 39.02454 91.5352633 40.194889 92.19171 41.0106742 93.1705708 41.0106742 94.1494316 41.0106742 94.8145922 40.194889 94.8145922 39.02454zM88.8165283 39.02454C88.8165283 40.4168518 87.9451389 41.3652381 86.7832863 41.3652381 85.6214338 41.3652381 84.7500443 40.4168518 84.7500443 39.02454 84.7500443 37.6322281 85.6214338 36.6838418 86.7832863 36.6838418 87.9451389 36.6838418 88.8165283 37.6293455 88.8165283 39.02454zM88.4302123 39.02454C88.4302123 37.8541909 87.7563378 37.0384057 86.786191 37.0384057 85.8160441 37.0384057 85.1508835 37.8541909 85.1508835 39.02454 85.1508835 40.194889 85.8073302 41.0106742 86.786191 41.0106742 87.7650517 41.0106742 88.4302123 40.194889 88.4302123 39.02454zM82.0719742 39.5001744C82.034214 40.4572086 81.5113803 41.0193221 80.599326 41.0193221 79.6291792 41.0193221 78.9320676 40.2554243 78.9320676 39.0274226 78.9320676 37.7994209 79.6349884 37.0384057 80.5906121 37.0384057 81.2064523 37.0061215 81.7635854 37.3990126 81.9354565 37.986792L82.3159632 37.986792C82.1394678 37.1920732 81.409467 36.6407914 80.5906121 36.6838418 79.4549013 36.6838418 78.5573702 37.5803408 78.5573702 39.0274226 78.5573702 40.4745044 79.4607105 41.3681207 80.6109446 41.3681207 81.7611786 41.3681207 82.4466716 40.5984576 82.4466716 39.4338739L82.4466716 39.1686716 80.8868846 39.1686716 80.8868846 39.5030571 82.0719742 39.5001744zM72.5825433 39.5001744C72.5447831 40.4572086 72.0219495 41.0193221 71.1098952 41.0193221 70.1397483 41.0193221 69.4426368 40.2554243 69.4426368 39.0274226 69.4426368 37.7994209 70.1455576 37.0384057 71.1011813 37.0384057 71.7170215 37.0061215 72.2741546 37.3990126 72.4460257 37.986792L72.8265324 37.986792C72.6500369 37.1920732 71.9200361 36.6407914 71.1011813 36.6838418 69.9654704 36.6838418 69.0679393 37.5803408 69.0679393 39.0274226 69.0679393 40.4745044 69.9712797 41.3681207 71.1215137 41.3681207 72.2717478 41.3681207 72.9572408 40.5984576 72.9572408 39.4338739L72.9572408 39.1686716 71.3974537 39.1686716 71.3974537 39.5030571 72.5825433 39.5001744zM66.4479618 36.7616729L66.0819782 36.7616729 66.0819782 40.5552181 63.3922896 36.7616729 63.026306 36.7616729 63.026306 41.3133507 63.3922896 41.3133507 63.3922896 37.3381996 66.1923542 41.287407 66.4450572 41.287407 66.4479618 36.7616729zM60.1652441 36.7616729L59.7847373 36.7616729 59.7847373 41.310468 60.1652441 41.310468 60.1652441 36.7616729zM53.6036817 37.1104716L55.2767494 37.1104716 55.2767494 41.3133507 55.6572561 41.3133507 55.6572561 37.0960584 57.3390377 37.0960584 57.3390377 36.7616729 53.6182048 36.7616729 53.6036817 37.1104716zM49.7840914 39.3128033L48.6716175 39.3214512 48.6716175 41.3392944 48.2911108 41.3392944 48.2911108 36.7876166 49.9118952 36.7876166C50.8210448 36.7876166 51.3642109 37.2315421 51.3642109 38.0617405 51.3642109 38.8025772 50.9256115 39.2234416 50.2023583 39.3128033L51.5849629 41.3306465 51.1434589 41.3306465 49.7840914 39.3128033zM48.6861407 37.1104716L48.6861407 38.9784178 49.9118952 38.9784178C50.614816 38.9784178 50.9953227 38.6440324 50.9953227 38.0444447 50.9953227 37.444857 50.614816 37.1104716 49.9118952 37.1104716L48.6861407 37.1104716zM45.7292259 39.0360705C45.7292259 40.4283823 44.8578365 41.3767686 43.6959839 41.3767686 42.5341314 41.3767686 41.6627419 40.4283823 41.6627419 39.0360705 41.6627419 37.6437587 42.5341314 36.6953724 43.6959839 36.6953724 44.8578365 36.6953724 45.7292259 37.640876 45.7292259 39.0360705zM45.3516238 39.02454L45.3429099 39.0360705C45.3429099 37.8657214 44.6603216 37.0499363 43.6988886 37.0499363 42.7374556 37.0499363 42.072295 37.8541909 42.072295 39.02454 42.072295 40.194889 42.7287417 41.0106742 43.7076025 41.0106742 44.6864632 41.0106742 45.3516238 40.194889 45.3516238 39.02454zM37.950623 39.3445122L36.6754898 39.3473949 36.6754898 41.310468 36.2949831 41.310468 36.2949831 36.7587903 37.950623 36.7587903C38.8510587 36.7587903 39.4029387 37.1940679 39.4029387 38.0473273 39.4029387 38.9005867 38.8481541 39.3445122 37.950623 39.3445122zM39.0195274 38.05021L39.0195274 38.0473273C39.0195274 37.4535049 38.6448299 37.098941 37.9360998 37.098941L36.6725852 37.098941 36.6725852 38.9985963 37.9360998 38.9985963C38.6448299 38.9985963 39.0195274 38.6497976 39.0195274 38.05021zM30.4711971 40.2093022C30.6512843 40.964552 31.3222541 41.3882991 32.1675019 41.3882991 33.0127496 41.3882991 33.6837195 40.9213126 33.6837195 40.1199405 33.6837195 39.5203528 33.3554961 39.1484932 32.6002919 38.9409436L31.8305646 38.7189808C31.2699708 38.5633186 30.9591752 38.3932433 30.9591752 37.9118436 30.9591752 37.3554954 31.4442486 37.0470536 32.0426027 37.0470536 32.5902913 37.0000614 33.0992227 37.3312204 33.2741664 37.8484256L33.6546731 37.8484256C33.474586 37.1738895 32.9372292 36.6953724 32.0426027 36.6953724 31.2496383 36.6953724 30.590287 37.153711 30.590287 37.9262567 30.590287 38.5719665 30.99984 38.8602299 31.6417636 39.0389531L32.513153 39.2839769C33.0940793 39.4454044 33.3061174 39.7279024 33.3061174 40.1285884 33.3061174 40.7051151 32.8210439 41.0395005 32.1616926 41.0395005 31.5861678 41.0861835 31.0514204 40.741467 30.8604177 40.2006543L30.4711971 40.2093022zM25.6378904 18.0245576L26.6138466 18.0245576 30.9707937 27.6986744 29.550429 27.6986744 28.257868 24.8477502 24.1100543 24.8477502 22.898823 27.6986744 21.472649 27.6986744 25.6378904 18.0245576zM27.6740371 23.631279L26.1113454 20.1461756 24.6590297 23.631279 27.6740371 23.631279zM55.5178338 18.0850929L57.2518987 18.0850929 53.0488971 22.6511838 58.2859475 27.7044396 56.3921278 27.7044396 51.4368267 22.9538602 51.4368267 27.7044396 50.0513175 27.7044396 50.0513175 18.0850929 51.4368267 18.0850929 51.4368267 22.4868737 55.5178338 18.0850929zM82.3972929 18.0850929L83.7828021 18.0850929 79.8644543 27.7476791 79.5565634 27.7476791 76.3905151 19.9242128 73.1867067 27.7476791 72.8904343 27.7476791 68.983705 18.0850929 70.3808327 18.0850929 73.0530936 24.7180317 75.7427823 18.0850929 77.0527711 18.0850929 79.7540783 24.7180317 82.3972929 18.0850929zM89.1331331 18.0879755L90.521547 18.0879755 90.521547 27.7073223 89.1331331 27.7073223 89.1331331 18.0879755zM96.9349731 18.0850929L98.3233869 18.0850929 98.3233869 26.4533769 102.686143 26.4533769 102.686143 27.7044396 96.9349731 27.7044396 96.9349731 18.0850929zM108.164278 18.0850929L109.552692 18.0850929 109.552692 26.4533769 113.915448 26.4533769 113.915448 27.7044396 108.164278 27.7044396 108.164278 18.0850929zM121.792809 23.6774012L120.738428 23.0432219C120.195195 22.7424839 119.715813 22.340151 119.326777 21.8584597 119.046655 21.4674646 118.900073 20.9977134 118.90851 20.5180352 118.884205 19.8168237 119.174662 19.1410559 119.701474 18.67315 120.27397 18.1847592 121.012455 17.9311846 121.766667 17.9640223 122.561428 17.9596743 123.338622 18.195994 123.994519 18.6414411L123.994519 20.2038282C123.408155 19.5864321 122.598012 19.2264443 121.74343 19.2035545 121.346826 19.1869437 120.95518 19.2959759 120.625147 19.5148789 120.352616 19.6902608 120.188509 19.9910172 120.189452 20.3133683 120.193864 20.6133466 120.308518 20.9013985 120.511866 21.1233882 120.811239 21.4412184 121.160429 21.7089148 121.545915 21.9161123L122.614819 22.5387611C123.797973 23.2402018 124.389549 24.1318963 124.389549 25.2138446 124.415274 25.9230033 124.130307 26.6084721 123.608203 27.0933214 123.052074 27.5894291 122.322029 27.8492196 121.574961 27.8168623 120.631146 27.8236767 119.711725 27.5195241 118.960793 26.9520724L118.960793 25.1907836C119.710188 26.1324437 120.581577 26.6032738 121.574961 26.6032738 121.969002 26.6170613 122.354794 26.4890965 122.661294 26.2429446 122.939355 26.0255587 123.099384 25.6919358 123.094084 25.3406805 123.094084 24.7641538 122.668071 24.2087665 121.816046 23.6745185L121.792809 23.6774012zM14.7716643 18.1225671L16.0961763 18.1225671 16.0961763 24.9428771C16.1283944 25.5791432 16.0397132 26.2157455 15.8347594 26.8194713 15.6618301 27.2234976 15.3664008 27.5640436 14.9895117 27.7938013 14.5658829 28.0468991 14.0779376 28.1739647 13.5836701 28.1598957 13.4397317 28.1543661 13.2962147 28.1408929 13.1537846 28.1195388L12.9097956 26.8973024 13.2467328 26.8973024C13.5436986 26.9112377 13.8403628 26.8641309 14.1181223 26.758936 14.3288421 26.6560279 14.4971617 26.4838902 14.5944818 26.271771 14.7106671 26.0392386 14.7687597 25.5463083 14.7687597 24.7929802L14.7716643 18.1225671zM44.0677768 25.4761642L44.0677768 26.9924293C42.9825429 27.5623134 41.7691195 27.8489884 40.5415542 27.8255102 39.5823012 27.8557479 38.6321305 27.6329353 37.7879636 27.1798004 37.040893 26.755289 36.4228272 26.1389168 35.9987107 25.3954505 35.5598738 24.6454771 35.3321511 23.7922598 35.3393594 22.9250339 35.3133052 21.5882347 35.8626944 20.3038024 36.8497677 19.3938083 37.8466757 18.4382282 39.1879311 17.9190795 40.5735052 17.9524918 41.7465442 17.9879273 42.9003679 18.2575321 43.9661147 18.7452159L43.9661147 20.2240067C42.9629561 19.618911 41.8168478 19.2868297 40.6432163 19.2612072 39.6180408 19.2285664 38.622317 19.6043249 37.8780072 20.3047204 37.1769816 20.9927336 36.7808048 21.9294205 36.7769897 22.9078729 36.7731747 23.8863254 37.1620353 24.826027 37.8576748 25.5194037 38.6074701 26.2104686 39.6032241 26.5775487 40.6257885 26.5398558 41.8544039 26.5233515 43.0511482 26.1495077 44.0677768 25.4646337L44.0677768 25.4761642z"/>
  </g>
</symbol>




<!-- Anti Bacterial -->
<symbol id="antiBacterial" viewBox="0 0 22 22">
    <rect width="24" height="24"/>
    <path fill="currentColor" fill-rule="nonzero" d="M8.84022825,10.9734337 L10.9235978,11.3427267 L10.8779547,11.6439711 L8.77693555,11.2727911 L8.62318549,11.9999873 L7.33605005,10.9045529 L8.96094444,10.4024788 L8.84022825,10.9734337 Z M12.0041805,8.48175003 L12.0401225,10.5941798 L11.7190469,10.6033084 L11.690168,8.47469357 L10.9509836,8.45808269 L11.7816881,6.98837484 L12.575878,8.49459717 L12.0041805,8.48175003 Z M4.61999764,9.53574855 L4.24101881,8.2611829 L4.53971828,8.17236772 L4.91866262,9.44681738 C5.00761724,9.43221299 5.09670116,9.42768648 5.18447717,9.43257813 L5.41903981,8.12945236 L5.72028427,8.18422408 L5.48526985,9.48748586 C5.57265299,9.51500116 5.6566993,9.55215951 5.73571573,9.59818378 L6.53273147,8.54024027 L6.77007559,8.72281267 L5.97409127,9.7793871 C6.10192925,9.90413858 6.2039944,10.0589438 6.26800148,10.2381636 C6.49564327,10.8510454 6.2026375,11.5311074 5.61450346,11.78704 L5.99144275,13.0547463 L5.69274328,13.1435615 L5.31618016,11.8771203 C5.22754686,11.8923214 5.13885361,11.8974417 5.05146351,11.8931392 L4.81655088,13.1958366 L4.51530641,13.1501935 L4.75113287,11.8400465 C4.66472273,11.8132898 4.58150254,11.777032 4.50304148,11.7320306 L3.70285921,12.7941773 L3.46551509,12.6116049 L4.26330971,11.5526275 C4.13195417,11.4267307 4.02622944,11.2695799 3.95846058,11.0871253 C3.72978396,10.4802527 4.02649926,9.79711358 4.61999764,9.53574855 Z M12.8199067,3.90289676 L13.8173704,3.02655368 L14.0182,3.25476918 L13.0197058,4.13201766 C13.0712638,4.20813672 13.1133799,4.2886045 13.146054,4.3718282 L14.4289879,4.03983052 L14.5020169,4.33194637 L13.2208917,4.66408992 C13.2320434,4.75114127 13.2338351,4.83912912 13.226267,4.92648141 L14.5247895,5.20816235 L14.4587235,5.51272051 L13.1601773,5.23103443 C13.1005325,5.3990301 13.0031381,5.55696658 12.8679939,5.69211077 C12.4030045,6.1571001 11.6681921,6.17519498 11.1822027,5.74639539 L10.1841795,6.62323003 L9.9833499,6.39501453 L10.9800472,5.5193448 C10.9272126,5.44307247 10.8839594,5.36231207 10.8502892,5.27869057 L9.57256199,5.60995319 L9.49040441,5.31783735 L10.7727734,4.98598584 C10.7604104,4.8950636 10.7582746,4.8030561 10.766366,4.71175888 L9.47166063,4.43090599 L9.53772666,4.12634783 L10.8330575,4.40733642 C10.8927726,4.24019343 10.9898959,4.08307583 11.1244274,3.94854432 C11.5925172,3.48045453 12.3340403,3.46523868 12.8199067,3.90289676 Z M12.000775,22.9999746 C5.92111392,22.9999746 1.00078764,18.0705197 1.00991626,11.9908587 C1.01904488,5.91119766 5.93937116,1 12.0190322,1 C18.0986932,1 23.0190195,5.9294549 23.0098909,12.0091159 C23.0098909,14.9211458 21.8505561,17.7236322 19.787488,19.7867003 C17.7244198,21.8497685 14.9219334,23.0091033 12.000775,22.9999746 Z M19.1274523,4.43513621 C17.2060543,2.61725456 14.6541523,1.60283153 12.000775,1.61161755 C6.25887286,1.61161755 1.61240519,6.26721384 1.61240519,12.0091159 C1.61240519,14.765075 2.68493477,17.2686742 4.43532509,19.1272634 L19.1274523,4.43513621 Z M20.1696568,5.57481045 C19.9793667,5.33326499 19.7777564,5.09931645 19.5651643,4.8737717 L4.87335853,19.5655775 C5.09931928,19.778658 5.33483841,19.9817235 5.57920547,20.1740671 L20.1696568,5.57481045 Z"/>
</symbol>


<!-- Chlorine Resistant -->
<symbol id="chlorineResistant" viewBox="0 0 22 22">
    <path fill="currentColor" fill-rule="nonzero" d="M12,1 C18.065398,1 23,5.93460201 23,12 C23,18.065398 18.065398,23 12,23 C5.93460201,23 1,18.065398 1,12 C1,5.93460201 5.93460201,1 12,1 Z M12,22.4204019 C15.194745,22.4204019 18.0578632,20.9746909 19.9709235,18.7037287 C19.8289219,18.5749614 19.6933926,18.4436824 19.562983,18.3153014 C18.9253284,17.6874034 18.3940301,17.1561051 17.2542504,17.1561051 C16.114374,17.1561051 15.5734158,17.6874034 14.9455178,18.3153014 C14.3176198,18.9431994 13.5931221,19.6580371 12.2020866,19.6580371 C10.811051,19.6580371 10.0962133,18.9431994 9.45865533,18.3153014 C8.82109737,17.6874034 8.28979907,17.1561051 7.14992272,17.1561051 C6.01004637,17.1561051 5.47874807,17.6970634 4.84119011,18.3153014 C4.64151855,18.5089838 4.43247682,18.7119397 4.19947836,18.9008887 C6.10993045,21.0579598 8.89866692,22.4204019 12,22.4204019 Z M12,1.57959815 C6.77955951,1.57959815 2.44368238,5.4386592 1.69445518,10.4539219 C2.37944359,10.2795595 2.80728362,9.85336167 3.29559505,9.37982998 C3.93315301,8.76159196 4.64799073,8.03709428 6.02936631,8.03709428 C7.41074189,8.03709428 8.13523957,8.75193199 8.77279753,9.37982998 C9.41035549,10.007728 9.94165379,10.5390263 11.0815301,10.5390263 C12.2214065,10.5390263 12.7623648,10.007728 13.3902628,9.37982998 C14.0181607,8.75193199 14.7426584,8.03709428 16.133694,8.03709428 C17.5246329,8.03709428 18.2395672,8.75193199 18.8770286,9.37982998 C19.5146832,10.007728 20.0459815,10.5390263 21.1858578,10.5390263 C21.6295402,10.5390263 21.9821291,10.4581723 22.2847759,10.3228362 C21.4801971,5.37171561 17.1748454,1.57959815 12,1.57959815 Z M22.0262751,14.7604328 C22.0340031,14.7604328 22.0410549,14.7598532 22.0486862,14.7597566 C22.2904753,13.8804096 22.4204019,12.9551777 22.4204019,12 C22.4204019,11.6434505 22.4023377,11.2911515 22.3671754,10.9436824 C22.0262751,11.0753478 21.6330178,11.1572643 21.1665379,11.1572643 C19.7755023,11.1572643 19.0606646,10.4424266 18.4231066,9.81452859 C17.7855487,9.1866306 17.2542504,8.6553323 16.114374,8.6553323 C14.9744977,8.6553323 14.4334428,9.1866306 13.8055448,9.81452859 C13.1776468,10.4424266 12.4531491,11.1572643 11.0622102,11.1572643 C9.67117465,11.1572643 8.95633694,10.4424266 8.31877898,9.81452859 C7.68122102,9.1866306 7.14992272,8.6553323 6.01004637,8.6553323 C4.87017002,8.6553323 4.33887172,9.1866306 3.71097372,9.81452859 C3.18972179,10.3357805 2.59988408,10.9149923 1.61920402,11.0971793 C1.5935085,11.3948029 1.57959815,11.6958076 1.57959815,12 C1.57959815,12.9541151 1.70923493,13.8782844 1.95044436,14.7568586 C3.00521638,14.7192813 3.52221793,14.2057573 4.13601236,13.6012365 C4.77357032,12.9733385 5.48840804,12.2681607 6.86978362,12.2681607 C8.2511592,12.2681607 8.97565688,12.9830951 9.61321484,13.6012365 C10.2507728,14.2194745 10.7820711,14.7604328 11.9218509,14.7604328 C13.0618238,14.7604328 13.6027821,14.2291345 14.2306801,13.6012365 C14.8585781,12.9733385 15.5830757,12.2681607 16.9741113,12.2681607 C18.3651468,12.2681607 19.0799845,12.9830951 19.7175425,13.6012365 C20.3551005,14.2194745 20.8863988,14.7604328 22.0262751,14.7604328 Z M20.3574189,18.2172527 C20.9941074,17.3635046 21.5030912,16.4091963 21.8562597,15.3830178 C20.5588292,15.3357805 19.8691074,14.6518547 19.253864,14.055255 C18.616306,13.437017 18.0850077,12.8960587 16.9450348,12.8960587 C15.805255,12.8960587 15.2642968,13.427357 14.6363988,14.055255 C14.0085008,14.683153 13.2840031,15.3883308 11.8929675,15.3883308 C10.501932,15.3883308 9.78709428,14.6735896 9.14953632,14.055255 C8.51197836,13.437017 7.98068006,12.8960587 6.84080371,12.8960587 C5.70092736,12.8960587 5.16962906,13.427357 4.54173107,14.055255 C3.9676391,14.629347 3.31066461,15.2657457 2.13939335,15.3707496 C2.52521252,16.4963292 3.09853168,17.5354521 3.82206337,18.4507342 C4.02907651,18.2832303 4.22343509,18.0926391 4.42581144,17.8902628 C5.05370943,17.2623648 5.77820711,16.547527 7.16924266,16.547527 C8.56027821,16.547527 9.27511592,17.2623648 9.91267388,17.8902628 C10.5502318,18.5181607 11.0815301,19.049459 12.2214065,19.049459 C13.3612828,19.049459 13.9021445,18.5181607 14.5300425,17.8902628 C15.1579405,17.2623648 15.8824382,16.547527 17.2735703,16.547527 C18.6646059,16.547527 19.3794436,17.2623648 20.0170015,17.8902628 C20.1324382,18.0039606 20.244687,18.1126352 20.3574189,18.2172527 Z"/>

</symbol>

<!-- Managing Moisture -->
<symbol id="managesMoisture" viewBox="0 0 23 22">
    <path fill="currentColor" fill-rule="nonzero" d="M12.088974,23 C6.04194088,23 1.11647163,18.0980392 1.08509922,12.0509804 C1.0615699,5.98039216 5.97135294,1.03137255 12.0419154,1 L12.088974,1 C18.1673795,1 23.0928487,5.9254902 23.0850056,12.0039216 C23.0850056,14.9058824 21.9399125,17.6901961 19.9007055,19.745098 C17.8536553,21.8235294 15.0536673,23 12.1360326,23 L12.088974,23 Z M12.088974,1.61176471 L12.0419154,1.61176471 C6.30860641,1.63529412 1.6654889,6.31764706 1.69686132,12.0509804 C1.72039063,17.7686275 6.37919434,22.3960784 12.088974,22.3960784 L12.1360326,22.3960784 C17.8771847,22.3647059 22.504616,17.6901961 22.4810866,11.9490196 C22.4654004,9.19607843 21.3595228,6.56078431 19.4065899,4.61568627 C17.4615001,2.68627451 14.8262172,1.60392157 12.088974,1.61176471 Z M16.1203294,6.6 C16.5281708,7.50980392 16.8183656,8.44313725 16.1203294,9.14901961 C15.41445,9.85490196 14.2772,9.85490196 13.5713206,9.14901961 C12.8654413,8.44313725 13.069362,7.4627451 13.5791637,6.6 C14.1987689,5.53333333 14.7477862,3.98823529 14.7477862,3.98823529 C15.3595483,5.22745098 15.9320949,6.17647059 16.1203294,6.6 Z M14.7321,14.8980392 C15.41445,16.4039216 15.9007225,17.972549 14.7242569,19.1411765 C13.5556344,20.3098039 11.6497602,20.3098039 10.4811377,19.1333333 C9.3125152,17.9647059 9.64976867,16.3254902 10.4889808,14.8901961 C11.5242705,13.1176471 12.4340706,10.5529412 12.4340706,10.5529412 C13.4615172,12.6235294 14.4183758,14.1921569 14.7321,14.8980392 Z M7.67330649,10.5764706 C8.08114789,11.4862745 8.37134273,12.4196078 7.67330649,13.1254902 C6.96742714,13.8313725 5.83017707,13.8313725 5.12429772,13.1254902 C4.41841837,12.4196078 4.63018218,11.4392157 5.13214083,10.5764706 C5.75174603,9.50980392 6.30076331,7.96470588 6.30076331,7.96470588 C6.90468231,9.20392157 7.47722889,10.1529412 7.67330649,10.5764706 Z"/>
</symbol>

<!-- Quick Drying -->
<symbol id="quickDrying" viewBox="0 0 22 22">
    <path fill="currentColor" fill-rule="nonzero" d="M10.5246199,11.9010854 C10.5256321,11.8020405 10.5355007,11.7015929 10.5548282,11.6006603 C10.641337,11.1726697 10.8826603,10.8188157 11.2088342,10.5850449 C10.7696921,9.71450082 10.4923323,8.28773771 10.4027108,6.91354134 C10.3171447,5.7346311 10.3646814,4.6127649 10.5358135,3.75710424 C10.7354677,2.75883347 11.0872393,2.2264224 11.5626063,2.19790038 L11.610143,2.19790038 C12.5989065,2.19790038 13.2168836,4.51769149 13.3594937,6.70437984 C13.4560666,8.11072197 13.3687095,9.6013653 13.0317399,10.5194831 C13.4627561,10.78504 13.7476326,11.2416564 13.7995505,11.7512109 C14.7632928,11.8360336 16.0723718,12.2933651 17.2575034,12.8746439 C18.3128182,13.3880403 19.2540449,13.9965101 19.9100514,14.5764579 C20.680146,15.2514791 20.9558589,15.8124122 20.7466974,16.2497499 C20.5945799,16.5539848 20.2142863,16.6870875 19.7103973,16.6870875 C18.7311412,16.6870875 17.2575034,16.1927058 15.9454904,15.5462066 C14.8901756,15.0233029 13.9489488,14.4243404 13.2929423,13.8443927 C13.1209636,13.6936459 12.9736409,13.5485889 12.8508684,13.4094336 C12.6424417,13.5057167 12.4117421,13.5591724 12.1710761,13.5591724 C12.0664954,13.5591724 11.9524073,13.5496651 11.8478265,13.5306504 C11.745954,13.5100592 11.6482818,13.4806967 11.5554295,13.4435067 C11.4517391,13.5992574 11.3242335,13.7645772 11.1728054,13.9394661 C10.6023649,14.5954726 9.75621161,15.3275378 8.77695552,15.9835443 C7.79769943,16.6395508 6.79942867,17.1529472 5.98179737,17.4286601 C5.62051843,17.5617629 5.24973214,17.6378216 4.87894586,17.6568363 C4.51766691,17.6568363 4.26096871,17.5522555 4.1183586,17.3335867 C3.85215307,16.9342784 4.05180722,16.3448233 4.72682841,15.5652213 C5.29726884,14.9092148 6.14342216,14.1771496 7.12267825,13.5211431 C8.10193433,12.8651366 9.09069776,12.3517402 9.9178364,12.06652 C10.1377773,11.9932063 10.3401124,11.9379875 10.5246199,11.9010854 Z M11.0304449,13.1053351 C10.8538613,12.9360887 10.717185,12.7291807 10.6306598,12.5002096 C10.4511181,12.5317128 10.276242,12.5791642 10.1079832,12.6464677 C9.32838128,12.9031659 8.38715455,13.3975477 7.45543517,14.0250321 C6.52371579,14.6525166 5.71559183,15.3370451 5.17367342,15.9645296 C4.59372564,16.6395508 4.5842183,16.9532931 4.61274032,16.9913224 C4.64126234,17.0293518 4.92648256,17.1434399 5.77263588,16.8582197 C6.55223781,16.5920141 7.49346453,16.1071397 8.42518392,15.4796553 C9.3569033,14.8521708 10.1650273,14.1676422 10.6974383,13.5401578 C10.8404799,13.3736668 10.9488192,13.2291539 11.0304449,13.1053351 Z M13.7509388,12.350891 C13.6765316,12.6210766 13.5351466,12.8621906 13.3471794,13.0566183 C13.4383089,13.1548937 13.5516724,13.2652818 13.6922506,13.3880403 C14.3102278,13.9299587 15.2039178,14.5003992 16.2116959,14.9947809 C18.5885311,16.1546764 20.0811836,16.2022131 20.1952716,15.974037 C20.2237937,15.9265003 20.176257,15.6222654 19.5012358,15.0328102 C18.8832586,14.4908918 17.9895686,13.9204514 16.9817905,13.4260697 C15.5461767,12.720429 14.4357757,12.4230341 13.7509388,12.350891 Z M12.4768363,10.306153 C12.6896984,9.68132862 12.8694101,8.48409403 12.7510239,6.75191655 C12.5703844,4.12789053 11.8763486,2.80637018 11.610143,2.80637018 C11.553099,2.80637018 11.3154155,3.00602433 11.134776,3.88069967 C10.9731512,4.67931628 10.9256145,5.74413844 11.0016732,6.86600463 C11.1191561,8.58496511 11.4497761,9.73690053 11.7450662,10.3322727 C11.9763054,10.2709871 12.2249846,10.2591573 12.4768363,10.306153 Z M12.1615688,10.868595 C11.9524073,10.868595 11.7527531,10.9256391 11.581621,11.0492345 C11.106254,11.3724841 10.9826586,12.0094759 11.2964008,12.484843 C11.6196504,12.96021 12.2566422,13.0838054 12.7320092,12.7700632 C13.2073763,12.4468136 13.3309717,11.8098218 13.0172294,11.3344547 C12.83659,11.0397272 12.5133404,10.868595 12.1615688,10.868595 Z M12.028466,23.0094691 C5.95327535,23.0189764 1.02847289,18.0941739 1.01896555,12.0189833 C1.00945821,5.94379259 5.93426067,1.01899013 12.0094513,1.00948279 C18.084642,0.999975454 23.0189518,5.92477791 23.0189518,11.9999686 C23.0189518,15.6698021 21.1935424,19.0924447 18.1511934,21.1460303 C16.3447987,22.3629699 14.2151544,23.0094691 12.028466,23.0094691 Z M11.9904367,1.60844525 C6.23849557,1.60844525 1.57039131,6.27654951 1.57039131,12.0379979 C1.57039131,17.7994464 6.23849557,22.4580433 11.999944,22.4580433 C17.7518851,22.4580433 22.4199893,17.789939 22.4199893,12.0284906 C22.4199893,7.04664411 18.892766,2.76834081 14.0155002,1.80809941 C13.3499864,1.67499664 12.6654578,1.60844525 11.9904367,1.60844525 Z"/>
</symbol>

<!-- Shape Retention -->
<symbol id="shapeRetention" viewBox="0 0 23 22">
    <path fill="currentColor" fill-rule="nonzero" d="M9.29767434,15.882933 L19.0166148,9.82129891 L19.3359697,10.3360226 L9.60474764,16.4053165 L10.4295181,17.8083905 L6.64161485,17.9415087 L8.59322775,14.6845502 L9.29767434,15.882933 Z M14.4708458,7.56937051 L13.6940342,6.42234772 L17.4641955,6.05849133 L15.7254858,9.42194433 L14.8132697,8.07498612 L5.16016323,14.2674466 L4.83193743,13.7527229 L14.4708458,7.56937051 Z M12.0795181,23 C6.00290517,23 1.07951807,18.0746269 1.07951807,12.0044373 C1.08838904,5.92537313 6.01177614,1 12.0795181,1 C18.14726,1 23.0795181,5.92537313 23.0795181,11.9955627 C23.0706471,18.0746269 18.156131,22.9911255 12.0795181,23 Z M12.0795181,1.61234369 C6.34887291,1.60346914 1.69161485,6.26260589 1.69161485,11.9955627 C1.69161485,17.7285196 6.34000194,22.3876563 12.0795181,22.3876563 C17.8190342,22.3876563 22.4674213,17.7462687 22.4674213,12.0044373 C22.4585503,6.26260589 17.8190342,1.62121823 12.0795181,1.61234369 Z"/>=
</symbol>

<!-- Sun Block -->
<symbol id="sunBlock" viewBox="0 0 22 22">
    <path fill="currentColor" fill-rule="nonzero" d="M11.9603604,22.9306306 C5.90540541,22.9306306 1,18.0252252 1,11.9603604 C1,5.90540541 5.90540541,1 11.9603604,1 C18.0153153,1 22.9207207,5.90540541 22.9207207,11.9603604 C22.9207207,18.0153153 18.0153153,22.9207207 11.9603604,22.9306306 Z M11.9603604,1.6045045 C6.24234234,1.6045045 1.6045045,6.24234234 1.6045045,11.9603604 C1.6045045,17.6783784 6.24234234,22.3162162 11.9603604,22.3162162 C17.6783784,22.3162162 22.3162162,17.6783784 22.3162162,11.9603604 C22.3162162,6.24234234 17.6783784,1.61441441 11.9603604,1.6045045 Z M21.1765766,11.9603604 C21.1765766,17.0540541 17.0540541,21.1765766 11.9603604,21.1765766 C6.86666667,21.1765766 2.74414414,17.0540541 2.74414414,11.9603604 C2.74414414,6.86666667 6.86666667,2.74414414 11.9603604,2.74414414 C17.0540541,2.74414414 21.1765766,6.87657658 21.1765766,11.9603604 Z"/>
</symbol>

<!-- Thermal Protection -->
<symbol id="thermalProtection" viewBox="0 0 23 22">
    <path fill="currentColor" fill-rule="nonzero" d="M12.0182573,23.0027259 C9.68190057,23.0120451 7.41096184,22.2758248 5.52318562,20.9058958 C0.598145661,17.3086673 -0.467233001,10.4124262 3.13075634,5.51050341 C6.72874568,0.608580643 13.653707,-0.463132508 18.5694015,3.12477674 C19.017982,3.46026955 19.4478716,3.8237201 19.849725,4.21512838 C24.1579668,8.50198099 24.1673122,15.4634568 19.8684159,19.7689479 C17.7843857,21.8471395 14.9620667,23.0120451 12.0182573,23.0027259 Z M19.1976578,4.4366835 C17.2746262,2.61895449 14.7035507,1.60573984 12.0369481,1.60573984 C6.28016519,1.60573984 1.60745176,6.25604299 1.59810634,11.9966978 C1.59810634,14.6560679 2.62303553,17.2201615 4.44680359,19.1462118 L19.1976578,4.4366835 Z M20.2286735,5.56261907 C20.040524,5.32453389 19.8385156,5.09572662 19.6294194,4.87282129 L4.88203507,19.5788895 C5.11295033,19.7946115 5.3528783,19.9981413 5.59993439,20.1913582 L20.2286735,5.56261907 Z M6.67162348,6.9350941 L5.29889537,6.89907088 L5.29889537,6.61949354 L6.38432054,6.64779116 L5.76716691,6.03063753 L5.9588033,5.83900114 L6.57967933,6.45987718 L6.55118257,5.38003398 L6.82219995,5.37071473 L6.85805297,6.73825082 L8.24270483,8.12290268 L8.24270483,6.16912034 L7.30632214,5.18170676 L7.50297235,4.9952197 L8.24270483,5.77526605 L8.24270483,4.86747551 L8.51372221,4.86747551 L8.51372221,5.7776459 L9.25761516,4.99321235 L9.45371444,5.17917695 L8.51372221,6.17039678 L8.51372221,8.10426489 L9.898395,6.7192004 L9.9342271,5.36139549 L10.2052445,5.37071473 L10.1842135,6.43330109 L10.7971794,5.82016174 L10.9883059,6.01123422 L10.3607619,6.63895579 L11.4575317,6.61017429 L11.4668771,6.88975164 L10.0829855,6.91681074 L8.70322897,8.2969576 L10.6836413,8.2969576 L11.6724765,7.35571388 L11.859385,7.56073726 L11.0859397,8.2969576 L11.9621847,8.2969576 L11.9621847,8.5672157 L11.0761493,8.5672157 L11.859385,9.31275528 L11.6724765,9.51777867 L10.6738509,8.5672157 L8.68701785,8.5672157 L10.0861862,9.96638403 L11.4668771,10.0023794 L11.4575317,10.2726375 L10.3637362,10.243934 L11.006466,10.8866638 L10.8148296,11.0783002 L10.1841766,10.4476472 L10.2052445,11.5120971 L9.9342271,11.5214163 L9.89834768,10.1618183 L8.51372221,8.77719284 L8.51372221,10.7395437 L9.44736016,11.724063 L9.25070995,11.91055 L8.51372221,11.133398 L8.51372221,12.006017 L8.24270483,12.006017 L8.24270483,11.1266048 L7.49697364,11.9129768 L7.30087436,11.7270122 L8.24270483,10.7338539 L8.24270483,8.75761201 L6.85834689,10.1423616 L6.82219995,11.5120971 L6.55118257,11.5027778 L6.57972885,10.4210584 L5.92717787,11.073794 L5.73605135,10.8827215 L6.38354896,10.2350407 L5.29889537,10.2633183 L5.29889537,9.99306015 L6.66120071,9.95731045 L8.05090233,8.5672157 L6.11115086,8.5672157 L5.11112099,9.51529417 L4.92518342,9.31916787 L5.71833994,8.5672157 L4.80358775,8.5672157 L4.80358775,8.2969576 L5.70792946,8.2969576 L4.92643235,7.5547994 L5.11305491,7.3582847 L6.10148321,8.2969576 L8.03348698,8.2969576 L6.67162348,6.9350941 Z"/>
</symbol>

<!-- UV Protection -->
<symbol id="uvProtection" viewBox="0 0 22 22">
    <path fill="currentColor" fill-rule="nonzero" d="M5.72477837,20.25485 L20.2458596,5.69952092 C20.0247022,5.40920406 19.7873262,5.12948329 19.5342832,4.86171681 L4.86647895,19.529521 C5.13907054,19.7863166 5.42558573,20.0285104 5.72477837,20.25485 Z M4.43502619,19.0985738 L19.1030776,4.43052239 C17.188408,2.62137334 14.638598,1.59871374 11.9824,1.6072 C10.4566838,1.6072 9.00774057,1.93676173 7.70289391,2.52856148 C8.9046117,4.2176783 8.60850877,6.57847412 6.984,7.9168 C6.3416,8.4448 5.5408,8.7616 4.7136,8.8144 L4.4496,8.8144 C3.69342765,8.8144 2.95636427,8.5978316 2.31969745,8.19720984 C1.85975387,9.36999689 1.6072,10.6467817 1.6072,11.9824 C1.6072,14.7371559 2.68157406,17.2416315 4.43502619,19.0985738 Z M2.55892205,7.63657641 C4.01589197,8.62275683 6.00443979,8.32820882 7.1072,6.9224 C7.6176,6.2624 7.8728,5.444 7.82,4.608 C7.77891234,3.95059745 7.54598425,3.32388936 7.14987855,2.79953279 C5.13781324,3.86086928 3.51656199,5.56414957 2.55892205,7.63657641 Z M11.9824,22.9648 C5.9192,22.956 1,18.0368 1.0088,11.9736 C1.0088,5.9104 5.928,1 11.9912,1 C18.0544,1 22.9648,5.9192 22.9648,11.9912 C22.9648,14.904 21.8032,17.6936 19.744,19.7528 C17.6848,21.812 14.8952,22.9648 11.9824,22.9648 Z M3.95725894,9.80519755 L4.5631231,9.76495604 L4.73925262,12.4167093 L4.13338846,12.4569508 L3.95725894,9.80519755 Z M8.3304,11.56 L6.8256,9.3688 L7.3272,9.0256 L8.832,11.2168 L8.3304,11.56 Z M9.70510784,4.40452112 L9.83268056,3.81086168 L12.4310161,4.36922344 L12.3034434,4.96288288 L9.70510784,4.40452112 Z M11.1464,8.832 L8.6912,7.8376 L8.92,7.2744 L11.3752,8.2688 L11.1464,8.832 Z"/>
</symbol>

<!-- Wind Repellent -->
<symbol id="waterRepellent" viewBox="0 0 22 22">
    <path fill="currentColor" fill-rule="nonzero" d="M11.999985,22.9999863 C5.92578686,22.9904954 1.00948276,18.0647003 1.00948276,11.9905022 C1.00948276,5.91630411 5.94476873,0.990509077 12.0189668,1.00000001 C18.093165,1.00949095 23.0094691,5.93528598 23.0094691,12.0094841 C23.0094691,14.923201 21.8515751,17.7230267 19.7825513,19.7825595 C17.7135276,21.8420923 14.9137019,22.9999863 11.999985,22.9999863 Z M19.1334242,4.42997094 C17.2022953,2.61815261 14.6495122,1.59828352 11.999985,1.60741982 C6.25796957,1.61691076 1.60741164,6.26746869 1.61690257,12.0094841 C1.62145484,14.7636084 2.69372424,17.2644501 4.44202468,19.1213705 L19.1334242,4.42997094 Z M20.1765271,5.56978301 C19.9843444,5.3253219 19.7806749,5.08882249 19.5658987,4.86117147 L4.87347363,19.5535966 C5.10005317,19.7676932 5.33626525,19.971704 5.58139462,20.1649155 L20.1765271,5.56978301 Z M9.57030573,7.73856355 C10.1302709,8.76358448 10.5573629,9.83606009 9.79808816,10.7282079 C9.0388134,11.6108648 7.70059162,11.7152651 6.81793471,10.9559904 C5.93527779,10.1967156 6.07764181,9.01983971 6.59015228,7.97583691 C7.21655396,6.67557888 7.71957349,4.8153557 7.71957349,4.8153557 C8.55477573,6.20103215 9.3140505,7.26401682 9.57030573,7.73856355 Z"/>
</symbol>

<!-- Wind Proof -->
<symbol id="windproof" viewBox="0 0 22 22">
    <path fill="currentColor" fill-rule="nonzero" d="M11.9954127,22.9999348 C5.92615234,22.9908626 0.999981386,18.0646917 1.00905352,11.9863592 C1.01812566,5.91709884 5.94429661,0.990927888 12.0226291,1.00000003 C18.1009616,1.00907216 23.0180604,5.93524312 23.0089883,12.0135756 C23.0089883,14.9257319 21.8477546,17.7290226 19.7793071,19.7883979 C17.7199318,21.8477732 14.9166411,23.0090069 11.9954127,22.9999348 Z M19.1366131,4.43691258 C17.208916,2.61848244 14.6526968,1.60783327 11.9954127,1.60783327 C6.26182144,1.60783327 1.60781463,6.26184008 1.61688677,12.0045035 C1.62124448,14.7629328 2.69521738,17.2680873 4.44668476,19.1268409 L19.1366131,4.43691258 Z M20.1739326,5.57146835 C19.9817093,5.32729887 19.7779576,5.09095093 19.5630389,4.8632677 L4.87271304,19.5535936 C5.09920173,19.7677365 5.33532273,19.9717895 5.58036313,20.1650378 L20.1739326,5.57146835 Z M5.24574198,10.988424 C3.25894376,10.6073942 3.09564527,7.47750658 3.08657313,7.34142451 L3.69440638,7.3142081 C3.69440638,7.34142451 3.83956059,10.0993545 5.35460764,10.3896629 C7.03295318,10.7162599 8.19418685,11.0700732 9.63665679,13.0387272 L9.20119417,13.4741898 C7.84037346,11.578113 6.78800545,11.2878046 5.24574198,10.988424 Z M9.54593541,6.69730271 C7.55913718,6.30720077 7.3958387,3.18638529 7.3958387,3.05030322 L8.00367195,3.02308681 C8.00367195,3.05030322 8.13975402,5.80823318 9.65480107,6.0985416 C11.3331466,6.42513857 12.4943803,6.77895195 13.9368502,8.74760591 L13.5013876,9.18306853 C12.1405669,7.28699168 11.0881989,6.99668327 9.54593541,6.69730271 Z M7.33233373,8.81111087 C5.3455355,8.43008107 5.18223702,5.30019345 5.18223702,5.16411138 L5.79007027,5.13689497 C5.79007027,5.16411138 5.93522448,7.92204134 7.45027153,8.21234976 C9.12861706,8.53894673 10.2807786,8.89276011 11.7232485,10.8614141 L11.2877859,11.2968767 C9.92696521,9.40079984 8.8745972,9.11049143 7.33233373,8.81111087 Z"/>
</symbol>



</svg>
