<svg xmlns="http://www.w3.org/2000/svg" width="22" height="22" viewBox="0 0 22 22">
  <g fill="none" fill-rule="evenodd" transform="translate(-1 -1)">
    <rect width="24" height="24"/>
    <path fill="#000" fill-rule="nonzero" d="M8.84022825,10.9734337 L10.9235978,11.3427267 L10.8779547,11.6439711 L8.77693555,11.2727911 L8.62318549,11.9999873 L7.33605005,10.9045529 L8.96094444,10.4024788 L8.84022825,10.9734337 Z M12.0041805,8.48175003 L12.0401225,10.5941798 L11.7190469,10.6033084 L11.690168,8.47469357 L10.9509836,8.45808269 L11.7816881,6.98837484 L12.575878,8.49459717 L12.0041805,8.48175003 Z M4.61999764,9.53574855 L4.24101881,8.2611829 L4.53971828,8.17236772 L4.91866262,9.44681738 C5.00761724,9.43221299 5.09670116,9.42768648 5.18447717,9.43257813 L5.41903981,8.12945236 L5.72028427,8.18422408 L5.48526985,9.48748586 C5.57265299,9.51500116 5.6566993,9.55215951 5.73571573,9.59818378 L6.53273147,8.54024027 L6.77007559,8.72281267 L5.97409127,9.7793871 C6.10192925,9.90413858 6.2039944,10.0589438 6.26800148,10.2381636 C6.49564327,10.8510454 6.2026375,11.5311074 5.61450346,11.78704 L5.99144275,13.0547463 L5.69274328,13.1435615 L5.31618016,11.8771203 C5.22754686,11.8923214 5.13885361,11.8974417 5.05146351,11.8931392 L4.81655088,13.1958366 L4.51530641,13.1501935 L4.75113287,11.8400465 C4.66472273,11.8132898 4.58150254,11.777032 4.50304148,11.7320306 L3.70285921,12.7941773 L3.46551509,12.6116049 L4.26330971,11.5526275 C4.13195417,11.4267307 4.02622944,11.2695799 3.95846058,11.0871253 C3.72978396,10.4802527 4.02649926,9.79711358 4.61999764,9.53574855 Z M12.8199067,3.90289676 L13.8173704,3.02655368 L14.0182,3.25476918 L13.0197058,4.13201766 C13.0712638,4.20813672 13.1133799,4.2886045 13.146054,4.3718282 L14.4289879,4.03983052 L14.5020169,4.33194637 L13.2208917,4.66408992 C13.2320434,4.75114127 13.2338351,4.83912912 13.226267,4.92648141 L14.5247895,5.20816235 L14.4587235,5.51272051 L13.1601773,5.23103443 C13.1005325,5.3990301 13.0031381,5.55696658 12.8679939,5.69211077 C12.4030045,6.1571001 11.6681921,6.17519498 11.1822027,5.74639539 L10.1841795,6.62323003 L9.9833499,6.39501453 L10.9800472,5.5193448 C10.9272126,5.44307247 10.8839594,5.36231207 10.8502892,5.27869057 L9.57256199,5.60995319 L9.49040441,5.31783735 L10.7727734,4.98598584 C10.7604104,4.8950636 10.7582746,4.8030561 10.766366,4.71175888 L9.47166063,4.43090599 L9.53772666,4.12634783 L10.8330575,4.40733642 C10.8927726,4.24019343 10.9898959,4.08307583 11.1244274,3.94854432 C11.5925172,3.48045453 12.3340403,3.46523868 12.8199067,3.90289676 Z M12.000775,22.9999746 C5.92111392,22.9999746 1.00078764,18.0705197 1.00991626,11.9908587 C1.01904488,5.91119766 5.93937116,1 12.0190322,1 C18.0986932,1 23.0190195,5.9294549 23.0098909,12.0091159 C23.0098909,14.9211458 21.8505561,17.7236322 19.787488,19.7867003 C17.7244198,21.8497685 14.9219334,23.0091033 12.000775,22.9999746 Z M19.1274523,4.43513621 C17.2060543,2.61725456 14.6541523,1.60283153 12.000775,1.61161755 C6.25887286,1.61161755 1.61240519,6.26721384 1.61240519,12.0091159 C1.61240519,14.765075 2.68493477,17.2686742 4.43532509,19.1272634 L19.1274523,4.43513621 Z M20.1696568,5.57481045 C19.9793667,5.33326499 19.7777564,5.09931645 19.5651643,4.8737717 L4.87335853,19.5655775 C5.09931928,19.778658 5.33483841,19.9817235 5.57920547,20.1740671 L20.1696568,5.57481045 Z"/>
  </g>
</svg>
