<svg xmlns="http://www.w3.org/2000/svg" width="113" height="25" viewBox="0 0 113 25">
  <g fill="none" fill-rule="evenodd" transform="translate(-12 -17)">
    <rect width="138" height="60"/>
    <path fill="#000" fill-rule="nonzero" d="M103.601102 40.1891237C103.781189 40.9443736 104.452159 41.3681207 105.294502 41.3681207 106.136845 41.3681207 106.81072 40.9011341 106.81072 40.0997621 106.81072 39.5001744 106.482497 39.1283147 105.727292 38.9207652L104.957565 38.6988024C104.396971 38.5431402 104.086176 38.3730649 104.086176 37.8916651 104.086176 37.3353169 104.571249 37.0268752 105.169603 37.0268752 105.717292 36.979883 106.226223 37.311042 106.401167 37.8282472L106.781674 37.8282472C106.601586 37.153711 106.06423 36.6751939 105.169603 36.6751939 104.376639 36.6751939 103.717287 37.1335326 103.717287 37.9060783 103.717287 38.5517881 104.12684 38.8400514 104.768764 39.0187747L105.640153 39.2637985C106.22108 39.425226 106.433118 39.707724 106.433118 40.10841 106.433118 40.6849366 105.948044 41.0193221 105.288693 41.0193221 104.714205 41.0646398 104.18105 40.720181 103.990323 40.1804758L103.601102 40.1891237zM97.7918394 41.3018201L97.7860301 36.7616729 99.1831578 36.7616729C100.510574 36.7616729 101.413915 37.640876 101.413915 39.0274226 101.413915 40.4139691 100.519288 41.3018201 99.1889671 41.3018201L97.7918394 41.3018201zM98.1723461 40.9530215L99.1889671 40.9530215C100.318869 40.9530215 101.027599 40.1891237 101.027599 39.02454 101.027599 37.8599562 100.315964 37.0960584 99.1889671 37.0960584L98.1723461 37.0960584 98.1723461 40.9530215zM95.2009082 39.02454C95.2009082 40.4168518 94.3295187 41.3652381 93.1676662 41.3652381 92.0058136 41.3652381 91.1344242 40.4168518 91.1344242 39.02454 91.1344242 37.6322281 92.0058136 36.6838418 93.1676662 36.6838418 94.3295187 36.6838418 95.2009082 37.6293455 95.2009082 39.02454zM94.8145922 39.02454C94.8145922 37.8541909 94.1407177 37.0384057 93.1705708 37.0384057 92.2004239 37.0384057 91.5352633 37.8541909 91.5352633 39.02454 91.5352633 40.194889 92.19171 41.0106742 93.1705708 41.0106742 94.1494316 41.0106742 94.8145922 40.194889 94.8145922 39.02454zM88.8165283 39.02454C88.8165283 40.4168518 87.9451389 41.3652381 86.7832863 41.3652381 85.6214338 41.3652381 84.7500443 40.4168518 84.7500443 39.02454 84.7500443 37.6322281 85.6214338 36.6838418 86.7832863 36.6838418 87.9451389 36.6838418 88.8165283 37.6293455 88.8165283 39.02454zM88.4302123 39.02454C88.4302123 37.8541909 87.7563378 37.0384057 86.786191 37.0384057 85.8160441 37.0384057 85.1508835 37.8541909 85.1508835 39.02454 85.1508835 40.194889 85.8073302 41.0106742 86.786191 41.0106742 87.7650517 41.0106742 88.4302123 40.194889 88.4302123 39.02454zM82.0719742 39.5001744C82.034214 40.4572086 81.5113803 41.0193221 80.599326 41.0193221 79.6291792 41.0193221 78.9320676 40.2554243 78.9320676 39.0274226 78.9320676 37.7994209 79.6349884 37.0384057 80.5906121 37.0384057 81.2064523 37.0061215 81.7635854 37.3990126 81.9354565 37.986792L82.3159632 37.986792C82.1394678 37.1920732 81.409467 36.6407914 80.5906121 36.6838418 79.4549013 36.6838418 78.5573702 37.5803408 78.5573702 39.0274226 78.5573702 40.4745044 79.4607105 41.3681207 80.6109446 41.3681207 81.7611786 41.3681207 82.4466716 40.5984576 82.4466716 39.4338739L82.4466716 39.1686716 80.8868846 39.1686716 80.8868846 39.5030571 82.0719742 39.5001744zM72.5825433 39.5001744C72.5447831 40.4572086 72.0219495 41.0193221 71.1098952 41.0193221 70.1397483 41.0193221 69.4426368 40.2554243 69.4426368 39.0274226 69.4426368 37.7994209 70.1455576 37.0384057 71.1011813 37.0384057 71.7170215 37.0061215 72.2741546 37.3990126 72.4460257 37.986792L72.8265324 37.986792C72.6500369 37.1920732 71.9200361 36.6407914 71.1011813 36.6838418 69.9654704 36.6838418 69.0679393 37.5803408 69.0679393 39.0274226 69.0679393 40.4745044 69.9712797 41.3681207 71.1215137 41.3681207 72.2717478 41.3681207 72.9572408 40.5984576 72.9572408 39.4338739L72.9572408 39.1686716 71.3974537 39.1686716 71.3974537 39.5030571 72.5825433 39.5001744zM66.4479618 36.7616729L66.0819782 36.7616729 66.0819782 40.5552181 63.3922896 36.7616729 63.026306 36.7616729 63.026306 41.3133507 63.3922896 41.3133507 63.3922896 37.3381996 66.1923542 41.287407 66.4450572 41.287407 66.4479618 36.7616729zM60.1652441 36.7616729L59.7847373 36.7616729 59.7847373 41.310468 60.1652441 41.310468 60.1652441 36.7616729zM53.6036817 37.1104716L55.2767494 37.1104716 55.2767494 41.3133507 55.6572561 41.3133507 55.6572561 37.0960584 57.3390377 37.0960584 57.3390377 36.7616729 53.6182048 36.7616729 53.6036817 37.1104716zM49.7840914 39.3128033L48.6716175 39.3214512 48.6716175 41.3392944 48.2911108 41.3392944 48.2911108 36.7876166 49.9118952 36.7876166C50.8210448 36.7876166 51.3642109 37.2315421 51.3642109 38.0617405 51.3642109 38.8025772 50.9256115 39.2234416 50.2023583 39.3128033L51.5849629 41.3306465 51.1434589 41.3306465 49.7840914 39.3128033zM48.6861407 37.1104716L48.6861407 38.9784178 49.9118952 38.9784178C50.614816 38.9784178 50.9953227 38.6440324 50.9953227 38.0444447 50.9953227 37.444857 50.614816 37.1104716 49.9118952 37.1104716L48.6861407 37.1104716zM45.7292259 39.0360705C45.7292259 40.4283823 44.8578365 41.3767686 43.6959839 41.3767686 42.5341314 41.3767686 41.6627419 40.4283823 41.6627419 39.0360705 41.6627419 37.6437587 42.5341314 36.6953724 43.6959839 36.6953724 44.8578365 36.6953724 45.7292259 37.640876 45.7292259 39.0360705zM45.3516238 39.02454L45.3429099 39.0360705C45.3429099 37.8657214 44.6603216 37.0499363 43.6988886 37.0499363 42.7374556 37.0499363 42.072295 37.8541909 42.072295 39.02454 42.072295 40.194889 42.7287417 41.0106742 43.7076025 41.0106742 44.6864632 41.0106742 45.3516238 40.194889 45.3516238 39.02454zM37.950623 39.3445122L36.6754898 39.3473949 36.6754898 41.310468 36.2949831 41.310468 36.2949831 36.7587903 37.950623 36.7587903C38.8510587 36.7587903 39.4029387 37.1940679 39.4029387 38.0473273 39.4029387 38.9005867 38.8481541 39.3445122 37.950623 39.3445122zM39.0195274 38.05021L39.0195274 38.0473273C39.0195274 37.4535049 38.6448299 37.098941 37.9360998 37.098941L36.6725852 37.098941 36.6725852 38.9985963 37.9360998 38.9985963C38.6448299 38.9985963 39.0195274 38.6497976 39.0195274 38.05021zM30.4711971 40.2093022C30.6512843 40.964552 31.3222541 41.3882991 32.1675019 41.3882991 33.0127496 41.3882991 33.6837195 40.9213126 33.6837195 40.1199405 33.6837195 39.5203528 33.3554961 39.1484932 32.6002919 38.9409436L31.8305646 38.7189808C31.2699708 38.5633186 30.9591752 38.3932433 30.9591752 37.9118436 30.9591752 37.3554954 31.4442486 37.0470536 32.0426027 37.0470536 32.5902913 37.0000614 33.0992227 37.3312204 33.2741664 37.8484256L33.6546731 37.8484256C33.474586 37.1738895 32.9372292 36.6953724 32.0426027 36.6953724 31.2496383 36.6953724 30.590287 37.153711 30.590287 37.9262567 30.590287 38.5719665 30.99984 38.8602299 31.6417636 39.0389531L32.513153 39.2839769C33.0940793 39.4454044 33.3061174 39.7279024 33.3061174 40.1285884 33.3061174 40.7051151 32.8210439 41.0395005 32.1616926 41.0395005 31.5861678 41.0861835 31.0514204 40.741467 30.8604177 40.2006543L30.4711971 40.2093022zM25.6378904 18.0245576L26.6138466 18.0245576 30.9707937 27.6986744 29.550429 27.6986744 28.257868 24.8477502 24.1100543 24.8477502 22.898823 27.6986744 21.472649 27.6986744 25.6378904 18.0245576zM27.6740371 23.631279L26.1113454 20.1461756 24.6590297 23.631279 27.6740371 23.631279zM55.5178338 18.0850929L57.2518987 18.0850929 53.0488971 22.6511838 58.2859475 27.7044396 56.3921278 27.7044396 51.4368267 22.9538602 51.4368267 27.7044396 50.0513175 27.7044396 50.0513175 18.0850929 51.4368267 18.0850929 51.4368267 22.4868737 55.5178338 18.0850929zM82.3972929 18.0850929L83.7828021 18.0850929 79.8644543 27.7476791 79.5565634 27.7476791 76.3905151 19.9242128 73.1867067 27.7476791 72.8904343 27.7476791 68.983705 18.0850929 70.3808327 18.0850929 73.0530936 24.7180317 75.7427823 18.0850929 77.0527711 18.0850929 79.7540783 24.7180317 82.3972929 18.0850929zM89.1331331 18.0879755L90.521547 18.0879755 90.521547 27.7073223 89.1331331 27.7073223 89.1331331 18.0879755zM96.9349731 18.0850929L98.3233869 18.0850929 98.3233869 26.4533769 102.686143 26.4533769 102.686143 27.7044396 96.9349731 27.7044396 96.9349731 18.0850929zM108.164278 18.0850929L109.552692 18.0850929 109.552692 26.4533769 113.915448 26.4533769 113.915448 27.7044396 108.164278 27.7044396 108.164278 18.0850929zM121.792809 23.6774012L120.738428 23.0432219C120.195195 22.7424839 119.715813 22.340151 119.326777 21.8584597 119.046655 21.4674646 118.900073 20.9977134 118.90851 20.5180352 118.884205 19.8168237 119.174662 19.1410559 119.701474 18.67315 120.27397 18.1847592 121.012455 17.9311846 121.766667 17.9640223 122.561428 17.9596743 123.338622 18.195994 123.994519 18.6414411L123.994519 20.2038282C123.408155 19.5864321 122.598012 19.2264443 121.74343 19.2035545 121.346826 19.1869437 120.95518 19.2959759 120.625147 19.5148789 120.352616 19.6902608 120.188509 19.9910172 120.189452 20.3133683 120.193864 20.6133466 120.308518 20.9013985 120.511866 21.1233882 120.811239 21.4412184 121.160429 21.7089148 121.545915 21.9161123L122.614819 22.5387611C123.797973 23.2402018 124.389549 24.1318963 124.389549 25.2138446 124.415274 25.9230033 124.130307 26.6084721 123.608203 27.0933214 123.052074 27.5894291 122.322029 27.8492196 121.574961 27.8168623 120.631146 27.8236767 119.711725 27.5195241 118.960793 26.9520724L118.960793 25.1907836C119.710188 26.1324437 120.581577 26.6032738 121.574961 26.6032738 121.969002 26.6170613 122.354794 26.4890965 122.661294 26.2429446 122.939355 26.0255587 123.099384 25.6919358 123.094084 25.3406805 123.094084 24.7641538 122.668071 24.2087665 121.816046 23.6745185L121.792809 23.6774012zM14.7716643 18.1225671L16.0961763 18.1225671 16.0961763 24.9428771C16.1283944 25.5791432 16.0397132 26.2157455 15.8347594 26.8194713 15.6618301 27.2234976 15.3664008 27.5640436 14.9895117 27.7938013 14.5658829 28.0468991 14.0779376 28.1739647 13.5836701 28.1598957 13.4397317 28.1543661 13.2962147 28.1408929 13.1537846 28.1195388L12.9097956 26.8973024 13.2467328 26.8973024C13.5436986 26.9112377 13.8403628 26.8641309 14.1181223 26.758936 14.3288421 26.6560279 14.4971617 26.4838902 14.5944818 26.271771 14.7106671 26.0392386 14.7687597 25.5463083 14.7687597 24.7929802L14.7716643 18.1225671zM44.0677768 25.4761642L44.0677768 26.9924293C42.9825429 27.5623134 41.7691195 27.8489884 40.5415542 27.8255102 39.5823012 27.8557479 38.6321305 27.6329353 37.7879636 27.1798004 37.040893 26.755289 36.4228272 26.1389168 35.9987107 25.3954505 35.5598738 24.6454771 35.3321511 23.7922598 35.3393594 22.9250339 35.3133052 21.5882347 35.8626944 20.3038024 36.8497677 19.3938083 37.8466757 18.4382282 39.1879311 17.9190795 40.5735052 17.9524918 41.7465442 17.9879273 42.9003679 18.2575321 43.9661147 18.7452159L43.9661147 20.2240067C42.9629561 19.618911 41.8168478 19.2868297 40.6432163 19.2612072 39.6180408 19.2285664 38.622317 19.6043249 37.8780072 20.3047204 37.1769816 20.9927336 36.7808048 21.9294205 36.7769897 22.9078729 36.7731747 23.8863254 37.1620353 24.826027 37.8576748 25.5194037 38.6074701 26.2104686 39.6032241 26.5775487 40.6257885 26.5398558 41.8544039 26.5233515 43.0511482 26.1495077 44.0677768 25.4646337L44.0677768 25.4761642z"/>
  </g>
</svg>
