
<svg width="18px" height="17px" viewBox="0 0 18 17" version="1.1" xmlns="http://www.w3.org/2000/svg" xmlns:xlink="http://www.w3.org/1999/xlink">
    <g id="Page-1" stroke="none" stroke-width="1">
        <g id="breathable" fill-rule="nonzero" fill="#000000">
            <g>
                <path d="M4.3329,2.1283 C0.1469,5.3673 0.1469,11.6413 4.3329,14.8813 C7.1869,17.0903 11.2749,17.0903 14.1289,14.8813 C18.3149,11.6413 18.3149,5.3663 14.1279,2.1273 C11.2749,-0.0807 7.1869,-0.0807 4.3329,2.1283 M15.8349,13.8733 C12.4129,18.0533 6.0489,18.0533 2.6269,13.8733 C0.0939,10.7803 0.0939,6.2313 2.6259,3.1363 C6.0469,-1.0457 12.4139,-1.0457 15.8359,3.1363 C18.3679,6.2303 18.3679,10.7793 15.8349,13.8733" id="Fill-3"></path>
                <path d="M6.5663,10.6469 C6.4623,10.6469 6.3593,10.6689 6.2593,10.7139 C6.0763,10.7959 5.9363,10.9439 5.8643,11.1319 C5.7933,11.3189 5.7993,11.5219 5.8813,11.7079 C5.9623,11.8899 6.1113,12.0299 6.2993,12.0999 C6.4873,12.1729 6.6923,12.1669 6.8743,12.0839 C7.2523,11.9159 7.4213,11.4699 7.2523,11.0909 C7.1273,10.8129 6.8523,10.6469 6.5663,10.6469 M6.5673,12.6209 C6.4203,12.6209 6.2733,12.5939 6.1323,12.5419 C5.8273,12.4249 5.5853,12.1959 5.4513,11.8989 C5.3183,11.5999 5.3083,11.2679 5.4243,10.9639 C5.5413,10.6599 5.7693,10.4179 6.0673,10.2849 C6.6823,10.0089 7.4063,10.2849 7.6823,10.8989 C7.8163,11.1969 7.8253,11.5289 7.7093,11.8339 C7.5933,12.1389 7.3653,12.3799 7.0663,12.5129 C6.9073,12.5849 6.7373,12.6209 6.5673,12.6209" id="Fill-5"></path>
                <path d="M9.2303,5.7826 C9.1263,5.7826 9.0213,5.8036 8.9233,5.8476 C8.7413,5.9306 8.6003,6.0796 8.5293,6.2656 C8.4583,6.4546 8.4633,6.6586 8.5453,6.8416 C8.6273,7.0236 8.7753,7.1646 8.9633,7.2366 C9.1503,7.3066 9.3543,7.3016 9.5393,7.2196 C9.7213,7.1366 9.8623,6.9896 9.9333,6.8016 C10.0043,6.6146 9.9993,6.4106 9.9173,6.2256 C9.8343,6.0446 9.6863,5.9026 9.4993,5.8326 C9.4123,5.7996 9.3223,5.7826 9.2303,5.7826 M9.2313,7.7566 C9.0843,7.7566 8.9373,7.7286 8.7953,7.6766 C8.4923,7.5586 8.2503,7.3316 8.1163,7.0336 C7.9813,6.7366 7.9723,6.4046 8.0883,6.0986 C8.2053,5.7946 8.4333,5.5526 8.7313,5.4196 C9.0293,5.2866 9.3623,5.2756 9.6673,5.3916 C9.9713,5.5086 10.2123,5.7366 10.3463,6.0346 C10.4793,6.3326 10.4903,6.6646 10.3743,6.9696 C10.2563,7.2736 10.0293,7.5146 9.7303,7.6476 C9.5723,7.7196 9.4023,7.7566 9.2313,7.7566" id="Fill-7"></path>
                <path d="M14.2069,5.7826 C14.1019,5.7826 13.9979,5.8036 13.8989,5.8476 C13.7169,5.9306 13.5769,6.0796 13.5049,6.2656 C13.4339,6.4546 13.4389,6.6586 13.5209,6.8416 C13.6909,7.2196 14.1369,7.3876 14.5149,7.2196 C14.8929,7.0506 15.0609,6.6046 14.8929,6.2256 C14.8109,6.0446 14.6619,5.9026 14.4749,5.8326 C14.3879,5.7996 14.2969,5.7826 14.2069,5.7826 M14.2079,7.7566 C14.0609,7.7566 13.9139,7.7286 13.7709,7.6766 C13.4679,7.5586 13.2259,7.3316 13.0929,7.0336 C12.9589,6.7366 12.9489,6.4046 13.0639,6.0986 C13.1819,5.7946 13.4099,5.5526 13.7069,5.4196 C14.0049,5.2866 14.3369,5.2756 14.6419,5.3916 C14.9469,5.5086 15.1879,5.7366 15.3219,6.0346 C15.5979,6.6486 15.3219,7.3736 14.7079,7.6476 C14.5479,7.7196 14.3779,7.7566 14.2079,7.7566" id="Fill-9"></path>
                <path d="M4.2548,5.7836 C4.1508,5.7836 4.0478,5.8046 3.9478,5.8476 C3.5698,6.0176 3.4008,6.4636 3.5698,6.8416 C3.6518,7.0236 3.8008,7.1646 3.9878,7.2366 C4.1758,7.3066 4.3798,7.3016 4.5638,7.2196 C4.9418,7.0506 5.1098,6.6046 4.9418,6.2256 C4.8168,5.9486 4.5408,5.7836 4.2548,5.7836 M4.2568,7.7566 C4.1088,7.7566 3.9618,7.7286 3.8198,7.6766 C3.5168,7.5586 3.2748,7.3316 3.1418,7.0336 C3.0078,6.7366 2.9968,6.4046 3.1128,6.0986 C3.2308,5.7946 3.4578,5.5526 3.7548,5.4196 C4.0538,5.2866 4.3858,5.2756 4.6918,5.3916 C4.9948,5.5086 5.2368,5.7366 5.3698,6.0346 C5.6468,6.6486 5.3698,7.3736 4.7568,7.6476 C4.5968,7.7206 4.4268,7.7566 4.2568,7.7566" id="Fill-11"></path>
                <path d="M11.8944,10.6469 C11.7914,10.6469 11.6874,10.6689 11.5884,10.7139 C11.4064,10.7959 11.2644,10.9439 11.1944,11.1319 C11.1224,11.3189 11.1274,11.5219 11.2094,11.7079 C11.2914,11.8899 11.4404,12.0299 11.6274,12.0999 C11.8144,12.1719 12.0194,12.1679 12.2034,12.0839 C12.5814,11.9159 12.7504,11.4699 12.5814,11.0909 C12.4564,10.8129 12.1814,10.6469 11.8944,10.6469 M11.8954,12.6209 C11.7484,12.6209 11.6014,12.5939 11.4604,12.5419 C11.1564,12.4249 10.9144,12.1969 10.7814,11.8989 C10.6464,11.5999 10.6374,11.2679 10.7534,10.9639 C10.8704,10.6599 11.0974,10.4179 11.3954,10.2849 C11.6944,10.1509 12.0244,10.1409 12.3314,10.2579 C12.6354,10.3749 12.8774,10.6009 13.0104,10.8989 C13.1444,11.1969 13.1544,11.5289 13.0384,11.8339 C12.9214,12.1389 12.6944,12.3799 12.3954,12.5129 C12.2364,12.5849 12.0654,12.6209 11.8954,12.6209" id="Fill-13"></path>
            </g>
        </g>
    </g>
</svg>
