<svg xmlns="http://www.w3.org/2000/svg" xmlns:xlink="http://www.w3.org/1999/xlink" width="22" height="22" viewBox="0 0 22 22">
  <defs>
    <polygon id="chlorineresistant-a" points="12 0 0 0 0 24 12 24 24 24 24 0"/>
  </defs>
  <g fill="none" fill-rule="evenodd" transform="translate(-1 -1)">
    <path fill="#000" fill-rule="nonzero" d="M12,1 C18.065398,1 23,5.93460201 23,12 C23,18.065398 18.065398,23 12,23 C5.93460201,23 1,18.065398 1,12 C1,5.93460201 5.93460201,1 12,1 Z M12,22.4204019 C15.194745,22.4204019 18.0578632,20.9746909 19.9709235,18.7037287 C19.8289219,18.5749614 19.6933926,18.4436824 19.562983,18.3153014 C18.9253284,17.6874034 18.3940301,17.1561051 17.2542504,17.1561051 C16.114374,17.1561051 15.5734158,17.6874034 14.9455178,18.3153014 C14.3176198,18.9431994 13.5931221,19.6580371 12.2020866,19.6580371 C10.811051,19.6580371 10.0962133,18.9431994 9.45865533,18.3153014 C8.82109737,17.6874034 8.28979907,17.1561051 7.14992272,17.1561051 C6.01004637,17.1561051 5.47874807,17.6970634 4.84119011,18.3153014 C4.64151855,18.5089838 4.43247682,18.7119397 4.19947836,18.9008887 C6.10993045,21.0579598 8.89866692,22.4204019 12,22.4204019 Z M12,1.57959815 C6.77955951,1.57959815 2.44368238,5.4386592 1.69445518,10.4539219 C2.37944359,10.2795595 2.80728362,9.85336167 3.29559505,9.37982998 C3.93315301,8.76159196 4.64799073,8.03709428 6.02936631,8.03709428 C7.41074189,8.03709428 8.13523957,8.75193199 8.77279753,9.37982998 C9.41035549,10.007728 9.94165379,10.5390263 11.0815301,10.5390263 C12.2214065,10.5390263 12.7623648,10.007728 13.3902628,9.37982998 C14.0181607,8.75193199 14.7426584,8.03709428 16.133694,8.03709428 C17.5246329,8.03709428 18.2395672,8.75193199 18.8770286,9.37982998 C19.5146832,10.007728 20.0459815,10.5390263 21.1858578,10.5390263 C21.6295402,10.5390263 21.9821291,10.4581723 22.2847759,10.3228362 C21.4801971,5.37171561 17.1748454,1.57959815 12,1.57959815 Z M22.0262751,14.7604328 C22.0340031,14.7604328 22.0410549,14.7598532 22.0486862,14.7597566 C22.2904753,13.8804096 22.4204019,12.9551777 22.4204019,12 C22.4204019,11.6434505 22.4023377,11.2911515 22.3671754,10.9436824 C22.0262751,11.0753478 21.6330178,11.1572643 21.1665379,11.1572643 C19.7755023,11.1572643 19.0606646,10.4424266 18.4231066,9.81452859 C17.7855487,9.1866306 17.2542504,8.6553323 16.114374,8.6553323 C14.9744977,8.6553323 14.4334428,9.1866306 13.8055448,9.81452859 C13.1776468,10.4424266 12.4531491,11.1572643 11.0622102,11.1572643 C9.67117465,11.1572643 8.95633694,10.4424266 8.31877898,9.81452859 C7.68122102,9.1866306 7.14992272,8.6553323 6.01004637,8.6553323 C4.87017002,8.6553323 4.33887172,9.1866306 3.71097372,9.81452859 C3.18972179,10.3357805 2.59988408,10.9149923 1.61920402,11.0971793 C1.5935085,11.3948029 1.57959815,11.6958076 1.57959815,12 C1.57959815,12.9541151 1.70923493,13.8782844 1.95044436,14.7568586 C3.00521638,14.7192813 3.52221793,14.2057573 4.13601236,13.6012365 C4.77357032,12.9733385 5.48840804,12.2681607 6.86978362,12.2681607 C8.2511592,12.2681607 8.97565688,12.9830951 9.61321484,13.6012365 C10.2507728,14.2194745 10.7820711,14.7604328 11.9218509,14.7604328 C13.0618238,14.7604328 13.6027821,14.2291345 14.2306801,13.6012365 C14.8585781,12.9733385 15.5830757,12.2681607 16.9741113,12.2681607 C18.3651468,12.2681607 19.0799845,12.9830951 19.7175425,13.6012365 C20.3551005,14.2194745 20.8863988,14.7604328 22.0262751,14.7604328 Z M20.3574189,18.2172527 C20.9941074,17.3635046 21.5030912,16.4091963 21.8562597,15.3830178 C20.5588292,15.3357805 19.8691074,14.6518547 19.253864,14.055255 C18.616306,13.437017 18.0850077,12.8960587 16.9450348,12.8960587 C15.805255,12.8960587 15.2642968,13.427357 14.6363988,14.055255 C14.0085008,14.683153 13.2840031,15.3883308 11.8929675,15.3883308 C10.501932,15.3883308 9.78709428,14.6735896 9.14953632,14.055255 C8.51197836,13.437017 7.98068006,12.8960587 6.84080371,12.8960587 C5.70092736,12.8960587 5.16962906,13.427357 4.54173107,14.055255 C3.9676391,14.629347 3.31066461,15.2657457 2.13939335,15.3707496 C2.52521252,16.4963292 3.09853168,17.5354521 3.82206337,18.4507342 C4.02907651,18.2832303 4.22343509,18.0926391 4.42581144,17.8902628 C5.05370943,17.2623648 5.77820711,16.547527 7.16924266,16.547527 C8.56027821,16.547527 9.27511592,17.2623648 9.91267388,17.8902628 C10.5502318,18.5181607 11.0815301,19.049459 12.2214065,19.049459 C13.3612828,19.049459 13.9021445,18.5181607 14.5300425,17.8902628 C15.1579405,17.2623648 15.8824382,16.547527 17.2735703,16.547527 C18.6646059,16.547527 19.3794436,17.2623648 20.0170015,17.8902628 C20.1324382,18.0039606 20.244687,18.1126352 20.3574189,18.2172527 Z"/>
  </g>
</svg>
