<svg xmlns="http://www.w3.org/2000/svg" width="134" height="34" viewBox="0 0 134 34">
  <g fill="none" fill-rule="evenodd" transform="translate(-2 -13)">
    <rect width="138" height="60"/>
    <path fill="#000" fill-rule="nonzero" d="M7.57485232,28.4901695 L7.34021097,28.4901695 C7.21582278,28.040678 7.11405063,27.6027119 6.65324895,27.4038983 C6.16406697,27.2410411 5.64832541,27.1774141 5.13514768,27.2166102 C4.72523207,27.2166102 4.53016878,27.1964407 4.40578059,27.2684746 C4.3435865,27.3116949 4.32379747,27.4989831 4.32379747,27.8015254 L4.32379747,30.1440678 C5.73729958,30.2074576 5.93518987,29.6311864 5.99455696,28.8791525 L6.22919831,28.8791525 C6.22919831,29.3488136 6.20940928,29.83 6.18679325,30.299661 C6.16417722,30.769322 6.2178903,31.1640678 6.22919831,31.5962712 L5.99455696,31.5962712 C5.86168776,30.4955932 5.29628692,30.4754237 4.32379747,30.4754237 L4.32379747,31.7922034 C4.30505713,32.2547264 4.33921108,32.7179006 4.42556962,33.1723729 C4.57822785,33.5901695 5.0814346,33.5066102 5.44046414,33.5267797 L5.44046414,33.7659322 C4.91746835,33.7659322 4.38316456,33.7342373 3.86016878,33.7227119 C3.337173,33.7111864 2.82548523,33.7544068 2.27987342,33.7659322 L2.27987342,33.5267797 C2.60780591,33.5267797 3.02902954,33.5267797 3.16189873,33.1723729 C3.25058013,32.7104245 3.28568732,32.239454 3.26649789,31.7691525 L3.26649789,28.8330508 C3.28529372,28.3686162 3.25114119,27.9035274 3.16472574,27.4471186 C3.03185654,27.0927119 2.59932489,27.0927119 2.28270042,27.0927119 L2.28270042,26.8535593 C2.90746835,26.8535593 3.51244726,26.8852542 4.11742616,26.8967797 C5.2143038,26.8967797 6.31118143,26.8650847 7.40805907,26.8535593 L7.57485232,28.4901695 Z M53.2535865,28.8330508 C53.2726019,28.3676572 53.2384484,27.9015884 53.1518143,27.4442373 C53.0189451,27.0898305 52.5864135,27.0898305 52.269789,27.0898305 L52.269789,26.850678 C52.7616878,26.850678 53.2535865,26.8823729 53.7454852,26.8938983 C54.237384,26.9054237 54.7801688,26.8622034 55.2946835,26.850678 L55.2946835,27.0898305 C54.9667511,27.0898305 54.5455274,27.0898305 54.4126582,27.4442373 C54.3259733,27.9015815 54.2918194,28.3676563 54.3108861,28.8330508 L54.3108861,31.7691525 C54.2918194,32.2345471 54.3259733,32.7006219 54.4126582,33.1579661 C54.5455274,33.5123729 54.9780591,33.5123729 55.2946835,33.5123729 L55.2946835,33.7515254 C54.8140928,33.7515254 54.3108861,33.7198305 53.8189873,33.7083051 C53.3270886,33.6967797 52.7843038,33.74 52.269789,33.7515254 L52.269789,33.5267797 C52.5977215,33.5267797 53.0189451,33.5267797 53.1518143,33.1723729 C53.2384484,32.7150217 53.2726019,32.248953 53.2535865,31.7835593 L53.2535865,28.8330508 Z M68.0925316,26.8708475 L68.2451899,26.8708475 L68.327173,28.9310169 L68.0925316,28.9310169 C67.9172574,27.7784746 67.1172152,26.9544068 65.9298734,26.9544068 C64.0951477,26.9544068 63.5410549,28.8042373 63.5410549,30.3716949 C63.5410549,31.9391525 64.1347257,33.6333898 65.9496624,33.6333898 C67.3857806,33.6333898 67.9087764,32.5874576 68.2112658,31.3283051 L68.3950211,31.3283051 L68.3950211,33.6161017 L68.2621519,33.6161017 L68.0162025,33.0830508 C67.3794828,33.6132659 66.576453,33.8915452 65.7545992,33.8667797 C63.6739241,33.8667797 62.2575949,32.4981356 62.2575949,30.3659322 C62.2232356,29.3851027 62.5904526,28.4338536 63.2713548,27.7398605 C63.952257,27.0458674 64.8855624,26.6715903 65.8478903,26.7066102 C66.5912756,26.6929168 67.3197649,26.9199024 67.9285654,27.3549153 L68.0925316,26.8708475 Z M95.3250633,31.7950847 C95.3427116,32.3089757 95.2224892,32.8180389 94.9773418,33.2674576 C94.5476371,33.9272881 93.8917722,34.0944068 93.1624051,34.0944068 C92.6902954,34.0944068 91.5510127,34.0223729 91.5510127,33.3308475 C91.5500529,33.2184829 91.5947965,33.1107313 91.6746067,33.0332083 C91.7544168,32.9556853 91.8621649,32.9153151 91.9722363,32.9216949 C92.2379747,32.9216949 92.3821519,33.1320339 92.4839241,33.359661 C92.5574416,33.6785216 92.8510337,33.8927899 93.1708861,33.8610169 C93.6906223,33.912924 94.1534979,33.5262233 94.2055696,32.9966102 C94.2480672,32.7725616 94.2688983,32.5448043 94.2677637,32.3166102 L94.2677637,28.0550847 C94.2698477,27.8450339 94.2353909,27.6362689 94.1659916,27.4384746 C94.0218143,27.0840678 93.6005907,27.0840678 93.2839662,27.0840678 L93.2839662,26.8420339 C93.775865,26.8420339 94.2677637,26.8737288 94.7596624,26.8852542 C95.2515612,26.8967797 95.785865,26.8535593 96.3088608,26.8420339 L96.3088608,27.0811864 C95.9809283,27.0811864 95.5794937,27.0811864 95.4268354,27.4355932 C95.3356945,27.8122791 95.3013769,28.2009165 95.3250633,28.5881356 L95.3250633,31.7950847 Z M121.667089,27.0898305 L121.819747,27.0898305 L121.90173,29.15 L121.667089,29.15 C121.491814,27.9974576 120.691772,27.1733898 119.50443,27.1733898 C117.669705,27.1733898 117.115612,29.0232203 117.115612,30.590678 C117.115612,32.1581356 117.709283,33.8523729 119.524219,33.8523729 C120.960338,33.8523729 121.483333,32.8064407 121.785823,31.5472881 L121.969578,31.5472881 L121.969578,33.8437288 L121.836709,33.8437288 L121.590759,33.310678 C120.95404,33.840893 120.15101,34.1191724 119.329156,34.0944068 C117.245654,34.0944068 115.832152,32.7257627 115.832152,30.5935593 C115.797793,29.6127298 116.16501,28.6614807 116.845912,27.9674876 C117.526814,27.2734945 118.460119,26.8992174 119.422447,26.9342373 C120.165833,26.9205439 120.894322,27.1475295 121.503122,27.5825424 L121.667089,27.0898305 Z M130.784177,31.3772881 L130.784177,32.6105085 C130.784177,33.6045763 130.815274,33.6564407 131.799072,33.74 L131.799072,33.9791525 C131.295865,33.9791525 130.803966,33.9474576 130.300759,33.9359322 C129.797553,33.9244068 129.266076,33.9676271 128.74308,33.9791525 L128.74308,33.74 C129.071013,33.74 129.492236,33.74 129.625105,33.3855932 C129.711689,32.9282352 129.745842,32.4621725 129.726878,31.9967797 L129.726878,29.0462712 C129.745842,28.5808784 129.711689,28.1148157 129.625105,27.6574576 C129.492236,27.3030508 129.059705,27.3030508 128.74308,27.3030508 L128.74308,27.0638983 C129.234979,27.0638983 129.718397,27.0955932 130.210295,27.1071186 C130.702194,27.1186441 131.267595,27.0754237 131.799072,27.0638983 L131.799072,27.3030508 C130.815274,27.3866102 130.784177,27.45 130.784177,28.4325424 L130.784177,30.9825424 C131.276076,30.4610169 133.254979,28.3288136 133.254979,27.7208475 C133.254979,27.2828814 132.794177,27.3347458 132.486034,27.3030508 L132.486034,27.0638983 C132.895949,27.0638983 133.297384,27.0955932 133.7073,27.1071186 C134.066329,27.1071186 134.414051,27.0754237 134.77308,27.0638983 L134.77308,27.3030508 C134.207679,27.3030508 134.07481,27.45 133.738397,27.879322 L132.098734,29.9481356 L133.512236,31.619322 C133.636624,31.7749153 134.710886,33.2184746 135.194304,33.5728814 C135.373289,33.6920749 135.58624,33.7468433 135.799283,33.7284746 L135.799283,33.9676271 C135.256498,33.9676271 134.710886,33.9359322 134.168101,33.9244068 C133.625316,33.9128814 133.133418,33.9561017 132.610422,33.9676271 L132.610422,33.7284746 C132.794177,33.7284746 133.458523,33.7601695 133.458523,33.4144068 C133.458523,33.1954237 132.811139,32.420339 132.647173,32.2215254 L131.39481,30.6857627 L130.784177,31.3772881 Z M82.6233333,26.0698305 L82.3236709,26.0698305 L88.9388608,13 L89.1763291,13.1238983 L82.6233333,26.0698305 Z M78.7107595,33.9157627 L72.1662447,46.8645763 L71.9316034,46.740678 L78.4308861,33.8811864 L78.7107595,33.9157627 Z M83.5647257,29.0347458 L83.4375105,29.0347458 C83.3724895,28.7955932 83.3159494,28.559322 83.07,28.4584746 C82.8085903,28.3712527 82.5329645,28.3369936 82.2586498,28.3576271 C82.1280445,28.3398762 81.9952531,28.3496838 81.8685232,28.3864407 C81.8345992,28.4094915 81.8232911,28.510339 81.8232911,28.6745763 L81.8232911,29.9279661 C82.5752743,29.9625424 82.6713924,29.6542373 82.7166245,29.2508475 L82.8438397,29.2508475 C82.8438397,29.5015254 82.8438397,29.7608475 82.8212236,30.0115254 C82.7986076,30.2622034 82.8381857,30.4754237 82.8438397,30.7030508 L82.7166245,30.7030508 C82.6402954,30.1267797 82.3491139,30.1037288 81.8232911,30.1037288 L81.8232911,30.809661 C81.8131719,31.0568261 81.8311966,31.3043537 81.8770042,31.5472881 C81.9589873,31.7720339 82.2275527,31.7259322 82.419789,31.7374576 L82.419789,31.8671186 L81.5716878,31.8440678 L80.7235865,31.8671186 L80.7235865,31.7374576 C80.8988608,31.7374576 81.1250211,31.7374576 81.1956962,31.5472881 C81.2417383,31.3024414 81.2597631,31.0529781 81.2494093,30.8038983 L81.2494093,29.2191525 C81.2597886,28.9700723 81.2417636,28.7206061 81.1956962,28.4757627 C81.1250211,28.2855932 80.9129958,28.2855932 80.7235865,28.2855932 L80.7235865,28.1559322 L81.704557,28.1789831 L83.4657806,28.1559322 L83.5647257,29.0347458 Z M14.9985654,31.4983051 C14.8459072,31.8959322 14.5066667,32.6681356 14.5066667,33.0772881 C14.5066667,33.4864407 15.0268354,33.4979661 15.3349789,33.5267797 L15.3349789,33.7659322 C14.9561603,33.7659322 14.5858228,33.7342373 14.2041772,33.7227119 C13.8225316,33.7111864 13.4974262,33.7544068 13.1383966,33.7659322 L13.1383966,33.5267797 C13.5948189,33.5383512 14.0004121,33.2318716 14.1221941,32.7833898 C14.4048945,32.1149153 14.6875949,31.4550847 14.9702954,30.7866102 L16.5392827,26.6777966 L16.8870042,26.6777966 L18.9591983,31.9881356 C19.1057232,32.3867145 19.2844374,32.7722173 19.4935021,33.140678 C19.7196624,33.4432203 20.0278059,33.4864407 20.3755274,33.5267797 L20.3755274,33.7659322 C19.8949367,33.7659322 19.400211,33.7342373 18.9196203,33.7227119 C18.4390295,33.7111864 17.9245148,33.7544068 17.432616,33.7659322 L17.432616,33.5267797 C17.7153165,33.5267797 18.2213502,33.5267797 18.2213502,33.1291525 C18.1988758,32.8473061 18.1290705,32.5714882 18.0149789,32.3137288 L17.6135443,31.2361017 L15.0692405,31.2361017 L14.9985654,31.4983051 Z M17.4891561,30.9047458 L16.3583544,27.9571186 L15.2218987,30.9047458 L17.4891561,30.9047458 Z M45.0326582,32.9216949 C45.2589898,33.2721909 45.6291984,33.4990106 46.0390717,33.5383051 L46.0390717,33.7774576 C45.7309283,33.7774576 45.4227848,33.7457627 45.1174684,33.7342373 C44.860211,33.7342373 44.6057806,33.7659322 44.3485232,33.7774576 L43.8651055,33.1723729 L42.168903,31.02 C41.8296624,30.6223729 41.8720675,30.5589831 41.3208017,30.5589831 L41.3208017,31.7691525 C41.3042058,32.234141 41.3354736,32.6996218 41.4140928,33.1579661 C41.538481,33.5238983 41.9568776,33.5123729 42.2848101,33.5123729 L42.2848101,33.7515254 C41.8127004,33.7515254 41.3321097,33.7198305 40.840211,33.7083051 C40.3483122,33.6967797 39.8140084,33.74 39.3023207,33.7515254 L39.3023207,33.5267797 C39.6302532,33.5267797 40.0599578,33.5267797 40.173038,33.1723729 C40.2516572,32.7140286 40.282925,32.2485478 40.2663291,31.7835593 L40.2663291,28.8330508 C40.282925,28.3680624 40.2516572,27.9025816 40.173038,27.4442373 C40.0599578,27.0783051 39.6302532,27.0898305 39.3023207,27.0898305 L39.3023207,26.850678 C39.8875105,26.850678 40.4811814,26.8823729 41.0663713,26.8938983 C41.4960759,26.8938983 41.9370886,26.8622034 42.3696203,26.850678 C43.54,26.850678 44.7188608,27.1215254 44.7188608,28.5794915 C44.7188608,29.7089831 43.8707595,30.2823729 42.861519,30.3774576 L45.0326582,32.9216949 Z M41.3208017,30.2766102 C42.6014346,30.2766102 43.537173,30.2449153 43.537173,28.729322 C43.537173,27.8101695 43.0254852,27.1618644 42.1010549,27.1618644 C41.8791521,27.140624 41.6557846,27.140624 41.4338819,27.1618644 C41.3010127,27.2252542 41.3208017,27.4240678 41.3208017,27.539322 L41.3208017,30.2766102 Z M104.306456,31.7115254 C104.153797,32.1091525 103.814557,32.8813559 103.814557,33.2905085 C103.814557,33.699661 104.337553,33.7083051 104.645696,33.74 L104.645696,33.9791525 C104.266878,33.9791525 103.89654,33.9474576 103.514895,33.9359322 C103.133249,33.9244068 102.808143,33.9676271 102.449114,33.9791525 L102.449114,33.74 C102.905536,33.7515715 103.311129,33.445092 103.432911,32.9966102 C103.715612,32.3281356 103.998312,31.6683051 104.281013,30.9998305 L105.85,26.8910169 L106.197722,26.8910169 L108.269916,32.2013559 C108.416441,32.5999348 108.595155,32.9854376 108.804219,33.3538983 C109.03038,33.6564407 109.338523,33.699661 109.686245,33.74 L109.686245,33.9791525 C109.202827,33.9791525 108.710928,33.9474576 108.230338,33.9359322 C107.749747,33.9244068 107.235232,33.9676271 106.743333,33.9791525 L106.743333,33.74 C107.026034,33.74 107.532068,33.74 107.532068,33.3423729 C107.509593,33.0605264 107.439788,32.7847085 107.325696,32.5269492 L106.927089,31.449322 L104.382785,31.449322 L104.306456,31.7115254 Z M106.785738,31.1150847 L105.654937,28.1674576 L104.524135,31.1150847 L106.785738,31.1150847 Z M75.8413502,30.0201695 C75.876716,28.9217463 76.7763152,28.058938 77.8541772,28.089661 C78.555604,28.0461129 79.2224479,28.4043245 79.5836639,29.0186971 C79.94488,29.6330698 79.9403425,30.4013393 79.571896,31.0112353 C79.2034494,31.6211313 78.5324227,31.9711346 77.8315612,31.9189831 C76.7657806,31.9189831 75.8413502,31.1438983 75.8413502,30.0201695 Z M76.5283122,30.0201695 C76.5283122,30.8845763 76.8675527,31.7691525 77.8683122,31.7691525 C78.8690717,31.7691525 79.1404641,30.8355932 79.1404641,30.0028814 C79.1404641,29.1701695 78.8012236,28.2423729 77.8343882,28.2423729 C76.8675527,28.2423729 76.5367932,29.190339 76.5367932,30.0201695 L76.5283122,30.0201695 Z M27.5476371,28.8330508 C27.5642331,28.3680624 27.5329652,27.9025816 27.454346,27.4442373 C27.3412658,27.0783051 26.9115612,27.0898305 26.5836287,27.0898305 L26.5836287,26.850678 C27.0755274,26.850678 27.5589451,26.8823729 28.0508439,26.8938983 C28.4607595,26.8938983 28.8621941,26.8622034 29.2721097,26.850678 C30.3491983,26.8189831 31.7937975,27.1013559 31.7937975,28.4930508 C31.7937975,29.4438983 31.0361603,29.8530508 30.2559072,30.0922034 L30.2559072,30.1123729 C30.7830859,30.1229613 31.298855,30.2707483 31.7542194,30.5416949 C32.2783224,30.8655018 32.580576,31.4610013 32.5370798,32.0840848 C32.4935836,32.7071684 32.1116523,33.2530521 31.5478481,33.4979661 C30.9824473,33.7861017 30.2559072,33.7688136 29.6622363,33.7688136 C29.2099156,33.7688136 28.768903,33.7371186 28.3194093,33.7255932 C27.7540084,33.7255932 27.1603376,33.7572881 26.5864557,33.7688136 L26.5864557,33.5267797 C26.9143882,33.5267797 27.3440928,33.5267797 27.457173,33.1723729 C27.5357922,32.7140286 27.5670601,32.2485478 27.5504641,31.7835593 L27.5476371,28.8330508 Z M28.6049367,29.9855932 L28.9328692,29.9855932 C29.3521931,30.0353263 29.7766412,29.9592193 30.154135,29.7666102 C30.5838397,29.4784746 30.6771308,29.0347458 30.6771308,28.5333898 C30.6771308,27.6027119 30.1852321,27.1445763 29.2636287,27.1445763 C29.0605615,27.1231253 28.8553482,27.1407181 28.6586498,27.1964407 C28.5879747,27.2598305 28.5964557,27.5508475 28.5964557,27.6344068 L28.6049367,29.9855932 Z M28.6049367,31.7144068 C28.5832763,32.1571649 28.6251813,32.6007736 28.7293249,33.0311864 C28.9017722,33.4979661 29.4134599,33.4979661 29.8035865,33.4979661 C30.807173,33.4979661 31.2594937,32.8928814 31.2594937,31.8988136 C31.3065994,31.3274741 31.0168264,30.7820491 30.5216456,30.51 C30.0495359,30.259322 29.444557,30.2910169 28.9215612,30.2910169 L28.6049367,30.2910169 L28.6049367,31.7144068 Z"/>
  </g>
</svg>
