
<svg width="18px" height="17px" viewBox="0 0 18 17" version="1.1" xmlns="http://www.w3.org/2000/svg" xmlns:xlink="http://www.w3.org/1999/xlink">
    <g id="Page-1" stroke="none" stroke-width="1">
        <g transform="translate(0.000000, 0.000000)" id="4wayStretch" fill-rule="nonzero" fill="#000000">
            <g>
                <path d="M3.2391,2.8212 C0.1051,5.9552 0.1051,11.0532 3.2391,14.1882 C6.3721,17.3212 11.4701,17.3212 14.6051,14.1862 C17.7391,11.0522 17.7391,5.9552 14.6051,2.8212 C11.4701,-0.3138 6.3731,-0.3138 3.2391,2.8212 M14.9381,14.5192 C11.6201,17.8372 6.2221,17.8382 2.9061,14.5192 C-0.4109,11.2032 -0.4109,5.8042 2.9061,2.4882 C6.2221,-0.8288 11.6211,-0.8288 14.9381,2.4882 C18.2551,5.8042 18.2551,11.2032 14.9381,14.5192" id="Fill-4"></path>
                <polygon id="Fill-6" points="12.8134 12.1748 12.4804 12.5068 4.9524 4.9418 5.2864 4.6098"></polygon>
                <polygon id="Fill-8" points="4.9042 6.5878 4.0502 3.7538 6.8892 4.6108"></polygon>
                <polygon id="Fill-10" points="12.7509 10.498 13.6039 13.332 10.7649 12.477"></polygon>
                <polygon id="Fill-12" points="12.5458 4.5654 12.8778 4.8994 5.3128 12.4274 4.9808 12.0934"></polygon>
                <polygon id="Fill-14" points="6.9891 12.4531 4.1541 13.3061 5.0111 10.4671"></polygon>
                <polygon id="Fill-16" points="10.7665 4.6035 13.6005 3.7495 12.7435 6.5895"></polygon>
            </g>
        </g>
    </g>
</svg>
