<svg xmlns="http://www.w3.org/2000/svg" width="23" height="22" viewBox="0 0 23 22">
  <g fill="none" fill-rule="evenodd" transform="translate(-1 -1)">
    <rect width="24" height="24"/>
    <path fill="#000" fill-rule="nonzero" d="M12.088974,23 C6.04194088,23 1.11647163,18.0980392 1.08509922,12.0509804 C1.0615699,5.98039216 5.97135294,1.03137255 12.0419154,1 L12.088974,1 C18.1673795,1 23.0928487,5.9254902 23.0850056,12.0039216 C23.0850056,14.9058824 21.9399125,17.6901961 19.9007055,19.745098 C17.8536553,21.8235294 15.0536673,23 12.1360326,23 L12.088974,23 Z M12.088974,1.61176471 L12.0419154,1.61176471 C6.30860641,1.63529412 1.6654889,6.31764706 1.69686132,12.0509804 C1.72039063,17.7686275 6.37919434,22.3960784 12.088974,22.3960784 L12.1360326,22.3960784 C17.8771847,22.3647059 22.504616,17.6901961 22.4810866,11.9490196 C22.4654004,9.19607843 21.3595228,6.56078431 19.4065899,4.61568627 C17.4615001,2.68627451 14.8262172,1.60392157 12.088974,1.61176471 Z M16.1203294,6.6 C16.5281708,7.50980392 16.8183656,8.44313725 16.1203294,9.14901961 C15.41445,9.85490196 14.2772,9.85490196 13.5713206,9.14901961 C12.8654413,8.44313725 13.069362,7.4627451 13.5791637,6.6 C14.1987689,5.53333333 14.7477862,3.98823529 14.7477862,3.98823529 C15.3595483,5.22745098 15.9320949,6.17647059 16.1203294,6.6 Z M14.7321,14.8980392 C15.41445,16.4039216 15.9007225,17.972549 14.7242569,19.1411765 C13.5556344,20.3098039 11.6497602,20.3098039 10.4811377,19.1333333 C9.3125152,17.9647059 9.64976867,16.3254902 10.4889808,14.8901961 C11.5242705,13.1176471 12.4340706,10.5529412 12.4340706,10.5529412 C13.4615172,12.6235294 14.4183758,14.1921569 14.7321,14.8980392 Z M7.67330649,10.5764706 C8.08114789,11.4862745 8.37134273,12.4196078 7.67330649,13.1254902 C6.96742714,13.8313725 5.83017707,13.8313725 5.12429772,13.1254902 C4.41841837,12.4196078 4.63018218,11.4392157 5.13214083,10.5764706 C5.75174603,9.50980392 6.30076331,7.96470588 6.30076331,7.96470588 C6.90468231,9.20392157 7.47722889,10.1529412 7.67330649,10.5764706 Z"/>
  </g>
</svg>
