<?xml version="1.0" encoding="UTF-8"?>
<svg width="18px" height="17px" viewBox="0 0 18 17" version="1.1" xmlns="http://www.w3.org/2000/svg" xmlns:xlink="http://www.w3.org/1999/xlink">
    <!-- Generator: Sketch 44.1 (41455) - http://www.bohemiancoding.com/sketch -->
    <title>noPillaring</title>
    <desc>Created with Sketch.</desc>
    <defs></defs>
    <g id="Page-1" stroke="none" stroke-width="1" fill="none" fill-rule="evenodd">
        <g id="Combo_7" transform="translate(-259.000000, -1.000000)" fill-rule="nonzero" fill="#000000">
            <g id="Page-1" transform="translate(252.000000, 1.000000)">
                <g id="noPillaring" transform="translate(7.000000, 0.000000)">
                    <path d="M4.223,2.1288 C0.037,5.3668 0.037,11.6418 4.223,14.8818 C7.077,17.0908 11.165,17.0908 14.019,14.8818 C18.206,11.6418 18.205,5.3658 14.018,2.1278 C11.165,-0.0802 7.077,-0.0802 4.223,2.1288 M15.725,13.8738 C12.303,18.0538 5.94,18.0538 2.517,13.8738 C-0.015,10.7798 -0.015,6.2308 2.516,3.1368 C5.937,-1.0452 12.304,-1.0452 15.726,3.1368 C18.259,6.2298 18.258,10.7788 15.725,13.8738" id="Fill-4"></path>
                    <path d="M10.5346,3.7108 C10.8496,4.0258 10.8496,4.5378 10.5346,4.8558 C10.2186,5.1698 9.7066,5.1698 9.3896,4.8558 C9.0746,4.5378 9.0746,4.0258 9.3896,3.7108 C9.7066,3.3958 10.2186,3.3958 10.5346,3.7108" id="Fill-6"></path>
                    <path d="M16.1185,7.8231 C16.4345,8.1381 16.4345,8.6501 16.1185,8.9671 C15.8035,9.2811 15.2905,9.2811 14.9745,8.9671 C14.6585,8.6501 14.6585,8.1381 14.9745,7.8231 C15.2905,7.5071 15.8035,7.5071 16.1185,7.8231" id="Fill-8"></path>
                    <path d="M7.4252,7.8231 C7.7412,8.1381 7.7412,8.6501 7.4252,8.9671 C7.1102,9.2811 6.5972,9.2811 6.2812,8.9671 C5.9652,8.6501 5.9652,8.1381 6.2812,7.8231 C6.5972,7.5071 7.1102,7.5071 7.4252,7.8231" id="Fill-10"></path>
                    <path d="M9.2103,11.8788 C9.5263,12.1938 9.5263,12.7068 9.2103,13.0238 C8.8953,13.3378 8.3823,13.3378 8.0663,13.0238 C7.7503,12.7068 7.7503,12.1938 8.0663,11.8788 C8.3823,11.5638 8.8953,11.5638 9.2103,11.8788" id="Fill-12"></path>
                    <path d="M12.8129,8.8886 C13.1279,9.2036 13.1279,9.7156 12.8129,10.0326 C12.4969,10.3476 11.9849,10.3476 11.6679,10.0326 C11.3529,9.7156 11.3529,9.2036 11.6679,8.8886 C11.9849,8.5726 12.4969,8.5726 12.8129,8.8886" id="Fill-14"></path>
                    <path d="M7.1029,2.0624 C7.4189,2.3784 7.4189,2.8904 7.1029,3.2084 C6.7879,3.5224 6.2749,3.5224 5.9589,3.2084 C5.6429,2.8904 5.6429,2.3784 5.9589,2.0624 C6.2749,1.7484 6.7879,1.7484 7.1029,2.0624" id="Fill-16"></path>
                    <path d="M3.7064,10.0848 C4.0214,10.3988 4.0214,10.9108 3.7064,11.2288 C3.3904,11.5438 2.8784,11.5438 2.5614,11.2288 C2.2464,10.9108 2.2464,10.3988 2.5614,10.0848 C2.8784,9.7688 3.3904,9.7688 3.7064,10.0848" id="Fill-18"></path>
                    <polygon id="Fill-20" points="3.4672 14.6678 3.1342 14.3348 14.8392 2.6358 15.1722 2.9688"></polygon>
                    <polygon id="Fill-22" points="14.8392 14.6678 15.1722 14.3348 3.4672 2.6358 3.1342 2.9688"></polygon>
                </g>
            </g>
        </g>
    </g>
</svg>