<svg xmlns="http://www.w3.org/2000/svg" width="22" height="22" viewBox="0 0 22 22">
  <g fill="none" fill-rule="evenodd" transform="translate(-1 -1)">
    <rect width="24" height="24"/>
    <path fill="#000" fill-rule="nonzero" d="M10.5246199,11.9010854 C10.5256321,11.8020405 10.5355007,11.7015929 10.5548282,11.6006603 C10.641337,11.1726697 10.8826603,10.8188157 11.2088342,10.5850449 C10.7696921,9.71450082 10.4923323,8.28773771 10.4027108,6.91354134 C10.3171447,5.7346311 10.3646814,4.6127649 10.5358135,3.75710424 C10.7354677,2.75883347 11.0872393,2.2264224 11.5626063,2.19790038 L11.610143,2.19790038 C12.5989065,2.19790038 13.2168836,4.51769149 13.3594937,6.70437984 C13.4560666,8.11072197 13.3687095,9.6013653 13.0317399,10.5194831 C13.4627561,10.78504 13.7476326,11.2416564 13.7995505,11.7512109 C14.7632928,11.8360336 16.0723718,12.2933651 17.2575034,12.8746439 C18.3128182,13.3880403 19.2540449,13.9965101 19.9100514,14.5764579 C20.680146,15.2514791 20.9558589,15.8124122 20.7466974,16.2497499 C20.5945799,16.5539848 20.2142863,16.6870875 19.7103973,16.6870875 C18.7311412,16.6870875 17.2575034,16.1927058 15.9454904,15.5462066 C14.8901756,15.0233029 13.9489488,14.4243404 13.2929423,13.8443927 C13.1209636,13.6936459 12.9736409,13.5485889 12.8508684,13.4094336 C12.6424417,13.5057167 12.4117421,13.5591724 12.1710761,13.5591724 C12.0664954,13.5591724 11.9524073,13.5496651 11.8478265,13.5306504 C11.745954,13.5100592 11.6482818,13.4806967 11.5554295,13.4435067 C11.4517391,13.5992574 11.3242335,13.7645772 11.1728054,13.9394661 C10.6023649,14.5954726 9.75621161,15.3275378 8.77695552,15.9835443 C7.79769943,16.6395508 6.79942867,17.1529472 5.98179737,17.4286601 C5.62051843,17.5617629 5.24973214,17.6378216 4.87894586,17.6568363 C4.51766691,17.6568363 4.26096871,17.5522555 4.1183586,17.3335867 C3.85215307,16.9342784 4.05180722,16.3448233 4.72682841,15.5652213 C5.29726884,14.9092148 6.14342216,14.1771496 7.12267825,13.5211431 C8.10193433,12.8651366 9.09069776,12.3517402 9.9178364,12.06652 C10.1377773,11.9932063 10.3401124,11.9379875 10.5246199,11.9010854 Z M11.0304449,13.1053351 C10.8538613,12.9360887 10.717185,12.7291807 10.6306598,12.5002096 C10.4511181,12.5317128 10.276242,12.5791642 10.1079832,12.6464677 C9.32838128,12.9031659 8.38715455,13.3975477 7.45543517,14.0250321 C6.52371579,14.6525166 5.71559183,15.3370451 5.17367342,15.9645296 C4.59372564,16.6395508 4.5842183,16.9532931 4.61274032,16.9913224 C4.64126234,17.0293518 4.92648256,17.1434399 5.77263588,16.8582197 C6.55223781,16.5920141 7.49346453,16.1071397 8.42518392,15.4796553 C9.3569033,14.8521708 10.1650273,14.1676422 10.6974383,13.5401578 C10.8404799,13.3736668 10.9488192,13.2291539 11.0304449,13.1053351 Z M13.7509388,12.350891 C13.6765316,12.6210766 13.5351466,12.8621906 13.3471794,13.0566183 C13.4383089,13.1548937 13.5516724,13.2652818 13.6922506,13.3880403 C14.3102278,13.9299587 15.2039178,14.5003992 16.2116959,14.9947809 C18.5885311,16.1546764 20.0811836,16.2022131 20.1952716,15.974037 C20.2237937,15.9265003 20.176257,15.6222654 19.5012358,15.0328102 C18.8832586,14.4908918 17.9895686,13.9204514 16.9817905,13.4260697 C15.5461767,12.720429 14.4357757,12.4230341 13.7509388,12.350891 Z M12.4768363,10.306153 C12.6896984,9.68132862 12.8694101,8.48409403 12.7510239,6.75191655 C12.5703844,4.12789053 11.8763486,2.80637018 11.610143,2.80637018 C11.553099,2.80637018 11.3154155,3.00602433 11.134776,3.88069967 C10.9731512,4.67931628 10.9256145,5.74413844 11.0016732,6.86600463 C11.1191561,8.58496511 11.4497761,9.73690053 11.7450662,10.3322727 C11.9763054,10.2709871 12.2249846,10.2591573 12.4768363,10.306153 Z M12.1615688,10.868595 C11.9524073,10.868595 11.7527531,10.9256391 11.581621,11.0492345 C11.106254,11.3724841 10.9826586,12.0094759 11.2964008,12.484843 C11.6196504,12.96021 12.2566422,13.0838054 12.7320092,12.7700632 C13.2073763,12.4468136 13.3309717,11.8098218 13.0172294,11.3344547 C12.83659,11.0397272 12.5133404,10.868595 12.1615688,10.868595 Z M12.028466,23.0094691 C5.95327535,23.0189764 1.02847289,18.0941739 1.01896555,12.0189833 C1.00945821,5.94379259 5.93426067,1.01899013 12.0094513,1.00948279 C18.084642,0.999975454 23.0189518,5.92477791 23.0189518,11.9999686 C23.0189518,15.6698021 21.1935424,19.0924447 18.1511934,21.1460303 C16.3447987,22.3629699 14.2151544,23.0094691 12.028466,23.0094691 Z M11.9904367,1.60844525 C6.23849557,1.60844525 1.57039131,6.27654951 1.57039131,12.0379979 C1.57039131,17.7994464 6.23849557,22.4580433 11.999944,22.4580433 C17.7518851,22.4580433 22.4199893,17.789939 22.4199893,12.0284906 C22.4199893,7.04664411 18.892766,2.76834081 14.0155002,1.80809941 C13.3499864,1.67499664 12.6654578,1.60844525 11.9904367,1.60844525 Z"/>
  </g>
</svg>
