<svg xmlns="http://www.w3.org/2000/svg" width="23" height="22" viewBox="0 0 23 22">
  <g fill="none" fill-rule="evenodd" transform="translate(-1 -1)">
    <rect width="24" height="24"/>
    <path fill="#000" fill-rule="nonzero" d="M9.29767434,15.882933 L19.0166148,9.82129891 L19.3359697,10.3360226 L9.60474764,16.4053165 L10.4295181,17.8083905 L6.64161485,17.9415087 L8.59322775,14.6845502 L9.29767434,15.882933 Z M14.4708458,7.56937051 L13.6940342,6.42234772 L17.4641955,6.05849133 L15.7254858,9.42194433 L14.8132697,8.07498612 L5.16016323,14.2674466 L4.83193743,13.7527229 L14.4708458,7.56937051 Z M12.0795181,23 C6.00290517,23 1.07951807,18.0746269 1.07951807,12.0044373 C1.08838904,5.92537313 6.01177614,1 12.0795181,1 C18.14726,1 23.0795181,5.92537313 23.0795181,11.9955627 C23.0706471,18.0746269 18.156131,22.9911255 12.0795181,23 Z M12.0795181,1.61234369 C6.34887291,1.60346914 1.69161485,6.26260589 1.69161485,11.9955627 C1.69161485,17.7285196 6.34000194,22.3876563 12.0795181,22.3876563 C17.8190342,22.3876563 22.4674213,17.7462687 22.4674213,12.0044373 C22.4585503,6.26260589 17.8190342,1.62121823 12.0795181,1.61234369 Z"/>
  </g>
</svg>
