<?xml version="1.0" encoding="UTF-8"?>
<svg width="112px" height="94px" viewBox="0 0 112 94" version="1.1" xmlns="http://www.w3.org/2000/svg" xmlns:xlink="http://www.w3.org/1999/xlink">
    <g>
        <g id="Sportxlife_Logo" fill-rule="nonzero" fill="#1F2A44">
            <path d="M6.11359717,12.5001476 L3.87973145,11.1343595 C2.47854417,10.2732239 1.48182332,9.42622814 0.889173145,8.59277475 C0.296325088,7.75971966 -9.89399293e-05,6.80080017 -9.89399293e-05,5.71621542 C-9.89399293e-05,4.08913915 0.56069258,2.76796119 1.68267138,1.75228322 C2.8044523,0.736804407 4.26183746,0.228766271 6.05482686,0.228766271 C7.76925795,0.228766271 9.34161131,0.713105254 10.7722827,1.68198237 L10.7722827,5.03949508 C9.29273498,3.60719 7.70079152,2.89103746 5.99605654,2.89103746 C5.03574558,2.89103746 4.24719435,3.11468576 3.63000707,3.56158407 C3.01281979,4.00848237 2.70412721,4.58044847 2.70412721,5.27768153 C2.70412721,5.89664763 2.93149117,6.47618153 3.3860212,7.01628322 C3.84074912,7.55658407 4.57191519,8.12377051 5.57951943,8.71784254 L7.82426855,10.0547536 C10.3284382,11.5601476 11.580424,13.4761942 11.580424,15.8032917 C11.580424,17.4598425 11.0293286,18.8057154 9.92713781,19.8411095 C8.824947,20.8765036 7.39209894,21.394101 5.62859364,21.394101 C3.60052297,21.394101 1.75371025,20.7669697 0.088155477,19.5119103 L0.088155477,15.7550968 C1.67534982,17.7790841 3.51226855,18.7909781 5.59910954,18.7909781 C6.5200424,18.7909781 7.28682686,18.5330756 7.89906714,18.0172705 C8.51130742,17.5014654 8.81762544,16.8554146 8.81762544,16.079118 C8.81762544,14.8214697 7.91608481,13.6285459 6.11359717,12.5001476" id="Fill-1"></path>
            <path d="M21.3336848,21.157528 L21.3336848,0.465379661 L27.84413,0.465379661 C29.8033385,0.465379661 31.3659958,0.997913559 32.5321018,2.0627822 C33.697812,3.12765085 34.2807661,4.5575661 34.2807661,6.35212966 C34.2807661,7.55521017 33.9819675,8.62007881 33.3843703,9.54673559 C32.7867731,10.4737907 31.9685399,11.1467271 30.9302643,11.5657441 C29.8915929,11.9849602 28.4023491,12.1942695 26.4625329,12.1942695 L24.2874375,12.1942695 L24.2874375,21.157528 L21.3336848,21.157528 Z M27.3296424,3.09817627 L24.2874375,3.09817627 L24.2874375,9.56167203 L27.5059534,9.56167203 C28.7011477,9.56167203 29.6222784,9.27827797 30.2689498,8.71129068 C30.9156212,8.14430339 31.238759,7.33335424 31.238759,6.27804492 C31.238759,4.15826525 29.9357201,3.09817627 27.3296424,3.09817627 Z" id="Fill-4"></path>
            <path d="M52.721012,0.199152542 C55.8930261,0.199152542 58.5343265,1.21005085 60.6441216,3.23125 C62.7539166,5.25284746 63.809012,7.78686441 63.809012,10.8336992 C63.809012,13.8805339 62.7444184,16.4024025 60.6148353,18.3989068 C58.4852523,20.3958093 55.8002205,21.394161 52.559542,21.394161 C49.4654926,21.394161 46.8881074,20.3958093 44.8271887,18.3989068 C42.7660721,16.4024025 41.7357117,13.9004492 41.7357117,10.8928475 C41.7357117,7.80658051 42.7733936,5.25284746 44.8491534,3.23125 C46.9247152,1.21005085 49.5488,0.199152542 52.721012,0.199152542 Z M52.8385527,3.00939407 C50.4891251,3.00939407 48.5586092,3.74884746 47.0462134,5.22795339 C45.5338177,6.70705932 44.7777187,8.59542373 44.7777187,10.8928475 C44.7777187,13.1213644 45.5361922,14.9750763 47.053535,16.4539831 C48.5706799,17.933089 50.4697329,18.6725424 52.7502982,18.6725424 C55.0405597,18.6725424 56.9518813,17.9183517 58.4836693,16.4097712 C60.015853,14.9009915 60.7818459,13.0225847 60.7818459,10.7745508 C60.7818459,8.5854661 60.015853,6.74410169 58.4836693,5.25005932 C56.9518813,3.7562161 55.0700438,3.00939407 52.8385527,3.00939407 Z" id="Fill-6"></path>
            <path d="M73.7124834,21.1573686 L73.7124834,0.49509322 L78.8563703,0.49509322 C80.9333173,0.49509322 82.5816565,1.01269068 83.801388,2.04808475 C85.0211194,3.08347881 85.631183,4.48352119 85.631183,6.24861017 C85.631183,7.45169068 85.3319887,8.49186441 84.7347873,9.36933051 C84.1367943,10.2469958 83.2797767,10.9028051 82.1629428,11.3365593 C82.8191124,11.7705127 83.4608367,12.3621949 84.087918,13.1114068 C84.7148014,13.8608178 85.5965541,15.1672585 86.733176,17.030928 C87.4483138,18.2043347 88.0215717,19.0867797 88.4527519,19.6784619 L89.5402996,21.1573686 L86.0425753,21.1573686 L85.1473668,19.796161 C85.1178827,19.7467712 85.0591124,19.662928 84.9710558,19.5444322 L84.3985894,18.7302966 L83.4887378,17.2211186 L82.5054728,15.6079831 C81.8987731,14.7595932 81.3427307,14.0842669 80.8375435,13.5824025 C80.3325541,13.080339 79.8762431,12.7184788 79.4692042,12.4972203 C79.0621654,12.2757627 78.3782926,12.1648347 77.4167943,12.1648347 L76.6517908,12.1648347 L76.6517908,21.1573686 L73.7124834,21.1573686 Z M77.5335435,3.00939407 L76.6517908,3.00939407 L76.6517908,9.53203814 L77.7686247,9.53203814 C79.2578686,9.53203814 80.2791265,9.40398305 80.8327943,9.14747458 C81.3862643,8.89116525 81.8174445,8.50401271 82.1261371,7.98641525 C82.4348297,7.4688178 82.5889781,6.87972458 82.5889781,6.21893644 C82.5889781,5.56830508 82.4176141,4.97921186 82.0744905,4.45145763 C81.7315647,3.92410169 81.2491336,3.55188559 80.6271972,3.33480932 C80.0046671,3.1179322 78.9737131,3.00939407 77.5335435,3.00939407 Z" id="Fill-8"></path>
            <polygon id="Fill-10" points="94.8101569 0.465439407 111.960404 0.465439407 111.960404 3.09823602 104.803486 3.09823602 104.803486 21.1573886 101.849535 21.1573886 101.849535 3.09823602 94.8101569 3.09823602"></polygon>
            <polygon id="Fill-12" points="55.6549569 45.7311195 63.4625046 36.8443356 65.5014587 36.8443356 56.6952113 46.9134881 66.0155505 57.5068102 63.9742219 57.5068102 55.6553527 48.0522424 47.3489498 57.5068102 45.3090064 57.5068102 54.6052042 46.9258356 45.7940099 36.8443356 47.8355364 36.8443356"></polygon>
            <polygon id="Fill-14" points="24.302417 73.1935381 27.2417244 73.1935381 27.2417244 91.1640678 36.4854841 91.1640678 36.4854841 93.8560127 24.302417 93.8560127"></polygon>
            <polygon id="Fill-16" points="43.9625724 93.8560127 46.9018799 93.8560127 46.9018799 73.1935381 43.9625724 73.1935381"></polygon>
            <polygon id="Fill-18" points="57.2656396 73.1935381 68.2143322 73.1935381 68.2143322 75.8263347 60.2047491 75.8263347 60.2047491 81.5947881 68.2143322 81.5947881 68.2143322 84.2271864 60.2047491 84.2271864 60.2047491 93.8560127 57.2656396 93.8560127"></polygon>
            <polygon id="Fill-19" points="76.4455802 73.1935381 88.0846756 73.1935381 88.0846756 75.8263347 79.3848876 75.8263347 79.3848876 82.1269237 87.790824 82.1269237 87.790824 84.7744576 79.3848876 84.7744576 79.3848876 91.1937415 88.3638841 91.1937415 88.3638841 93.8265381 76.4455802 93.8265381"></polygon>
        </g>
    </g>
</svg>
