<svg xmlns="http://www.w3.org/2000/svg" width="22" height="22" viewBox="0 0 22 22">
  <g fill="none" fill-rule="evenodd" transform="translate(-1 -1)">
    <rect width="24" height="24"/>
    <path fill="#000" fill-rule="nonzero" d="M11.9603604,22.9306306 C5.90540541,22.9306306 1,18.0252252 1,11.9603604 C1,5.90540541 5.90540541,1 11.9603604,1 C18.0153153,1 22.9207207,5.90540541 22.9207207,11.9603604 C22.9207207,18.0153153 18.0153153,22.9207207 11.9603604,22.9306306 Z M11.9603604,1.6045045 C6.24234234,1.6045045 1.6045045,6.24234234 1.6045045,11.9603604 C1.6045045,17.6783784 6.24234234,22.3162162 11.9603604,22.3162162 C17.6783784,22.3162162 22.3162162,17.6783784 22.3162162,11.9603604 C22.3162162,6.24234234 17.6783784,1.61441441 11.9603604,1.6045045 Z M21.1765766,11.9603604 C21.1765766,17.0540541 17.0540541,21.1765766 11.9603604,21.1765766 C6.86666667,21.1765766 2.74414414,17.0540541 2.74414414,11.9603604 C2.74414414,6.86666667 6.86666667,2.74414414 11.9603604,2.74414414 C17.0540541,2.74414414 21.1765766,6.87657658 21.1765766,11.9603604 Z"/>
  </g>
</svg>
