<svg xmlns="http://www.w3.org/2000/svg" width="23" height="22" viewBox="0 0 23 22">
  <g fill="none" fill-rule="evenodd" transform="translate(-1 -1)">
    <rect width="24" height="24"/>
    <path fill="#000" fill-rule="nonzero" d="M12.0182573,23.0027259 C9.68190057,23.0120451 7.41096184,22.2758248 5.52318562,20.9058958 C0.598145661,17.3086673 -0.467233001,10.4124262 3.13075634,5.51050341 C6.72874568,0.608580643 13.653707,-0.463132508 18.5694015,3.12477674 C19.017982,3.46026955 19.4478716,3.8237201 19.849725,4.21512838 C24.1579668,8.50198099 24.1673122,15.4634568 19.8684159,19.7689479 C17.7843857,21.8471395 14.9620667,23.0120451 12.0182573,23.0027259 Z M19.1976578,4.4366835 C17.2746262,2.61895449 14.7035507,1.60573984 12.0369481,1.60573984 C6.28016519,1.60573984 1.60745176,6.25604299 1.59810634,11.9966978 C1.59810634,14.6560679 2.62303553,17.2201615 4.44680359,19.1462118 L19.1976578,4.4366835 Z M20.2286735,5.56261907 C20.040524,5.32453389 19.8385156,5.09572662 19.6294194,4.87282129 L4.88203507,19.5788895 C5.11295033,19.7946115 5.3528783,19.9981413 5.59993439,20.1913582 L20.2286735,5.56261907 Z M6.67162348,6.9350941 L5.29889537,6.89907088 L5.29889537,6.61949354 L6.38432054,6.64779116 L5.76716691,6.03063753 L5.9588033,5.83900114 L6.57967933,6.45987718 L6.55118257,5.38003398 L6.82219995,5.37071473 L6.85805297,6.73825082 L8.24270483,8.12290268 L8.24270483,6.16912034 L7.30632214,5.18170676 L7.50297235,4.9952197 L8.24270483,5.77526605 L8.24270483,4.86747551 L8.51372221,4.86747551 L8.51372221,5.7776459 L9.25761516,4.99321235 L9.45371444,5.17917695 L8.51372221,6.17039678 L8.51372221,8.10426489 L9.898395,6.7192004 L9.9342271,5.36139549 L10.2052445,5.37071473 L10.1842135,6.43330109 L10.7971794,5.82016174 L10.9883059,6.01123422 L10.3607619,6.63895579 L11.4575317,6.61017429 L11.4668771,6.88975164 L10.0829855,6.91681074 L8.70322897,8.2969576 L10.6836413,8.2969576 L11.6724765,7.35571388 L11.859385,7.56073726 L11.0859397,8.2969576 L11.9621847,8.2969576 L11.9621847,8.5672157 L11.0761493,8.5672157 L11.859385,9.31275528 L11.6724765,9.51777867 L10.6738509,8.5672157 L8.68701785,8.5672157 L10.0861862,9.96638403 L11.4668771,10.0023794 L11.4575317,10.2726375 L10.3637362,10.243934 L11.006466,10.8866638 L10.8148296,11.0783002 L10.1841766,10.4476472 L10.2052445,11.5120971 L9.9342271,11.5214163 L9.89834768,10.1618183 L8.51372221,8.77719284 L8.51372221,10.7395437 L9.44736016,11.724063 L9.25070995,11.91055 L8.51372221,11.133398 L8.51372221,12.006017 L8.24270483,12.006017 L8.24270483,11.1266048 L7.49697364,11.9129768 L7.30087436,11.7270122 L8.24270483,10.7338539 L8.24270483,8.75761201 L6.85834689,10.1423616 L6.82219995,11.5120971 L6.55118257,11.5027778 L6.57972885,10.4210584 L5.92717787,11.073794 L5.73605135,10.8827215 L6.38354896,10.2350407 L5.29889537,10.2633183 L5.29889537,9.99306015 L6.66120071,9.95731045 L8.05090233,8.5672157 L6.11115086,8.5672157 L5.11112099,9.51529417 L4.92518342,9.31916787 L5.71833994,8.5672157 L4.80358775,8.5672157 L4.80358775,8.2969576 L5.70792946,8.2969576 L4.92643235,7.5547994 L5.11305491,7.3582847 L6.10148321,8.2969576 L8.03348698,8.2969576 L6.67162348,6.9350941 Z"/>
  </g>
</svg>
