<svg xmlns="http://www.w3.org/2000/svg" width="22" height="22" viewBox="0 0 22 22">
  <g fill="none" fill-rule="evenodd" transform="translate(-1 -1)">
    <rect width="24" height="24"/>
    <path fill="#000" fill-rule="nonzero" d="M5.72477837,20.25485 L20.2458596,5.69952092 C20.0247022,5.40920406 19.7873262,5.12948329 19.5342832,4.86171681 L4.86647895,19.529521 C5.13907054,19.7863166 5.42558573,20.0285104 5.72477837,20.25485 Z M4.43502619,19.0985738 L19.1030776,4.43052239 C17.188408,2.62137334 14.638598,1.59871374 11.9824,1.6072 C10.4566838,1.6072 9.00774057,1.93676173 7.70289391,2.52856148 C8.9046117,4.2176783 8.60850877,6.57847412 6.984,7.9168 C6.3416,8.4448 5.5408,8.7616 4.7136,8.8144 L4.4496,8.8144 C3.69342765,8.8144 2.95636427,8.5978316 2.31969745,8.19720984 C1.85975387,9.36999689 1.6072,10.6467817 1.6072,11.9824 C1.6072,14.7371559 2.68157406,17.2416315 4.43502619,19.0985738 Z M2.55892205,7.63657641 C4.01589197,8.62275683 6.00443979,8.32820882 7.1072,6.9224 C7.6176,6.2624 7.8728,5.444 7.82,4.608 C7.77891234,3.95059745 7.54598425,3.32388936 7.14987855,2.79953279 C5.13781324,3.86086928 3.51656199,5.56414957 2.55892205,7.63657641 Z M11.9824,22.9648 C5.9192,22.956 1,18.0368 1.0088,11.9736 C1.0088,5.9104 5.928,1 11.9912,1 C18.0544,1 22.9648,5.9192 22.9648,11.9912 C22.9648,14.904 21.8032,17.6936 19.744,19.7528 C17.6848,21.812 14.8952,22.9648 11.9824,22.9648 Z M3.95725894,9.80519755 L4.5631231,9.76495604 L4.73925262,12.4167093 L4.13338846,12.4569508 L3.95725894,9.80519755 Z M8.3304,11.56 L6.8256,9.3688 L7.3272,9.0256 L8.832,11.2168 L8.3304,11.56 Z M9.70510784,4.40452112 L9.83268056,3.81086168 L12.4310161,4.36922344 L12.3034434,4.96288288 L9.70510784,4.40452112 Z M11.1464,8.832 L8.6912,7.8376 L8.92,7.2744 L11.3752,8.2688 L11.1464,8.832 Z"/>
  </g>
</svg>
