<svg xmlns="http://www.w3.org/2000/svg" width="22" height="22" viewBox="0 0 22 22">
  <g fill="none" fill-rule="evenodd" transform="translate(-1 -1)">
    <rect width="24" height="24"/>
    <path fill="#000" fill-rule="nonzero" d="M11.999985,22.9999863 C5.92578686,22.9904954 1.00948276,18.0647003 1.00948276,11.9905022 C1.00948276,5.91630411 5.94476873,0.990509077 12.0189668,1.00000001 C18.093165,1.00949095 23.0094691,5.93528598 23.0094691,12.0094841 C23.0094691,14.923201 21.8515751,17.7230267 19.7825513,19.7825595 C17.7135276,21.8420923 14.9137019,22.9999863 11.999985,22.9999863 Z M19.1334242,4.42997094 C17.2022953,2.61815261 14.6495122,1.59828352 11.999985,1.60741982 C6.25796957,1.61691076 1.60741164,6.26746869 1.61690257,12.0094841 C1.62145484,14.7636084 2.69372424,17.2644501 4.44202468,19.1213705 L19.1334242,4.42997094 Z M20.1765271,5.56978301 C19.9843444,5.3253219 19.7806749,5.08882249 19.5658987,4.86117147 L4.87347363,19.5535966 C5.10005317,19.7676932 5.33626525,19.971704 5.58139462,20.1649155 L20.1765271,5.56978301 Z M9.57030573,7.73856355 C10.1302709,8.76358448 10.5573629,9.83606009 9.79808816,10.7282079 C9.0388134,11.6108648 7.70059162,11.7152651 6.81793471,10.9559904 C5.93527779,10.1967156 6.07764181,9.01983971 6.59015228,7.97583691 C7.21655396,6.67557888 7.71957349,4.8153557 7.71957349,4.8153557 C8.55477573,6.20103215 9.3140505,7.26401682 9.57030573,7.73856355 Z"/>
  </g>
</svg>
