<svg xmlns="http://www.w3.org/2000/svg" width="22" height="22" viewBox="0 0 22 22">
  <g fill="none" fill-rule="evenodd" transform="translate(-1 -1)">
    <rect width="24" height="24"/>
    <path fill="#000" fill-rule="nonzero" d="M11.9954127,22.9999348 C5.92615234,22.9908626 0.999981386,18.0646917 1.00905352,11.9863592 C1.01812566,5.91709884 5.94429661,0.990927888 12.0226291,1.00000003 C18.1009616,1.00907216 23.0180604,5.93524312 23.0089883,12.0135756 C23.0089883,14.9257319 21.8477546,17.7290226 19.7793071,19.7883979 C17.7199318,21.8477732 14.9166411,23.0090069 11.9954127,22.9999348 Z M19.1366131,4.43691258 C17.208916,2.61848244 14.6526968,1.60783327 11.9954127,1.60783327 C6.26182144,1.60783327 1.60781463,6.26184008 1.61688677,12.0045035 C1.62124448,14.7629328 2.69521738,17.2680873 4.44668476,19.1268409 L19.1366131,4.43691258 Z M20.1739326,5.57146835 C19.9817093,5.32729887 19.7779576,5.09095093 19.5630389,4.8632677 L4.87271304,19.5535936 C5.09920173,19.7677365 5.33532273,19.9717895 5.58036313,20.1650378 L20.1739326,5.57146835 Z M5.24574198,10.988424 C3.25894376,10.6073942 3.09564527,7.47750658 3.08657313,7.34142451 L3.69440638,7.3142081 C3.69440638,7.34142451 3.83956059,10.0993545 5.35460764,10.3896629 C7.03295318,10.7162599 8.19418685,11.0700732 9.63665679,13.0387272 L9.20119417,13.4741898 C7.84037346,11.578113 6.78800545,11.2878046 5.24574198,10.988424 Z M9.54593541,6.69730271 C7.55913718,6.30720077 7.3958387,3.18638529 7.3958387,3.05030322 L8.00367195,3.02308681 C8.00367195,3.05030322 8.13975402,5.80823318 9.65480107,6.0985416 C11.3331466,6.42513857 12.4943803,6.77895195 13.9368502,8.74760591 L13.5013876,9.18306853 C12.1405669,7.28699168 11.0881989,6.99668327 9.54593541,6.69730271 Z M7.33233373,8.81111087 C5.3455355,8.43008107 5.18223702,5.30019345 5.18223702,5.16411138 L5.79007027,5.13689497 C5.79007027,5.16411138 5.93522448,7.92204134 7.45027153,8.21234976 C9.12861706,8.53894673 10.2807786,8.89276011 11.7232485,10.8614141 L11.2877859,11.2968767 C9.92696521,9.40079984 8.8745972,9.11049143 7.33233373,8.81111087 Z"/>
  </g>
</svg>
