<svg xmlns="http://www.w3.org/2000/svg" xmlns:xlink="http://www.w3.org/1999/xlink" version="1.1" id="Mr_Wills" x="0px" y="0px" width="54.2px" height="52.5px" viewBox="0 0 54.2 52.5" enable-background="new 0 0 54.2 52.5" xml:space="preserve">
<g>
	<g>
		<g>
			<path fill="#002C50" d="M13.4,9c0-0.2,0.1-0.7,0.1-1.3c-1.9-0.9-5.2-0.5-6.4-0.4c0,0.7,0,1.2-0.1,1.5c0.5,0,1.3-0.3,1.9-0.3     C10,8.4,12.3,8.4,13.4,9z"/>
		</g>
		<path fill="#002C50" d="M7.2,7c1.2-0.2,4.6-0.6,6.4,0.4c0.2-1.9,0.7-5,1-5.7c0,0,0.2-0.4-0.2-0.5c-0.3-0.1-1.5-0.6-3.5-0.8    C9,0.3,7.5,0.5,7.2,0.6C6.8,0.7,6.9,1.1,6.9,1.1C7.2,3,7.2,5.4,7.2,7z"/>
		<path fill="#002C50" d="M8.8,24.2"/>
		<g>
			<path fill="#002C50" d="M12.9,29.8l0.1,0L12.9,29.8l0-0.2l0.1,0c0.2-0.5,0.5-0.9,0.9-1.2l0,0l0.1-0.1l0,0c0,0,0.1,0,0.1,0l0,0     c0,0,0,0,0,0l0,0c0.3,0,0.6,0.2,0.8,0.4l0,0c0.2,0.1,0.3,0.3,0.4,0.4l0,0l0.1,0l0,0.1C15.1,30,15,31,15,32l0,0     c0,1.5,0.3,2.9,0.4,3.5l0,0l-0.2,0.1C13.8,33.9,13.1,31.6,12.9,29.8L12.9,29.8z M15.1,35c-0.1-0.8-0.3-1.9-0.3-3.1l0,0     c0-1,0.1-2,0.3-2.8l0,0c-0.1-0.1-0.2-0.2-0.3-0.3l0,0c-0.2-0.2-0.5-0.3-0.6-0.3l0,0l0,0l0,0l0,0l0,0c0,0-0.1,0-0.1,0l0,0     l-0.1,0.1l0,0c-0.3,0.3-0.6,0.7-0.8,1.2l0,0l0,0C13.2,31.4,13.8,33.4,15.1,35L15.1,35z"/>
		</g>
		<g>
			<path fill="#002C50" d="M12.8,29.6c0-0.1,0-0.1,0-0.2l0,0c0,0,0,0,0,0l0,0c0-1,0.1-1.9,0.5-2.4l0,0l0,0c1-1.6,1.7-5.3,1.9-6l0,0     l0-0.2l0.1,0.1c1.3,0.6,1.7,0.9,1.9,1.2l0,0c0,0.1,0.1,0.1,0.1,0.2l0,0l0,0l0,0c0,0.4-0.3,1.9-0.8,3.3l0,0     c-0.3,0.7-0.4,1.2-0.5,1.5l0,0c0,0.2-0.1,0.3-0.1,0.3l0,0l0.1,0.1l-0.3,0c0,0-0.1,0-0.1,0l0,0c0,0-0.1,0-0.1,0l0,0     c-0.4,0-1.8,0.5-2.4,1.9l0,0L12.8,29.6L12.8,29.6z M13.4,27.1c-0.2,0.4-0.4,1.1-0.4,2l0,0c0.7-1.2,1.9-1.6,2.4-1.6l0,0     c0,0,0.1,0,0.1,0l0,0c0-0.1,0-0.1,0.1-0.3l0,0c0.1-0.3,0.2-0.8,0.5-1.6l0,0c0.5-1.4,0.8-2.8,0.8-3.2l0,0c0,0,0-0.1,0-0.1l0,0     c-0.1-0.2-0.5-0.5-1.6-1.1l0,0C15.1,22.2,14.4,25.6,13.4,27.1L13.4,27.1L13.4,27.1L13.4,27.1L13.4,27.1z"/>
		</g>
	</g>
	<g>
		<path fill="#002C50" d="M2.8,33.4c-0.1,0-0.1,0.1-0.1,0.1c0.2-0.1,0.5-0.1,0.8-0.1c0,0-0.1,0-0.1,0C3.2,33.3,2.9,33.3,2.8,33.4z"/>
		<path fill="#002C50" d="M10.2,9.3c-0.1,0-0.1,0-0.2,0c0.1,0,0.3,0,0.4,0C10.4,9.3,10.3,9.3,10.2,9.3z"/>
		<path fill="#002C50" d="M10,9.3c-0.2,0-0.4,0-0.6,0C9.6,9.3,9.8,9.3,10,9.3z"/>
		<path fill="#002C50" d="M30.4,32.6c-1.1-0.1-2-0.9-2.9-1.9c-0.8-1.4-1.5-3.2-3.3-5c-1.9-1.8-5.2-3-7.6-3.7    c0.2,0.1,0.3,0.2,0.3,0.3c0,0,0,0.1,0,0.1c0,0.4-0.3,1.9-0.8,3.2c-0.3,0.7-0.4,1.3-0.5,1.6c0,0.1-0.1,0.2-0.1,0.3c0,0-0.1,0-0.1,0    c-0.5,0-1.7,0.5-2.4,1.6c0-0.9,0.2-1.6,0.4-2l-0.1-0.1l0.1,0.1c0.9-1.4,1.6-4.4,1.8-5.6c0,0,0-0.1-0.1-0.1c0-0.1,0.1-0.3,0.1-0.4    c0-0.2,0-0.3-0.1-0.5c-0.1-0.4-0.4-0.6-0.6-0.8l0,0l0,0c0,0,0,0,0,0c0,0,0,0,0,0c0,0,0-0.1,0-0.1c0-0.1,0-0.1,0-0.1c0,0,0,0,0,0    l0,0l0-0.1c-0.1-0.2,0-0.5-0.1-0.6c-0.1-0.1-0.2-0.1-0.2-0.2c0-0.1,0-0.2,0-0.3c0-0.2,0-0.4,0-0.7c-0.1-3.8-1.3-6.1-1.4-6.5    c-0.1-0.4,0.1-0.5,0.4-0.6c0.3-0.1,0.4-0.3,0.4-0.5c0.1,0,0.1,0.1,0.2,0.1c0.2,0,0.4,0,0.5-0.1c0,0,0.4-0.1,0.6-0.2    c0.3-0.1,0.5-0.2,0.5-0.4c0-0.2-0.3-0.2-0.5-0.1c-0.1,0.1-0.3,0.2-0.6,0.2c-0.2,0-0.3,0-0.5,0c0,0,0,0-0.1,0c-0.1,0-0.2,0-0.3-0.1    c0,0-1.2-0.6-4.5-0.5C8.4,8.7,7.1,9,7.1,9C6.9,9,6.7,9.1,6.4,9C6.2,9,5.9,8.8,5.8,8.8C5.6,8.6,5.4,8.7,5.4,8.9    c-0.1,0.4,0.9,0.6,1,0.6c0.2,0.1,0.5,0.1,0.7,0.1c0,0,0,0,0.1,0c0,0.1-0.1,0.2-0.1,0.2C7.1,9.9,7,10,7,10.1c0,0.1-0.1,0.1-0.1,0.2    c0,0,0,0,0,0c-0.3,0.1-1.2,0.6-1.5,1.4c0,0-0.1,0.2,0.4,0.1c0.1,0,0.2-0.1,0.3-0.1c0.4-0.1,0.7,0.1,1,0.3c0.3,0.6,0.9,1.1,1.6,1.3    c0.3,0.8,0.4,2,0.4,2.4c0,1.8-0.4,3.4-0.7,5.2c0,0,0,0,0,0l0,0l0,0c0,0-0.1,0-0.2,0c0,0,0,0,0,0l0,0l0,0c0,0-0.1,0-0.2,0.1l0,0    l0,0c-0.1,0-0.2,0.1-0.3,0.2c0,0,0,0-0.1,0.1c0,0,0,0,0,0l0.2,0.2c0,0,0,0,0,0c0,0,0,0,0.1-0.1c0.1-0.1,0.1-0.1,0.2-0.1    c0.1,0,0.1,0,0.2-0.1c0,0,0.1,0,0.2,0c0.1,0,0.1,0,0.1,0c0,0,0,0,0.1,0c0,0,0,0,0,0c0,0,0,0,0,0c0,0,0,0-0.1,0.1    c-0.3,0.3-0.3,0.5-0.2,0.5c0,0,0,0,0,0c0,0,0,0,0,0c0,0,0.1-0.1,0-0.1c0,0,0,0,0,0c0,0,0-0.1,0-0.1c0-0.1,0.1-0.2,0.2-0.3    c0,0,0,0,0.1-0.1c0,0,0,0,0,0c0,0,0,0,0,0c0,0,0,0,0,0c0,0,0,0,0,0c0,0,0,0,0,0c0,0,0,0,0,0c0,0,0,0,0,0c0,0,0,0,0,0    c-0.1,0.1-0.2,0.3-0.2,0.5c0,0.3,0,1.1,0.3,1.5c0,0,0,0,0,0c0,0,0,0,0.1,0c0,0,0,0,0,0.1c0,0,0,0,0,0.1c0,0,0,0-0.1,0    c0,0-0.1,0-0.1,0c0,0-0.1-0.1-0.1-0.1c-0.1-0.1-0.1-0.2-0.2-0.3c0,0,0,0-0.1,0c0,0,0,0,0,0.1c0,0.2,0.1,0.3,0.2,0.4    c0,0,0.1,0.1,0.1,0.1c0,0,0,0,0,0c0,0,0,0,0,0.1C8.6,24,8.6,24,8.5,24c-0.1,0-0.1,0.1-0.2,0.1c0,0,0,0,0,0c0,0,0,0,0,0    c0,0-0.1,0-0.1,0c0,0-0.1-0.1-0.1-0.2c0,0,0,0-0.1,0c0,0,0,0,0,0.1c0,0.1,0,0.1,0,0.1c0,0,0,0,0,0c0,0,0,0,0,0.1c0,0-0.1,0-0.1,0    c-0.1,0-0.1,0-0.2,0c-0.1,0-0.3-0.1-0.4-0.2c0,0,0-0.1-0.1-0.1c0,0-0.1-0.1-0.1-0.1c-0.5-0.7-0.1-1.8,0.3-2.2l-0.2-0.2    c-0.3,0.3-0.6,1-0.6,1.6c0,0.3,0.1,0.6,0.3,0.9c0,0,0.1,0.1,0.1,0.1l0,0c0,0.1-0.1,0.4-0.6,1.1C6,26,6,26.9,6.1,27.4    c0,0,0,0,0,0.1c0,0,0,0.1,0,0.1c0,0.2,0,0.4,0,0.7c0,0.1,0,0.3,0,0.4c0,0.1,0,0.2,0.2,0.4l0,0l0,0c0,0,0.1,0.1,0.2,0.1    c0.1,0,0.1,0,0.2,0C6.8,29,7,29,7.2,29c0.2,0,0.4,0,0.5,0.1c0,0.1,0,0.1,0,0.2c-0.4,0.6-1.1,2.1,0.3,3.7c0,0,0.4,0.3,0.5,0.7    c0,0,0,0.1,0,0.1c0,0.1,0,0.1,0,0.2c-0.1,0.3-0.1,0.6-0.4,0.6c-0.5,0-0.8-0.4-1.2-0.6c-0.3-0.2-0.6-0.3-0.9-0.5    c-0.6-0.3-1.2-0.6-1.7-1c-0.3-0.2-1.4-0.6-2.6,0.2c0,0-1.2,0-0.9,1.2c0,0.1,0.1,0.4,0.2,0.4c0.2,0.1,0.2-0.3,0.3-0.4    c0.2-0.2,0.5-0.1,0.8,0c-1,0.8-0.9,2.3-0.9,2.3c0,0.2,0.2,0.4,0.3,0.4s0.3-0.2,0.3-0.4c0,0,0,0,0,0l0,0c0-1.6,0.7-1.9,1.6-1.9    c1.4,0,1.6,1.6,1.6,1.6L5.4,50L6,50L5.7,37.2c0-0.2,0.2-1.5-0.3-2.5c0.2,0.2,0.2,0.5,0.5,0.9c0.3,0.4,0.7,0.3,0.9,0.6    c0.1,0.2-0.1,1.1,0.4,0.7c0.3-0.2,0.3-0.6,0.3-0.9c0-0.4-0.5-0.9-0.3-0.7c0.2,0.2,2.7,1.7,3,1.9c0,0,0,0,0.1,0    c1.4,2.2,3.5,4.2,6.7,5.3c0.1,0.1,0.2,0.2,0.3,0.3c2.3,2,2.2,1.9,2.3,2.9c0,0.6,0.1,2.3,0.1,2.9c0,0.1,0,0.4,0.1,0.5c0,0,0,0,0,0    c0,0-0.1,0-0.1,0c-1.7-0.3-2.3,0.2-2.3,0.2S17,49,16.6,49.2c-0.4,0.3-0.2,1.1-0.1,0.9c0.2-0.2,0.6-0.2,0.6-0.2s0.2,0.2,0.7,0.3    c0.1,0,0.2,0,0.3,0c-0.2,0.2-0.3,0.4-0.3,0.4s-0.3,0-0.5,0.3c-0.2,0.4,0.2,0.9,0.3,0.8c0.1-0.3,0.3-0.4,0.3-0.4s0.3,0,0.6-0.1    c0.5-0.2,0.8-0.5,0.8-0.5c0.1-0.2,0.6-0.4,0.9-0.6c0,0,0.1,0,0.1,0s0,0,0,0c0,0,0,0,0,0c0.4,0,0.9,0,1,0c0,0,0.5,0.1,1,0    c0.5-0.1,0.7-0.3,0.7-0.3s0.3,0,0.6,0.2c0.1,0.2,0.3-0.7-0.1-0.9c-0.4-0.2-0.7,0-0.7,0s-0.6-0.5-2.1-0.2c0,0,0-0.1,0-0.1    c0-0.4,0-1.9,0-2.3c0,0-0.2-2,1-2.9c0.2-0.2,0.5-0.4,0.7-0.7c0.9-0.2,1.8-0.7,2.6-1.2c0.5,0.9,1.2,1.6,2.2,1.7    c2.9,0.2,3.9,0.4,3.8-0.9c-0.1-0.5-0.4-1.9-0.9-3.5c2.1-0.6,4.7-1.2,7.3-1.9c13.8-3.6,16.2-1.9,17.2-2.3    C56.6,33.9,30.4,32.6,30.4,32.6z M2.6,33.5c0-0.1,0.1-0.1,0.1-0.1c0.2-0.1,0.4-0.1,0.6,0c0,0,0.1,0,0.1,0    C3.1,33.4,2.9,33.5,2.6,33.5z M10.2,9.3c0.1,0,0.1,0,0.2,0c-0.1,0-0.3,0-0.4,0c-0.2,0-0.4,0-0.6,0c0.2,0,0.4,0,0.6,0    C10.1,9.3,10.2,9.3,10.2,9.3z M10,29.3c-0.1,0.1-0.2,0.1-0.4,0.2C9,29.6,8.5,29.2,8,28.9c-0.5-0.3-1.1-0.3-1.5-0.1    c-0.1,0-0.1,0-0.1,0c-0.1-0.1-0.1-0.9-0.1-1.3c0-0.5-0.1-1.4,0.5-2.3c0.5-0.7,0.7-1,0.7-1.2c0.5,0.4,1.1,0,1.3-0.1c0,0,0,0,0,0    c0,0,0,0,0,0c0.1,0.1,0.2,0.3,0.3,0.7c0,0,0,0,0,0c0,0,0,0,0,0c0,0,0.1,0,0.1-0.1c0-0.2-0.1-0.4-0.2-0.6c0,0,0,0-0.1-0.1    c0,0,0,0,0-0.1c0,0,0,0,0-0.1c0,0,0,0,0.1,0c0,0,0.1,0.1,0.1,0.1c0,0,0,0.1,0.1,0.1c0.1,0.1,0.1,0.2,0.2,0.3    c0.2,0.3,0.3,0.8,0.2,1.3c0,0-0.3,2,0.1,2.7C10.1,28.9,10.1,29.2,10,29.3z M8.8,23.5C8.8,23.5,8.8,23.5,8.8,23.5    c-0.1-0.1-0.1-0.1-0.2-0.2c0,0,0-0.1,0.1-0.1c0,0,0,0,0,0c0,0,0.1,0.1,0.1,0.1c0.1,0,0.2,0,0.3,0c0.2,0,0.3,0,0.5-0.1    c0.1,0,0.2,0,0.2-0.1c0,0,0.1-0.1,0-0.1c0,0,0,0-0.1,0c0,0-0.2,0.1-0.5,0.1c-0.3,0-0.6,0-0.8-0.2c0,0,0,0,0,0    c-0.1-0.4-0.1-0.8-0.1-1c0-0.2,0.1-0.3,0.2-0.4c0,0,0,0,0,0c0.2-0.2,0.4-0.3,0.6-0.3c0.2,0,0.4,0,0.4,0c0,0,0.1,0,0.1,0    c0,0,0-0.1,0-0.1c-0.1,0-0.3,0-0.4,0c-0.1,0-0.1,0-0.2,0c0,0-0.1,0-0.2,0c0,0-0.1,0.1-0.1,0.1c0,0,0,0,0-0.1c0,0,0,0,0.1,0    c0.1,0,0.1-0.1,0.2-0.2c0.3-0.2,0.4-0.2,2.1-0.3c0.8,0,1.5-0.5,2-1c0.5-0.5,0.8-1.1,0.8-1.1l0,0c0,0,0,0,0,0l0,0    c0.1,0.1,0.1,0.4,0.1,0.5c0,0,0,0.1,0,0.2c0,0,0,0.1,0,0.2c0,0,0,0,0,0.1c0,0.1,0,0.1-0.1,0.1c0,0.1-0.1,0.1-0.2,0.2    c-0.1,0.2-0.3,0.3-0.6,0.5c0,0,0,0,0,0.1c0,0,0,0,0,0c0,0,0,0,0.1,0c0.3-0.2,0.5-0.3,0.6-0.5c0-0.1,0.1-0.1,0.1-0.2    c0,0,0,0,0.1-0.1c0,0,0,0,0,0c0.1,0,0.1,0,0.1,0.1c0.2,0.1,0.4,0.4,0.5,0.7c0.1,0.3,0.1,0.7,0,0.8c0,0,0,0-0.1,0.1    c-0.1,0.1-0.2,0.2-0.5,0.3c0,0,0,0,0,0.1c0,0,0,0,0,0c0,0,0,0,0,0c0.1,0,0.5-0.3,0.5-0.3c0.2-0.1,0.2,0.2,0.1,0.3    c0,0.1-0.1,0.1-0.2,0.2c-0.5,0.6-1.8,0.9-3,1.3C10.6,23.7,9.2,23.8,8.8,23.5z M14.9,35c-1.2-1.6-1.8-3.6-2-5.2l0-0.1    c0.2-0.5,0.5-0.9,0.8-1.2l0,0l0.1-0.1c0,0,0,0,0.1,0l0,0l0,0l0,0c0.1,0,0.4,0.2,0.6,0.3c0.1,0.1,0.2,0.2,0.3,0.3L14.6,32    C14.6,33.1,14.8,34.3,14.9,35z M16.5,36.5c-0.3,0-0.6-0.3-0.6-0.6c0-0.3,0.2-0.6,0.6-0.6c0.3,0,0.6,0.3,0.6,0.6    C17.1,36.2,16.9,36.5,16.5,36.5z"/>
	</g>
	<path fill="#002C50" d="M8.2,12.5"/>
</g>
</svg>