<svg xmlns="http://www.w3.org/2000/svg" xmlns:xlink="http://www.w3.org/1999/xlink" version="1.1" id="Layer_1" x="0px" y="0px" viewBox="0 0 37 160" style="enable-background:new 0 0 37 160;" xml:space="preserve">
<style type="text/css">
	.st0{fill:#DF94AE;}
	.st1{fill:none;stroke:#DF94AE;stroke-miterlimit:10;}
	.st2{fill:#DE93AD;}
	.st3{fill:#E196B0;}
	.st4{fill:#FFFFFF;}
</style>
<path class="st0" d="M36.3,3.3l-8.9-2.7L16.8,55.1c-1.6-1-3.4-1.6-5.4-1.6c-5.5,0-10,4.5-10,10s4.5,10,10,10c1.5,0,2.9-0.3,4.2-0.9  l9,85.9l8.9-0.8l-8.8-89.6L36.3,3.3z M11.4,72.5c-5,0-9-4-9-9s4-9,9-9s9,4,9,9S16.4,72.5,11.4,72.5z"/>
<g>
	<g>
		<path class="st2" d="M11.9,59.5h0.5l0,4.5h0.9v1h-0.9l0,2.6h-1.1v-2.6H7.8v-0.5L11.9,59.5z M11.2,64l0-2.3L9.4,64H11.2z"/>
	</g>
</g>
</svg>