<svg xmlns="http://www.w3.org/2000/svg" xmlns:xlink="http://www.w3.org/1999/xlink" version="1.1" id="Layer_1" x="0px" y="0px" viewBox="0 0 82 31" style="enable-background:new 0 0 82 31;" xml:space="preserve">
<style type="text/css">
	.st0{fill:#DF94AE;}
	.st1{fill:none;stroke:#DF94AE;stroke-miterlimit:10;}
	.st2{fill:#DE93AD;}
	.st3{fill:#E196B0;}
	.st4{fill:#FFFFFF;}
</style>
<path class="st0" d="M80.4,4.2L2.7,7.7l-0.4,8.5l50-2.5c-1.2,1.6-1.8,3.6-1.8,5.8c0,5.5,4.5,10,10,10s10-4.5,10-10  c0-2.5-0.9-4.8-2.5-6.6l12.1-0.6L80.4,4.2z M69.5,19.5c0,5-4,9-9,9s-9-4-9-9s4-9,9-9S69.5,14.5,69.5,19.5z"/>
<g>
	<g>
		<path class="st0" d="M59.7,18.8L59.7,18.8c0.6,0,1-0.1,1.2-0.3s0.4-0.5,0.4-0.9c0-0.4-0.1-0.7-0.4-0.9s-0.6-0.3-1-0.3    c-0.4,0-0.9,0.1-1.4,0.4v-1.1c0.5-0.2,1-0.4,1.6-0.4c0.8,0,1.3,0.2,1.8,0.6c0.4,0.4,0.7,0.9,0.7,1.6c0,0.4-0.1,0.8-0.3,1    c-0.2,0.3-0.4,0.5-0.8,0.7c0.3,0.1,0.6,0.3,0.7,0.5s0.3,0.4,0.3,0.7s0.1,0.5,0.1,0.8c0,0.7-0.2,1.3-0.7,1.8    c-0.5,0.5-1.1,0.7-1.8,0.7c-0.6,0-1.2-0.2-1.8-0.5v-1.3c0.6,0.4,1.2,0.6,1.8,0.6c0.4,0,0.7-0.1,1-0.4s0.4-0.5,0.4-0.9    c0-0.3-0.1-0.6-0.3-0.8c-0.1-0.1-0.2-0.2-0.4-0.3s-0.5-0.1-0.9-0.2l-0.1,0V18.8z"/>
	</g>
</g>
</svg>