<svg xmlns="http://www.w3.org/2000/svg" xmlns:xlink="http://www.w3.org/1999/xlink" version="1.1" id="Layer_1" x="0px" y="0px" viewBox="0 0 28 193" style="enable-background:new 0 0 28 193;" xml:space="preserve">
<style type="text/css">
	.st0{fill:#DF94AE;}
	.st1{fill:none;stroke:#DF94AE;stroke-miterlimit:10;}
	.st2{fill:#DE93AD;}
	.st3{fill:#E196B0;}
	.st4{fill:#FFFFFF;}
</style>
<path class="st2" d="M22.2,7l-7.8,0.1L15.6,65c-1.5-0.9-3.3-1.5-5.2-1.5c-5.4,0-9.7,4.4-9.7,9.7S5.1,83,10.5,83c2,0,3.9-0.6,5.5-1.7  l2.3,108l9.2-0.6L22.2,7z M10.5,82c-4.8,0-8.7-3.9-8.7-8.7s3.9-8.7,8.7-8.7s8.7,3.9,8.7,8.7S15.3,82,10.5,82z"/>
<g>
	<g>
		<path class="st2" d="M11.1,69.1l0.1-0.1l0.7,0.9c-0.6,0.4-1.1,0.8-1.6,1.3s-0.7,1-1,1.7c0.4-0.2,0.9-0.3,1.3-0.3    c0.6,0,1.2,0.2,1.6,0.7s0.7,1,0.7,1.7c0,0.7-0.2,1.3-0.7,1.7s-1.1,0.7-1.8,0.7c-0.8,0-1.4-0.3-1.9-0.8s-0.7-1.2-0.7-2.1    c0-0.7,0.1-1.3,0.4-2s0.6-1.3,1.1-1.8S10.4,69.6,11.1,69.1z M9.2,74.2c0,0.2,0,0.4,0,0.6c0,0.5,0.1,0.8,0.4,1.1s0.6,0.4,1,0.4    c0.4,0,0.7-0.1,0.9-0.4s0.4-0.6,0.4-1c0-0.4-0.1-0.7-0.4-1s-0.6-0.4-1-0.4c-0.2,0-0.4,0-0.6,0.1S9.4,74,9.2,74.2z"/>
	</g>
</g>
</svg>