<svg xmlns="http://www.w3.org/2000/svg" xmlns:xlink="http://www.w3.org/1999/xlink" version="1.1" id="Layer_1" x="0px" y="0px" viewBox="0 0 24 72" style="enable-background:new 0 0 24 72;" xml:space="preserve">
<style type="text/css">
	.st0{fill:#DF94AE;}
	.st1{fill:none;stroke:#DF94AE;stroke-miterlimit:10;}
	.st2{fill:#DE93AD;}
	.st3{fill:#E196B0;}
	.st4{fill:#FFFFFF;}
</style>
<g>
	<g>
		<path class="st2" d="M12,53.9h3.6v1h-2.6V57c0.1,0,0.2,0,0.3,0c0.8,0,1.4,0.2,2,0.7s0.8,1.1,0.8,1.8c0,0.8-0.3,1.4-0.8,1.9    s-1.2,0.7-2,0.7c-0.7,0-1.3-0.2-1.9-0.5v-1.2c0.6,0.4,1.2,0.6,1.7,0.6c0.5,0,0.9-0.1,1.2-0.4s0.5-0.6,0.5-1.1    c0-0.4-0.2-0.8-0.5-1.1s-0.8-0.4-1.4-0.4c-0.5,0-0.8,0-0.9,0.1V53.9z"/>
	</g>
</g>
<path class="st2" d="M13.8,48.3c-1.6,0-3.1,0.4-4.5,1.1l2.5-47.2h-8L1,69.3l7.2,1.2l0.2-4.3c1.5,1,3.4,1.6,5.4,1.6  c5.4,0,9.7-4.4,9.7-9.7S19.1,48.3,13.8,48.3z M13.8,66.8c-2,0-3.8-0.7-5.3-1.8C6.4,63.4,5,60.9,5,58c0-3.2,1.7-5.9,4.2-7.5  c1.3-0.8,2.9-1.3,4.5-1.3c4.8,0,8.7,3.9,8.7,8.7S18.6,66.8,13.8,66.8z"/>
</svg>