<svg xmlns="http://www.w3.org/2000/svg" xmlns:xlink="http://www.w3.org/1999/xlink" version="1.1" id="Layer_1" x="0px" y="0px" viewBox="0 0 82 31" style="enable-background:new 0 0 82 31;" xml:space="preserve">
<style type="text/css">
	.st0{fill:#DF94AE;}
	.st1{fill:none;stroke:#DF94AE;stroke-miterlimit:10;}
	.st2{fill:#DE93AD;}
	.st3{fill:#E196B0;}
	.st4{fill:#FFFFFF;}
</style>
<path class="st0" d="M80.5,1.3L4.1,20.2l-2,8.7l48.8-12.3c-0.3,0.9-0.4,1.8-0.4,2.8c0,5.5,4.5,10,10,10s10-4.5,10-10  c0-2.7-1.1-5.2-2.9-7l11.6-2.9L80.5,1.3z M69.5,19.5c0,5-4,9-9,9s-9-4-9-9c0-5,4-9,9-9S69.5,14.5,69.5,19.5z"/>
<g>
	<g>
		<path class="st0" d="M59.9,15.4H61v8.2h-1.2V15.4z"/>
	</g>
</g>
</svg>

