<svg xmlns="http://www.w3.org/2000/svg" xmlns:xlink="http://www.w3.org/1999/xlink" version="1.1" id="Layer_1" x="0px" y="0px" viewBox="0 0 29 139" style="enable-background:new 0 0 29 139;" xml:space="preserve">
<style type="text/css">
	.st0{fill:#DF94AE;}
	.st1{fill:none;stroke:#DF94AE;stroke-miterlimit:10;}
	.st2{fill:#DE93AD;}
	.st3{fill:#E196B0;}
	.st4{fill:#FFFFFF;}
</style>
<g>
	<g>
		<path class="st0" d="M9.7,64.4h3.1v1.1H7.7v-0.1l0.5-0.6c0.8-1,1.4-1.8,1.8-2.4s0.8-1.2,0.9-1.5s0.2-0.7,0.2-1    c0-0.5-0.1-0.8-0.4-1.1s-0.6-0.4-1-0.4c-0.3,0-0.7,0.1-1,0.3s-0.6,0.5-0.9,0.8v-1.5c0.6-0.5,1.3-0.8,2-0.8c0.7,0,1.3,0.2,1.8,0.7    s0.7,1.1,0.7,1.8c0,0.3-0.1,0.7-0.2,1.1c-0.1,0.4-0.3,0.8-0.6,1.3s-0.8,1.1-1.5,2L9.7,64.4z"/>
	</g>
</g>
<path class="st2" d="M19.5,6.9l-3.3,46.8c-1.6-1.3-3.7-2-5.9-2c-5.4,0-9.7,4.4-9.7,9.7s4.4,9.7,9.7,9.7c1.8,0,3.4-0.5,4.8-1.3  l-4.5,64.8l7.5,4.2L28,1.7L19.5,6.9z M10.2,70.2c-4.8,0-8.7-3.9-8.7-8.7s3.9-8.7,8.7-8.7s8.7,3.9,8.7,8.7S15.1,70.2,10.2,70.2z"/>
</svg>

