<svg xmlns="http://www.w3.org/2000/svg" xmlns:xlink="http://www.w3.org/1999/xlink" version="1.1" id="Layer_1" x="0px" y="0px" viewBox="0 0 30 134" style="enable-background:new 0 0 30 134;" xml:space="preserve">
<style type="text/css">
	.st0{fill:#DF94AE;}
	.st1{fill:none;stroke:#DF94AE;stroke-miterlimit:10;}
	.st2{fill:#DE93AD;}
	.st3{fill:#E196B0;}
	.st4{fill:#FFFFFF;}
</style>
<path class="st2" d="M19.6,106.2c-0.9,0-1.8,0.1-2.6,0.4l5.9-29.3L13,3.3H4.4l9.5,72.8L2.4,129.7l9.3,3.2l1.9-9.2  c1.7,1.3,3.8,2.1,6,2.1c5.4,0,9.7-4.4,9.7-9.7S25,106.2,19.6,106.2z M19.6,124.7c-4.8,0-8.7-3.9-8.7-8.7s3.9-8.7,8.7-8.7  s8.7,3.9,8.7,8.7S24.4,124.7,19.6,124.7z"/>
<g>
	<g>
		<path class="st0" d="M19.1,118.5h3.1v1.1H17v-0.1l0.5-0.6c0.8-1,1.4-1.8,1.8-2.4s0.8-1.2,0.9-1.5s0.2-0.7,0.2-1    c0-0.5-0.1-0.8-0.4-1.1s-0.6-0.4-1-0.4c-0.3,0-0.7,0.1-1,0.3s-0.6,0.5-0.9,0.8v-1.5c0.6-0.5,1.3-0.8,2-0.8c0.7,0,1.3,0.2,1.8,0.7    s0.7,1.1,0.7,1.8c0,0.3-0.1,0.7-0.2,1.1c-0.1,0.4-0.3,0.8-0.6,1.3s-0.8,1.1-1.5,2L19.1,118.5z"/>
	</g>
</g>
</svg>