<svg xmlns="http://www.w3.org/2000/svg" xmlns:xlink="http://www.w3.org/1999/xlink" version="1.1" id="Layer_1" x="0px" y="0px" viewBox="0 0 82 31" style="enable-background:new 0 0 82 31;" xml:space="preserve">
<style type="text/css">
	.st0{fill:#DF94AE;}
	.st1{fill:none;stroke:#DF94AE;stroke-miterlimit:10;}
	.st2{fill:#DE93AD;}
	.st3{fill:#E196B0;}
	.st4{fill:#FFFFFF;}
</style>
<g>
	<g>
		<path class="st2" d="M65.7,12.7h0.5v4.5H67v1h-0.9v2.6H65v-2.6h-3.4v-0.5L65.7,12.7z M65,17.2v-2.3l-1.8,2.3H65z"/>
	</g>
</g>
<path class="st3" d="M80.8,4.2L1.2,7.9l0.3,8l54.1-2.1c-0.3,1-0.5,2-0.5,3c0,5.5,4.5,10,10,10s10-4.5,10-10c0-1.3-0.3-2.6-0.7-3.8  l6.3-0.2V4.2z M65.2,25.8c-5,0-9-4-9-9s4-9,9-9s9,4,9,9S70.2,25.8,65.2,25.8z"/>
</svg>