<svg id="promo-mobile" xmlns="http://www.w3.org/2000/svg" xmlns:xlink="http://www.w3.org/1999/xlink" viewBox="0 0 250 223.19"><defs><mask id="mask" x="86.46" y="55.07" width="14.93" height="14.1" maskUnits="userSpaceOnUse"><g transform="translate(0 -0.19)"><g id="mask-4"><polygon id="path-3" points="101.39 55.25 86.46 55.25 86.46 69.35 101.39 69.35 101.39 55.25" fill="#fff"/></g></g></mask><mask id="mask-2" x="107.04" y="55.07" width="14.93" height="14.1" maskUnits="userSpaceOnUse"><g transform="translate(0 -0.19)"><g id="mask-6"><polygon id="path-5" points="121.97 55.25 107.04 55.25 107.04 69.35 121.97 69.35 121.97 55.25" fill="#fff"/></g></g></mask><mask id="mask-3" x="173.93" y="55.07" width="9.23" height="14.1" maskUnits="userSpaceOnUse"><g transform="translate(0 -0.19)"><g id="mask-8"><polygon id="path-7" points="173.93 69.35 183.16 69.35 183.16 55.25 173.93 55.25 173.93 69.35" fill="#fff"/></g></g></mask><mask id="mask-4-2" x="219.42" y="0.71" width="30.56" height="39.2" maskUnits="userSpaceOnUse"><g transform="translate(0 -0.19)"><g id="mask-10"><polygon id="path-9" points="249.97 40.1 249.97 0.9 219.42 0.9 219.42 40.1 249.97 40.1" fill="#fff"/></g></g></mask><mask id="mask-5" x="88.03" y="176.07" width="14.54" height="13.96" maskUnits="userSpaceOnUse"><g transform="translate(0 -0.19)"><g id="mask-2-2" data-name="mask-2"><polygon id="path-1" points="102.57 176.25 88.03 176.25 88.03 190.21 102.57 190.21 102.57 176.25" fill="#fff"/></g></g></mask><mask id="mask-6-2" x="35.23" y="120" width="19.13" height="40.5" maskUnits="userSpaceOnUse"><g transform="translate(0 -0.19)"><g id="mask-12"><polygon id="path-11" points="54.36 120.19 35.23 120.19 35.23 160.69 54.36 160.69 54.36 120.19" fill="#fff"/></g></g></mask></defs><title>promo-mobile</title><g id="_20offHoodies" data-name="20offHoodies"><path id="Fill-1" d="M70.09,65.21A11.84,11.84,0,0,0,70.3,68c0.27,0.7,1.11.7,1.77,0.7v0.47l-3-.08L66,69.12V68.65c0.66,0,1.5,0,1.77-.7A11.84,11.84,0,0,0,68,65.21v-5.8a11.84,11.84,0,0,0-.21-2.74C67.5,56,66.66,56,66,56V55.5l2.94,0.08,3.13-.08V56c-0.66,0-1.5,0-1.77.7a11.84,11.84,0,0,0-.21,2.74V61.8h7.34V59.41a11.84,11.84,0,0,0-.21-2.74C77,56,76.12,56,75.46,56V55.5l3,0.08,3.06-.08V56c-0.66,0-1.5,0-1.77.7a11.84,11.84,0,0,0-.21,2.74v5.8A11.84,11.84,0,0,0,79.76,68c0.27,0.7,1.11.7,1.77,0.7v0.47l-3-.08-3.08.08V68.65c0.66,0,1.5,0,1.77-.7a11.84,11.84,0,0,0,.21-2.74V62.46H70.09v2.76Z" transform="translate(0 -0.19)" fill="currentColor"/><g mask="url(#mask)"><path id="Fill-3" d="M89,62.35c0,3.23,1.27,6.44,5,6.44s4.77-3.44,4.77-6.5-1.28-6.48-4.89-6.48S89,59.31,89,62.35m-2.57,0A7.35,7.35,0,0,1,94,55.25a7.06,7.06,0,1,1-.08,14.1c-4,0-7.46-2.86-7.46-7" transform="translate(0 -0.19)" fill="currentColor"/></g><g mask="url(#mask-2)"><path id="Fill-6" d="M109.61,62.35c0,3.23,1.27,6.44,5,6.44s4.77-3.44,4.77-6.5-1.28-6.48-4.89-6.48-4.89,3.5-4.89,6.55m-2.57,0a7.35,7.35,0,0,1,7.55-7.1,7.06,7.06,0,1,1-.08,14.1c-4,0-7.46-2.86-7.46-7" transform="translate(0 -0.19)" fill="currentColor"/></g><path id="Fill-9" d="M130.91,65.5a4.29,4.29,0,0,0,.33,2.28,2.73,2.73,0,0,0,2.3.78c3.6,0,4.3-2.59,4.3-5.64,0-4.08-1.17-6.87-5.57-6.87a2.72,2.72,0,0,0-1.23.14,1.12,1.12,0,0,0-.12.64V65.5Zm-2.12-6.05a13.11,13.11,0,0,0-.19-2.74c-0.23-.72-1.09-0.7-1.75-0.7V55.5l2.59,0.08,3.33-.08c4.34-.08,7.63,2.63,7.63,7.1s-2.86,6.63-7.09,6.52L129.66,69l-2.8.08V68.65c0.66,0,1.52,0,1.75-.7a13.11,13.11,0,0,0,.19-2.74V59.45Z" transform="translate(0 -0.19)" fill="currentColor"/><path id="Fill-11" d="M147.47,59.41a11.84,11.84,0,0,0-.21-2.74C147,56,146.15,56,145.49,56V55.5l3,0.08,3.1-.08V56c-0.66,0-1.5,0-1.77.7a11.84,11.84,0,0,0-.21,2.74v5.8a11.84,11.84,0,0,0,.21,2.74c0.27,0.7,1.11.7,1.77,0.7v0.47l-3-.08-3.1.08V68.65c0.66,0,1.5,0,1.77-.7a11.84,11.84,0,0,0,.21-2.74v-5.8Z" transform="translate(0 -0.19)" fill="currentColor"/><path id="Fill-13" d="M158.84,59.49a11.86,11.86,0,0,0-.21-2.74c-0.27-.7-1.11-0.7-1.77-0.7V55.5h10.22v3.11h-0.47c-0.39-2.41-1.46-2.55-3.64-2.55h-1.48a0.61,0.61,0,0,0-.51.08,3.3,3.3,0,0,0,0,.76v4.88c2.82,0.12,3.23-1,3.35-2.53h0.47c0,0.93,0,1.87-.08,2.8s0.06,1.71.08,2.55h-0.47c-0.29-2.16-1.38-2.26-3.35-2.26v3.38a3.92,3.92,0,0,0,.37,2.08c0.53,0.72,1.81.76,2.63,0.74,2.14,0,3.54-.31,3.8-2.76h0.47L168,69.08H156.86V68.61c0.66,0,1.5,0,1.77-.7a11.86,11.86,0,0,0,.21-2.74V59.49Z" transform="translate(0 -0.19)" fill="currentColor"/><g mask="url(#mask-3)"><path id="Fill-15" d="M173.93,65h0.47c0.41,2.08,1.52,3.83,3.89,3.83,1.6,0,2.94-.91,2.94-2.57,0-1.87-1.62-2.61-3.13-3.21-1.87-.72-3.87-1.71-3.87-4.05s1.83-3.71,4.07-3.71a5.32,5.32,0,0,1,3.1,1l0.47-.8h0.23l0.1,3.56h-0.47c-0.47-1.71-1.44-3.25-3.43-3.25A2.23,2.23,0,0,0,175.9,58c0,1.63,1.46,2.18,2.73,2.72,2.14,0.89,4.52,2,4.52,4.65s-2.51,4-4.91,4a5.7,5.7,0,0,1-3.6-1.23l-0.49.86h-0.23V65Z" transform="translate(0 -0.19)" fill="currentColor"/></g><path id="Fill-1-2" data-name="Fill-1" d="M92.64,20.15c0-7.4-3.67-19.9-12.91-19.9C70.25,0.26,66.34,13.7,66.34,21c0,6.81,3.85,19.78,12.67,19.78,9.83,0,13.62-13,13.62-20.67m-5.92-1.6L85.88,30.16c-0.59,4-1.89,9.3-6.87,9.3-6.93,0-6.75-12.61-6.75-17.35l0.89-11.78c0.65-3.73,2.07-8.7,6.81-8.7,6.63,0,6.75,12.38,6.75,16.94M59.37,11.33c0-7.4-6.16-11.07-12.91-11.07-5.63,0-12,3.08-12,9.53,0,4.15,2.49,7.34,6.81,7.34,2.61,0,5.39-1.72,5.68-4.44a4.59,4.59,0,0,1-3.32,1.72c-3.14,0-5.21-3-5.21-5.92,0-4.2,3.26-6.87,7.28-6.87,5.33,0,7.7,4.62,7.7,9.36,0,7.88-5.33,12.55-10.42,17.65C39.6,32.1,36.29,35.77,34,40H57.72l1-5H39.47c2.72-3.73,6.45-6.75,10.13-9.53,4.91-3.73,9.77-7.28,9.77-14.15M28.72,31.82a8.32,8.32,0,0,1-7.58,4.38A24.52,24.52,0,0,1,13,34.54a16.43,16.43,0,0,0,1.89-8.17A22.21,22.21,0,0,0,14,20.8h8.88V18.67H13.56l-1.42-5.8a20.11,20.11,0,0,1-.65-5c0-3.55,2.19-6.28,5.86-6.28A4.68,4.68,0,0,1,21.2,3.39a7.31,7.31,0,0,1,.71,2.19c0.3,1.48.89,3,2.72,3a2.34,2.34,0,0,0,2.25-2.49A5.17,5.17,0,0,0,25,2.57,11.54,11.54,0,0,0,17.53.26C11.07,0.26,6.69,4.4,6.69,10.91a29.25,29.25,0,0,0,1.36,7.76H1.6V20.8H8.7c0.95,3,2.25,6.45,2.25,9.65l-0.3,3.38a11.82,11.82,0,0,0-5.8-1.54A4.54,4.54,0,0,0,0,36.91c0,2.43,2.13,3.91,4.44,3.91a8.72,8.72,0,0,0,7-4l1,0.59c2.78,1.6,5.74,3.38,9.06,3.38,4.74,0,7.4-4.74,7.17-9m-18.59,4a5.9,5.9,0,0,1-5.39,3.38c-1.72,0-3.26-.47-3.26-2.43S3.2,33.89,5,33.89c2,0,3.49,1.13,5.15,2" transform="translate(0 -0.19)" fill="currentColor"/><path id="Fill-4" d="M125.44,20.61c0,9.3,3.67,18.53,14.45,18.53,10.54,0,13.74-9.89,13.74-18.71S150,1.78,139.54,1.78c-10.24,0-14.09,10.07-14.09,18.83m-7.4,0C118,8.83,128.34.19,139.77,0.19S161,8.48,161,20.2c0,12.14-9.53,20.55-21.5,20.55C128,40.75,118,32.52,118,20.61" transform="translate(0 -0.19)" fill="currentColor"/><path id="Fill-6-2" data-name="Fill-6" d="M205.44,10.19h-1.36c-0.71-2.55-1.3-5-4-6.16S194.19,3,191.35,3c-2.37,0-3.49-.12-4.2.3-0.36.24-.47,1.3-0.47,3V19.55c8.11,0.36,9.3-2.9,9.65-7.17h1.36c-0.06,2.66-.12,5.39-0.24,8.05,0.12,2.43.18,4.91,0.24,7.34h-1.36c-0.83-6.22-4-6.34-9.65-6.34v7.46c0,1.84,0,6.22.59,7.82,0.89,2.37,3.79,1.9,5.86,2V40.1c-3-.06-6.1-0.18-9.12-0.24s-6,.18-9.12.24V38.74c1.89,0,4.32,0,5.09-2,0.59-1.6.59-6,.59-7.88V12.15c0-1.9,0-6.28-.59-7.88-0.77-2-3.2-2-5.09-2V0.9c3.61,0.06,7.11.18,10.6,0.24,6.34-.06,12.67-0.18,19-0.24Z" transform="translate(0 -0.19)" fill="currentColor"/><g mask="url(#mask-4-2)"><path id="Fill-8" d="M250,10.19h-1.36c-0.71-2.55-1.3-5-4-6.16S238.72,3,235.88,3c-2.37,0-3.49-.12-4.2.3-0.36.24-.47,1.3-0.47,3V19.55c8.11,0.36,9.3-2.9,9.65-7.17h1.36c-0.06,2.66-.12,5.39-0.24,8.05,0.12,2.43.18,4.91,0.24,7.34h-1.36c-0.83-6.22-4-6.34-9.65-6.34v7.46c0,1.84,0,6.22.59,7.82,0.89,2.37,3.79,1.9,5.86,2V40.1c-3-.06-6.1-0.18-9.12-0.24s-6,.18-9.12.24V38.74c1.89,0,4.32,0,5.09-2,0.59-1.6.59-6,.59-7.88V12.15c0-1.9,0-6.28-.59-7.88-0.77-2-3.2-2-5.09-2V0.9C223,1,226.52,1.07,230,1.13,236.35,1.07,242.69,1,249,.9Z" transform="translate(0 -0.19)" fill="currentColor"/></g></g><g id="_10poundOffSweats" data-name="10poundOffSweats"><path id="Fill-1-3" data-name="Fill-1" d="M34,186.05h0.47c0.41,2.08,1.52,3.83,3.89,3.83,1.61,0,2.94-.91,2.94-2.57,0-1.87-1.63-2.62-3.13-3.21-1.87-.72-3.87-1.71-3.87-4.06s1.83-3.71,4.08-3.71a5.33,5.33,0,0,1,3.11,1.05l0.47-.8H42.2l0.1,3.56H41.82c-0.47-1.71-1.44-3.25-3.44-3.25A2.23,2.23,0,0,0,36,179.07c0,1.63,1.46,2.18,2.74,2.72,2.14,0.89,4.53,2,4.53,4.65s-2.51,4-4.92,4a5.71,5.71,0,0,1-3.6-1.24l-0.49.86H34v-4Z" transform="translate(0 -0.19)" fill="currentColor"/><path id="Fill-3-2" data-name="Fill-3" d="M57.43,180.06h0l-1.63,5.6c-0.56,1.65-1.13,3.27-1.69,4.92h-0.7l-3.6-11.08a7.92,7.92,0,0,0-.76-1.92,1.78,1.78,0,0,0-1.48-.54v-0.47l3,0.08,3-.08v0.47c-0.66.06-1.85,0.06-1.85,1a17.16,17.16,0,0,0,.62,2.51l2.16,7.06h0l3.23-11.06H58.4l3.38,10.89h0l1.4-4.49a30.92,30.92,0,0,0,1.09-4.55c0-1.28-.74-1.28-1.77-1.38v-0.47l2.22,0.08,2.14-.08v0.47c-1.52,0-1.81,1.57-2.14,2.72l-3.4,10.81H60.65Z" transform="translate(0 -0.19)" fill="currentColor"/><path id="Fill-5" d="M73.74,180.58a11.83,11.83,0,0,0-.21-2.74c-0.27-.7-1.11-0.7-1.77-0.7v-0.56H82v3.11H81.53c-0.39-2.41-1.46-2.55-3.64-2.55H76.4a0.61,0.61,0,0,0-.51.08,3.29,3.29,0,0,0,0,.76v4.88c2.82,0.12,3.23-1.05,3.36-2.53h0.47c0,0.93,0,1.87-.08,2.8s0.06,1.71.08,2.55H79.22c-0.29-2.16-1.38-2.27-3.36-2.27v3.38a3.92,3.92,0,0,0,.37,2.08c0.54,0.72,1.81.76,2.64,0.74,2.14,0,3.54-.31,3.81-2.76h0.47L83,190.17H71.76V189.7c0.66,0,1.5,0,1.77-.7a11.83,11.83,0,0,0,.21-2.74v-5.68Z" transform="translate(0 -0.19)" fill="currentColor"/><g mask="url(#mask-5)"><path id="Fill-7" d="M96.76,184.57l-2.27-5.81-2.29,5.81h4.55Zm-5,1.17a11.85,11.85,0,0,0-1,3.11c0,0.89,1.05.82,1.67,0.89v0.47l-2.27-.08-2.14.08v-0.47a2,2,0,0,0,2-1.46l1.71-3.93,3.15-8.09h0.7l4.16,10.46A15.18,15.18,0,0,0,100.8,189a2.28,2.28,0,0,0,1.77.76v0.47l-2.92-.08-3,.08v-0.47c0.58,0,1.59,0,1.59-.78a4.87,4.87,0,0,0-.41-1.61L97,185.23H91.94Z" transform="translate(0 -0.19)" fill="currentColor"/></g><path id="Fill-10" d="M118.49,179.79h-0.56c-0.12-2-.91-2.55-2.84-2.55-0.76,0-2-.1-2,0.56v9.76c0,1.52.29,2.1,2.29,2.18v0.47l-3.42-.08-3.27.08v-0.47c2-.08,2.29-0.66,2.29-2.18V177.8c0-.62-0.91-0.56-1.73-0.56-2,0-3,.1-3.11,2.55h-0.47v-3.21H118.3Z" transform="translate(0 -0.19)" fill="currentColor"/><path id="Fill-12" d="M123.68,186.05h0.47c0.41,2.08,1.52,3.83,3.89,3.83,1.61,0,2.94-.91,2.94-2.57,0-1.87-1.63-2.62-3.13-3.21C126,183.38,124,182.39,124,180s1.83-3.71,4.08-3.71a5.33,5.33,0,0,1,3.11,1.05l0.47-.8h0.23l0.1,3.56H131.5c-0.47-1.71-1.44-3.25-3.44-3.25a2.23,2.23,0,0,0-2.41,2.18c0,1.63,1.46,2.18,2.74,2.72,2.14,0.89,4.53,2,4.53,4.65s-2.51,4-4.92,4a5.71,5.71,0,0,1-3.6-1.24l-0.49.86h-0.23v-4Z" transform="translate(0 -0.19)" fill="currentColor"/><path id="Fill-14" d="M141.82,186.3A11.83,11.83,0,0,0,142,189c0.27,0.7,1.11.7,1.77,0.7v0.47l-3-.08-3.09.08v-0.47c0.66,0,1.5,0,1.77-.7a11.83,11.83,0,0,0,.21-2.74v-5.81a11.83,11.83,0,0,0-.21-2.74c-0.27-.7-1.11-0.7-1.77-0.7v-0.47l2.94,0.08,3.13-.08v0.47c-0.66,0-1.5,0-1.77.7a11.83,11.83,0,0,0-.21,2.74v2.39h7.35v-2.39a11.85,11.85,0,0,0-.21-2.74c-0.27-.7-1.11-0.7-1.77-0.7v-0.47l3,0.08,3.07-.08v0.47c-0.66,0-1.5,0-1.77.7a11.83,11.83,0,0,0-.21,2.74v5.81a11.83,11.83,0,0,0,.21,2.74c0.27,0.7,1.11.7,1.77,0.7v0.47l-3-.08-3.09.08v-0.47c0.66,0,1.5,0,1.77-.7a11.85,11.85,0,0,0,.21-2.74v-2.76h-7.35v2.76Z" transform="translate(0 -0.19)" fill="currentColor"/><path id="Fill-16" d="M160.64,180.49a11.83,11.83,0,0,0-.21-2.74c-0.27-.7-1.11-0.7-1.77-0.7v-0.47l3,0.08,3.11-.08v0.47c-0.66,0-1.5,0-1.77.7a11.83,11.83,0,0,0-.21,2.74v5.81A11.83,11.83,0,0,0,163,189c0.27,0.7,1.11.7,1.77,0.7v0.47l-3-.08-3.11.08v-0.47c0.66,0,1.5,0,1.77-.7a11.83,11.83,0,0,0,.21-2.74v-5.81Z" transform="translate(0 -0.19)" fill="currentColor"/><path id="Fill-18" d="M174.1,183.31c2.57,0,4.45-.06,4.45-3a2.78,2.78,0,0,0-2.88-3.09,7.18,7.18,0,0,0-1.34,0,0.75,0.75,0,0,0-.23.74v5.37Zm7.45,5.21a2.73,2.73,0,0,0,2,1.21v0.47l-1.85-.08-1.54.08-1-1.19-3.42-4.24c-0.68-.78-0.6-0.91-1.69-0.91v2.43a13.12,13.12,0,0,0,.19,2.74c0.25,0.72,1.09.7,1.75,0.7v0.47l-2.9-.08-3.09.08v-0.47c0.66,0,1.52,0,1.75-.7a13.12,13.12,0,0,0,.19-2.74v-5.81a13.12,13.12,0,0,0-.19-2.74c-0.23-.72-1.09-0.7-1.75-0.7v-0.47l3.54,0.08,2.62-.08c2.35,0,4.72.54,4.72,3.4,0,2.22-1.69,3.36-3.73,3.54Z" transform="translate(0 -0.19)" fill="currentColor"/><path id="Fill-20" d="M199.68,179.79h-0.56c-0.12-2-.91-2.55-2.84-2.55-0.76,0-2-.1-2,0.56v9.76c0,1.52.29,2.1,2.29,2.18v0.47l-3.42-.08-3.27.08v-0.47c2-.08,2.29-0.66,2.29-2.18V177.8c0-.62-0.91-0.56-1.73-0.56-2,0-3,.1-3.11,2.55h-0.47v-3.21h12.64Z" transform="translate(0 -0.19)" fill="currentColor"/><path id="Fill-22" d="M204.87,186.05h0.47c0.41,2.08,1.52,3.83,3.89,3.83,1.61,0,2.94-.91,2.94-2.57,0-1.87-1.63-2.62-3.13-3.21-1.87-.72-3.87-1.71-3.87-4.06s1.83-3.71,4.08-3.71a5.33,5.33,0,0,1,3.11,1.05l0.47-.8h0.23l0.1,3.56h-0.47c-0.47-1.71-1.44-3.25-3.44-3.25a2.23,2.23,0,0,0-2.41,2.18c0,1.63,1.46,2.18,2.74,2.72,2.14,0.89,4.53,2,4.53,4.65s-2.51,4-4.92,4a5.71,5.71,0,0,1-3.6-1.24l-0.49.86h-0.23v-4Z" transform="translate(0 -0.19)" fill="currentColor"/><path id="Fill-24" d="M63.39,208c0-1-.41-2.18-1.61-2.18a1.63,1.63,0,0,0-1.63,1.82,6.42,6.42,0,0,0,1.57,3.5A3.75,3.75,0,0,0,63.39,208h0Zm-2.79,4.6c-0.87.79-1.7,1.37-1.7,2.69a2.23,2.23,0,0,0,2.17,2.36,3.73,3.73,0,0,0,2.54-1.35l-0.1-.1Zm4.2,2.22,1-1.68c0.58-1.08,1.3-2.53,2.71-2.53a1.36,1.36,0,0,1,1.39,1.29,1.06,1.06,0,0,1-1,1.06,0.85,0.85,0,0,1-.87-0.93c0-.17.08-0.58-0.19-0.58-0.54,0-1.26,1.35-1.45,1.74l-1,1.76-0.17.27c0.74,0.73,2.07,2.22,3.16,2.22a2.16,2.16,0,0,0,1.59-.95l0.33,0.31a3.61,3.61,0,0,1-2.92,1.66c-1.45,0-2.4-.89-3.37-1.82a5.31,5.31,0,0,1-4,1.87,2.62,2.62,0,0,1-2.81-2.36c0-2,1.67-3.09,3.2-4A6.49,6.49,0,0,1,59,208.5a3.06,3.06,0,0,1,3-3.19,2.45,2.45,0,0,1,2.63,2.53c0,1.56-1.38,2.88-2.6,3.71Z" transform="translate(0 -0.19)" fill="currentColor"/><path id="Fill-26" d="M87.64,219.13a5.21,5.21,0,0,1-.66,2.72,3.75,3.75,0,0,1-3.43,1.53c-0.89,0-3-.14-3-1.41a0.75,0.75,0,0,1,.79-0.75,1.11,1.11,0,0,1,1,.81,1.21,1.21,0,0,0,1.3.93,1.79,1.79,0,0,0,2-1.62,6.42,6.42,0,0,0,.12-1.26V207.79a3.28,3.28,0,0,0-.19-1.14,1.58,1.58,0,0,0-1.67-.66v-0.44l2.79,0.08,2.93-.08V206a1.63,1.63,0,0,0-1.67.66,7,7,0,0,0-.19,2.14v10.34Z" transform="translate(0 -0.19)" fill="currentColor"/><path id="Fill-28" d="M96.36,212c0,3,1.2,6,4.73,6s4.49-3.23,4.49-6.11-1.2-6.09-4.61-6.09-4.61,3.28-4.61,6.14m-2.42,0a6.91,6.91,0,0,1,7.11-6.67,6.63,6.63,0,1,1-.08,13.23c-3.78,0-7-2.69-7-6.57" transform="translate(0 -0.19)" fill="currentColor"/><path id="Fill-30" d="M124.6,209.49H124.2a3.69,3.69,0,0,0-3.8-3.73c-3.78,0-4.59,3.48-4.59,6.53,0,2.9,1.12,5.74,4.42,5.74,1.94,0,3.23-.91,3.23-2.9,0-1.29-.48-1.55-1.67-1.64V213h5.08v0.44c-1,0-1.2.5-1.2,1.47v2a4,4,0,0,0-2.73.81,6.42,6.42,0,0,1-3,.73c-3.78,0-6.51-2.47-6.51-6.3a6.9,6.9,0,0,1,10.81-5.72l0.41-.87h0.21Z" transform="translate(0 -0.19)" fill="currentColor"/><path id="Fill-32" d="M143,209.49h-0.41a3.69,3.69,0,0,0-3.8-3.73c-3.78,0-4.59,3.48-4.59,6.53,0,2.9,1.12,5.74,4.42,5.74,1.94,0,3.23-.91,3.23-2.9,0-1.29-.48-1.55-1.67-1.64V213h5.08v0.44c-1,0-1.2.5-1.2,1.47v2a4,4,0,0,0-2.73.81,6.42,6.42,0,0,1-3,.73c-3.78,0-6.51-2.47-6.51-6.3a6.9,6.9,0,0,1,10.81-5.72l0.41-.87h0.21Z" transform="translate(0 -0.19)" fill="currentColor"/><path id="Fill-34" d="M151,209.29a11.08,11.08,0,0,0-.19-2.57,1.57,1.57,0,0,0-1.67-.66v-0.52h9.63v2.92h-0.45c-0.37-2.26-1.38-2.4-3.43-2.4h-1.39a0.57,0.57,0,0,0-.48.08,3.08,3.08,0,0,0,0,.71v4.58c2.65,0.12,3-1,3.16-2.38h0.45c0,0.87,0,1.76-.08,2.63s0.06,1.6.08,2.4h-0.45c-0.27-2-1.3-2.13-3.16-2.13v3.17a3.67,3.67,0,0,0,.35,2c0.5,0.68,1.7.71,2.48,0.7,2,0,3.33-.29,3.58-2.59h0.45l-0.17,3.11H149.15v-0.44a1.57,1.57,0,0,0,1.67-.66,11.08,11.08,0,0,0,.19-2.57v-5.33Z" transform="translate(0 -0.19)" fill="currentColor"/><path id="Fill-36" d="M168.69,211.86c2.42,0,4.18-.06,4.18-2.86a2.61,2.61,0,0,0-2.71-2.9,6.77,6.77,0,0,0-1.26,0,0.71,0.71,0,0,0-.21.7v5Zm7,4.89a2.57,2.57,0,0,0,1.9,1.14v0.44l-1.74-.08-1.45.08-0.91-1.12-3.22-4c-0.64-.73-0.56-0.85-1.59-0.85v2.28a12.28,12.28,0,0,0,.17,2.57c0.23,0.68,1,.66,1.65.66v0.44l-2.73-.08-2.91.08v-0.44c0.62,0,1.43,0,1.65-.66a12.26,12.26,0,0,0,.17-2.57v-5.45a12.26,12.26,0,0,0-.17-2.57c-0.21-.68-1-0.66-1.65-0.66v-0.44l3.33,0.08,2.46-.08c2.21,0,4.44.5,4.44,3.19,0,2.09-1.59,3.15-3.51,3.32Z" transform="translate(0 -0.19)" fill="currentColor"/><path id="Fill-38" d="M182.29,214.43h0.45c0.39,2,1.43,3.59,3.66,3.59a2.48,2.48,0,0,0,2.77-2.42c0-1.76-1.53-2.45-2.94-3-1.76-.68-3.64-1.6-3.64-3.81s1.72-3.48,3.84-3.48a5,5,0,0,1,2.93,1l0.45-.75H190l0.1,3.34h-0.45c-0.45-1.6-1.36-3.05-3.24-3.05a2.09,2.09,0,0,0-2.27,2c0,1.53,1.38,2,2.58,2.55,2,0.83,4.26,1.84,4.26,4.37s-2.36,3.75-4.63,3.75a5.38,5.38,0,0,1-3.39-1.16l-0.46.81h-0.21v-3.77Z" transform="translate(0 -0.19)" fill="currentColor"/><path id="Fill-1-4" data-name="Fill-1" d="M5,154.41c-1.78,0-3.49.95-3.49,2.9s1.54,2.43,3.26,2.43a5.9,5.9,0,0,0,5.39-3.38c-1.66-.83-3.2-2-5.15-2H5Zm8.59-15.22h9.36v2.13H14a22.21,22.21,0,0,1,.83,5.57A16.44,16.44,0,0,1,13,155.06a24.52,24.52,0,0,0,8.17,1.66,8.32,8.32,0,0,0,7.58-4.38c0.24,4.26-2.43,9-7.17,9-3.32,0-6.28-1.78-9.06-3.38l-1-.59a8.72,8.72,0,0,1-7,4c-2.31,0-4.44-1.48-4.44-3.91a4.54,4.54,0,0,1,4.86-4.62,11.82,11.82,0,0,1,5.8,1.54L11,151c0-3.2-1.3-6.63-2.25-9.65H1.6v-2.13H8.05a29.24,29.24,0,0,1-1.36-7.76c0-6.51,4.38-10.66,10.84-10.66A11.54,11.54,0,0,1,25,123.09a5.17,5.17,0,0,1,1.89,3.49,2.34,2.34,0,0,1-2.25,2.49c-1.84,0-2.43-1.48-2.72-3a7.31,7.31,0,0,0-.71-2.19,4.68,4.68,0,0,0-3.85-1.78c-3.67,0-5.86,2.72-5.86,6.28a20.11,20.11,0,0,0,.65,5Z" transform="translate(0 -0.19)" fill="currentColor"/><g mask="url(#mask-6-2)"><path id="Fill-3-3" data-name="Fill-3" d="M48.32,151.81a26.55,26.55,0,0,0,.41,5.74c0.53,2,4,1.66,5.63,1.78v1.36c-3-.06-5.92-0.18-8.88-0.24s-6,.18-9.06.24v-1.36c1.54-.06,5.39.12,6.1-1.42,0.53-1.18.53-4.74,0.53-6.1V130.73c0-1.3,0-4.15-.65-5.27s-2.43-1.07-3.73-1.07H35.23v-1.18c4.92-.3,8.7-0.59,13.09-3v31.62Z" transform="translate(0 -0.19)" fill="currentColor"/></g><path id="Fill-6-3" data-name="Fill-6" d="M82,139.08c0-4.56-.12-16.94-6.75-16.94-4.74,0-6.16,5-6.81,8.7l-0.89,11.78c0,4.74-.18,17.35,6.75,17.35,5,0,6.28-5.33,6.87-9.3Zm5.92,1.6c0,7.7-3.79,20.67-13.62,20.67-8.82,0-12.67-13-12.67-19.78,0-7.34,3.91-20.78,13.38-20.78,9.24,0,12.91,12.49,12.91,19.9h0Z" transform="translate(0 -0.19)" fill="currentColor"/><path id="Fill-8-2" data-name="Fill-8" d="M125.44,141.14c0,9.3,3.67,18.53,14.45,18.53,10.54,0,13.74-9.89,13.74-18.71s-3.67-18.65-14.09-18.65c-10.24,0-14.09,10.07-14.09,18.83m-7.4,0c0-11.78,10.3-20.43,21.73-20.43S161,129,161,140.72c0,12.14-9.53,20.55-21.5,20.55C128,161.27,118,153,118,141.14" transform="translate(0 -0.19)" fill="currentColor"/><path id="Fill-10-2" data-name="Fill-10" d="M205.44,130.72h-1.36c-0.71-2.55-1.3-5-4-6.16s-5.92-1.07-8.76-1.07c-2.37,0-3.49-.12-4.2.3-0.36.24-.47,1.3-0.47,3v13.26c8.11,0.36,9.3-2.9,9.65-7.17h1.36c-0.06,2.66-.12,5.39-0.24,8.05,0.12,2.43.18,4.92,0.24,7.34h-1.36c-0.83-6.22-4-6.34-9.65-6.34v7.46c0,1.84,0,6.22.59,7.82,0.89,2.37,3.79,1.9,5.86,2v1.36c-3-.06-6.1-0.18-9.12-0.24s-6,.18-9.12.24v-1.36c1.89,0,4.32,0,5.09-2,0.59-1.6.59-6,.59-7.88v-16.7c0-1.9,0-6.28-.59-7.88-0.77-2-3.2-2-5.09-2v-1.36c3.61,0.06,7.11.18,10.6,0.24,6.34-.06,12.67-0.18,19-0.24Z" transform="translate(0 -0.19)" fill="currentColor"/><path id="Fill-12-2" data-name="Fill-12" d="M250,130.72h-1.36c-0.71-2.55-1.3-5-4-6.16s-5.92-1.07-8.76-1.07c-2.37,0-3.49-.12-4.2.3-0.36.24-.47,1.3-0.47,3v13.26c8.11,0.36,9.3-2.9,9.65-7.17h1.36c-0.06,2.66-.12,5.39-0.24,8.05,0.12,2.43.18,4.92,0.24,7.34h-1.36c-0.83-6.22-4-6.34-9.65-6.34v7.46c0,1.84,0,6.22.59,7.82,0.89,2.37,3.79,1.9,5.86,2v1.36c-3-.06-6.1-0.18-9.12-0.24s-6,.18-9.12.24v-1.36c1.89,0,4.32,0,5.09-2,0.59-1.6.59-6,.59-7.88v-16.7c0-1.9,0-6.28-.59-7.88-0.77-2-3.2-2-5.09-2v-1.36c3.61,0.06,7.11.18,10.6,0.24,6.34-.06,12.67-0.18,19-0.24Z" transform="translate(0 -0.19)" fill="currentColor"/></g><rect id="divider" y="93.81" width="250" height="2" fill="#e23b45"/></svg>
