<svg id="promo-desktop" xmlns="http://www.w3.org/2000/svg" xmlns:xlink="http://www.w3.org/1999/xlink" viewBox="0 0 320 263.33"><defs><mask id="mask" x="280.85" y="0.91" width="39.11" height="50.18" maskUnits="userSpaceOnUse"><g transform="translate(0 -0.24)"><g id="mask-4"><polygon id="path-3" points="319.96 51.32 319.96 1.15 280.85 1.15 280.85 51.32 319.96 51.32" fill="#fff"/></g></g></mask><mask id="mask-2" x="124.12" y="77" width="13.95" height="13.18" maskUnits="userSpaceOnUse"><g transform="translate(0 -0.24)"><g id="mask-6"><polygon id="path-5" points="138.08 77.23 124.12 77.23 124.12 90.41 138.08 90.41 138.08 77.23" fill="#fff"/></g></g></mask><mask id="mask-3" x="143.36" y="77" width="13.95" height="13.18" maskUnits="userSpaceOnUse"><g transform="translate(0 -0.24)"><g id="mask-8"><polygon id="path-7" points="157.32 77.23 143.36 77.23 143.36 90.41 157.32 90.41 157.32 77.23" fill="#fff"/></g></g></mask><mask id="mask-4-2" x="205.88" y="77" width="8.63" height="13.18" maskUnits="userSpaceOnUse"><g transform="translate(0 -0.24)"><g id="mask-10"><polygon id="path-9" points="205.88 90.41 214.51 90.41 214.51 77.23 205.88 77.23 205.88 90.41" fill="#fff"/></g></g></mask><mask id="mask-5" x="45.1" y="167" width="24.48" height="51.85" maskUnits="userSpaceOnUse"><g transform="translate(0 -0.24)"><g id="mask-12"><polygon id="path-11" points="69.58 167.24 45.1 167.24 45.1 219.08 69.58 219.08 69.58 167.24" fill="#fff"/></g></g></mask></defs><title>promo-desktop</title><g id="_20pound" data-name="20pound"><path id="Fill-1" d="M118.57,25.79c0-9.47-4.7-25.47-16.52-25.47-12.13,0-17.13,17.21-17.13,26.6,0,8.72,4.93,25.32,16.22,25.32,12.58,0,17.43-16.6,17.43-26.45m-7.58-2L109.93,38.6c-0.76,5.08-2.43,11.9-8.79,11.9-8.87,0-8.64-16.14-8.64-22.21l1.14-15.08c0.83-4.78,2.65-11.14,8.72-11.14,8.49,0,8.64,15.84,8.64,21.68M76,14.5C76,5,68.11.33,59.47,0.33c-7.2,0-15.31,3.94-15.31,12.2,0,5.31,3.18,9.4,8.72,9.4,3.33,0,6.9-2.2,7.28-5.68a5.87,5.87,0,0,1-4.24,2.2c-4,0-6.67-3.87-6.67-7.58,0-5.38,4.17-8.79,9.32-8.79,6.82,0,9.85,5.91,9.85,12,0,10.08-6.82,16.07-13.34,22.59-4.38,4.46-8.62,9.15-11.5,14.59H73.89l1.27-6.4H50.52c3.49-4.78,8.26-8.64,13-12.2C69.78,27.84,76,23.29,76,14.5M36.76,40.73a10.65,10.65,0,0,1-9.7,5.61A31.38,31.38,0,0,1,16.6,44.21,21,21,0,0,0,19,33.75,28.42,28.42,0,0,0,18,26.63H29.33V23.9h-12l-1.82-7.43a25.75,25.75,0,0,1-.83-6.37c0-4.55,2.8-8,7.5-8a6,6,0,0,1,4.93,2.27A9.35,9.35,0,0,1,28,7.15c0.38,1.89,1.14,3.79,3.49,3.79a3,3,0,0,0,2.88-3.18A6.62,6.62,0,0,0,32,3.28a14.77,14.77,0,0,0-9.55-3C14.17,0.33,8.56,5.63,8.56,14a37.44,37.44,0,0,0,1.74,9.93H2v2.73h9.1C12.35,30.49,14,34.89,14,39L13.64,43.3a15.13,15.13,0,0,0-7.43-2C2.65,41.33,0,43.68,0,47.25c0,3.11,2.73,5,5.68,5a11.16,11.16,0,0,0,9-5.08L16,47.93c3.56,2,7.35,4.32,11.6,4.32,6.06,0,9.47-6.06,9.17-11.52M13,45.88a7.55,7.55,0,0,1-6.9,4.32c-2.2,0-4.17-.61-4.17-3.11s2.2-3.71,4.47-3.71c2.5,0,4.47,1.44,6.59,2.5" transform="translate(0 -0.24)" fill="currentColor"/><path id="Fill-4" d="M160.57,26.39c0,11.9,4.7,23.72,18.49,23.72,13.49,0,17.59-12.66,17.59-24s-4.7-23.88-18-23.88c-13.11,0-18,12.89-18,24.1m-9.47,0c0-15.08,13.19-26.15,27.82-26.15,14.48,0,27.21,10.61,27.21,25.62,0,15.54-12.2,26.3-27.51,26.3-14.78,0-27.51-10.54-27.51-25.77" transform="translate(0 -0.24)" fill="currentColor"/><path id="Fill-6" d="M263,13h-1.74c-0.91-3.26-1.67-6.44-5.08-7.88-3.26-1.44-7.58-1.36-11.22-1.36-3,0-4.47-.15-5.38.38-0.45.3-.61,1.67-0.61,3.87V25c10.38,0.45,11.9-3.71,12.35-9.17H253c-0.08,3.41-.15,6.9-0.3,10.31,0.15,3.11.23,6.29,0.3,9.4h-1.74c-1.06-8-5.08-8.11-12.35-8.11V37c0,2.35,0,8,.76,10,1.14,3,4.85,2.43,7.5,2.58v1.74c-3.87-.08-7.81-0.23-11.67-0.3-3.87.08-7.66,0.23-11.67,0.3V49.58c2.43,0,5.53,0,6.52-2.58,0.76-2,.76-7.66.76-10.08V15.55c0-2.43,0-8-.76-10.08-1-2.58-4.09-2.58-6.52-2.58V1.15c4.62,0.08,9.1.23,13.57,0.3,8.11-.08,16.22-0.23,24.33-0.3Z" transform="translate(0 -0.24)" fill="currentColor"/><g mask="url(#mask)"><path id="Fill-8" d="M320,13h-1.74c-0.91-3.26-1.67-6.44-5.08-7.88-3.26-1.44-7.58-1.36-11.22-1.36-3,0-4.47-.15-5.38.38-0.45.3-.61,1.67-0.61,3.87V25c10.38,0.45,11.9-3.71,12.35-9.17H310c-0.08,3.41-.15,6.9-0.3,10.31,0.15,3.11.23,6.29,0.3,9.4h-1.74c-1.06-8-5.08-8.11-12.35-8.11V37c0,2.35,0,8,.76,10,1.14,3,4.85,2.43,7.5,2.58v1.74c-3.87-.08-7.81-0.23-11.67-0.3-3.87.08-7.66,0.23-11.67,0.3V49.58c2.43,0,5.53,0,6.52-2.58,0.76-2,.76-7.66.76-10.08V15.55c0-2.43,0-8-.76-10.08-1-2.58-4.09-2.58-6.52-2.58V1.15c4.62,0.08,9.1.23,13.57,0.3,8.11-.08,16.22-0.23,24.33-0.3Z" transform="translate(0 -0.24)" fill="currentColor"/></g></g><g id="hoodies"><g mask="url(#mask-2)"><path id="Fill-3" d="M126.53,83.87c0,3,1.19,6,4.69,6s4.46-3.21,4.46-6.08-1.19-6.06-4.57-6.06-4.57,3.27-4.57,6.12m-2.4,0a6.87,6.87,0,0,1,7.05-6.64,6.6,6.6,0,1,1-7.05,6.64" transform="translate(0 -0.24)" fill="currentColor"/></g><g mask="url(#mask-3)"><path id="Fill-6-2" data-name="Fill-6" d="M145.77,83.87c0,3,1.19,6,4.69,6s4.46-3.21,4.46-6.08-1.19-6.06-4.57-6.06-4.57,3.27-4.57,6.12m-2.4,0a6.87,6.87,0,0,1,7.05-6.64,6.6,6.6,0,1,1-7.05,6.64" transform="translate(0 -0.24)" fill="currentColor"/></g><path id="Fill-9" d="M165.68,86.82A4,4,0,0,0,166,89a2.55,2.55,0,0,0,2.15.73c3.36,0,4-2.42,4-5.27,0-3.81-1.1-6.43-5.21-6.43a2.55,2.55,0,0,0-1.15.13,1,1,0,0,0-.12.6v8.1Zm-2-5.66a12.25,12.25,0,0,0-.17-2.56c-0.21-.67-1-0.65-1.63-0.65V77.47l2.42,0.08,3.11-.08c4.06-.08,7.13,2.46,7.13,6.64s-2.67,6.2-6.63,6.1l-3.42-.08-2.61.08V89.76c0.62,0,1.42,0,1.63-.65a12.25,12.25,0,0,0,.17-2.56V81.16Z" transform="translate(0 -0.24)" fill="currentColor"/><path id="Fill-11" d="M181.15,81.12a11.07,11.07,0,0,0-.19-2.56,1.56,1.56,0,0,0-1.65-.65V77.47l2.77,0.08,2.9-.08v0.44a1.56,1.56,0,0,0-1.65.65,11.07,11.07,0,0,0-.19,2.56v5.43a11.07,11.07,0,0,0,.19,2.56,1.56,1.56,0,0,0,1.65.65V90.2l-2.77-.08-2.9.08V89.76a1.56,1.56,0,0,0,1.65-.65,11.07,11.07,0,0,0,.19-2.56V81.12Z" transform="translate(0 -0.24)" fill="currentColor"/><path id="Fill-13" d="M191.78,81.2a11.08,11.08,0,0,0-.19-2.56,1.56,1.56,0,0,0-1.65-.65V77.47h9.55v2.91H199c-0.37-2.25-1.36-2.39-3.4-2.39h-1.38a0.57,0.57,0,0,0-.48.08,3.08,3.08,0,0,0,0,.71v4.56c2.63,0.12,3-1,3.13-2.37h0.44c0,0.87,0,1.75-.08,2.62s0.06,1.6.08,2.39h-0.44c-0.27-2-1.29-2.12-3.13-2.12V87A3.67,3.67,0,0,0,194.1,89c0.5,0.67,1.69.71,2.46,0.69,2,0,3.31-.29,3.56-2.58h0.44l-0.17,3.1H189.93V89.72a1.56,1.56,0,0,0,1.65-.65,11.08,11.08,0,0,0,.19-2.56V81.2Z" transform="translate(0 -0.24)" fill="currentColor"/><path id="Fill-1-2" data-name="Fill-1" d="M108.82,86.55a11.07,11.07,0,0,0,.19,2.56,1.56,1.56,0,0,0,1.65.65V90.2l-2.79-.08L105,90.2V89.76a1.56,1.56,0,0,0,1.65-.65,11.07,11.07,0,0,0,.19-2.56V81.12a11.07,11.07,0,0,0-.19-2.56,1.56,1.56,0,0,0-1.65-.65V77.47l2.75,0.08,2.92-.08v0.44a1.56,1.56,0,0,0-1.65.65,11.07,11.07,0,0,0-.19,2.56v2.23h6.86V81.12a11.07,11.07,0,0,0-.19-2.56,1.56,1.56,0,0,0-1.65-.65V77.47l2.81,0.08,2.86-.08v0.44a1.56,1.56,0,0,0-1.65.65,11.07,11.07,0,0,0-.19,2.56v5.43a11.07,11.07,0,0,0,.19,2.56,1.56,1.56,0,0,0,1.65.65V90.2l-2.79-.08-2.88.08V89.76a1.56,1.56,0,0,0,1.65-.65,11.07,11.07,0,0,0,.19-2.56V84h-6.86v2.58Z" transform="translate(0 -0.24)" fill="currentColor"/><g mask="url(#mask-4-2)"><path id="Fill-15" d="M205.88,86.32h0.44c0.38,1.94,1.42,3.58,3.63,3.58a2.46,2.46,0,0,0,2.75-2.4c0-1.75-1.52-2.44-2.92-3-1.75-.67-3.61-1.6-3.61-3.79s1.71-3.46,3.81-3.46a5,5,0,0,1,2.9,1l0.44-.75h0.21l0.1,3.33h-0.44c-0.44-1.6-1.35-3-3.21-3a2.08,2.08,0,0,0-2.25,2c0,1.52,1.36,2,2.56,2.54,2,0.83,4.23,1.83,4.23,4.35s-2.35,3.73-4.59,3.73a5.32,5.32,0,0,1-3.36-1.15l-0.46.81h-0.21V86.32Z" transform="translate(0 -0.24)" fill="currentColor"/></g></g><rect id="divider" y="128.76" width="320" height="2" fill="#e33b45"/><g id="_10pound" data-name="10pound"><path id="Fill-1-3" data-name="Fill-1" d="M6.37,211c-2.27,0-4.47,1.21-4.47,3.71s2,3.11,4.17,3.11a7.55,7.55,0,0,0,6.9-4.32c-2.12-1.06-4.09-2.5-6.59-2.5h0Zm11-19.48h12v2.73H18A28.43,28.43,0,0,1,19,201.42a21,21,0,0,1-2.43,10.46A31.39,31.39,0,0,0,27.06,214a10.65,10.65,0,0,0,9.7-5.61c0.3,5.46-3.11,11.52-9.17,11.52-4.24,0-8-2.27-11.6-4.32l-1.29-.76a11.16,11.16,0,0,1-9,5.08c-3,0-5.68-1.89-5.68-5C0,211.35,2.65,209,6.22,209a15.13,15.13,0,0,1,7.43,2L14,206.65c0-4.09-1.67-8.49-2.88-12.35H2v-2.73h8.26a37.43,37.43,0,0,1-1.74-9.93c0-8.34,5.61-13.64,13.87-13.64A14.77,14.77,0,0,1,32,171a6.62,6.62,0,0,1,2.43,4.47,3,3,0,0,1-2.88,3.18c-2.35,0-3.11-1.89-3.49-3.79a9.35,9.35,0,0,0-.91-2.8,6,6,0,0,0-4.93-2.27c-4.7,0-7.5,3.49-7.5,8a25.74,25.74,0,0,0,.83,6.37Z" transform="translate(0 -0.24)" fill="currentColor"/><g mask="url(#mask-5)"><path id="Fill-3-2" data-name="Fill-3" d="M61.85,207.71a34,34,0,0,0,.53,7.35c0.68,2.5,5.08,2.12,7.2,2.27v1.74c-3.79-.08-7.58-0.23-11.37-0.3-3.87.08-7.73,0.23-11.6,0.3v-1.74c2-.08,6.9.15,7.81-1.82,0.68-1.52.68-6.06,0.68-7.81v-27c0-1.67,0-5.31-.83-6.75s-3.11-1.36-4.78-1.36H45.1V171.1c6.29-.38,11.14-0.76,16.75-3.87v40.48Z" transform="translate(0 -0.24)" fill="currentColor"/></g><path id="Fill-6-3" data-name="Fill-6" d="M105,191.42c0-5.84-.15-21.68-8.64-21.68-6.06,0-7.88,6.37-8.72,11.14L86.48,196c0,6.06-.23,22.21,8.64,22.21,6.37,0,8-6.82,8.79-11.9Zm7.58,2c0,9.85-4.85,26.45-17.43,26.45-11.29,0-16.22-16.6-16.22-25.32,0-9.4,5-26.6,17.13-26.6,11.82,0,16.52,16,16.52,25.47h0Z" transform="translate(0 -0.24)" fill="currentColor"/><path id="Fill-8-2" data-name="Fill-8" d="M160.57,194.06c0,11.9,4.7,23.72,18.49,23.72,13.49,0,17.59-12.66,17.59-24s-4.7-23.88-18-23.88c-13.11,0-18,12.89-18,24.1m-9.47,0c0-15.08,13.19-26.15,27.82-26.15,14.48,0,27.21,10.61,27.21,25.62,0,15.54-12.2,26.3-27.51,26.3-14.78,0-27.51-10.54-27.51-25.77" transform="translate(0 -0.24)" fill="currentColor"/><path id="Fill-10" d="M263,180.72h-1.74c-0.91-3.26-1.67-6.44-5.08-7.88-3.26-1.44-7.58-1.36-11.22-1.36-3,0-4.47-.15-5.38.38-0.45.3-.61,1.67-0.61,3.87v17c10.38,0.45,11.9-3.71,12.35-9.17H253c-0.08,3.41-.15,6.9-0.3,10.31,0.15,3.11.23,6.29,0.3,9.4h-1.74c-1.06-8-5.08-8.11-12.35-8.11v9.55c0,2.35,0,8,.76,10,1.14,3,4.85,2.43,7.5,2.58V219c-3.87-.08-7.81-0.23-11.67-0.3-3.87.08-7.66,0.23-11.67,0.3v-1.74c2.43,0,5.53,0,6.52-2.58,0.76-2,.76-7.66.76-10.08V183.22c0-2.43,0-8-.76-10.08-1-2.58-4.09-2.58-6.52-2.58v-1.74c4.62,0.08,9.1.23,13.57,0.3,8.11-.08,16.22-0.23,24.33-0.3Z" transform="translate(0 -0.24)" fill="currentColor"/><path id="Fill-12" d="M320,180.72h-1.74c-0.91-3.26-1.67-6.44-5.08-7.88-3.26-1.44-7.58-1.36-11.22-1.36-3,0-4.47-.15-5.38.38-0.45.3-.61,1.67-0.61,3.87v17c10.38,0.45,11.9-3.71,12.35-9.17H310c-0.08,3.41-.15,6.9-0.3,10.31,0.15,3.11.23,6.29,0.3,9.4h-1.74c-1.06-8-5.08-8.11-12.35-8.11v9.55c0,2.35,0,8,.76,10,1.14,3,4.85,2.43,7.5,2.58V219c-3.87-.08-7.81-0.23-11.67-0.3-3.87.08-7.66,0.23-11.67,0.3v-1.74c2.43,0,5.53,0,6.52-2.58,0.76-2,.76-7.66.76-10.08V183.22c0-2.43,0-8-.76-10.08-1-2.58-4.09-2.58-6.52-2.58v-1.74c4.62,0.08,9.1.23,13.57,0.3,8.11-.08,16.22-0.23,24.33-0.3Z" transform="translate(0 -0.24)" fill="currentColor"/></g><g id="sweatshirts"><path d="M4.47,250.49c-1.21-.51-2.6-1-2.6-2.58a2.11,2.11,0,0,1,2.28-2.07c1.89,0,2.81,1.46,3.26,3.08H7.87l-0.1-3.38H7.56l-0.45.76a5.06,5.06,0,0,0-2.95-1c-2.13,0-3.87,1.29-3.87,3.51S2.19,252,4,252.68c1.43,0.57,3,1.27,3,3a2.5,2.5,0,0,1-2.79,2.44c-2.25,0-3.3-1.66-3.69-3.63H0v3.81H0.21l0.47-.82a5.41,5.41,0,0,0,3.42,1.17c2.28,0,4.67-1.23,4.67-3.79S6.5,251.33,4.47,250.49Z" transform="translate(0 -0.24)" fill="currentColor"/><path d="M27.06,245.55V246c1,0.1,1.68.1,1.68,1.31a29.32,29.32,0,0,1-1,4.32l-1.33,4.26h0l-3.2-10.33H22.51L19.45,256h0l-2.05-6.7a16.27,16.27,0,0,1-.59-2.38c0-.9,1.13-0.9,1.76-1v-0.45l-2.89.08-2.81-.08V246a1.69,1.69,0,0,1,1.41.51,7.51,7.51,0,0,1,.72,1.82l3.42,10.5H19c0.53-1.56,1.07-3.1,1.6-4.67l1.54-5.31h0l3,10h0.68l3.22-10.25c0.31-1.09.59-2.62,2-2.58v-0.45l-2,.08Z" transform="translate(0 -0.24)" fill="currentColor"/><path d="M42.54,257.91c-0.78,0-2,0-2.5-.7a3.72,3.72,0,0,1-.35-2V252c1.87,0,2.91.1,3.18,2.15h0.45c0-.8,0-1.62-0.08-2.42s0.06-1.78.08-2.66H42.87c-0.12,1.41-.51,2.52-3.18,2.4v-4.63a3.13,3.13,0,0,1,0-.72,0.58,0.58,0,0,1,.49-0.08H41.6c2.07,0,3.08.14,3.46,2.42h0.45v-2.95h-9.7v0.53a1.58,1.58,0,0,1,1.68.66,11.22,11.22,0,0,1,.2,2.6v5.39a11.22,11.22,0,0,1-.2,2.6,1.58,1.58,0,0,1-1.68.66v0.45H46.43l0.18-3.14H46.15C45.9,257.62,44.57,257.87,42.54,257.91Z" transform="translate(0 -0.24)" fill="currentColor"/><path d="M62.32,255.16l-3.94-9.92H57.71l-3,7.67-1.62,3.73A1.89,1.89,0,0,1,51.23,258v0.45l2-.08,2.15,0.08V258c-0.59-.06-1.58,0-1.58-0.84a11.24,11.24,0,0,1,.94-2.95l0.18-.49h4.82l0.76,2a4.62,4.62,0,0,1,.39,1.52c0,0.76-1,.72-1.5.74v0.45l2.83-.08L65,258.48V258a2.16,2.16,0,0,1-1.68-.72A14.4,14.4,0,0,1,62.32,255.16Zm-7.13-2,2.17-5.51,2.15,5.51H55.19Z" transform="translate(0 -0.24)" fill="currentColor"/><path d="M67.94,245.55v3h0.45c0.08-2.32,1-2.42,2.95-2.42,0.78,0,1.64-.06,1.64.53V256c0,1.44-.27,2-2.17,2.07v0.45l3.1-.08,3.24,0.08V258C75.26,257.95,75,257.4,75,256V246.7c0-.62,1.17-0.53,1.89-0.53,1.84,0,2.58.51,2.69,2.42h0.53l-0.18-3h-12Z" transform="translate(0 -0.24)" fill="currentColor"/><path d="M89.5,250.49c-1.21-.51-2.6-1-2.6-2.58a2.11,2.11,0,0,1,2.28-2.07c1.89,0,2.81,1.46,3.26,3.08h0.45l-0.1-3.38H92.58l-0.45.76a5.06,5.06,0,0,0-2.95-1c-2.13,0-3.87,1.29-3.87,3.51S87.21,252,89,252.68c1.43,0.57,3,1.27,3,3a2.5,2.5,0,0,1-2.79,2.44c-2.25,0-3.3-1.66-3.69-3.63H85v3.81h0.21l0.47-.82a5.41,5.41,0,0,0,3.42,1.17c2.28,0,4.67-1.23,4.67-3.79S91.53,251.33,89.5,250.49Z" transform="translate(0 -0.24)" fill="currentColor"/><path d="M107.32,245.55V246a1.58,1.58,0,0,1,1.68.66,11.23,11.23,0,0,1,.2,2.6v2.26h-7v-2.26a11.22,11.22,0,0,1,.2-2.6,1.58,1.58,0,0,1,1.68-.66v-0.45l-3,.08-2.79-.08V246a1.58,1.58,0,0,1,1.68.66,11.22,11.22,0,0,1,.2,2.6v5.51a11.22,11.22,0,0,1-.2,2.6,1.58,1.58,0,0,1-1.68.66v0.45l2.93-.08,2.83,0.08V258a1.58,1.58,0,0,1-1.68-.66,11.22,11.22,0,0,1-.2-2.6v-2.62h7v2.62a11.23,11.23,0,0,1-.2,2.6,1.58,1.58,0,0,1-1.68.66v0.45l2.93-.08,2.83,0.08V258a1.58,1.58,0,0,1-1.68-.66,11.22,11.22,0,0,1-.2-2.6v-5.51a11.22,11.22,0,0,1,.2-2.6,1.58,1.58,0,0,1,1.68-.66v-0.45l-2.91.08Z" transform="translate(0 -0.24)" fill="currentColor"/><path d="M118.2,245.55V246a1.58,1.58,0,0,1,1.68.66,11.22,11.22,0,0,1,.2,2.6v5.51a11.22,11.22,0,0,1-.2,2.6,1.58,1.58,0,0,1-1.68.66v0.45l2.95-.08,2.81,0.08V258a1.58,1.58,0,0,1-1.68-.66,11.22,11.22,0,0,1-.2-2.6v-5.51a11.22,11.22,0,0,1,.2-2.6A1.58,1.58,0,0,1,124,246v-0.45l-2.95.08Z" transform="translate(0 -0.24)" fill="currentColor"/><path d="M139.91,256.87l-4.14-4.74c1.93-.18,3.53-1.25,3.53-3.36,0-2.71-2.25-3.22-4.47-3.22l-2.48.08-3.36-.08V246c0.62,0,1.44,0,1.66.66a12.45,12.45,0,0,1,.18,2.6v5.51a12.44,12.44,0,0,1-.18,2.6c-0.21.66-1,.66-1.66,0.66v0.45l2.93-.08,2.75,0.08V258c-0.62,0-1.43,0-1.66-.66a12.44,12.44,0,0,1-.18-2.6v-2.3c1,0,1,.12,1.6.86l3.24,4,0.92,1.13,1.46-.08,1.76,0.08V258A2.59,2.59,0,0,1,139.91,256.87Zm-7.07-4.94v-5.1a0.71,0.71,0,0,1,.21-0.7,6.81,6.81,0,0,1,1.27,0,2.64,2.64,0,0,1,2.73,2.93C137.06,251.88,135.28,251.93,132.84,251.93Z" transform="translate(0 -0.24)" fill="currentColor"/><path d="M144.92,245.55v3h0.45c0.08-2.32,1-2.42,2.95-2.42,0.78,0,1.64-.06,1.64.53V256c0,1.44-.27,2-2.17,2.07v0.45l3.1-.08,3.24,0.08V258c-1.89-.08-2.17-0.62-2.17-2.07V246.7c0-.62,1.17-0.53,1.89-0.53,1.84,0,2.58.51,2.69,2.42h0.53l-0.18-3h-12Z" transform="translate(0 -0.24)" fill="currentColor"/><path d="M166.48,250.49c-1.21-.51-2.6-1-2.6-2.58a2.11,2.11,0,0,1,2.28-2.07c1.89,0,2.81,1.46,3.26,3.08h0.45l-0.1-3.38h-0.22l-0.45.76a5.06,5.06,0,0,0-2.95-1c-2.13,0-3.87,1.29-3.87,3.51s1.89,3.16,3.67,3.85c1.43,0.57,3,1.27,3,3a2.5,2.5,0,0,1-2.79,2.44c-2.25,0-3.3-1.66-3.69-3.63H162v3.81h0.21l0.47-.82a5.41,5.41,0,0,0,3.42,1.17c2.28,0,4.67-1.23,4.67-3.79S168.51,251.33,166.48,250.49Z" transform="translate(0 -0.24)" fill="currentColor"/><path d="M196.33,257.6c-1.09,0-2.44-1.5-3.18-2.25l0.18-.27,1-1.78c0.19-.39.92-1.76,1.46-1.76,0.27,0,.2.41,0.2,0.59a0.86,0.86,0,0,0,.88.94,1.07,1.07,0,0,0,1-1.07,1.37,1.37,0,0,0-1.41-1.31c-1.42,0-2.15,1.46-2.73,2.56l-1,1.7L190,251.62c1.23-.84,2.62-2.17,2.62-3.75a2.48,2.48,0,0,0-2.66-2.56,3.09,3.09,0,0,0-3,3.22,6.57,6.57,0,0,0,1.37,3.75c-1.54.9-3.22,2-3.22,4a2.64,2.64,0,0,0,2.83,2.38,5.35,5.35,0,0,0,4-1.89c1,0.94,1.93,1.84,3.4,1.84a3.64,3.64,0,0,0,2.95-1.68l-0.33-.31A2.18,2.18,0,0,1,196.33,257.6Zm-8.26-9.92a1.64,1.64,0,0,1,1.64-1.84c1.21,0,1.62,1.21,1.62,2.21a3.8,3.8,0,0,1-1.68,3.16A6.5,6.5,0,0,1,188.07,247.68ZM189,257.79a2.25,2.25,0,0,1-2.19-2.38c0-1.33.84-1.91,1.72-2.71l2.93,3.63,0.1,0.1A3.76,3.76,0,0,1,189,257.79Z" transform="translate(0 -0.24)" fill="currentColor"/><path d="M211.89,245.55V246a1.59,1.59,0,0,1,1.68.66,3.32,3.32,0,0,1,.2,1.15v12.42a6.51,6.51,0,0,1-.12,1.27,1.8,1.8,0,0,1-2,1.64,1.22,1.22,0,0,1-1.31-.94,1.12,1.12,0,0,0-1-.82,0.76,0.76,0,0,0-.8.76c0,1.29,2.17,1.43,3.07,1.43a3.78,3.78,0,0,0,3.46-1.54,5.28,5.28,0,0,0,.66-2.75V248.83a7.13,7.13,0,0,1,.2-2.17,1.64,1.64,0,0,1,1.68-.66v-0.45l-2.95.08Z" transform="translate(0 -0.24)" fill="currentColor"/><path d="M229.28,245.32a7,7,0,0,0-7.17,6.74c0,3.92,3.28,6.64,7.09,6.64A6.7,6.7,0,1,0,229.28,245.32Zm0,12.85c-3.55,0-4.76-3-4.76-6.11,0-2.89,1.27-6.21,4.65-6.21s4.65,3.22,4.65,6.15S232.8,258.16,229.32,258.16Z" transform="translate(0 -0.24)" fill="currentColor"/><path d="M250.19,253.58c1.19,0.1,1.68.35,1.68,1.66,0,2-1.31,2.93-3.26,2.93-3.32,0-4.45-2.87-4.45-5.8,0-3.08.82-6.6,4.63-6.6a3.72,3.72,0,0,1,3.83,3.77H253l0.21-3.87H253l-0.41.88a6.95,6.95,0,0,0-10.89,5.78c0,3.87,2.75,6.36,6.56,6.36a6.46,6.46,0,0,0,3.07-.74,4.07,4.07,0,0,1,2.75-.82v-2.07c0-1,.16-1.5,1.21-1.48v-0.45h-5.12v0.45Z" transform="translate(0 -0.24)" fill="currentColor"/><path d="M268.7,253.58c1.19,0.1,1.68.35,1.68,1.66,0,2-1.31,2.93-3.26,2.93-3.32,0-4.45-2.87-4.45-5.8,0-3.08.82-6.6,4.63-6.6a3.72,3.72,0,0,1,3.83,3.77h0.41l0.21-3.87h-0.21l-0.41.88a6.95,6.95,0,0,0-10.89,5.78c0,3.87,2.75,6.36,6.56,6.36a6.46,6.46,0,0,0,3.07-.74,4.07,4.07,0,0,1,2.75-.82v-2.07c0-1,.16-1.5,1.21-1.48v-0.45H268.7v0.45Z" transform="translate(0 -0.24)" fill="currentColor"/><path d="M284.5,257.91c-0.78,0-2,0-2.5-.7a3.72,3.72,0,0,1-.35-2V252c1.87,0,2.91.1,3.18,2.15h0.45c0-.8,0-1.62-0.08-2.42s0.06-1.78.08-2.66h-0.45c-0.12,1.41-.51,2.52-3.18,2.4v-4.63a3.12,3.12,0,0,1,0-.72,0.58,0.58,0,0,1,.49-0.08h1.41c2.07,0,3.08.14,3.46,2.42h0.45v-2.95h-9.7v0.53a1.58,1.58,0,0,1,1.68.66,11.22,11.22,0,0,1,.2,2.6v5.39a11.22,11.22,0,0,1-.2,2.6,1.58,1.58,0,0,1-1.68.66v0.45h10.62l0.18-3.14h-0.45C287.86,257.62,286.53,257.87,284.5,257.91Z" transform="translate(0 -0.24)" fill="currentColor"/><path d="M304.53,256.87l-4.14-4.74c1.93-.18,3.53-1.25,3.53-3.36,0-2.71-2.25-3.22-4.47-3.22l-2.48.08-3.36-.08V246c0.62,0,1.44,0,1.66.66a12.43,12.43,0,0,1,.18,2.6v5.51a12.43,12.43,0,0,1-.18,2.6c-0.21.66-1,.66-1.66,0.66v0.45l2.93-.08,2.75,0.08V258c-0.62,0-1.43,0-1.66-.66a12.44,12.44,0,0,1-.18-2.6v-2.3c1,0,1,.12,1.6.86l3.24,4,0.92,1.13,1.46-.08,1.76,0.08V258A2.58,2.58,0,0,1,304.53,256.87Zm-7.07-4.94v-5.1a0.71,0.71,0,0,1,.21-0.7,6.81,6.81,0,0,1,1.27,0,2.64,2.64,0,0,1,2.73,2.93C301.68,251.88,299.9,251.93,297.46,251.93Z" transform="translate(0 -0.24)" fill="currentColor"/><path d="M315.64,250.49c-1.21-.51-2.6-1-2.6-2.58a2.11,2.11,0,0,1,2.28-2.07c1.89,0,2.81,1.46,3.26,3.08H319l-0.1-3.38h-0.21l-0.45.76a5.05,5.05,0,0,0-2.95-1c-2.13,0-3.87,1.29-3.87,3.51s1.89,3.16,3.67,3.85c1.43,0.57,3,1.27,3,3a2.5,2.5,0,0,1-2.79,2.44c-2.25,0-3.3-1.66-3.69-3.63h-0.45v3.81h0.21l0.47-.82a5.41,5.41,0,0,0,3.42,1.17c2.28,0,4.67-1.23,4.67-3.79S317.67,251.33,315.64,250.49Z" transform="translate(0 -0.24)" fill="currentColor"/></g></svg>
