<svg id="snowFlake" xmlns="http://www.w3.org/2000/svg" width="41.89" height="42.23" viewBox="0 0 41.89 42.23"><title>snow</title><path d="M40.9,31L32,30.85l-6.4-6.45a6.47,6.47,0,0,0,1.09-2.29h3.44l4.75,4.68a1,1,0,1,0,1.4-1.43L33,22.11h4.92a1,1,0,0,0,0-2H33l3.31-3.25a1,1,0,1,0-1.4-1.43l-4.75,4.68H26.88a6.47,6.47,0,0,0-.8-2.76l5.93-6,8.89-.11a1,1,0,1,0,0-2L34,9.35l3-3a1,1,0,0,0-1.42-1.41l-3,3L32.7,1a1,1,0,0,0-1-1h0a1,1,0,0,0-1,1l-0.11,9-5.76,5.8a6.41,6.41,0,0,0-2.72-1.51V11.83L26.76,7a1,1,0,1,0-1.44-1.39L22.11,9V4a1,1,0,1,0-2,0V9L16.91,5.64A1,1,0,0,0,15.47,7l4.64,4.8v2.22a6.36,6.36,0,0,0-3.49,1.28L11.3,10,11.19,1a1,1,0,0,0-1-1h0a1,1,0,0,0-1,1L9.27,7.92l-3-3A1,1,0,0,0,4.88,6.34l3,3L1,9.27H1a1,1,0,0,0,0,2l8.89,0.11,5.35,5.39a6.46,6.46,0,0,0-1.17,3.34H11.75L7,15.43a1,1,0,0,0-1.4,1.42L8.9,20.11H4a1,1,0,1,0,0,2H8.9L5.59,25.37A1,1,0,0,0,7,26.79l4.75-4.68h2.49a6.48,6.48,0,0,0,1.52,2.81L9.88,30.85,1,31a1,1,0,0,0,0,2H1l6.86-.08-3,3A1,1,0,1,0,6.3,37.3l3-3L9.19,41.22a1,1,0,0,0,1,1h0a1,1,0,0,0,1-1l0.11-9,6-6.09a6.35,6.35,0,0,0,2.78.81V30.4l-4.64,4.8a1,1,0,0,0,1.44,1.39l3.21-3.31v5a1,1,0,1,0,2,0v-5l3.21,3.31a1,1,0,1,0,1.44-1.39l-4.64-4.8V26.77a6.38,6.38,0,0,0,2.07-1l6.41,6.46,0.11,9a1,1,0,0,0,1,1h0a1,1,0,0,0,1-1L32.62,34.3l3,3A1,1,0,0,0,37,35.89l-3-3L40.88,33h0A1,1,0,0,0,40.9,31ZM20.47,16a4.47,4.47,0,0,1,3.39,7.33,1,1,0,0,0-.27-0.57L21.79,21l1.8-1.77a1,1,0,1,0-1.4-1.42l-1.82,1.79-1.82-1.79a1,1,0,1,0-1.4,1.42L18.94,21l-1.8,1.77a1,1,0,0,0-.23.37A4.47,4.47,0,0,1,20.47,16Zm0,9a4.35,4.35,0,0,1-2.18-.6,1,1,0,0,0,.26-0.17l1.82-1.79,1.82,1.79a1,1,0,0,0,.37.22A4.34,4.34,0,0,1,20.47,25Z" transform="translate(0)" fill="#e33b45"/></svg>